<svg width="103" height="100" viewBox="0 0 103 100" fill="none" xmlns="http://www.w3.org/2000/svg">
<g clip-path="url(#clip0_3690_14138)">
<path d="M46.5687 54.6065C46.5687 55.437 45.8957 56.1118 45.0673 56.1118C44.2389 56.1118 43.5659 55.437 43.5659 54.6065V52.5692V46.0031V25.4223C43.5659 24.1246 43.0352 22.9308 42.1681 22.0744C41.3138 21.2179 40.1231 20.6729 38.8288 20.6729C37.5344 20.6729 36.3437 21.2049 35.4894 22.0744C34.6352 22.9308 34.0916 24.1246 34.0916 25.4223V55.0996V63.3527C34.0916 64.1832 33.4186 64.858 32.5902 64.858C31.7618 64.858 31.0888 64.1832 31.0888 63.3527V56.6049H30.7393C29.4062 56.6049 28.1896 57.1499 27.3094 58.0453C26.4293 58.9277 25.8728 60.1475 25.8728 61.4841V77.3674C25.8728 82.7656 28.0731 87.6578 31.6324 91.2133C35.1918 94.7689 40.0972 96.9749 45.4944 96.9749H61.3885C66.7857 96.9749 71.6912 94.7689 75.2505 91.2133C78.8098 87.6578 81.0102 82.7656 81.0102 77.3674V54.4249C81.0102 53.1272 80.4795 51.9334 79.6123 51.0769C78.7581 50.2205 77.5673 49.6754 76.273 49.6754C74.9787 49.6754 73.7879 50.2075 72.9337 51.0769C72.0794 51.9334 71.5358 53.1272 71.5358 54.4249V58.24V60.5498C71.5358 61.3803 70.8628 62.0551 70.0344 62.0551C69.2061 62.0551 68.5331 61.3803 68.5331 60.5498V58.24V54.4249V49.9869C68.5331 48.6892 68.0024 47.4954 67.1352 46.6389C66.281 45.7825 65.0902 45.2375 63.7959 45.2375C62.5016 45.2375 61.3108 45.7695 60.4566 46.6389C59.6023 47.4954 59.0587 48.6892 59.0587 49.9869V55.2683V57.3056C59.0587 58.1361 58.3857 58.8109 57.5573 58.8109C56.729 58.8109 56.056 58.1361 56.056 57.3056V55.2683V49.9869V45.9901C56.056 44.6925 55.5253 43.4986 54.6581 42.6422C53.8039 41.7857 52.6131 41.2407 51.3188 41.2407C50.0245 41.2407 48.8337 41.7727 47.9795 42.6422C47.1252 43.4986 46.5816 44.6925 46.5816 45.9901V52.5562V54.5936L46.5687 54.6065ZM22.0028 20.2706C22.0028 21.1011 21.3297 21.7759 20.5014 21.7759C19.673 21.7759 19 21.1011 19 20.2706C19 14.6647 21.265 9.6039 24.915 5.93154C28.5779 2.25918 33.6256 -0.0117188 39.217 -0.0117188C44.7955 -0.0117188 49.8562 2.25918 53.5191 5.93154C57.182 9.6039 59.447 14.6647 59.447 20.2706C59.447 21.1011 58.774 21.7759 57.9456 21.7759C57.1173 21.7759 56.4442 21.1011 56.4442 20.2706C56.4442 15.5082 54.5157 11.187 51.4094 8.07266C48.2901 4.94532 43.993 3.02479 39.2429 3.02479C34.4928 3.02479 30.1828 4.9583 27.0765 8.07266C23.9572 11.2 22.0287 15.5082 22.0287 20.2706H22.0028ZM31.0759 31.2877C29.445 30.0679 28.099 28.5107 27.1412 26.694C26.1316 24.7735 25.5492 22.5934 25.5492 20.2706C25.5492 16.4815 27.0765 13.0557 29.5486 10.5771C32.0207 8.09862 35.4377 6.56739 39.217 6.56739C42.9964 6.56739 46.4134 8.09862 48.8855 10.5771C51.3576 13.0557 52.8849 16.4815 52.8849 20.2706C52.8849 22.7881 52.1989 25.1498 51.0082 27.2001C49.908 29.0817 48.3807 30.6648 46.5558 31.8327V39.8652C47.863 38.84 49.5068 38.2431 51.2929 38.2431C53.4285 38.2431 55.357 39.1125 56.7678 40.527C57.7256 41.4872 58.4375 42.707 58.7999 44.0696C60.146 42.9276 61.8933 42.2399 63.783 42.2399C65.9186 42.2399 67.8471 43.1093 69.2579 44.5238C70.3063 45.5749 71.0569 46.9244 71.3676 48.4427C72.7007 47.3397 74.4092 46.6908 76.2601 46.6908C78.3957 46.6908 80.3242 47.5603 81.735 48.9747C83.1328 50.3762 84.0129 52.3227 84.0129 54.4638V77.4063C84.0129 83.6221 81.4632 89.2798 77.3602 93.3804C73.2573 97.481 67.6012 100.024 61.3755 100.024H45.4815C39.2559 100.024 33.5998 97.481 29.4968 93.3804C25.3939 89.2798 22.8441 83.6221 22.8441 77.4063V61.523C22.8441 59.3559 23.7242 57.3705 25.1609 55.9431C26.5846 54.5157 28.552 53.6203 30.7264 53.6203H31.0759V31.3136V31.2877ZM46.5687 28.0306C47.2935 27.3428 47.9277 26.5513 48.4325 25.6818C49.3515 24.0987 49.8821 22.256 49.8821 20.2836C49.8821 17.3379 48.6914 14.6647 46.7628 12.7183C44.8343 10.7848 42.1681 9.59092 39.217 9.59092C36.279 9.59092 33.6127 10.7848 31.6712 12.7183C29.7427 14.6518 28.552 17.3249 28.552 20.2836C28.552 22.1003 29.005 23.8002 29.7945 25.2925C30.1569 25.9673 30.584 26.6032 31.0759 27.1871V25.4223C31.0759 23.2812 31.943 21.3477 33.3538 19.9332C34.7517 18.5318 36.6931 17.6494 38.8288 17.6494C40.9644 17.6494 42.8929 18.5188 44.3037 19.9332C45.7015 21.3347 46.5816 23.2812 46.5816 25.4223V28.0306H46.5687Z" fill="white"/>
</g>
<defs>
<clipPath id="clip0_3690_14138">
<rect width="103" height="100" fill="white"/>
</clipPath>
</defs>
</svg>
