<svg width="80" height="80" viewBox="0 0 80 80" fill="none" xmlns="http://www.w3.org/2000/svg">
<g clip-path="url(#clip0_5603_4319)">
<path d="M55.2167 56.1764C55.2167 55.0632 56.1188 54.1554 57.2251 54.1554C58.3315 54.1554 59.2336 55.0632 59.2336 56.1764V71.5907C59.2336 73.9028 58.2975 75.9923 56.7826 77.5166C55.2677 79.0409 53.1912 79.9829 50.8933 79.9829H8.35766C6.05981 79.9829 3.98324 79.0409 2.46837 77.5166C0.953493 75.9923 0.017334 73.9028 0.017334 71.5907V8.39221C0.017334 6.08007 0.953493 3.99058 2.46837 2.46628C3.98324 0.941983 6.05981 0 8.35766 0H50.8933C53.1912 0 55.2677 0.941983 56.7826 2.46628C58.2975 3.99058 59.2336 6.08007 59.2336 8.39221V23.8065C59.2336 24.9197 58.3315 25.8274 57.2251 25.8274C56.1188 25.8274 55.2167 24.9197 55.2167 23.8065V8.39221C55.2167 7.19332 54.723 6.0972 53.9401 5.30936C53.1571 4.52152 52.0678 4.02483 50.8763 4.02483H8.34064C7.14916 4.02483 6.05981 4.52152 5.27684 5.30936C4.49388 6.0972 4.00026 7.19332 4.00026 8.39221V71.5907C4.00026 72.7896 4.49388 73.8857 5.27684 74.6735C6.05981 75.4614 7.14916 75.958 8.34064 75.958H50.8763C52.0678 75.958 53.1571 75.4614 53.9401 74.6735C54.723 73.8857 55.2167 72.7896 55.2167 71.5907V56.1764ZM40.0168 60.0642H48.7657C49.872 60.0642 50.7742 60.972 50.7742 62.0852V69.6211C50.7742 70.7343 49.872 71.6421 48.7657 71.6421H40.0168C38.9105 71.6421 38.0084 70.7343 38.0084 69.6211V62.0852C38.0084 60.972 38.9105 60.0642 40.0168 60.0642ZM46.7572 64.0891H42.0253V67.6001H46.7572V64.0891ZM11.081 57.067H19.8299C20.9362 57.067 21.8383 57.9747 21.8383 59.088V69.6211C21.8383 70.7343 20.9362 71.6421 19.8299 71.6421H11.081C9.97466 71.6421 9.07254 70.7343 9.07254 69.6211V59.088C9.07254 57.9747 9.97466 57.067 11.081 57.067ZM17.8214 61.0918H13.0895V67.583H17.8214V61.0918ZM25.5489 48.5207H34.2978C35.4041 48.5207 36.3063 49.4284 36.3063 50.5416V69.6039C36.3063 70.7172 35.4041 71.6249 34.2978 71.6249H25.5489C24.4426 71.6249 23.5404 70.7172 23.5404 69.6039V50.5416C23.5404 49.4284 24.4426 48.5207 25.5489 48.5207ZM32.2893 52.5455H27.5574V67.583H32.2893V52.5455ZM11.047 30.5031C9.94062 30.5031 9.0385 29.5954 9.0385 28.4821C9.0385 27.3689 9.94062 26.4611 11.047 26.4611H12.2044C13.3108 26.4611 14.2129 27.3689 14.2129 28.4821C14.2129 29.5954 13.3108 30.5031 12.2044 30.5031H11.047ZM11.047 22.6761C9.94062 22.6761 9.0385 21.7684 9.0385 20.6551C9.0385 19.5419 9.94062 18.6341 11.047 18.6341H12.2044C13.3108 18.6341 14.2129 19.5419 14.2129 20.6551C14.2129 21.7684 13.3108 22.6761 12.2044 22.6761H11.047ZM11.047 14.8662C9.94062 14.8662 9.0385 13.9585 9.0385 12.8452C9.0385 11.732 9.94062 10.8242 11.047 10.8242H12.2044C13.3108 10.8242 14.2129 11.732 14.2129 12.8452C14.2129 13.9585 13.3108 14.8662 12.2044 14.8662H11.047ZM18.7065 38.3301C17.6001 38.3301 16.698 37.4224 16.698 36.3091C16.698 35.1959 17.6001 34.2882 18.7065 34.2882H35.0467C36.1531 34.2882 37.0552 35.1959 37.0552 36.3091C37.0552 37.4224 36.1531 38.3301 35.0467 38.3301H18.7065ZM18.7065 30.5031C17.6001 30.5031 16.698 29.5954 16.698 28.4821C16.698 27.3689 17.6001 26.4611 18.7065 26.4611H35.0467C36.1531 26.4611 37.0552 27.3689 37.0552 28.4821C37.0552 29.5954 36.1531 30.5031 35.0467 30.5031H18.7065ZM18.7065 22.6761C17.6001 22.6761 16.698 21.7684 16.698 20.6551C16.698 19.5419 17.6001 18.6341 18.7065 18.6341H40.3402C41.4466 18.6341 42.3487 19.5419 42.3487 20.6551C42.3487 21.7684 41.4466 22.6761 40.3402 22.6761H18.7065ZM18.7065 14.8662C17.6001 14.8662 16.698 13.9585 16.698 12.8452C16.698 11.732 17.6001 10.8242 18.7065 10.8242H40.3402C41.4466 10.8242 42.3487 11.732 42.3487 12.8452C42.3487 13.9585 41.4466 14.8662 40.3402 14.8662H18.7065Z" fill="#06D7F9"/>
<path d="M48.868 31.4792C47.7616 31.4792 46.8595 30.5715 46.8595 29.4582C46.8595 28.345 47.7616 27.4373 48.868 27.4373H62.4848V24.6113C62.4848 23.4981 63.387 22.5903 64.4933 22.5903C65.1571 22.5903 65.7359 22.9157 66.1103 23.4124L79.4889 38.6554C80.1697 39.4261 80.1527 40.5736 79.4889 41.3272L65.9912 56.6901C65.2593 57.5293 63.9997 57.5978 63.1657 56.8614C62.7231 56.4674 62.4848 55.9194 62.4848 55.3542V52.5282H52.902C51.7956 52.5282 50.8935 51.6205 50.8935 50.5073C50.8935 49.394 51.7956 48.4863 52.902 48.4863H64.4933C65.4635 48.4863 66.2635 49.1714 66.4507 50.0791L75.3357 39.9742L66.4507 29.8693C66.2635 30.777 65.4465 31.4621 64.4933 31.4621H48.868V31.4792Z" fill="white"/>
</g>
<defs>
<clipPath id="clip0_5603_4319">
<rect width="80" height="80" fill="white"/>
</clipPath>
</defs>
</svg>
