<svg width="158" height="122" viewBox="0 0 158 122" fill="none" xmlns="http://www.w3.org/2000/svg">
<g clip-path="url(#clip0_3690_14024)">
<path d="M82.7164 107.48H79.5112C78.6234 107.48 77.9011 106.757 77.9011 105.869C77.9011 104.98 78.6234 104.257 79.5112 104.257H82.7164C85.3648 104.257 87.5015 101.922 87.5015 99.0606V89.2705C87.5015 88.5626 87.968 87.93 88.6451 87.7342L93.1143 86.3636C93.5657 86.228 93.8215 85.6707 93.6861 85.1436L88.6301 66.4972C88.585 66.3466 88.5699 66.1959 88.5699 66.0453C88.6301 62.1443 88.4495 59.2073 88.0583 57.9722C85.44 49.628 79.2554 43.1665 71.0996 40.2295C70.257 39.9283 69.8206 39.0095 70.1215 38.1661C70.4225 37.3226 71.3404 36.8858 72.1831 37.187C81.3019 40.4705 88.2088 47.6851 91.128 57.0083C91.6246 58.6048 91.8503 61.587 91.7901 65.8796L96.7859 84.3001C97.3878 86.4991 96.1539 88.8036 94.0472 89.4512L90.7217 90.4754V99.0606C90.7217 103.7 87.1253 107.48 82.7164 107.48Z" fill="white"/>
<path d="M73.5075 122.015C73.4021 122.015 73.2817 122.015 73.1764 121.985L41.6065 115.222C40.8842 115.071 40.3726 114.454 40.3275 113.716L39.3644 93.0361C33.0895 86.7403 29.4932 77.9142 29.4932 68.7265C29.4932 50.2759 43.653 35.2744 61.048 35.2744C62.9591 35.2744 64.193 35.3648 65.9385 35.666C66.8113 35.8166 67.4132 36.645 67.2627 37.5186C67.1122 38.3922 66.2846 38.9947 65.4118 38.844C63.8318 38.588 62.7785 38.4976 61.048 38.4976C45.4286 38.4976 32.7284 52.0532 32.7284 68.7265C32.7284 77.2665 36.1292 85.445 42.073 91.1685C42.3739 91.4547 42.5395 91.8463 42.5695 92.2529L43.5025 112.315L73.8686 118.807C74.7414 118.988 75.2981 119.846 75.1025 120.72C74.937 121.473 74.2749 122 73.5225 122L73.5075 122.015Z" fill="white"/>
<path d="M122.427 79.0142C127.528 73.9535 135.759 73.9836 140.815 79.0895C142.757 81.0475 143.945 83.4725 144.382 86.0028L127.829 85.9275L133.247 80.5656L130.779 78.0653L123.435 85.3552L120.938 87.8253L123.405 90.3256L130.688 97.6757L133.186 95.2056L127.498 89.452L144.547 89.5273C144.261 92.4342 142.997 95.2809 140.755 97.495C135.654 102.556 127.423 102.526 122.367 97.4196C117.311 92.3137 117.341 84.0749 122.442 79.0142H122.427Z" fill="#06D4F6"/>
<path d="M23.204 79.0142C18.1028 73.9535 9.8718 73.9836 4.8158 79.0895C2.87465 81.0475 1.68589 83.4725 1.24951 86.0028L17.8019 85.9275L12.3847 80.5656L14.8526 78.0653L22.1958 85.3552L24.6937 87.8253L22.2259 90.3256L14.9428 97.6757L12.4449 95.2056L18.1329 89.452L1.08398 89.5273C1.36989 92.4342 2.63389 95.2809 4.87599 97.495C9.97713 102.556 18.2082 102.526 23.2642 97.4196C28.3202 92.3137 28.2901 84.0749 23.1889 79.0142H23.204Z" fill="#2EC971"/>
<path d="M73.6585 114.469C73.2973 114.469 72.9512 114.348 72.6653 114.137C72.2741 113.836 72.0484 113.354 72.0484 112.857V97.0272H64.4644C60.0404 97.0272 56.4591 93.4124 56.4591 88.9692V80.9112L53.1636 79.9472C51.0269 79.3297 49.793 77.0855 50.4099 74.9317L55.3907 57.4902C55.3305 53.4235 55.5562 50.5919 56.0678 49.0707C60.221 36.5393 72.0183 28.4512 86.148 28.4512C103.543 28.4512 117.703 42.6996 117.703 60.2314C117.703 68.9522 114.106 77.3265 107.832 83.3211L106.869 104.859C106.838 105.567 106.342 106.17 105.665 106.35L74.0949 114.408C73.9594 114.439 73.824 114.454 73.7036 114.454L73.6585 114.469ZM86.1329 31.6894C73.4177 31.6894 62.8091 38.9191 59.1074 50.0949C58.7312 51.2546 58.5356 54.0109 58.5958 57.686C58.5958 57.8517 58.5808 58.0023 58.5356 58.1529L53.4796 75.8203C53.3592 76.2571 53.6 76.724 54.0364 76.8445L58.5055 78.1398C59.1977 78.3356 59.6642 78.9682 59.6642 79.6912V88.9541C59.6642 91.6201 61.816 93.7889 64.4493 93.7889H73.6434C74.5312 93.7889 75.2535 94.5119 75.2535 95.4006V110.764L103.663 103.504L104.611 82.5077C104.626 82.086 104.822 81.6793 105.138 81.3932C111.052 75.986 114.453 68.2744 114.453 60.2314C114.453 44.4919 101.752 31.6744 86.1329 31.6744V31.6894Z" fill="#06D4F6"/>
<path d="M65.6384 26.0418H31.6308C24.4832 26.0418 18.6748 20.2279 18.6748 13.0736C18.6748 5.9193 24.4832 0.105469 31.6308 0.105469H52.6824C59.83 0.105469 65.6384 5.9193 65.6384 13.0736V26.0418ZM31.6308 3.34374C26.2588 3.34374 21.895 7.71164 21.895 13.0887C21.895 18.4657 26.2588 22.8336 31.6308 22.8336H62.4032V13.0887C62.4032 7.71164 58.0394 3.34374 52.6674 3.34374H31.6158H31.6308Z" fill="#06D4F6"/>
<path d="M54.443 11.462H49.6428V14.6852H54.443V11.462Z" fill="#06D4F6"/>
<path d="M44.8275 11.462H40.0273V14.6852H44.8275V11.462Z" fill="#06D4F6"/>
<path d="M35.2272 11.462H30.427V14.6852H35.2272V11.462Z" fill="#06D4F6"/>
<path d="M117.025 19.9266H113.233V23.7222H117.025V19.9266Z" fill="#42E7E2"/>
<path d="M125.046 19.9266H121.254V23.7222H125.046V19.9266Z" fill="#42E7E2"/>
<path d="M120.982 23.9784H117.19V27.7739H120.982V23.9784Z" fill="#42E7E2"/>
<path d="M131.487 49.3125H128.267V56.994H131.487V49.3125Z" fill="white"/>
<path d="M139.175 33.9346H135.955V56.979H139.175V33.9346Z" fill="#2EC971"/>
<path d="M146.85 41.6306H143.63V56.9936H146.85V41.6306Z" fill="#2EC971"/>
<path d="M154.524 26.2529H151.304V56.9939H154.524V26.2529Z" fill="#2EC971"/>
<path d="M156.781 55.7588H126.009V58.2139H156.781V55.7588Z" fill="#06D4F6"/>
</g>
<defs>
<clipPath id="clip0_3690_14024">
<rect width="158" height="122" fill="white"/>
</clipPath>
</defs>
</svg>
