<svg width="84" height="80" viewBox="0 0 84 80" fill="none" xmlns="http://www.w3.org/2000/svg">
<g clip-path="url(#clip0_3690_14210)">
<path d="M17.6987 66.4341C17.9649 66.3778 18.2259 66.301 18.4869 66.2089C18.8145 64.9701 19.5054 63.89 20.4318 63.0863C21.6448 62.0318 23.257 61.438 24.992 61.5557C25.9133 61.6171 26.6094 62.4157 26.5479 63.3371C26.4865 64.2586 25.6881 64.9547 24.7668 64.8933C23.9582 64.837 23.1956 65.1134 22.6275 65.61C22.0594 66.1065 21.6806 66.8129 21.6243 67.6217L21.6192 67.6883V68.2053C21.6192 70.5242 22.5712 72.6333 24.1015 74.1638C25.6318 75.6944 27.7405 76.6466 30.059 76.6466C32.3775 76.6466 34.4862 75.6944 36.0165 74.1638C37.5468 72.6333 38.4988 70.5242 38.4988 68.2053V52.1726C38.3759 51.1027 37.8897 50.1454 37.1681 49.4236C36.3287 48.5841 35.1669 48.0671 33.8873 48.0671C32.6078 48.0671 31.446 48.5841 30.6066 49.4236C29.7672 50.2632 29.2503 51.4252 29.2503 52.7049C29.2503 53.6315 28.5031 54.3789 27.5767 54.3789C26.6503 54.3789 25.9031 53.6315 25.9031 52.7049C25.9031 50.4986 26.7987 48.5022 28.242 47.0587C29.6854 45.6151 31.6865 44.7193 33.8873 44.7193C35.6019 44.7193 37.1936 45.2619 38.4936 46.1833V33.9028C37.1936 34.8242 35.6019 35.3668 33.8873 35.3668C31.6814 35.3668 29.6854 34.471 28.242 33.0274C26.7987 31.5839 25.9031 29.5874 25.9031 27.3812C25.9031 26.4546 26.6503 25.7072 27.5767 25.7072C28.5031 25.7072 29.2503 26.4546 29.2503 27.3812C29.2503 28.6609 29.7672 29.8229 30.6066 30.6624C31.446 31.502 32.6078 32.019 33.8873 32.019C35.1669 32.019 36.3287 31.502 37.1681 30.6624C37.8897 29.9407 38.3759 28.9834 38.4988 27.9135V11.7937C38.4988 9.47483 37.5468 7.36579 36.0165 5.83521C34.4862 4.30462 32.3775 3.35248 30.059 3.35248C27.7405 3.35248 25.6318 4.30462 24.1015 5.83521C22.5712 7.36579 21.6192 9.47483 21.6192 11.7937V12.7254C21.6192 12.751 21.6192 12.7766 21.6192 12.8022C21.6243 12.8278 21.6243 12.8585 21.6243 12.8841C21.6806 13.6878 22.0594 14.3993 22.6275 14.8959C23.1956 15.3924 23.9531 15.6688 24.7668 15.6125C25.6881 15.5511 26.4865 16.2473 26.5479 17.1687C26.6094 18.0901 25.9133 18.8887 24.992 18.9501C23.2621 19.0679 21.6448 18.4741 20.4318 17.4195C19.4082 16.5288 18.6763 15.3105 18.3948 13.9079C18.1645 13.8311 17.929 13.7646 17.6936 13.7134C17.1869 13.6008 16.6444 13.5444 16.066 13.5444C13.9881 13.5444 12.1097 14.384 10.7483 15.7456C9.38688 17.1073 8.5475 18.986 8.5475 21.0643C8.5475 22.3543 8.86483 23.5572 9.4227 24.6015C9.99081 25.6663 10.8097 26.5775 11.7975 27.2583C12.1967 27.4938 12.4987 27.8879 12.5908 28.3794C12.77 29.2854 12.1763 30.1659 11.2703 30.3399C8.98766 30.7904 6.98648 32.0241 5.56876 33.7543C4.17663 35.4487 3.34237 37.6243 3.34237 39.9995C3.34237 42.3645 4.17151 44.5299 5.54828 46.2243L5.61994 46.301C7.07348 48.0415 9.10538 49.2752 11.4188 49.6898C11.8589 49.7717 12.2684 50.0277 12.5294 50.4372C13.0259 51.2153 12.7955 52.2442 12.0176 52.7408C10.9581 53.4165 10.0778 54.3635 9.46365 55.4794C8.88018 56.5442 8.5475 57.7779 8.5475 59.0883C8.5475 61.1667 9.38688 63.0453 10.7483 64.407C12.1097 65.7687 13.9881 66.6082 16.066 66.6082C16.6444 66.6082 17.192 66.5519 17.6936 66.4392L17.6987 66.4341ZM41.8511 68.2053C41.8511 71.4508 40.5255 74.3993 38.3913 76.534C36.257 78.6686 33.309 79.9944 30.0641 79.9944C26.8192 79.9944 23.8712 78.6686 21.7369 76.534C19.9353 74.7321 18.707 72.3517 18.3692 69.7052C17.6117 69.869 16.8389 69.956 16.0711 69.956C13.0719 69.956 10.3542 68.7377 8.38884 66.772C6.42348 64.8063 5.20537 62.0881 5.20537 59.0883C5.20537 57.2045 5.69159 55.4231 6.5412 53.8721C6.89947 53.2168 7.32427 52.6077 7.80538 52.0446C5.95773 51.2204 4.3404 49.9816 3.06087 48.451L2.97898 48.3486C1.11599 46.0707 -0.00488281 43.1631 -0.00488281 40.0047C-0.00488281 36.836 1.1211 33.9181 2.99434 31.6402C4.26363 30.0942 5.87584 28.8452 7.71325 28.0057C7.24238 27.4426 6.83293 26.8283 6.4849 26.1731C5.666 24.6425 5.20537 22.902 5.20537 21.0643C5.20537 18.0645 6.42348 15.3463 8.38884 13.3806C10.3542 11.4149 13.0719 10.1966 16.0711 10.1966C16.8337 10.1966 17.5963 10.2836 18.3487 10.4423C18.6609 7.73436 19.8995 5.30283 21.7318 3.47022C23.866 1.33559 26.8141 0.00976562 30.059 0.00976562C33.3039 0.00976562 36.2519 1.33559 38.3862 3.47022C40.5204 5.60485 41.846 8.5534 41.846 11.7989V68.2155L41.8511 68.2053Z" fill="#06D7F9"/>
<path d="M46.8875 36.4214C45.9611 36.4214 45.2139 35.674 45.2139 34.7475C45.2139 33.8209 45.9611 33.0735 46.8875 33.0735H57.784L62.6104 28.2463C62.9379 27.9187 63.3679 27.7549 63.7927 27.7549H70.8813C71.8076 27.7549 72.5549 28.5023 72.5549 29.4288C72.5549 30.3553 71.8076 31.1027 70.8813 31.1027H64.4887L59.6726 35.9197C59.3706 36.2269 58.9458 36.4214 58.48 36.4214H46.8875Z" fill="#2B2A29"/>
<path d="M46.8875 46.6847C45.9611 46.6847 45.2139 45.9374 45.2139 45.0108C45.2139 44.0843 45.9611 43.3369 46.8875 43.3369H58.48C58.9458 43.3369 59.3706 43.5263 59.6726 43.8386L64.4887 48.6556H70.8813C71.8076 48.6556 72.5549 49.4029 72.5549 50.3295C72.5549 51.256 71.8076 52.0034 70.8813 52.0034H63.7927C63.3627 52.0034 62.9379 51.8396 62.6104 51.512L57.784 46.6847H46.8875Z" fill="#2B2A29"/>
<path d="M46.8875 23.4956C45.9611 23.4956 45.2139 22.7482 45.2139 21.8217C45.2139 20.8951 45.9611 20.1478 46.8875 20.1478H52.9115L57.7379 15.3205C58.393 14.6653 59.4525 14.6653 60.1076 15.3205C60.7627 15.9758 60.7627 17.0354 60.1076 17.6906L54.8001 22.9991C54.4981 23.3062 54.0733 23.5007 53.6076 23.5007H46.8875V23.4956Z" fill="#2B2A29"/>
<path d="M46.8875 59.8251C45.9611 59.8251 45.2139 59.0778 45.2139 58.1512C45.2139 57.2247 45.9611 56.4773 46.8875 56.4773H53.6076C54.0733 56.4773 54.4981 56.6667 54.8001 56.979L60.1076 62.2874C60.7627 62.9426 60.7627 64.0022 60.1076 64.6575C59.4525 65.3127 58.393 65.3127 57.7379 64.6575L52.9115 59.8302H46.8875V59.8251Z" fill="#2B2A29"/>
<path d="M63.7722 4.41699C65.7683 4.41699 67.575 5.2258 68.8852 6.53627C70.1954 7.84673 71.0041 9.65375 71.0041 11.6502C71.0041 13.6466 70.1954 15.4536 68.8852 16.7641C67.575 18.0745 65.7683 18.8833 63.7722 18.8833C61.7761 18.8833 59.9694 18.0745 58.6592 16.7641C57.3489 15.4536 56.5403 13.6466 56.5403 11.6502C56.5403 9.65375 57.3489 7.84673 58.6592 6.53627C59.9694 5.2258 61.7761 4.41699 63.7722 4.41699ZM66.5155 8.90125C65.8143 8.19995 64.8419 7.76483 63.7722 7.76483C62.7025 7.76483 61.7301 8.19995 61.0289 8.90125C60.3277 9.60256 59.8927 10.5752 59.8927 11.645C59.8927 12.7149 60.3277 13.6875 61.0289 14.3888C61.7301 15.0901 62.7025 15.5253 63.7722 15.5253C64.8419 15.5253 65.8143 15.0901 66.5155 14.3888C67.2167 13.6875 67.6517 12.7149 67.6517 11.645C67.6517 10.5752 67.2167 9.60256 66.5155 8.90125Z" fill="#2B2A29"/>
<path d="M76.7671 22.3643C78.7631 22.3643 80.5698 23.1731 81.8801 24.4835C83.1903 25.794 83.999 27.601 83.999 29.5974C83.999 31.5938 83.1903 33.4009 81.8801 34.7113C80.5698 36.0218 78.7631 36.8306 76.7671 36.8306C74.771 36.8306 72.9643 36.0218 71.6541 34.7113C70.3438 33.4009 69.5352 31.5938 69.5352 29.5974C69.5352 27.601 70.3438 25.794 71.6541 24.4835C72.9643 23.1731 74.771 22.3643 76.7671 22.3643ZM79.5104 26.8485C78.8092 26.1472 77.8368 25.7121 76.7671 25.7121C75.6974 25.7121 74.7249 26.1472 74.0238 26.8485C73.3226 27.5498 72.8875 28.5224 72.8875 29.5923C72.8875 30.6622 73.3226 31.6348 74.0238 32.3361C74.7249 33.0374 75.6974 33.4725 76.7671 33.4725C77.8368 33.4725 78.8092 33.0374 79.5104 32.3361C80.2116 31.6348 80.6466 30.6622 80.6466 29.5923C80.6466 28.5224 80.2116 27.5498 79.5104 26.8485Z" fill="#2B2A29"/>
<path d="M76.7671 43.4805C78.7631 43.4805 80.5698 44.2893 81.8801 45.5997C83.1903 46.9102 83.999 48.7172 83.999 50.7136C83.999 52.7101 83.1903 54.5171 81.8801 55.8275C80.5698 57.138 78.7631 57.9468 76.7671 57.9468C74.771 57.9468 72.9643 57.138 71.6541 55.8275C70.3438 54.5171 69.5352 52.7101 69.5352 50.7136C69.5352 48.7172 70.3438 46.9102 71.6541 45.5997C72.9643 44.2893 74.771 43.4805 76.7671 43.4805ZM79.5104 47.9647C78.8092 47.2634 77.8368 46.8283 76.7671 46.8283C75.6974 46.8283 74.7249 47.2634 74.0238 47.9647C73.3226 48.666 72.8875 49.6386 72.8875 50.7085C72.8875 51.7784 73.3226 52.751 74.0238 53.4523C74.7249 54.1536 75.6974 54.5887 76.7671 54.5887C77.8368 54.5887 78.8092 54.1536 79.5104 53.4523C80.2116 52.751 80.6466 51.7784 80.6466 50.7085C80.6466 49.6386 80.2116 48.666 79.5104 47.9647Z" fill="#2B2A29"/>
<path d="M63.7719 61.4277C65.768 61.4277 67.5747 62.2365 68.885 63.547C70.1952 64.8575 71.0039 66.6645 71.0039 68.6609C71.0039 70.6573 70.1952 72.4643 68.885 73.7748C67.5747 75.0853 65.768 75.8941 63.7719 75.8941C61.7759 75.8941 59.9692 75.0853 58.6589 73.7748C57.3487 72.4643 56.54 70.6573 56.54 68.6609C56.54 66.6645 57.3487 64.8575 58.6589 63.547C59.9692 62.2365 61.7759 61.4277 63.7719 61.4277ZM66.5153 65.912C65.8141 65.2107 64.8416 64.7756 63.7719 64.7756C62.7023 64.7756 61.7298 65.2107 61.0286 65.912C60.3274 66.6133 59.8924 67.5859 59.8924 68.6558C59.8924 69.7257 60.3274 70.6983 61.0286 71.3996C61.7298 72.1009 62.7023 72.536 63.7719 72.536C64.8416 72.536 65.8141 72.1009 66.5153 71.3996C67.2164 70.6983 67.6515 69.7257 67.6515 68.6558C67.6515 67.5859 67.2164 66.6133 66.5153 65.912Z" fill="#2B2A29"/>
</g>
<defs>
<clipPath id="clip0_3690_14210">
<rect width="84" height="80" fill="white"/>
</clipPath>
</defs>
</svg>
