<svg width="92" height="105" viewBox="0 0 92 105" fill="none" xmlns="http://www.w3.org/2000/svg">
<g clip-path="url(#clip0_3819_217)">
<path fill-rule="evenodd" clip-rule="evenodd" d="M11.7594 8.58936H24.2106C26.2857 8.58936 28.3609 10.6639 28.3609 12.7384V25.1855C28.3609 27.26 26.2857 28.643 24.2106 28.643H11.7594C9.68424 28.643 8.30078 27.26 8.30078 25.1855V12.7384C8.30078 10.6639 9.68424 8.58936 11.7594 8.58936ZM24.2106 11.3554H11.7594C11.0677 11.3554 11.0677 12.0469 11.0677 12.7384V25.1855C11.0677 25.877 11.0677 25.877 11.7594 25.877H24.2106C24.9023 25.877 25.594 25.877 25.594 25.1855V12.7384C25.594 12.0469 24.9023 11.3554 24.2106 11.3554Z" fill="white"/>
<path fill-rule="evenodd" clip-rule="evenodd" d="M34.5866 14.1214C33.8949 14.1214 33.2031 13.4299 33.2031 12.7384C33.2031 12.0469 33.8949 11.3554 34.5866 11.3554H50.4964C51.1881 11.3554 51.8798 12.0469 51.8798 12.7384C51.8798 13.4299 51.1881 14.1214 50.4964 14.1214H34.5866Z" fill="white"/>
<path fill-rule="evenodd" clip-rule="evenodd" d="M34.5865 20.345C33.8947 20.345 33.203 19.6535 33.203 18.962C33.203 18.2705 33.8947 17.5789 34.5865 17.5789H50.4962C51.188 17.5789 51.8797 18.2705 51.8797 18.962C51.8797 19.6535 51.188 20.345 50.4962 20.345H34.5865Z" fill="white"/>
<path fill-rule="evenodd" clip-rule="evenodd" d="M34.5865 25.877C33.8947 25.877 33.203 25.1855 33.203 24.494C33.203 23.8025 33.8947 23.111 34.5865 23.111H50.4962C51.188 23.111 51.8797 23.8025 51.8797 24.494C51.8797 25.1855 51.188 25.877 50.4962 25.877H34.5865Z" fill="white"/>
<path fill-rule="evenodd" clip-rule="evenodd" d="M78.1654 59.117C78.1654 59.8085 77.4737 60.5 76.782 60.5C76.0902 60.5 75.3985 59.8085 75.3985 59.117V17.5789L61.5639 3.05732H8.99248C5.53384 3.05732 2.76692 5.82334 2.76692 9.28087V96.4107C2.76692 99.1767 5.53384 101.943 8.99248 101.943H69.8647C71.2481 101.943 73.3233 101.251 74.7068 99.1767C74.7068 98.4852 76.0902 98.4852 76.782 99.1767C76.782 99.1767 77.4737 100.56 76.782 101.251C75.3985 103.326 72.6316 104.709 69.8647 104.709H8.99248C4.15038 104.709 0 101.251 0 96.4107V9.28087C0 4.44033 4.15038 0.29129 8.99248 0.29129H61.5639C62.2556 0.29129 62.9474 0.29129 62.9474 0.982796L78.1654 15.5044C78.1654 16.1959 78.1654 16.1959 78.1654 16.8874V59.117Z" fill="#06D7F9"/>
<path fill-rule="evenodd" clip-rule="evenodd" d="M76.7819 18.2705H65.7143C64.3308 18.2705 62.9473 17.579 62.2556 16.8875C60.8721 15.5044 60.1804 14.1214 60.1804 12.7384V1.67432H62.9473V12.7384C62.9473 13.4299 63.6391 14.1214 64.3308 14.8129C64.3308 14.8129 65.0225 15.5044 65.7143 15.5044H76.7819V18.2705Z" fill="#06D7F9"/>
<path fill-rule="evenodd" clip-rule="evenodd" d="M20.0601 75.6655H24.9022C26.2857 75.6655 26.2857 76.357 26.2857 77.0485V94.3361C26.2857 95.7191 26.2857 95.7191 24.9022 95.7191H20.0601C18.6766 95.7191 18.6766 95.7191 18.6766 94.3361V77.0485C18.6766 76.357 18.6766 75.6655 20.0601 75.6655ZM23.5187 78.4315H21.4436V92.9531H23.5187V78.4315Z" fill="#06D7F9"/>
<path fill-rule="evenodd" clip-rule="evenodd" d="M40.1203 67.3674H45.6541C46.3458 67.3674 47.0376 68.0589 47.0376 68.7504V94.3361C47.0376 95.7191 46.3458 95.7191 45.6541 95.7191H40.1203C39.4285 95.7191 38.7368 95.7191 38.7368 94.3361V68.7504C38.7368 68.0589 39.4285 67.3674 40.1203 67.3674ZM44.2707 70.1334H41.5037V92.9531H44.2707V70.1334Z" fill="#06D7F9"/>
<path fill-rule="evenodd" clip-rule="evenodd" d="M29.7443 80.506H35.2781C35.9699 80.506 36.6616 80.506 36.6616 81.889V94.3361C36.6616 95.7191 35.9699 95.7191 35.2781 95.7191H29.7443C29.0526 95.7191 28.3608 95.7191 28.3608 94.3361V81.889C28.3608 80.506 29.0526 80.506 29.7443 80.506ZM33.8947 83.272H31.1278V92.9531H33.8947V83.272Z" fill="#06D7F9"/>
<path fill-rule="evenodd" clip-rule="evenodd" d="M9.68424 86.7296H15.2181C15.9098 86.7296 16.6015 87.4211 16.6015 88.1126V94.3361C16.6015 95.7191 15.9098 95.7191 15.2181 95.7191H9.68424C8.99251 95.7191 8.30078 95.7191 8.30078 94.3361V88.1126C8.30078 87.4211 8.99251 86.7296 9.68424 86.7296ZM13.8346 89.4956H11.0677V92.9531H13.8346V89.4956Z" fill="#06D7F9"/>
<path fill-rule="evenodd" clip-rule="evenodd" d="M10.3759 38.3241C9.68416 38.3241 8.99243 37.6326 8.99243 36.9411C8.99243 36.2496 9.68416 35.5581 10.3759 35.5581H13.8345C14.5263 35.5581 15.218 36.2496 15.218 36.9411C15.218 37.6326 14.5263 38.3241 13.8345 38.3241H10.3759Z" fill="#06D7F9"/>
<path fill-rule="evenodd" clip-rule="evenodd" d="M10.3759 45.2392C9.68416 45.2392 8.99243 45.2392 8.99243 43.8562C8.99243 43.1647 9.68416 42.4732 10.3759 42.4732H13.8345C14.5263 42.4732 15.218 43.1647 15.218 43.8562C15.218 45.2392 14.5263 45.2392 13.8345 45.2392H10.3759Z" fill="#06D7F9"/>
<path fill-rule="evenodd" clip-rule="evenodd" d="M10.3759 52.8458C9.68416 52.8458 8.99243 52.1543 8.99243 51.4628C8.99243 50.0797 9.68416 50.0797 10.3759 50.0797H13.8345C14.5263 50.0797 15.218 50.0797 15.218 51.4628C15.218 52.1543 14.5263 52.8458 13.8345 52.8458H10.3759Z" fill="#06D7F9"/>
<path fill-rule="evenodd" clip-rule="evenodd" d="M20.7519 38.3241C20.0601 38.3241 19.3684 37.6326 19.3684 36.9411C19.3684 36.2496 20.0601 35.5581 20.7519 35.5581H68.4812C69.8646 35.5581 69.8646 36.2496 69.8646 36.9411C69.8646 37.6326 69.8646 38.3241 68.4812 38.3241H20.7519Z" fill="#06D7F9"/>
<path fill-rule="evenodd" clip-rule="evenodd" d="M20.7519 45.2392C20.0601 45.2392 19.3684 45.2392 19.3684 43.8562C19.3684 43.1647 20.0601 42.4732 20.7519 42.4732H68.4812C69.8646 42.4732 69.8646 43.1647 69.8646 43.8562C69.8646 45.2392 69.8646 45.2392 68.4812 45.2392H20.7519Z" fill="#06D7F9"/>
<path fill-rule="evenodd" clip-rule="evenodd" d="M20.7519 52.8458C20.0601 52.8458 19.3684 52.1543 19.3684 51.4628C19.3684 50.0797 20.0601 50.0797 20.7519 50.0797H68.4812C69.8646 50.0797 69.8646 50.0797 69.8646 51.4628C69.8646 52.1543 69.8646 52.8458 68.4812 52.8458H20.7519Z" fill="#06D7F9"/>
<path fill-rule="evenodd" clip-rule="evenodd" d="M10.3759 59.7608C9.68416 59.7608 8.99243 59.0693 8.99243 58.3778C8.99243 57.6863 9.68416 56.9948 10.3759 56.9948H13.8345C14.5263 56.9948 15.218 57.6863 15.218 58.3778C15.218 59.0693 14.5263 59.7608 13.8345 59.7608H10.3759Z" fill="#06D7F9"/>
<path fill-rule="evenodd" clip-rule="evenodd" d="M20.7519 59.7608C20.0601 59.7608 19.3684 59.0693 19.3684 58.3778C19.3684 57.6863 20.0601 56.9948 20.7519 56.9948H47.0376C47.7293 56.9948 48.421 57.6863 48.421 58.3778C48.421 59.0693 47.7293 59.7608 47.0376 59.7608H20.7519Z" fill="#06D7F9"/>
<path d="M73.3233 57.6863C78.1654 57.6863 83.0075 59.7608 86.4662 63.2184C89.9248 66.6759 92 71.5164 92 76.357C92 81.1975 89.9248 86.0381 86.4662 89.4956C83.0075 92.9531 78.1654 95.0276 73.3233 95.0276C67.7895 95.0276 63.6391 92.9531 60.1804 89.4956C56.7218 86.0381 54.6466 81.1975 54.6466 76.357C54.6466 71.5164 56.7218 66.6759 60.1804 63.2184C63.6391 59.7608 67.7895 57.6863 73.3233 57.6863ZM84.391 65.2929C81.6241 62.5269 77.4737 60.4523 73.3233 60.4523C69.1729 60.4523 65.0225 62.5269 62.2556 65.2929C59.4887 68.0589 57.4135 72.2079 57.4135 76.357C57.4135 80.506 59.4887 84.6551 62.2556 87.4211C65.0225 90.1871 69.1729 92.2616 73.3233 92.2616C77.4737 92.2616 81.6241 90.1871 84.391 87.4211C87.1579 84.6551 88.5413 80.506 88.5413 76.357C88.5413 72.2079 87.1579 68.0589 84.391 65.2929Z" fill="white"/>
<path d="M81.624 70.1334C82.3157 69.4419 83.0075 69.4419 83.6992 70.1334C84.3909 70.8249 84.3909 71.5164 83.6992 72.208L72.6315 83.2721C71.9398 83.9636 71.2481 83.9636 70.5563 83.2721L63.639 77.0485C63.639 76.357 63.639 75.6655 63.639 74.974C64.3308 74.2825 65.7142 74.2825 65.7142 74.974L71.2481 80.506L81.624 70.1334Z" fill="white"/>
</g>
<defs>
<clipPath id="clip0_3819_217">
<rect width="92" height="105" fill="white"/>
</clipPath>
</defs>
</svg>
