<svg width="263" height="200" viewBox="0 0 263 200" fill="none" xmlns="http://www.w3.org/2000/svg">
<g clip-path="url(#clip0_5603_4073)">
<path d="M72.6583 154.851C73.7314 154.851 74.6022 155.724 74.6022 156.8C74.6022 157.875 73.7314 158.748 72.6583 158.748H1.94411C0.871056 158.748 0.000244141 157.875 0.000244141 156.8V139.281C0.000244141 138.206 0.871056 137.333 1.94411 137.333H34.2736C35.3466 137.333 36.2175 138.206 36.2175 139.281C36.2175 140.357 35.3466 141.23 34.2736 141.23H3.88559V154.854H72.6583V154.851Z" fill="white"/>
<path d="M30.2764 138.363C30.2764 139.439 29.4056 140.312 28.3325 140.312C27.2595 140.312 26.3887 139.439 26.3887 138.363V106.303C26.3887 105.506 26.8645 104.822 27.5474 104.521L49.9339 92.6762C50.8809 92.1754 52.0538 92.5402 52.5535 93.4894C52.7058 93.7779 52.7771 94.0879 52.7771 94.3956H52.7819V99.5466H60.2052V98.402C60.2052 97.4791 60.8452 96.7064 61.7041 96.5061L81.7756 90.0267C82.794 89.7 83.8861 90.2604 84.212 91.2811C84.2763 91.479 84.3048 91.6769 84.3048 91.8749H84.3096V112.372C84.3096 113.447 83.4388 114.32 82.3657 114.32C81.2926 114.32 80.4218 113.447 80.4218 112.372V94.5434L64.0882 99.8161V101.495C64.0882 102.571 63.2174 103.443 62.1443 103.443H50.8333C49.7602 103.443 48.8894 102.571 48.8894 101.495V97.6221L30.2693 107.474V138.366L30.2764 138.363Z" fill="white"/>
<path d="M6.44807 138.215C6.37193 139.286 5.44402 140.094 4.37572 140.018C3.30743 139.942 2.50086 139.012 2.577 137.941L5.77473 93.7419C5.85087 92.6712 6.77878 91.8628 7.84708 91.9391C8.91537 92.0154 9.72194 92.9454 9.6458 94.0162L6.44807 138.215Z" fill="white"/>
<path d="M26.6124 137.941C26.6885 139.012 25.8819 139.942 24.8136 140.018C23.7453 140.094 22.8174 139.286 22.7413 138.215L19.5436 94.0162C19.4674 92.9454 20.274 92.0154 21.3423 91.9391C22.4106 91.8628 23.3385 92.6712 23.4146 93.7419L26.6124 137.941Z" fill="white"/>
<path d="M5.88417 81.6274H23.191C24.264 81.6274 25.1348 82.5003 25.1348 83.5758V93.8231C25.1348 94.8986 24.264 95.7714 23.191 95.7714H5.88417C4.81112 95.7714 3.94031 94.8986 3.94031 93.8231V83.5758C3.94031 82.5003 4.81112 81.6274 5.88417 81.6274ZM21.2495 85.5217H7.82803V91.8747H21.2495V85.5217Z" fill="white"/>
<path d="M12.9672 78.8636C12.7864 79.9224 11.7847 80.6331 10.7283 80.4542C9.67195 80.273 8.96293 79.269 9.14138 78.2102C9.41737 76.6267 9.90274 75.2125 10.5523 73.9343C11.1899 72.6775 11.9941 71.5448 12.9173 70.4979C13.6263 69.6966 14.8492 69.6203 15.6487 70.3309C16.4481 71.0416 16.5242 72.2673 15.8152 73.0686C15.1181 73.858 14.5042 74.726 14.0117 75.699C13.5287 76.6505 13.1695 77.6951 12.9649 78.866L12.9672 78.8636Z" fill="#06D7F9"/>
<path d="M19.3627 79.0067C19.1034 80.0488 18.0494 80.6832 17.0096 80.4209C15.9699 80.1609 15.337 79.1045 15.5987 78.0623C16.0294 76.362 16.9858 74.4614 18.737 72.8206C20.0932 71.552 21.9228 70.443 24.3544 69.7228C25.3823 69.42 26.4577 70.009 26.7599 71.0392C27.062 72.0695 26.4744 73.1474 25.4465 73.4502C23.6549 73.982 22.3321 74.7714 21.378 75.6657C20.2454 76.7245 19.634 77.9336 19.3627 79.0043V79.0067ZM30.6333 72.7491C29.565 72.7563 28.6918 71.8954 28.6823 70.8246C28.6752 69.7538 29.5341 68.8786 30.6024 68.8691C30.9736 68.8643 31.3471 68.8691 31.7183 68.8763C32.1513 68.8882 32.5367 68.9025 32.8746 68.9216C33.9429 68.9836 34.759 69.9041 34.6971 70.9748C34.6352 72.0456 33.7168 72.8636 32.6486 72.8016C32.2441 72.7777 31.9038 72.7634 31.6302 72.7563C31.2829 72.7467 30.9498 72.7443 30.6357 72.7491H30.6333Z" fill="#06D7F9"/>
<path d="M43.6123 129.721C42.5393 129.721 41.6685 128.848 41.6685 127.772C41.6685 126.697 42.5393 125.824 43.6123 125.824H47.3906L51.9064 121.348C52.2847 120.976 52.7749 120.79 53.265 120.79V120.785H70.115C71.188 120.785 72.0588 121.658 72.0588 122.733C72.0588 123.809 71.188 124.682 70.115 124.682H54.0549L49.6461 129.051C49.2893 129.461 48.7658 129.721 48.1805 129.721H43.6099H43.6123Z" fill="#06D7F9"/>
<path d="M45.4966 113.517H68.8015C69.934 113.517 70.9643 113.979 71.709 114.726C72.4537 115.472 72.9152 116.502 72.9152 117.64V138.08C72.9152 139.215 72.4537 140.247 71.709 140.994C70.9643 141.74 69.9364 142.203 68.8015 142.203H45.4966C44.364 142.203 43.3338 141.74 42.5891 140.994C41.8444 140.247 41.3828 139.217 41.3828 138.08V117.64C41.3828 116.505 41.8444 115.472 42.5891 114.726C43.3338 113.979 44.3617 113.517 45.4966 113.517ZM68.8015 117.411H45.4966C45.4371 117.411 45.38 117.437 45.3372 117.48C45.2943 117.523 45.2682 117.578 45.2682 117.64V138.08C45.2682 138.139 45.2943 138.196 45.3372 138.239C45.38 138.282 45.4347 138.309 45.4966 138.309H68.8015C68.861 138.309 68.9181 138.282 68.9609 138.239C69.0037 138.196 69.0299 138.142 69.0299 138.08V117.64C69.0299 117.58 69.0037 117.523 68.9609 117.48C68.9181 117.437 68.8634 117.411 68.8015 117.411Z" fill="white"/>
<path d="M95.2161 54.8495C95.2161 55.925 94.3453 56.7978 93.2722 56.7978C92.1992 56.7978 91.3284 55.925 91.3284 54.8495V48.6658C91.3284 35.2754 96.7293 23.1465 105.468 14.3444C114.207 5.54223 126.289 0.0739841 139.647 0.00959568H139.818V0.00244141C153.204 0.00244141 165.333 5.41107 174.132 14.1774C182.925 22.9414 188.381 35.0655 188.429 48.5036V48.6682H188.436V55.0164C188.436 56.0919 187.565 56.9648 186.492 56.9648C185.419 56.9648 184.548 56.0919 184.548 55.0164V48.6682H184.555V48.5036C184.512 36.1506 179.49 24.9971 171.398 16.9318C163.308 8.87135 152.145 3.89675 139.818 3.89675V3.8896H139.663C127.377 3.94921 116.261 8.98105 108.216 17.0821C100.182 25.1759 95.2137 36.3366 95.2137 48.6658V54.8495H95.2161Z" fill="#06D7F9"/>
<path d="M176.832 60.9543C176.811 62.025 175.928 62.8764 174.86 62.8549C173.791 62.8334 172.942 61.9487 172.963 60.8779L173.049 56.6402C173.123 52.9415 175.171 50.5901 177.767 49.5551C178.769 49.1569 179.849 48.9637 180.92 48.9756C182.009 48.9875 183.09 49.1998 184.067 49.6123C186.635 50.6926 188.624 53.0655 188.617 56.6784L188.6 64.5219C188.593 68.5688 187.429 72.6086 185.114 75.7874C183.268 78.3201 180.71 80.3018 177.441 81.3177C177.061 91.1906 172.944 99.945 166.478 106.346C159.628 113.126 150.139 117.251 139.658 117.251C129.342 117.251 120.003 113.059 113.244 106.284C106.815 99.8401 102.718 91.057 102.332 81.3177C99.0634 80.3018 96.5033 78.3201 94.657 75.7874C92.3419 72.6109 91.1785 68.5712 91.1713 64.5219L91.1547 56.6784C91.1475 53.0655 93.1342 50.6926 95.7038 49.6123C96.6841 49.1998 97.7619 48.9875 98.8516 48.9756C99.9223 48.9637 101.002 49.1569 102.004 49.5551C104.6 50.5901 106.646 52.9415 106.722 56.6402L106.808 60.8779C106.829 61.9487 105.98 62.8358 104.912 62.8549C103.843 62.8764 102.958 62.025 102.939 60.9543L102.854 56.7165C102.815 54.835 101.83 53.6593 100.579 53.1609C100.048 52.951 99.4678 52.8485 98.8825 52.8556C98.3163 52.8628 97.7429 52.9772 97.2052 53.2038C95.9751 53.7213 95.021 54.885 95.0258 56.6784L95.0424 64.5219C95.0495 67.7818 95.9632 71.006 97.7833 73.5052C99.3346 75.6348 101.569 77.2421 104.486 77.8765C105.445 77.9957 106.187 78.8161 106.187 79.8082C106.187 89.0729 109.934 97.4601 115.989 103.532C122.047 109.603 130.415 113.357 139.658 113.357C149.092 113.357 157.617 109.656 163.76 103.577C169.835 97.5674 173.587 89.216 173.587 79.8082H173.594C173.594 78.9043 174.227 78.0935 175.143 77.9075C178.131 77.2946 180.413 75.6706 181.99 73.5052C183.811 71.006 184.727 67.7818 184.731 64.5219L184.748 56.6784C184.75 54.885 183.799 53.7213 182.569 53.2038C182.033 52.9772 181.457 52.8604 180.891 52.8556C180.306 52.8485 179.725 52.951 179.195 53.1609C177.946 53.6593 176.958 54.8326 176.92 56.7165L176.834 60.9543H176.832Z" fill="#06D7F9"/>
<path d="M106.696 56.7098C106.696 57.7853 105.825 58.6582 104.752 58.6582C103.679 58.6582 102.808 57.7853 102.808 56.7098V45.1437C102.808 43.348 103.567 41.7145 105.026 40.5292C106.237 39.5443 107.921 38.9028 110.025 38.7979V38.7955C118.183 38.1421 125.756 36.6206 132.899 34.4624C140.058 32.2994 146.789 29.495 153.244 26.2827C153.696 26.0585 154.193 26.0275 154.643 26.1587C162.376 28.0665 167.9 31.7056 171.531 36.8305C175.148 41.9339 176.823 48.4419 176.887 56.1184C176.894 57.1891 176.035 58.0644 174.967 58.0739C173.898 58.081 173.025 57.2201 173.016 56.1494C172.959 49.267 171.507 43.503 168.374 39.0817C165.374 34.8487 160.777 31.7843 154.322 30.0816C147.872 33.2581 141.148 36.0316 134.008 38.1898C126.613 40.4243 118.773 41.9982 110.329 42.6731V42.6684L110.26 42.6731C109.006 42.728 108.071 43.0499 107.469 43.5388C106.958 43.9537 106.694 44.5213 106.694 45.1413V56.7074L106.696 56.7098Z" fill="#06D7F9"/>
<path d="M132.119 144.094C132.354 143.047 133.389 142.391 134.434 142.625C135.478 142.861 136.132 143.899 135.899 144.945L129.787 171.855C129.551 172.902 128.516 173.558 127.472 173.324C127.243 173.272 127.036 173.183 126.851 173.064V173.066C120.217 168.772 115.797 161.915 112.894 153.299C110.068 144.907 108.683 134.832 108.086 123.838C108.031 122.767 108.854 121.854 109.922 121.799C110.991 121.744 111.902 122.569 111.957 123.64C112.537 134.307 113.865 144.044 116.568 152.066C118.837 158.798 122.076 164.31 126.665 168.118L132.121 144.096L132.119 144.094Z" fill="#06D7F9"/>
<path d="M155.352 111.199C155.352 110.124 156.223 109.251 157.296 109.251C158.369 109.251 159.24 110.124 159.24 111.199V118.127C159.24 118.456 159.159 118.766 159.014 119.038C157.26 122.691 154.548 125.884 151.11 128.129C147.896 130.227 144.051 131.489 139.768 131.517H139.761V131.524H139.554C139.487 131.524 139.423 131.522 139.359 131.515C135.15 131.453 131.372 130.199 128.205 128.129C124.743 125.868 122.019 122.648 120.265 118.964C120.137 118.694 120.077 118.408 120.077 118.127V111.027C120.077 109.952 120.948 109.079 122.021 109.079C123.094 109.079 123.965 109.952 123.965 111.027V117.679C125.426 120.581 127.6 123.099 130.318 124.873C132.899 126.559 135.978 127.585 139.404 127.635C139.454 127.63 139.504 127.628 139.556 127.628H139.763V127.635C143.251 127.611 146.382 126.581 149.002 124.871C151.721 123.097 153.896 120.576 155.355 117.676V111.197L155.352 111.199Z" fill="#06D7F9"/>
<path d="M157.232 120.123C156.163 120.073 155.338 119.164 155.388 118.091C155.438 117.02 156.344 116.193 157.415 116.243C159.897 116.364 162.252 116.899 164.462 117.898C166.673 118.899 168.726 120.361 170.61 122.338C171.091 122.846 171.246 123.545 171.079 124.174C169.985 128.989 168.103 132.962 165.462 136.124C162.783 139.332 159.345 141.681 155.176 143.207C154.17 143.572 153.059 143.052 152.695 142.043C152.659 141.948 152.633 141.85 152.614 141.753H152.611C152.04 138.829 150.401 136.258 148.093 134.424C145.811 132.612 142.871 131.52 139.656 131.52C136.439 131.52 133.501 132.609 131.217 134.424C128.909 136.258 127.27 138.829 126.699 141.753C126.494 142.807 125.473 143.496 124.422 143.288C124.277 143.26 124.139 143.217 124.01 143.16C119.899 141.633 116.501 139.299 113.848 136.122C111.195 132.946 109.306 128.949 108.214 124.101C108.067 123.445 108.271 122.791 108.699 122.336C110.581 120.359 112.637 118.895 114.848 117.893C117.055 116.891 119.411 116.357 121.895 116.238C122.963 116.188 123.872 117.015 123.922 118.086C123.972 119.157 123.146 120.068 122.078 120.118C120.089 120.216 118.205 120.64 116.444 121.439C114.962 122.112 113.56 123.049 112.247 124.282C113.22 128.038 114.752 131.145 116.825 133.625C118.631 135.788 120.865 137.489 123.51 138.738C124.543 135.831 126.396 133.291 128.804 131.379C131.757 129.035 135.54 127.623 139.656 127.623C143.772 127.623 147.555 129.032 150.508 131.379C152.918 133.294 154.772 135.831 155.802 138.738C158.448 137.486 160.679 135.788 162.488 133.625C164.56 131.145 166.092 128.038 167.065 124.282C165.752 123.049 164.351 122.109 162.868 121.439C161.108 120.64 159.223 120.213 157.234 120.118L157.232 120.123Z" fill="#06D7F9"/>
<path d="M169.159 125.648C168.091 125.622 167.244 124.735 167.27 123.662C167.296 122.591 168.181 121.742 169.252 121.768C171.074 121.813 172.885 121.966 174.667 122.221C176.461 122.479 178.255 122.841 180.028 123.309C181.063 123.581 181.681 124.644 181.41 125.682C181.139 126.719 180.077 127.339 179.043 127.067C177.425 126.64 175.778 126.309 174.122 126.07C172.447 125.829 170.786 125.689 169.161 125.648H169.159ZM180.061 169.537C181.134 169.537 182.005 170.41 182.005 171.486C182.005 172.561 181.134 173.434 180.061 173.434H72.7083C71.6352 173.434 70.7644 172.561 70.7644 171.486V156.8C70.7644 146.505 75.1898 138.297 81.847 132.404C89.4393 125.686 99.9533 122.023 110.056 121.768C111.124 121.742 112.011 122.591 112.038 123.662C112.064 124.732 111.217 125.622 110.148 125.648C100.903 125.882 91.307 129.209 84.4119 135.311C78.547 140.5 74.6497 147.731 74.6497 156.8V169.537H180.058H180.061Z" fill="#06D7F9"/>
<path d="M151.41 135.585C152.169 134.824 153.399 134.824 154.158 135.585C154.917 136.346 154.917 137.579 154.158 138.34L146.618 145.897C146.24 146.276 145.742 146.467 145.245 146.467H134.067C133.522 146.467 133.03 146.243 132.678 145.88L125.154 138.34C124.395 137.579 124.395 136.346 125.154 135.585C125.913 134.824 127.144 134.824 127.902 135.585L134.874 142.573H144.443L151.414 135.585H151.41Z" fill="#06D7F9"/>
<path d="M143.411 144.946C143.175 143.899 143.832 142.862 144.876 142.625C145.921 142.389 146.956 143.048 147.191 144.094L152.647 168.116C157.236 164.31 160.475 158.799 162.744 152.064C165.447 144.042 166.775 134.305 167.355 123.638C167.41 122.567 168.321 121.742 169.39 121.797C170.458 121.852 171.281 122.765 171.227 123.836C170.629 134.83 169.245 144.905 166.418 153.297C163.515 161.913 159.095 168.77 152.461 173.065V173.062C152.276 173.181 152.066 173.27 151.84 173.322C150.796 173.558 149.761 172.9 149.525 171.853L143.413 144.943L143.411 144.946Z" fill="#06D7F9"/>
<path d="M239.466 92.0686C238.393 92.0686 237.523 91.1957 237.523 90.1202C237.523 89.0447 238.393 88.1719 239.466 88.1719H253.975C256.459 88.1719 258.717 89.1902 260.352 90.8285C261.986 92.4668 263.002 94.73 263.002 97.2196V181.952C263.002 184.442 261.986 186.705 260.352 188.344C258.717 189.982 256.459 191 253.975 191H187.03C184.546 191 182.288 189.982 180.653 188.344C179.019 186.705 178.003 184.442 178.003 181.952V97.2196C178.003 94.73 179.019 92.4668 180.653 90.8285C182.288 89.1902 184.546 88.1719 187.03 88.1719H200.967C202.041 88.1719 202.911 89.0447 202.911 90.1202C202.911 91.1957 202.041 92.0686 200.967 92.0686H187.03C185.619 92.0686 184.334 92.6481 183.401 93.5829C182.469 94.5177 181.891 95.8055 181.891 97.2196V181.952C181.891 183.367 182.469 184.654 183.401 185.589C184.334 186.524 185.619 187.104 187.03 187.104H253.975C255.386 187.104 256.671 186.524 257.604 185.589C258.536 184.654 259.114 183.367 259.114 181.952V97.2196C259.114 95.8055 258.536 94.5177 257.604 93.5829C256.671 92.6481 255.386 92.0686 253.975 92.0686H239.466Z" fill="#FEFEFE"/>
<path d="M206.794 82.105H208.879C209.266 80.9317 209.945 79.8871 210.822 79.0596C212.136 77.8267 213.894 77.0684 215.817 77.0684H224.613C226.538 77.0684 228.296 77.8267 229.607 79.0596C230.487 79.8871 231.163 80.9317 231.551 82.105H233.635C235.679 82.105 237.537 82.942 238.881 84.2894C240.225 85.6368 241.061 87.4993 241.061 89.5478V96.0749C241.061 98.1234 240.225 99.9859 238.881 101.333C237.537 102.681 235.679 103.518 233.635 103.518H206.79C204.746 103.518 202.888 102.681 201.543 101.333C200.199 99.9859 199.364 98.1234 199.364 96.0749V89.5478C199.364 87.4993 200.199 85.6368 201.543 84.2894C202.888 82.942 204.746 82.105 206.79 82.105H206.794ZM210.461 85.9993H206.794C205.824 85.9993 204.939 86.3999 204.296 87.0438C203.654 87.6877 203.254 88.5748 203.254 89.5478V96.0749C203.254 97.0479 203.654 97.935 204.296 98.5789C204.939 99.2228 205.824 99.6234 206.794 99.6234H233.64C234.61 99.6234 235.495 99.2228 236.138 98.5789C236.78 97.935 237.18 97.0479 237.18 96.0749V89.5478C237.18 88.5748 236.78 87.6877 236.138 87.0438C235.495 86.3999 234.61 85.9993 233.64 85.9993H229.973V85.9945C228.957 85.9945 228.103 85.2028 228.039 84.1725C227.982 83.2783 227.575 82.4698 226.954 81.888C226.342 81.3132 225.519 80.9603 224.615 80.9603H215.819C214.915 80.9603 214.092 81.3132 213.48 81.888C212.881 82.4508 212.481 83.2234 212.402 84.0795C212.388 85.1431 211.524 85.9993 210.461 85.9993Z" fill="#FEFEFE"/>
<path d="M193.908 141.245C193.149 140.484 193.149 139.251 193.908 138.49C194.667 137.73 195.897 137.73 196.656 138.49L210.996 152.863L244.351 119.431C245.11 118.671 246.34 118.671 247.099 119.431C247.858 120.192 247.858 121.425 247.099 122.186L212.369 156.996C211.61 157.757 210.38 157.757 209.621 156.996L193.908 141.247V141.245Z" fill="#2ECD71"/>
</g>
<defs>
<clipPath id="clip0_5603_4073">
<rect width="263" height="200" fill="white"/>
</clipPath>
</defs>
</svg>
