<svg width="92" height="121" viewBox="0 0 92 121" fill="none" xmlns="http://www.w3.org/2000/svg">
<path fill-rule="evenodd" clip-rule="evenodd" d="M1.44431 70.5882C0.913713 70.0852 0.854758 69.2273 1.35588 68.6652C1.857 68.1031 2.71185 68.0735 3.27193 68.5764C4.65739 69.8486 5.48276 70.5586 6.21971 70.7657C6.86822 70.9432 7.69359 70.8248 9.07905 70.4402C9.02009 70.2923 8.96113 70.1444 8.90218 69.9965C7.98837 68.1327 6.83874 65.7659 9.81599 63.8725C11.791 62.63 12.41 61.2395 13.147 59.5828C13.5302 58.7248 13.9429 57.8077 14.5324 56.7723C15.2104 55.6481 16.0653 54.583 16.9496 53.4884C18.7772 51.1808 20.6638 48.8733 19.8089 46.684C19.6321 46.1811 19.1899 45.619 18.6888 45.0865C18.0403 44.406 17.2739 43.7847 16.6548 43.4001C16.6253 43.4001 16.5959 43.3706 16.5664 43.341C16.3895 43.2226 16.2421 43.0451 16.0947 42.9268L16.0358 42.8676C15.5052 42.3351 15.5052 41.4772 16.0358 40.9446C16.5664 40.4121 17.4212 40.4121 17.9518 40.9446L18.0108 41.0038L18.0698 41.063H18.0403L18.0698 41.0926C18.8657 41.5659 19.8384 42.3647 20.6638 43.2226C21.4007 43.9918 21.9903 44.8498 22.344 45.7077C23.7295 49.3466 21.3713 52.2755 19.0425 55.2043C18.2466 56.1806 17.4507 57.1865 16.8906 58.1627C16.3306 59.0799 15.9768 59.9082 15.6231 60.6774C14.7093 62.7779 13.9429 64.4938 11.2309 66.1801C10.3171 66.7718 10.8772 67.896 11.3194 68.8131C11.5552 69.2865 11.7615 69.7006 11.8794 70.1148C12.2626 71.4165 12.0563 72.3928 10.494 72.8662C8.19471 73.5466 6.83874 73.7537 5.48276 73.3691C4.15626 73.0141 3.15402 72.1266 1.44431 70.5882Z" fill="#06D7F9"/>
<path fill-rule="evenodd" clip-rule="evenodd" d="M2.47606 80.6468C1.79807 80.9427 1.00217 80.6173 0.736873 79.9072C0.442096 79.2268 0.766351 78.428 1.47382 78.1322C1.59173 78.1026 1.82755 77.9843 2.09285 77.8363C4.09733 76.86 8.16526 74.8779 10.7888 77.2446C12.0858 78.3984 13.9429 79.7001 15.9179 80.706C17.6276 81.6231 19.3963 82.3036 20.8702 82.5402C21.6661 82.6882 22.8452 83.2207 23.7295 83.9307C24.5254 84.5816 25.2034 85.4395 25.3508 86.3862C25.4392 86.9187 25.4687 87.54 25.4097 88.1317C25.3803 88.6346 25.2918 89.1967 25.2034 89.6701C25.0265 90.6759 25.115 90.9422 25.2918 91.3564C25.4392 91.7706 25.6456 92.2735 25.8224 93.1314C25.9698 93.9598 26.0582 94.7882 25.9403 95.5574C25.8224 96.5041 25.4097 97.3324 24.5549 97.9241L24.4959 97.9833C23.5526 98.6341 23.1105 98.93 22.1082 99.4921H22.0788C21.9019 99.6104 21.6366 99.8471 21.4302 100.113C21.2534 100.32 21.1355 100.498 21.106 100.616L20.8112 101.948C20.2511 104.344 19.6026 107.273 19.6026 109.462C19.6026 110.202 18.9836 110.823 18.2466 110.823C17.4802 110.823 16.8907 110.202 16.8907 109.462C16.8907 107.006 17.5687 103.9 18.1582 101.356C18.2172 101.09 18.2761 100.853 18.453 100.054C18.5709 99.4921 18.9246 98.9004 19.3373 98.3679C19.7795 97.8649 20.3101 97.3916 20.7523 97.1253L20.8112 97.0957C21.725 96.5928 22.1082 96.3265 22.9631 95.7349L23.022 95.7053C23.1694 95.5869 23.2284 95.4094 23.2579 95.1728C23.3463 94.7586 23.2873 94.2261 23.1694 93.6935C23.022 93.0427 22.8747 92.6581 22.7567 92.3327C22.4325 91.4451 22.2261 90.9422 22.5504 89.1967C22.6094 88.8121 22.6683 88.3979 22.7273 87.9246C22.7567 87.54 22.7273 87.1554 22.6978 86.8596C22.6388 86.6229 22.3735 86.327 22.0198 86.0608C21.4892 85.617 20.8407 85.2916 20.428 85.2324C18.6593 84.9366 16.6254 84.1378 14.6504 83.1319C12.4985 81.9781 10.4056 80.5581 8.96116 79.2564C7.7231 78.1322 4.74584 79.5522 3.27196 80.2918C2.97718 80.4398 2.71188 80.5581 2.47606 80.6468Z" fill="#06D7F9"/>
<path fill-rule="evenodd" clip-rule="evenodd" d="M71.1593 79.6114C71.2477 80.351 70.7171 81.0314 69.9507 81.1202C69.2137 81.209 68.5357 80.6764 68.4473 79.9368C68.4473 79.7593 68.2115 79.5226 67.8872 79.286C67.3566 78.8422 66.6492 78.4872 65.8533 78.2209C60.5473 76.4163 60.0756 74.4933 59.3976 71.5349C59.0734 70.2332 58.7197 68.6652 57.629 66.8014C57.2163 66.0913 56.6857 65.3517 56.0372 64.7601C55.5066 64.2867 54.8875 63.8725 54.1801 63.6358C50.967 62.4229 49.7584 63.8134 49.3163 64.2867C49.0804 64.553 48.9036 64.7305 48.5793 64.8784L48.2551 64.9671C47.7539 65.1742 47.2233 65.0263 46.8401 64.6713C46.0147 64.3459 44.8946 63.7838 44.0103 63.2217C43.0375 62.6004 42.1826 61.8904 41.9468 61.2099L41.9173 61.1508C41.2983 59.4645 40.6203 59.4645 38.7043 59.494H37.8789C34.1647 59.494 33.4867 59.494 31.8949 61.4762C30.8632 62.8371 29.4483 64.5825 28.2692 66.4168C27.149 68.1327 26.2057 69.8781 25.9699 71.2982C25.6456 73.2212 25.9699 74.9667 26.7953 76.3867C27.6501 77.8659 29.0356 79.0197 30.8337 79.7002C32.0423 80.1735 33.1035 80.4989 34.1352 80.5581C35.0785 80.6469 36.0218 80.4693 37.083 79.9664C37.2599 79.9072 37.4367 79.8185 37.6136 79.7889C38.3505 79.5818 39.3823 79.6114 40.3255 79.9072C41.3278 80.2327 42.2416 80.8835 42.7427 81.9486C42.8312 82.1261 42.8901 82.3036 42.9491 82.4811C43.1259 83.1911 43.2733 83.7828 43.3912 84.2857C43.745 85.8537 43.8334 86.1791 45.7789 88.3092C46.3095 88.9305 46.5748 90.5872 46.6338 92.3031C46.6927 94.1077 46.5159 96.1491 46.2211 96.8887C45.8674 97.6874 46.4569 100.498 47.4592 103.19C48.2551 105.379 49.3163 107.332 50.289 107.835L50.3775 107.864C51.026 108.131 51.9987 107.539 52.942 106.74C54.1211 105.705 55.1234 104.344 55.595 103.427C55.6245 103.368 55.654 103.308 55.6834 103.22C56.5973 101.208 57.629 99.8471 58.6312 98.575C60.1641 96.6224 61.52 94.8473 61.52 90.4393C61.52 89.3742 61.579 88.5163 61.6379 87.8063C61.7264 87.0667 62.4044 86.5341 63.1413 86.6229C63.9077 86.7116 64.4383 87.3921 64.3499 88.1317C64.2615 88.7234 64.232 89.463 64.232 90.4393C64.232 95.7645 62.6107 97.8945 60.7536 100.261C59.8693 101.385 58.9555 102.598 58.1891 104.314H58.1596C58.1301 104.433 58.0711 104.521 58.0122 104.669C57.4226 105.823 56.1551 107.539 54.7107 108.782C53.0599 110.231 51.1439 111.119 49.3457 110.379L49.2278 110.35C49.1983 110.32 49.1394 110.29 49.051 110.261C47.4002 109.403 45.9263 106.859 44.9241 104.137C43.7155 100.883 43.1259 97.2141 43.7155 95.8236C43.8923 95.4094 43.9808 93.8711 43.9218 92.3623C43.8923 91.2085 43.8334 90.2322 43.7744 90.1434C41.3573 87.4808 41.2394 87.0075 40.7677 84.907C40.6498 84.4632 40.5319 83.9307 40.3255 83.2207V83.1911C40.3255 83.1615 40.2961 83.1024 40.2961 83.0728C40.1782 82.8065 39.8539 82.5994 39.4707 82.4811C39.058 82.3627 38.5864 82.3332 38.2916 82.4219H38.2621C36.7293 83.1615 35.3143 83.3686 33.9289 83.2799C32.6024 83.1911 31.3054 82.7769 29.8904 82.2444C27.5027 81.3569 25.6162 79.7889 24.437 77.7476C23.3169 75.795 22.8747 73.4283 23.3169 70.8248C23.6117 68.9906 24.7023 66.9197 25.9994 64.908C27.2669 63.0146 28.6818 61.1803 29.7725 59.7899C32.1602 56.7723 33.074 56.7723 37.8789 56.7723H38.7043C42.0353 56.7723 43.1849 56.7723 44.4524 60.2041L44.4819 60.2928C44.5114 60.2928 44.9241 60.5887 45.4547 60.9437C46.339 61.5058 47.1644 62.0679 47.4886 62.275C48.373 61.3283 50.5248 59.3757 55.1234 61.062V61.0916C56.1846 61.4762 57.0689 62.0679 57.8353 62.7483C58.7197 63.5767 59.4271 64.4938 59.9577 65.4405C61.2547 67.6889 61.6674 69.4344 62.0212 70.884C62.5223 72.9549 62.8465 74.3158 66.7376 75.6471C67.7988 76.0021 68.8305 76.5346 69.5969 77.1559C70.4518 77.8363 71.0413 78.6943 71.1593 79.6114Z" fill="#06D7F9"/>
<path fill-rule="evenodd" clip-rule="evenodd" d="M72.5447 87.9542L72.6037 87.8358C72.6921 87.6287 72.81 87.4512 72.9869 87.3329C73.1932 87.1554 73.429 87.0371 73.6943 87.0075C73.7238 87.0075 73.7533 87.0075 73.8122 87.0075C74.5197 86.9483 75.0503 87.3329 75.404 88.0725C75.5514 88.3683 75.6988 88.7529 75.8462 89.1967C76.2589 90.7055 76.6126 93.0723 76.4063 94.374C76.1999 95.439 75.8757 96.9478 75.463 98.427C75.1093 99.64 74.7261 100.853 74.3723 101.681C73.2227 104.196 71.8078 105.261 70.4813 105.468C69.8033 105.557 69.1842 105.468 68.6242 105.261C68.0936 105.024 67.6219 104.699 67.2387 104.314C66.2659 103.368 65.7648 101.918 66.1186 100.971C66.7965 98.9595 66.6786 97.9241 66.5607 96.9774C66.4428 95.9419 66.3249 94.9657 66.826 93.3681C67.3566 91.6522 68.5063 91.1197 69.8033 90.4984C70.4518 90.2026 71.1298 89.8772 71.6309 89.3446C71.9552 89.0488 72.3678 88.2796 72.5447 87.9542ZM73.547 91.2676C72.6921 92.1256 71.8078 92.5693 70.9824 92.9539C70.2454 93.3089 69.5969 93.6048 69.4201 94.1669C69.0958 95.2319 69.1842 95.9124 69.2727 96.652C69.4201 97.8945 69.5675 99.2554 68.6536 101.859C68.6536 101.888 68.86 102.125 69.1253 102.391C69.2727 102.539 69.4495 102.658 69.6264 102.717C69.7738 102.776 69.9212 102.806 70.0391 102.776C70.5697 102.687 71.2182 102.095 71.8962 100.587C72.2205 99.8767 72.5447 98.8116 72.869 97.6874C73.2227 96.3561 73.547 94.9065 73.7238 93.9006C73.8417 93.3089 73.7238 92.2439 73.547 91.2676Z" fill="#06D7F9"/>
<path fill-rule="evenodd" clip-rule="evenodd" d="M28.6228 43.2522C28.8881 42.5422 29.6546 42.1872 30.362 42.4535C31.0695 42.6901 31.4232 43.4889 31.1579 44.1989L29.0355 49.9087L31.9833 54.3168L32.1012 54.0801C32.6023 53.0151 33.3393 52.0684 34.2236 51.595C38.5568 49.3466 43.6565 50.4708 48.314 51.4767C50.1416 51.8613 51.8808 52.2459 53.3841 52.3938H53.4136C54.4158 52.4825 55.5655 52.8671 56.6267 53.3701C57.8353 53.9322 59.0439 54.7014 59.8987 55.3818L59.9282 55.4114C62.0506 57.1865 61.9327 58.1627 61.7853 59.4053C61.7263 59.7899 61.6674 60.2632 61.9916 60.9733C62.2274 61.5058 63.7308 64.3163 64.9689 66.328C65.47 67.1564 65.1752 67.7777 65.47 67.7777H65.4995C65.7058 67.7185 66.4722 67.3339 67.5924 66.7126C69.0073 65.973 70.776 64.908 72.6036 63.7542C72.2794 62.7483 71.9256 61.5058 72.8394 60.4703C72.8689 60.4112 72.9279 60.3816 72.9573 60.352C73.6353 59.6715 74.6965 59.3757 75.7872 59.3165C77.1432 59.2278 78.6465 59.5236 79.2361 59.997C80.7395 61.1508 81.8301 63.8725 82.8324 66.3576C83.304 67.541 83.7757 68.6652 84.1294 69.4048C84.3357 68.9314 84.5421 68.3989 84.66 68.0439C84.8369 67.6297 84.9548 67.3339 85.1611 67.0972C85.5738 66.6239 87.4014 64.405 87.6078 64.2867C88.2563 63.9613 89.0817 64.198 89.4059 64.8784C89.7597 65.5588 89.4944 66.3576 88.8458 66.7126C88.6985 66.7718 87.6962 68.1918 87.313 68.7244C87.2835 68.8131 87.1951 68.9019 87.1361 68.9906H87.1656C87.1951 68.9906 87.2246 68.9906 87.1951 69.0202C86.9887 69.5527 86.6645 70.4698 86.2518 71.2094C85.5149 72.452 84.601 73.2508 83.3335 72.5407C82.1249 71.8603 81.2701 69.7006 80.3268 67.3635C79.4719 65.2038 78.5286 62.8667 77.6148 62.1566C77.438 62.0383 76.7305 61.9791 75.9641 62.0087C75.463 62.0383 75.0503 62.127 74.9029 62.2454H74.8734C74.8144 62.3341 75.1092 62.63 75.2271 63.0146C75.5514 64.05 75.8167 64.908 74.8144 65.5884L74.726 65.6476C72.6036 66.9789 70.5107 68.2214 68.8894 69.109C67.5924 69.819 66.5312 70.2923 65.8532 70.4403C65.7353 70.4698 65.5879 70.4994 65.47 70.4994C64.6446 70.4994 63.6424 69.316 62.6696 67.7481C61.3726 65.6772 59.7808 62.6891 59.5155 62.0975C58.867 60.6774 58.9849 59.8195 59.1028 59.0503C59.1323 58.6361 59.1912 58.3107 58.2185 57.5119L58.189 57.4823C57.4815 56.9202 56.5088 56.2989 55.477 55.8256C54.6517 55.441 53.8263 55.1747 53.1778 55.086H53.1188C51.4091 54.938 49.611 54.5535 47.7539 54.1393C43.5386 53.2222 38.94 52.2163 35.4617 54.0209C35.1669 54.1984 34.8132 54.6718 34.5184 55.2635C34.1352 56.0918 33.8994 56.9794 33.8994 57.5711C33.8994 58.0148 33.693 58.4586 33.3098 58.6953C32.6908 59.139 31.8359 58.9615 31.4232 58.3403L26.3825 50.8554C26.1467 50.5004 26.0878 50.0566 26.2351 49.6129L28.6228 43.2522ZM87.1067 68.9906C86.9887 69.1385 87.1067 69.0202 87.1656 68.9906H87.1361H87.1067Z" fill="#06D7F9"/>
<path fill-rule="evenodd" clip-rule="evenodd" d="M56.0372 29.7914C66.4133 32.1285 75.4925 37.9566 81.9186 46.0332C88.2269 53.9322 92 63.9317 92 74.8483C92 87.5992 86.8414 99.1371 78.5287 107.48C70.1865 115.823 58.6902 121 45.9853 121C33.2804 121 21.784 115.823 13.4713 107.48C5.1586 99.1371 0 87.5992 0 74.8483C0 67.1564 1.8571 59.9378 5.1586 53.5772C8.6075 46.9503 13.5598 41.2997 19.6027 37.0395L21.165 39.2583C15.4758 43.2522 10.7888 48.607 7.57578 54.8197C4.48062 60.7958 2.71195 67.6297 2.71195 74.8483C2.71195 86.83 7.5463 97.6874 15.3874 105.557C23.2285 113.426 34.0468 118.278 45.9853 118.278C57.9532 118.278 68.7716 113.426 76.5831 105.557C84.4242 97.6874 89.288 86.83 89.288 74.8483C89.288 64.5826 85.7212 55.1451 79.7962 47.7195C73.7533 40.1163 65.2342 34.6136 55.4476 32.4539L56.0372 29.7914Z" fill="#06D7F9"/>
<path d="M35.904 -9.15527e-05C42.2122 -9.15527e-05 47.9309 2.57375 52.0872 6.71556C56.2141 10.8869 58.7787 16.6263 58.7787 22.9869C58.7787 29.318 56.2141 35.0574 52.0872 39.2288C47.9309 43.3706 42.2122 45.9444 35.904 45.9444C29.5662 45.9444 23.8476 43.3706 19.7207 39.2288C15.5643 35.0574 12.9998 29.318 12.9998 22.9869C12.9998 16.6263 15.5643 10.8869 19.7207 6.71556C23.8476 2.57375 29.5662 -9.15527e-05 35.904 -9.15527e-05ZM50.1712 8.66812C46.5159 4.99966 41.4752 2.72167 35.904 2.72167C30.3327 2.72167 25.292 4.99966 21.6367 8.66812C17.9815 12.307 15.7117 17.3955 15.7117 22.9869C15.7117 28.5784 17.9815 33.6373 21.6367 37.3058C25.292 40.9447 30.3327 43.2226 35.904 43.2226C41.4752 43.2226 46.5159 40.9447 50.1712 37.3058C53.8264 33.6373 56.0667 28.5784 56.0667 22.9869C56.0667 17.3955 53.8264 12.307 50.1712 8.66812Z" fill="white"/>
<path fill-rule="evenodd" clip-rule="evenodd" d="M46.28 33.2232C46.8106 32.6906 47.6654 32.6611 48.196 33.1936C48.7266 33.7261 48.7266 34.584 48.196 35.1166C46.6042 36.7437 44.6882 38.075 42.5658 38.9625C40.5024 39.8205 38.2621 40.2938 35.9038 40.2938C33.5751 40.2938 31.3643 39.8501 29.3303 38.9921C27.2079 38.1342 25.3213 36.862 23.7295 35.2645C23.1989 34.732 23.1989 33.874 23.7295 33.3415C24.2601 32.809 25.115 32.809 25.6456 33.3415C26.9721 34.6728 28.5639 35.7674 30.362 36.4774C32.0423 37.1875 33.9288 37.5721 35.9038 37.5721C37.9083 37.5721 39.7949 37.1875 41.5341 36.4479C43.3322 35.7082 44.924 34.584 46.28 33.2232ZM22.0788 27.543C22.3146 28.253 21.9019 29.0222 21.1944 29.2589C20.487 29.4955 19.7206 29.1109 19.4847 28.4009C19.2194 27.543 18.9836 26.6554 18.8362 25.7383C18.7183 24.8212 18.6299 23.9041 18.6299 22.987C18.6299 18.1943 20.5754 13.8454 23.7001 10.7095C26.8247 7.57353 31.1284 5.65054 35.9038 5.65054C40.6792 5.65054 44.983 7.57353 48.1076 10.7095C51.2323 13.8454 53.1778 18.1943 53.1778 22.987C53.1778 23.9041 53.0894 24.8508 52.942 25.7679V25.8271C52.7651 26.7442 52.5588 27.6317 52.264 28.4897C52.0282 29.1997 51.2617 29.5843 50.5543 29.3476C49.8468 29.1109 49.4636 28.3417 49.6994 27.6317C49.9352 26.8921 50.1416 26.1525 50.2595 25.3833V25.3241C50.3774 24.5845 50.4364 23.7858 50.4364 22.987C50.4364 18.9339 48.8151 15.295 46.1916 12.6325C43.568 9.99944 39.9128 8.3723 35.9038 8.3723C31.8654 8.3723 28.2396 9.99944 25.6161 12.6325C22.9631 15.295 21.3418 18.9339 21.3418 22.987C21.3418 23.7858 21.4008 24.5549 21.5187 25.2946C21.6366 26.0637 21.8135 26.8034 22.0788 27.543Z" fill="#06D7F9"/>
<path d="M42.4184 17.5138V22.3657C42.4184 23.9928 41.6814 25.5016 40.4728 26.5371V27.5134L44.3344 28.963C44.4523 29.0222 44.5702 29.0813 44.6587 29.1405C46.28 30.2351 47.518 31.6847 48.5203 33.3415C48.8445 33.874 48.7561 34.5544 48.3434 34.9686C46.7516 36.6549 44.8061 38.0158 42.6542 38.9329C38.3799 40.7376 33.4277 40.7376 29.1534 38.9329C26.972 38.0158 25.056 36.6549 23.4642 34.9982C23.022 34.5248 22.9631 33.8148 23.2873 33.3119C24.2896 31.6256 25.5571 30.1759 27.1784 29.1109C27.2668 29.0517 27.3552 29.0222 27.4437 28.963L31.3347 27.5134V26.5371C30.0967 25.5016 29.3892 23.9928 29.3892 22.3657V17.5138C29.3892 14.7921 31.1284 13.0762 33.3687 12.3366C34.99 11.8041 36.8176 11.8041 38.4389 12.3366C40.6497 13.0762 42.4184 14.7921 42.4184 17.5138ZM39.7064 22.3657V17.5138C39.7064 16.1825 38.7631 15.3246 37.584 14.94C36.5228 14.585 35.2553 14.585 34.1941 14.94C33.015 15.3246 32.1012 16.1825 32.1012 17.5138V22.3657C32.1012 23.2828 32.5728 24.1407 33.3392 24.6437C33.7519 24.8803 34.0467 25.3241 34.0467 25.8566V28.4601C34.0467 29.0222 33.693 29.5251 33.1624 29.7322L28.5344 31.4481C27.5911 32.0989 26.8246 32.9273 26.1761 33.8444C27.3552 34.9094 28.7112 35.797 30.2146 36.4182C33.8109 37.9566 37.9967 37.9566 41.593 36.4182C43.0669 35.797 44.4523 34.9094 45.6314 33.8444C44.9535 32.9273 44.187 32.0989 43.2437 31.4481L38.7337 29.7914C38.1736 29.6138 37.7609 29.0813 37.7609 28.4601V25.8566C37.7609 25.3833 37.9672 24.9395 38.4094 24.7028C39.2053 24.1999 39.7064 23.3124 39.7064 22.3657Z" fill="white"/>
<path d="M66.708 33.6373C70.8349 32.1285 74.6081 31.3889 77.8506 31.4777C81.27 31.5664 84.0999 32.6019 86.1339 34.6432C90.7029 39.2288 90.1134 47.9266 85.4854 58.2811C81.0342 68.2806 72.7805 79.9369 61.8442 90.9127L61.7853 90.9718V91.0014C50.8785 101.948 39.2643 110.202 29.3303 114.669C19.0425 119.314 10.4056 119.905 5.83652 115.349C5.80705 115.32 5.77757 115.29 5.74809 115.261C4.48055 113.929 3.59622 112.273 3.12457 110.32C2.65293 108.367 2.5645 106.149 2.85927 103.693C2.94771 102.953 3.62569 102.421 4.36264 102.51C5.12906 102.598 5.65966 103.279 5.57122 104.019C5.30592 106.149 5.36488 108.072 5.74809 109.669C6.10182 111.148 6.75033 112.391 7.69362 113.338L7.75258 113.426C11.4373 117.095 18.9836 116.355 28.2396 112.184C37.8788 107.864 49.1688 99.8175 59.8692 89.0784L59.9282 89.0193C70.6581 78.2505 78.676 66.8902 83.0092 57.1865C87.1656 47.8674 87.9025 40.2642 84.2178 36.5662C82.7145 35.0278 80.5036 34.2586 77.7622 34.1995C75.4629 34.1403 72.8394 34.5545 69.9211 35.4124C68.8894 34.7911 67.7987 34.1995 66.708 33.6373Z" fill="white"/>
<path d="M37.5251 112.035C39.3485 112.035 40.8266 110.552 40.8266 108.722C40.8266 106.892 39.3485 105.409 37.5251 105.409C35.7018 105.409 34.2236 106.892 34.2236 108.722C34.2236 110.552 35.7018 112.035 37.5251 112.035Z" fill="white"/>
</svg>
