<svg width="233" height="99" viewBox="0 0 233 99" fill="none" xmlns="http://www.w3.org/2000/svg">
<path d="M139.961 98.5C167.317 98.5 192.086 92.5123 214.206 80.5449L215.258 79.9707C237.285 67.8178 254.784 50.1365 267.903 26.8379L268.525 25.7236L268.526 25.7227C272.864 17.9439 276.385 9.48832 279.311 0.5H198.724C193.47 9.69623 186.891 17.0471 178.83 22.459H178.829C168.01 29.7395 154.994 33.3691 139.961 33.3691C125.396 33.3691 112.799 29.9624 102.189 23.1299L101.17 22.459C93.1102 17.0481 86.4546 9.69801 81.1982 0.5H0.685547C3.35482 8.84161 6.61016 16.7839 10.5732 24.208L11.3965 25.7246C24.3 49.1242 41.7325 67.0567 63.5449 79.3877L64.5869 79.9707C86.8931 92.3202 112.17 98.5 139.961 98.5Z" stroke="#2AA875"/>
</svg>
