<svg width="607" height="269" viewBox="0 0 607 269" fill="none" xmlns="http://www.w3.org/2000/svg">
<path d="M380.394 268.5C454.873 268.5 522.336 252.2 582.59 219.609L585.454 218.045C645.472 184.941 693.142 136.78 728.872 73.3447L730.564 70.3115L730.565 70.3105C742.568 48.7916 752.277 25.384 760.312 0.5H539.607C525.344 25.5917 507.469 45.6046 485.557 60.3115H485.558C456.316 79.9857 421.111 89.8115 380.394 89.8115C340.312 89.8115 305.779 80.2901 276.817 61.2266L275.442 60.3115C253.532 45.6057 235.447 25.5932 221.181 0.5H0.683594C8.2646 24.3952 17.6091 47.1045 29.0938 68.252L30.2227 70.3125C65.3641 134.023 112.852 182.868 172.282 216.457L175.121 218.045C235.886 251.678 304.731 268.5 380.394 268.5Z" stroke="#2AA875"/>
</svg>
