<svg width="1714" height="86" viewBox="0 0 1714 86" fill="none" xmlns="http://www.w3.org/2000/svg">
<mask id="mask0_3000_1562" style="mask-type:alpha" maskUnits="userSpaceOnUse" x="0" y="33" width="10" height="20">
<rect y="33" width="10" height="20" fill="#D9D9D9"/>
</mask>
<g mask="url(#mask0_3000_1562)">
<circle cy="43" r="10" fill="#53D3AA"/>
</g>
<path d="M100.574 7.95504H119.135L90.6967 60.0442V84.7811H73.3298V60.0442L45 7.95504H63.5609L79.8424 39.9932V49.8007H84.1841V39.9932L100.574 7.95504Z" fill="#53D3AA"/>
<path d="M123.439 7.95504H141.023L161.212 80.4222H165.554L185.852 7.95504H203.436L181.293 84.7811H145.474L123.439 7.95504Z" fill="#53D3AA"/>
<path d="M203.439 46.3136C203.439 23.9741 218.201 6.86531 242.515 6.86531C266.72 6.86531 281.482 23.9741 281.482 46.3136C281.482 68.7621 266.72 85.8709 242.515 85.8709C218.201 85.8709 203.439 68.7621 203.439 46.3136ZM220.806 46.3136C220.806 61.134 228.079 70.6146 242.515 70.6146C256.951 70.6146 264.115 61.134 264.115 46.3136C264.115 31.6022 256.951 22.1216 242.515 22.1216C228.079 22.1216 220.806 31.6022 220.806 46.3136Z" fill="#53D3AA"/>
<path d="M289.087 46.3136C289.087 23.9741 303.848 6.86531 328.162 6.86531C352.367 6.86531 367.129 23.9741 367.129 46.3136C367.129 68.7621 352.367 85.8709 328.162 85.8709C303.848 85.8709 289.087 68.7621 289.087 46.3136ZM306.453 46.3136C306.453 61.134 313.726 70.6146 328.162 70.6146C342.598 70.6146 349.762 61.134 349.762 46.3136C349.762 31.6022 342.598 22.1216 328.162 22.1216C313.726 22.1216 306.453 31.6022 306.453 46.3136Z" fill="#53D3AA"/>
<path d="M387.08 0L399.671 3.37817L390.662 37.0509L378.071 33.6727L387.08 0Z" fill="#53D3AA"/>
<path d="M475.767 63.6403C475.767 76.8261 466.54 85.8709 442.986 85.8709C415.416 85.8709 405.105 74.5377 405.105 55.1404H422.472C422.472 66.9095 428.333 70.6146 443.529 70.6146C454.709 70.6146 458.4 67.9993 458.4 63.8583C458.4 58.3006 449.065 55.7943 437.885 51.9802C421.712 46.5315 408.578 42.1726 408.578 27.1343C408.578 14.0575 418.89 6.86531 438.645 6.86531C462.09 6.86531 472.619 18.8524 472.619 34.1086H455.252C455.252 24.7369 448.088 22.1216 438.645 22.1216C430.83 22.1216 425.945 23.8651 425.945 27.7882C425.945 31.2753 427.79 32.583 440.056 36.724C454.166 41.5188 475.767 47.6213 475.767 63.6403Z" fill="#53D3AA"/>
<path d="M512.694 55.4673H530.061C530.061 67.5634 534.837 70.6146 548.405 70.6146C559.585 70.6146 563.927 67.9993 563.927 61.7878C563.927 55.6853 559.91 52.852 553.398 52.852H542.761V37.5957H553.398C559.91 37.5957 562.841 34.8714 562.841 29.8587C562.841 24.7369 559.585 22.1216 548.405 22.1216C534.837 22.1216 531.146 25.1728 531.146 33.9996H513.78C513.78 14.1665 528.758 6.86531 548.405 6.86531C566.749 6.86531 580.208 13.6216 580.208 27.6792C580.208 39.2303 571.85 41.4098 562.081 43.0444V47.4033C571.85 48.711 581.293 50.3456 581.293 63.9673C581.293 79.1145 566.749 85.8709 548.405 85.8709C528.758 85.8709 512.694 78.5697 512.694 55.4673Z" fill="#53D3AA"/>
<path d="M623.646 84.7811V7.95504H657.837L669.017 80.4222H673.358L684.538 7.95504H718.729V84.7811H701.363V23.2113L704.619 12.314H700.277L688.012 84.7811H654.363L642.098 12.314H637.756L641.013 23.2113V84.7811H623.646Z" fill="#53D3AA"/>
<path d="M788.776 84.7811L781.829 60.1532H750.785L743.947 84.7811H726.363L748.397 7.95504H784.217L806.359 84.7811H788.776ZM755.019 44.8969H777.596L768.478 12.314H764.136L755.019 44.8969Z" fill="#53D3AA"/>
<path d="M831.228 85.8709L811.799 84.7811V69.5249L831.228 70.6146C843.927 71.3774 844.904 62.6596 844.904 49.4738V22.1216L821.893 23.2113V7.95504L853.045 6.86531C859.015 6.64737 862.271 10.1345 862.271 16.128V55.3584C862.271 77.044 855.759 87.2875 831.228 85.8709Z" fill="#53D3AA"/>
<path d="M871.022 46.3136C871.022 23.9741 885.784 6.86531 910.098 6.86531C934.303 6.86531 949.065 23.9741 949.065 46.3136C949.065 68.7621 934.303 85.8709 910.098 85.8709C885.784 85.8709 871.022 68.7621 871.022 46.3136ZM888.389 46.3136C888.389 61.134 895.662 70.6146 910.098 70.6146C924.534 70.6146 931.698 61.134 931.698 46.3136C931.698 31.6022 924.534 22.1216 910.098 22.1216C895.662 22.1216 888.389 31.6022 888.389 46.3136Z" fill="#53D3AA"/>
<path d="M958.921 84.7811V7.95504H988.554C1006.79 7.95504 1022.64 12.205 1022.64 29.4228C1022.64 42.0636 1012.43 45.5508 1003.21 46.6405V50.9995H1014.39C1020.36 50.9995 1023.61 54.2686 1023.61 60.2622V84.7811H1006.25V57.7558H976.288V84.7811H958.921ZM976.288 42.4995H988.554C998.865 42.4995 1005.27 42.4995 1005.27 32.9099C1005.27 23.2113 998.865 23.2113 988.554 23.2113H976.288V42.4995Z" fill="#53D3AA"/>
<path d="M1094.5 7.95504C1113.82 7.95504 1128.58 11.6601 1128.58 34.8714C1128.58 58.1917 1113.82 61.8968 1094.5 61.8968H1084.41V84.7811H1067.04V7.95504H1094.5ZM1095.59 46.6405C1105.9 46.6405 1111.22 45.5508 1111.22 34.8714C1111.22 24.301 1105.9 23.2113 1095.59 23.2113H1084.41V46.6405H1095.59Z" fill="#53D3AA"/>
<path d="M1137.32 84.7811V7.95504H1166.95C1185.19 7.95504 1201.03 12.205 1201.03 29.4228C1201.03 42.0636 1190.83 45.5508 1181.6 46.6405V50.9995H1192.78C1198.75 50.9995 1202.01 54.2686 1202.01 60.2622V84.7811H1184.64V57.7558H1154.68V84.7811H1137.32ZM1154.68 42.4995H1166.95C1177.26 42.4995 1183.67 42.4995 1183.67 32.9099C1183.67 23.2113 1177.26 23.2113 1166.95 23.2113H1154.68V42.4995Z" fill="#53D3AA"/>
<path d="M1209.58 46.3136C1209.58 23.9741 1224.35 6.86531 1248.66 6.86531C1272.86 6.86531 1287.63 23.9741 1287.63 46.3136C1287.63 68.7621 1272.86 85.8709 1248.66 85.8709C1224.35 85.8709 1209.58 68.7621 1209.58 46.3136ZM1226.95 46.3136C1226.95 61.134 1234.22 70.6146 1248.66 70.6146C1263.1 70.6146 1270.26 61.134 1270.26 46.3136C1270.26 31.6022 1263.1 22.1216 1248.66 22.1216C1234.22 22.1216 1226.95 31.6022 1226.95 46.3136Z" fill="#53D3AA"/>
<path d="M1325.7 7.95504C1346.11 7.95504 1367.38 13.2947 1367.38 46.3136C1367.38 79.4414 1346.11 84.7811 1325.7 84.7811H1297.48V7.95504H1325.7ZM1325.7 69.5249C1339.27 69.5249 1350.02 68.4352 1350.02 46.3136C1350.02 24.301 1339.27 23.2113 1325.7 23.2113H1314.85V69.5249H1325.7Z" fill="#53D3AA"/>
<path d="M1376.08 56.2302V7.95504H1393.45V48.4931C1393.45 62.2237 1394.64 70.6146 1410.6 70.6146C1426.56 70.6146 1427.86 62.2237 1427.86 48.4931V7.95504H1445.23V56.2302C1445.23 75.4094 1433.29 85.8709 1410.6 85.8709C1387.91 85.8709 1376.08 75.4094 1376.08 56.2302Z" fill="#53D3AA"/>
<path d="M1452.85 46.3136C1452.85 23.9741 1467.83 6.86531 1492.15 6.86531C1513.53 6.86531 1527.64 18.6344 1529.92 37.5957H1512.55C1510.81 27.4612 1502.78 22.1216 1492.36 22.1216C1479.01 22.1216 1470.22 30.5125 1470.22 46.3136C1470.22 62.2237 1479.01 70.6146 1492.36 70.6146C1502.78 70.6146 1510.81 65.166 1512.55 55.0315H1529.92C1527.64 74.1018 1513.53 85.8709 1492.15 85.8709C1467.83 85.8709 1452.85 68.7621 1452.85 46.3136Z" fill="#53D3AA"/>
<path d="M1598.33 7.95504V23.2113H1573.36V84.7811H1556V23.2113H1530.92V7.95504H1598.33Z" fill="#53D3AA"/>
<path d="M1669 63.6403C1669 76.8261 1659.77 85.8709 1636.22 85.8709C1608.65 85.8709 1598.34 74.5377 1598.34 55.1404H1615.71C1615.71 66.9095 1621.57 70.6146 1636.76 70.6146C1647.94 70.6146 1651.63 67.9993 1651.63 63.8583C1651.63 58.3006 1642.3 55.7943 1631.12 51.9802C1614.95 46.5315 1601.81 42.1726 1601.81 27.1343C1601.81 14.0575 1612.12 6.86531 1631.88 6.86531C1655.32 6.86531 1665.85 18.8524 1665.85 34.1086H1648.49C1648.49 24.7369 1641.32 22.1216 1631.88 22.1216C1624.06 22.1216 1619.18 23.8651 1619.18 27.7882C1619.18 31.2753 1621.02 32.583 1633.29 36.724C1647.4 41.5188 1669 47.6213 1669 63.6403Z" fill="#53D3AA"/>
<mask id="mask1_3000_1562" style="mask-type:alpha" maskUnits="userSpaceOnUse" x="1704" y="33" width="10" height="20">
<rect x="1704" y="33" width="10" height="20" fill="#D9D9D9"/>
</mask>
<g mask="url(#mask1_3000_1562)">
<circle cx="1714" cy="43" r="10" fill="#53D3AA"/>
</g>
</svg>
