<svg width="1920" height="86" viewBox="0 0 1920 86" fill="none" xmlns="http://www.w3.org/2000/svg">
<path d="M55.5741 7.95504H74.135L45.6967 60.0442V84.7811H28.3298V60.0442L0 7.95504H18.5609L34.8424 39.9932V49.8007H39.1841V39.9932L55.5741 7.95504Z" fill="#53D3AA"/>
<path d="M78.4394 7.95504H96.0234L116.212 80.4222H120.554L140.852 7.95504H158.436L136.293 84.7811H100.474L78.4394 7.95504Z" fill="#53D3AA"/>
<path d="M158.439 46.3136C158.439 23.9741 173.201 6.86531 197.515 6.86531C221.72 6.86531 236.482 23.9741 236.482 46.3136C236.482 68.7621 221.72 85.8709 197.515 85.8709C173.201 85.8709 158.439 68.7621 158.439 46.3136ZM175.806 46.3136C175.806 61.134 183.079 70.6146 197.515 70.6146C211.951 70.6146 219.115 61.134 219.115 46.3136C219.115 31.6022 211.951 22.1216 197.515 22.1216C183.079 22.1216 175.806 31.6022 175.806 46.3136Z" fill="#53D3AA"/>
<path d="M244.087 46.3136C244.087 23.9741 258.848 6.86531 283.162 6.86531C307.367 6.86531 322.129 23.9741 322.129 46.3136C322.129 68.7621 307.367 85.8709 283.162 85.8709C258.848 85.8709 244.087 68.7621 244.087 46.3136ZM261.453 46.3136C261.453 61.134 268.726 70.6146 283.162 70.6146C297.598 70.6146 304.762 61.134 304.762 46.3136C304.762 31.6022 297.598 22.1216 283.162 22.1216C268.726 22.1216 261.453 31.6022 261.453 46.3136Z" fill="#53D3AA"/>
<path d="M342.08 0L354.671 3.37817L345.662 37.0509L333.071 33.6727L342.08 0Z" fill="#53D3AA"/>
<path d="M430.767 63.6403C430.767 76.8261 421.54 85.8709 397.986 85.8709C370.416 85.8709 360.105 74.5377 360.105 55.1404H377.472C377.472 66.9095 383.333 70.6146 398.529 70.6146C409.709 70.6146 413.4 67.9993 413.4 63.8583C413.4 58.3006 404.065 55.7943 392.885 51.9802C376.712 46.5315 363.578 42.1726 363.578 27.1343C363.578 14.0575 373.89 6.86531 393.645 6.86531C417.09 6.86531 427.619 18.8524 427.619 34.1086H410.252C410.252 24.7369 403.088 22.1216 393.645 22.1216C385.83 22.1216 380.945 23.8651 380.945 27.7882C380.945 31.2753 382.79 32.583 395.056 36.724C409.166 41.5188 430.767 47.6213 430.767 63.6403Z" fill="#53D3AA"/>
<path d="M467.694 55.4673H485.061C485.061 67.5634 489.837 70.6146 503.405 70.6146C514.585 70.6146 518.927 67.9993 518.927 61.7878C518.927 55.6853 514.91 52.852 508.398 52.852H497.761V37.5957H508.398C514.91 37.5957 517.841 34.8714 517.841 29.8587C517.841 24.7369 514.585 22.1216 503.405 22.1216C489.837 22.1216 486.146 25.1728 486.146 33.9996H468.78C468.78 14.1665 483.758 6.86531 503.405 6.86531C521.749 6.86531 535.208 13.6216 535.208 27.6792C535.208 39.2303 526.85 41.4098 517.081 43.0444V47.4033C526.85 48.711 536.293 50.3456 536.293 63.9673C536.293 79.1145 521.749 85.8709 503.405 85.8709C483.758 85.8709 467.694 78.5697 467.694 55.4673Z" fill="#53D3AA"/>
<path d="M578.646 84.7811V7.95504H612.837L624.017 80.4222H628.358L639.538 7.95504H673.729V84.7811H656.363V23.2113L659.619 12.314H655.277L643.012 84.7811H609.363L597.098 12.314H592.756L596.013 23.2113V84.7811H578.646Z" fill="#53D3AA"/>
<path d="M743.776 84.7811L736.829 60.1532H705.785L698.947 84.7811H681.363L703.397 7.95504H739.217L761.359 84.7811H743.776ZM710.019 44.8969H732.596L723.478 12.314H719.136L710.019 44.8969Z" fill="#53D3AA"/>
<path d="M786.228 85.8709L766.799 84.7811V69.5249L786.228 70.6146C798.927 71.3774 799.904 62.6596 799.904 49.4738V22.1216L776.893 23.2113V7.95504L808.045 6.86531C814.015 6.64737 817.271 10.1345 817.271 16.128V55.3584C817.271 77.044 810.759 87.2875 786.228 85.8709Z" fill="#53D3AA"/>
<path d="M826.022 46.3136C826.022 23.9741 840.784 6.86531 865.098 6.86531C889.303 6.86531 904.065 23.9741 904.065 46.3136C904.065 68.7621 889.303 85.8709 865.098 85.8709C840.784 85.8709 826.022 68.7621 826.022 46.3136ZM843.389 46.3136C843.389 61.134 850.662 70.6146 865.098 70.6146C879.534 70.6146 886.698 61.134 886.698 46.3136C886.698 31.6022 879.534 22.1216 865.098 22.1216C850.662 22.1216 843.389 31.6022 843.389 46.3136Z" fill="#53D3AA"/>
<path d="M913.921 84.7811V7.95504H943.554C961.789 7.95504 977.636 12.205 977.636 29.4228C977.636 42.0636 967.433 45.5508 958.207 46.6405V50.9995H969.387C975.357 50.9995 978.613 54.2686 978.613 60.2622V84.7811H961.246V57.7558H931.288V84.7811H913.921ZM931.288 42.4995H943.554C953.865 42.4995 960.269 42.4995 960.269 32.9099C960.269 23.2113 953.865 23.2113 943.554 23.2113H931.288V42.4995Z" fill="#53D3AA"/>
<path d="M1049.5 7.95504C1068.82 7.95504 1083.58 11.6601 1083.58 34.8714C1083.58 58.1917 1068.82 61.8968 1049.5 61.8968H1039.41V84.7811H1022.04V7.95504H1049.5ZM1050.59 46.6405C1060.9 46.6405 1066.22 45.5508 1066.22 34.8714C1066.22 24.301 1060.9 23.2113 1050.59 23.2113H1039.41V46.6405H1050.59Z" fill="#53D3AA"/>
<path d="M1092.32 84.7811V7.95504H1121.95C1140.19 7.95504 1156.03 12.205 1156.03 29.4228C1156.03 42.0636 1145.83 45.5508 1136.6 46.6405V50.9995H1147.78C1153.75 50.9995 1157.01 54.2686 1157.01 60.2622V84.7811H1139.64V57.7558H1109.68V84.7811H1092.32ZM1109.68 42.4995H1121.95C1132.26 42.4995 1138.67 42.4995 1138.67 32.9099C1138.67 23.2113 1132.26 23.2113 1121.95 23.2113H1109.68V42.4995Z" fill="#53D3AA"/>
<path d="M1164.58 46.3136C1164.58 23.9741 1179.35 6.86531 1203.66 6.86531C1227.86 6.86531 1242.63 23.9741 1242.63 46.3136C1242.63 68.7621 1227.86 85.8709 1203.66 85.8709C1179.35 85.8709 1164.58 68.7621 1164.58 46.3136ZM1181.95 46.3136C1181.95 61.134 1189.22 70.6146 1203.66 70.6146C1218.1 70.6146 1225.26 61.134 1225.26 46.3136C1225.26 31.6022 1218.1 22.1216 1203.66 22.1216C1189.22 22.1216 1181.95 31.6022 1181.95 46.3136Z" fill="#53D3AA"/>
<path d="M1280.7 7.95504C1301.11 7.95504 1322.38 13.2947 1322.38 46.3136C1322.38 79.4414 1301.11 84.7811 1280.7 84.7811H1252.48V7.95504H1280.7ZM1280.7 69.5249C1294.27 69.5249 1305.02 68.4352 1305.02 46.3136C1305.02 24.301 1294.27 23.2113 1280.7 23.2113H1269.85V69.5249H1280.7Z" fill="#53D3AA"/>
<path d="M1331.08 56.2302V7.95504H1348.45V48.4931C1348.45 62.2237 1349.64 70.6146 1365.6 70.6146C1381.56 70.6146 1382.86 62.2237 1382.86 48.4931V7.95504H1400.23V56.2302C1400.23 75.4094 1388.29 85.8709 1365.6 85.8709C1342.91 85.8709 1331.08 75.4094 1331.08 56.2302Z" fill="#53D3AA"/>
<path d="M1407.85 46.3136C1407.85 23.9741 1422.83 6.86531 1447.15 6.86531C1468.53 6.86531 1482.64 18.6344 1484.92 37.5957H1467.55C1465.81 27.4612 1457.78 22.1216 1447.36 22.1216C1434.01 22.1216 1425.22 30.5125 1425.22 46.3136C1425.22 62.2237 1434.01 70.6146 1447.36 70.6146C1457.78 70.6146 1465.81 65.166 1467.55 55.0315H1484.92C1482.64 74.1018 1468.53 85.8709 1447.15 85.8709C1422.83 85.8709 1407.85 68.7621 1407.85 46.3136Z" fill="#53D3AA"/>
<path d="M1553.33 7.95504V23.2113H1528.36V84.7811H1511V23.2113H1485.92V7.95504H1553.33Z" fill="#53D3AA"/>
<path d="M1624 63.6403C1624 76.8261 1614.77 85.8709 1591.22 85.8709C1563.65 85.8709 1553.34 74.5377 1553.34 55.1404H1570.71C1570.71 66.9095 1576.57 70.6146 1591.76 70.6146C1602.94 70.6146 1606.63 67.9993 1606.63 63.8583C1606.63 58.3006 1597.3 55.7943 1586.12 51.9802C1569.95 46.5315 1556.81 42.1726 1556.81 27.1343C1556.81 14.0575 1567.12 6.86531 1586.88 6.86531C1610.32 6.86531 1620.85 18.8524 1620.85 34.1086H1603.49C1603.49 24.7369 1596.32 22.1216 1586.88 22.1216C1579.06 22.1216 1574.18 23.8651 1574.18 27.7882C1574.18 31.2753 1576.02 32.583 1588.29 36.724C1602.4 41.5188 1624 47.6213 1624 63.6403Z" fill="#53D3AA"/>
<path d="M1769.57 7.95504H1788.14L1759.7 60.0442V84.7811H1742.33V60.0442L1714 7.95504H1732.56L1748.84 39.9932V49.8007H1753.18V39.9932L1769.57 7.95504Z" fill="#53D3AA"/>
<path d="M1792.44 7.95504H1810.02L1830.21 80.4222H1834.55L1854.85 7.95504H1872.44L1850.29 84.7811H1814.47L1792.44 7.95504Z" fill="#53D3AA"/>
<path d="M1872.44 46.3136C1872.44 23.9741 1887.2 6.86531 1911.51 6.86531C1935.72 6.86531 1950.48 23.9741 1950.48 46.3136C1950.48 68.7621 1935.72 85.8709 1911.51 85.8709C1887.2 85.8709 1872.44 68.7621 1872.44 46.3136ZM1889.81 46.3136C1889.81 61.134 1897.08 70.6146 1911.51 70.6146C1925.95 70.6146 1933.11 61.134 1933.11 46.3136C1933.11 31.6022 1925.95 22.1216 1911.51 22.1216C1897.08 22.1216 1889.81 31.6022 1889.81 46.3136Z" fill="#53D3AA"/>
<path d="M1958.09 46.3136C1958.09 23.9741 1972.85 6.86531 1997.16 6.86531C2021.37 6.86531 2036.13 23.9741 2036.13 46.3136C2036.13 68.7621 2021.37 85.8709 1997.16 85.8709C1972.85 85.8709 1958.09 68.7621 1958.09 46.3136ZM1975.45 46.3136C1975.45 61.134 1982.73 70.6146 1997.16 70.6146C2011.6 70.6146 2018.76 61.134 2018.76 46.3136C2018.76 31.6022 2011.6 22.1216 1997.16 22.1216C1982.73 22.1216 1975.45 31.6022 1975.45 46.3136Z" fill="#53D3AA"/>
<path d="M2056.08 0L2068.67 3.37817L2059.66 37.0509L2047.07 33.6727L2056.08 0Z" fill="#53D3AA"/>
<path d="M2144.77 63.6403C2144.77 76.8261 2135.54 85.8709 2111.99 85.8709C2084.42 85.8709 2074.1 74.5377 2074.1 55.1404H2091.47C2091.47 66.9095 2097.33 70.6146 2112.53 70.6146C2123.71 70.6146 2127.4 67.9993 2127.4 63.8583C2127.4 58.3006 2118.06 55.7943 2106.88 51.9802C2090.71 46.5315 2077.58 42.1726 2077.58 27.1343C2077.58 14.0575 2087.89 6.86531 2107.64 6.86531C2131.09 6.86531 2141.62 18.8524 2141.62 34.1086H2124.25C2124.25 24.7369 2117.09 22.1216 2107.64 22.1216C2099.83 22.1216 2094.95 23.8651 2094.95 27.7882C2094.95 31.2753 2096.79 32.583 2109.06 36.724C2123.17 41.5188 2144.77 47.6213 2144.77 63.6403Z" fill="#53D3AA"/>
<path d="M2181.69 55.4673H2199.06C2199.06 67.5634 2203.84 70.6146 2217.4 70.6146C2228.58 70.6146 2232.93 67.9993 2232.93 61.7878C2232.93 55.6853 2228.91 52.852 2222.4 52.852H2211.76V37.5957H2222.4C2228.91 37.5957 2231.84 34.8714 2231.84 29.8587C2231.84 24.7369 2228.58 22.1216 2217.4 22.1216C2203.84 22.1216 2200.15 25.1728 2200.15 33.9996H2182.78C2182.78 14.1665 2197.76 6.86531 2217.4 6.86531C2235.75 6.86531 2249.21 13.6216 2249.21 27.6792C2249.21 39.2303 2240.85 41.4098 2231.08 43.0444V47.4033C2240.85 48.711 2250.29 50.3456 2250.29 63.9673C2250.29 79.1145 2235.75 85.8709 2217.4 85.8709C2197.76 85.8709 2181.69 78.5697 2181.69 55.4673Z" fill="#53D3AA"/>
<path d="M2292.65 84.7811V7.95504H2326.84L2338.02 80.4222H2342.36L2353.54 7.95504H2387.73V84.7811H2370.36V23.2113L2373.62 12.314H2369.28L2357.01 84.7811H2323.36L2311.1 12.314H2306.76L2310.01 23.2113V84.7811H2292.65Z" fill="#53D3AA"/>
<path d="M2457.78 84.7811L2450.83 60.1532H2419.79L2412.95 84.7811H2395.36L2417.4 7.95504H2453.22L2475.36 84.7811H2457.78ZM2424.02 44.8969H2446.6L2437.48 12.314H2433.14L2424.02 44.8969Z" fill="#53D3AA"/>
<path d="M2500.23 85.8709L2480.8 84.7811V69.5249L2500.23 70.6146C2512.93 71.3774 2513.9 62.6596 2513.9 49.4738V22.1216L2490.89 23.2113V7.95504L2522.04 6.86531C2528.01 6.64737 2531.27 10.1345 2531.27 16.128V55.3584C2531.27 77.044 2524.76 87.2875 2500.23 85.8709Z" fill="#53D3AA"/>
<path d="M2540.02 46.3136C2540.02 23.9741 2554.78 6.86531 2579.1 6.86531C2603.3 6.86531 2618.07 23.9741 2618.07 46.3136C2618.07 68.7621 2603.3 85.8709 2579.1 85.8709C2554.78 85.8709 2540.02 68.7621 2540.02 46.3136ZM2557.39 46.3136C2557.39 61.134 2564.66 70.6146 2579.1 70.6146C2593.53 70.6146 2600.7 61.134 2600.7 46.3136C2600.7 31.6022 2593.53 22.1216 2579.1 22.1216C2564.66 22.1216 2557.39 31.6022 2557.39 46.3136Z" fill="#53D3AA"/>
<path d="M2627.92 84.7811V7.95504H2657.55C2675.79 7.95504 2691.64 12.205 2691.64 29.4228C2691.64 42.0636 2681.43 45.5508 2672.21 46.6405V50.9995H2683.39C2689.36 50.9995 2692.61 54.2686 2692.61 60.2622V84.7811H2675.25V57.7558H2645.29V84.7811H2627.92ZM2645.29 42.4995H2657.55C2667.87 42.4995 2674.27 42.4995 2674.27 32.9099C2674.27 23.2113 2667.87 23.2113 2657.55 23.2113H2645.29V42.4995Z" fill="#53D3AA"/>
<path d="M2763.5 7.95504C2782.82 7.95504 2797.58 11.6601 2797.58 34.8714C2797.58 58.1917 2782.82 61.8968 2763.5 61.8968H2753.41V84.7811H2736.04V7.95504H2763.5ZM2764.59 46.6405C2774.9 46.6405 2780.22 45.5508 2780.22 34.8714C2780.22 24.301 2774.9 23.2113 2764.59 23.2113H2753.41V46.6405H2764.59Z" fill="#53D3AA"/>
<path d="M2806.32 84.7811V7.95504H2835.95C2854.19 7.95504 2870.03 12.205 2870.03 29.4228C2870.03 42.0636 2859.83 45.5508 2850.6 46.6405V50.9995H2861.78C2867.75 50.9995 2871.01 54.2686 2871.01 60.2622V84.7811H2853.64V57.7558H2823.68V84.7811H2806.32ZM2823.68 42.4995H2835.95C2846.26 42.4995 2852.67 42.4995 2852.67 32.9099C2852.67 23.2113 2846.26 23.2113 2835.95 23.2113H2823.68V42.4995Z" fill="#53D3AA"/>
<path d="M2878.58 46.3136C2878.58 23.9741 2893.35 6.86531 2917.66 6.86531C2941.86 6.86531 2956.63 23.9741 2956.63 46.3136C2956.63 68.7621 2941.86 85.8709 2917.66 85.8709C2893.35 85.8709 2878.58 68.7621 2878.58 46.3136ZM2895.95 46.3136C2895.95 61.134 2903.22 70.6146 2917.66 70.6146C2932.1 70.6146 2939.26 61.134 2939.26 46.3136C2939.26 31.6022 2932.1 22.1216 2917.66 22.1216C2903.22 22.1216 2895.95 31.6022 2895.95 46.3136Z" fill="#53D3AA"/>
<path d="M2994.7 7.95504C3015.11 7.95504 3036.38 13.2947 3036.38 46.3136C3036.38 79.4414 3015.11 84.7811 2994.7 84.7811H2966.48V7.95504H2994.7ZM2994.7 69.5249C3008.27 69.5249 3019.02 68.4352 3019.02 46.3136C3019.02 24.301 3008.27 23.2113 2994.7 23.2113H2983.85V69.5249H2994.7Z" fill="#53D3AA"/>
<path d="M3045.08 56.2302V7.95504H3062.45V48.4931C3062.45 62.2237 3063.64 70.6146 3079.6 70.6146C3095.56 70.6146 3096.86 62.2237 3096.86 48.4931V7.95504H3114.23V56.2302C3114.23 75.4094 3102.29 85.8709 3079.6 85.8709C3056.91 85.8709 3045.08 75.4094 3045.08 56.2302Z" fill="#53D3AA"/>
<path d="M3121.85 46.3136C3121.85 23.9741 3136.83 6.86531 3161.15 6.86531C3182.53 6.86531 3196.64 18.6344 3198.92 37.5957H3181.55C3179.81 27.4612 3171.78 22.1216 3161.36 22.1216C3148.01 22.1216 3139.22 30.5125 3139.22 46.3136C3139.22 62.2237 3148.01 70.6146 3161.36 70.6146C3171.78 70.6146 3179.81 65.166 3181.55 55.0315H3198.92C3196.64 74.1018 3182.53 85.8709 3161.15 85.8709C3136.83 85.8709 3121.85 68.7621 3121.85 46.3136Z" fill="#53D3AA"/>
<path d="M3267.33 7.95504V23.2113H3242.36V84.7811H3225V23.2113H3199.92V7.95504H3267.33Z" fill="#53D3AA"/>
<path d="M3338 63.6403C3338 76.8261 3328.77 85.8709 3305.22 85.8709C3277.65 85.8709 3267.34 74.5377 3267.34 55.1404H3284.71C3284.71 66.9095 3290.57 70.6146 3305.76 70.6146C3316.94 70.6146 3320.63 67.9993 3320.63 63.8583C3320.63 58.3006 3311.3 55.7943 3300.12 51.9802C3283.95 46.5315 3270.81 42.1726 3270.81 27.1343C3270.81 14.0575 3281.12 6.86531 3300.88 6.86531C3324.32 6.86531 3334.85 18.8524 3334.85 34.1086H3317.49C3317.49 24.7369 3310.32 22.1216 3300.88 22.1216C3293.06 22.1216 3288.18 23.8651 3288.18 27.7882C3288.18 31.2753 3290.02 32.583 3302.29 36.724C3316.4 41.5188 3338 47.6213 3338 63.6403Z" fill="#53D3AA"/>
<circle cx="1669" cy="48" r="10" fill="#53D3AA"/>
</svg>
