<svg width="1679" height="86" viewBox="0 0 1679 86" fill="none" xmlns="http://www.w3.org/2000/svg">
<path d="M55.5741 7.95504H74.135L45.6967 60.0442V84.7811H28.3298V60.0442L0 7.95504H18.5609L34.8424 39.9932V49.8007H39.1841V39.9932L55.5741 7.95504Z" fill="#53D3AA"/>
<path d="M78.4394 7.95504H96.0234L116.212 80.4222H120.554L140.852 7.95504H158.436L136.293 84.7811H100.474L78.4394 7.95504Z" fill="#53D3AA"/>
<path d="M158.439 46.3136C158.439 23.9741 173.201 6.86531 197.515 6.86531C221.72 6.86531 236.482 23.9741 236.482 46.3136C236.482 68.7621 221.72 85.8709 197.515 85.8709C173.201 85.8709 158.439 68.7621 158.439 46.3136ZM175.806 46.3136C175.806 61.134 183.079 70.6146 197.515 70.6146C211.951 70.6146 219.115 61.134 219.115 46.3136C219.115 31.6022 211.951 22.1216 197.515 22.1216C183.079 22.1216 175.806 31.6022 175.806 46.3136Z" fill="#53D3AA"/>
<path d="M244.087 46.3136C244.087 23.9741 258.848 6.86531 283.162 6.86531C307.367 6.86531 322.129 23.9741 322.129 46.3136C322.129 68.7621 307.367 85.8709 283.162 85.8709C258.848 85.8709 244.087 68.7621 244.087 46.3136ZM261.453 46.3136C261.453 61.134 268.726 70.6146 283.162 70.6146C297.598 70.6146 304.762 61.134 304.762 46.3136C304.762 31.6022 297.598 22.1216 283.162 22.1216C268.726 22.1216 261.453 31.6022 261.453 46.3136Z" fill="#53D3AA"/>
<path d="M342.08 0L354.671 3.37817L345.662 37.0509L333.071 33.6727L342.08 0Z" fill="#53D3AA"/>
<path d="M430.767 63.6403C430.767 76.8261 421.54 85.8709 397.986 85.8709C370.416 85.8709 360.105 74.5377 360.105 55.1404H377.472C377.472 66.9095 383.333 70.6146 398.529 70.6146C409.709 70.6146 413.4 67.9993 413.4 63.8583C413.4 58.3006 404.065 55.7943 392.885 51.9802C376.712 46.5315 363.578 42.1726 363.578 27.1343C363.578 14.0575 373.89 6.86531 393.645 6.86531C417.09 6.86531 427.619 18.8524 427.619 34.1086H410.252C410.252 24.7369 403.088 22.1216 393.645 22.1216C385.83 22.1216 380.945 23.8651 380.945 27.7882C380.945 31.2753 382.79 32.583 395.056 36.724C409.166 41.5188 430.767 47.6213 430.767 63.6403Z" fill="#53D3AA"/>
<path d="M467.694 55.4673H485.061C485.061 67.5634 489.837 70.6146 503.405 70.6146C514.585 70.6146 518.927 67.9993 518.927 61.7878C518.927 55.6853 514.91 52.852 508.398 52.852H497.761V37.5957H508.398C514.91 37.5957 517.841 34.8714 517.841 29.8587C517.841 24.7369 514.585 22.1216 503.405 22.1216C489.837 22.1216 486.146 25.1728 486.146 33.9996H468.78C468.78 14.1665 483.758 6.86531 503.405 6.86531C521.749 6.86531 535.208 13.6216 535.208 27.6792C535.208 39.2303 526.85 41.4098 517.081 43.0444V47.4033C526.85 48.711 536.293 50.3456 536.293 63.9673C536.293 79.1145 521.749 85.8709 503.405 85.8709C483.758 85.8709 467.694 78.5697 467.694 55.4673Z" fill="#53D3AA"/>
<path d="M578.646 84.7811V7.95504H612.837L624.017 80.4222H628.358L639.538 7.95504H673.729V84.7811H656.363V23.2113L659.619 12.314H655.277L643.012 84.7811H609.363L597.098 12.314H592.756L596.013 23.2113V84.7811H578.646Z" fill="#53D3AA"/>
<path d="M743.776 84.7811L736.829 60.1532H705.785L698.947 84.7811H681.363L703.397 7.95504H739.217L761.359 84.7811H743.776ZM710.019 44.8969H732.596L723.478 12.314H719.136L710.019 44.8969Z" fill="#53D3AA"/>
<path d="M786.228 85.8709L766.799 84.7811V69.5249L786.228 70.6146C798.927 71.3774 799.904 62.6596 799.904 49.4738V22.1216L776.893 23.2113V7.95504L808.045 6.86531C814.015 6.64737 817.271 10.1345 817.271 16.128V55.3584C817.271 77.044 810.759 87.2875 786.228 85.8709Z" fill="#53D3AA"/>
<path d="M826.022 46.3136C826.022 23.9741 840.784 6.86531 865.098 6.86531C889.303 6.86531 904.065 23.9741 904.065 46.3136C904.065 68.7621 889.303 85.8709 865.098 85.8709C840.784 85.8709 826.022 68.7621 826.022 46.3136ZM843.389 46.3136C843.389 61.134 850.662 70.6146 865.098 70.6146C879.534 70.6146 886.698 61.134 886.698 46.3136C886.698 31.6022 879.534 22.1216 865.098 22.1216C850.662 22.1216 843.389 31.6022 843.389 46.3136Z" fill="#53D3AA"/>
<path d="M913.921 84.7811V7.95504H943.554C961.789 7.95504 977.636 12.205 977.636 29.4228C977.636 42.0636 967.433 45.5508 958.207 46.6405V50.9995H969.387C975.357 50.9995 978.613 54.2686 978.613 60.2622V84.7811H961.246V57.7558H931.288V84.7811H913.921ZM931.288 42.4995H943.554C953.865 42.4995 960.269 42.4995 960.269 32.9099C960.269 23.2113 953.865 23.2113 943.554 23.2113H931.288V42.4995Z" fill="#53D3AA"/>
<path d="M1049.5 7.95504C1068.82 7.95504 1083.58 11.6601 1083.58 34.8714C1083.58 58.1917 1068.82 61.8968 1049.5 61.8968H1039.41V84.7811H1022.04V7.95504H1049.5ZM1050.59 46.6405C1060.9 46.6405 1066.22 45.5508 1066.22 34.8714C1066.22 24.301 1060.9 23.2113 1050.59 23.2113H1039.41V46.6405H1050.59Z" fill="#53D3AA"/>
<path d="M1092.32 84.7811V7.95504H1121.95C1140.19 7.95504 1156.03 12.205 1156.03 29.4228C1156.03 42.0636 1145.83 45.5508 1136.6 46.6405V50.9995H1147.78C1153.75 50.9995 1157.01 54.2686 1157.01 60.2622V84.7811H1139.64V57.7558H1109.68V84.7811H1092.32ZM1109.68 42.4995H1121.95C1132.26 42.4995 1138.67 42.4995 1138.67 32.9099C1138.67 23.2113 1132.26 23.2113 1121.95 23.2113H1109.68V42.4995Z" fill="#53D3AA"/>
<path d="M1164.58 46.3136C1164.58 23.9741 1179.35 6.86531 1203.66 6.86531C1227.86 6.86531 1242.63 23.9741 1242.63 46.3136C1242.63 68.7621 1227.86 85.8709 1203.66 85.8709C1179.35 85.8709 1164.58 68.7621 1164.58 46.3136ZM1181.95 46.3136C1181.95 61.134 1189.22 70.6146 1203.66 70.6146C1218.1 70.6146 1225.26 61.134 1225.26 46.3136C1225.26 31.6022 1218.1 22.1216 1203.66 22.1216C1189.22 22.1216 1181.95 31.6022 1181.95 46.3136Z" fill="#53D3AA"/>
<path d="M1280.7 7.95504C1301.11 7.95504 1322.38 13.2947 1322.38 46.3136C1322.38 79.4414 1301.11 84.7811 1280.7 84.7811H1252.48V7.95504H1280.7ZM1280.7 69.5249C1294.27 69.5249 1305.02 68.4352 1305.02 46.3136C1305.02 24.301 1294.27 23.2113 1280.7 23.2113H1269.85V69.5249H1280.7Z" fill="#53D3AA"/>
<path d="M1331.08 56.2302V7.95504H1348.45V48.4931C1348.45 62.2237 1349.64 70.6146 1365.6 70.6146C1381.56 70.6146 1382.86 62.2237 1382.86 48.4931V7.95504H1400.23V56.2302C1400.23 75.4094 1388.29 85.8709 1365.6 85.8709C1342.91 85.8709 1331.08 75.4094 1331.08 56.2302Z" fill="#53D3AA"/>
<path d="M1407.85 46.3136C1407.85 23.9741 1422.83 6.86531 1447.15 6.86531C1468.53 6.86531 1482.64 18.6344 1484.92 37.5957H1467.55C1465.81 27.4612 1457.78 22.1216 1447.36 22.1216C1434.01 22.1216 1425.22 30.5125 1425.22 46.3136C1425.22 62.2237 1434.01 70.6146 1447.36 70.6146C1457.78 70.6146 1465.81 65.166 1467.55 55.0315H1484.92C1482.64 74.1018 1468.53 85.8709 1447.15 85.8709C1422.83 85.8709 1407.85 68.7621 1407.85 46.3136Z" fill="#53D3AA"/>
<path d="M1553.33 7.95504V23.2113H1528.36V84.7811H1511V23.2113H1485.92V7.95504H1553.33Z" fill="#53D3AA"/>
<path d="M1624 63.6403C1624 76.8261 1614.77 85.8709 1591.22 85.8709C1563.65 85.8709 1553.34 74.5377 1553.34 55.1404H1570.71C1570.71 66.9095 1576.57 70.6146 1591.76 70.6146C1602.94 70.6146 1606.63 67.9993 1606.63 63.8583C1606.63 58.3006 1597.3 55.7943 1586.12 51.9802C1569.95 46.5315 1556.81 42.1726 1556.81 27.1343C1556.81 14.0575 1567.12 6.86531 1586.88 6.86531C1610.32 6.86531 1620.85 18.8524 1620.85 34.1086H1603.49C1603.49 24.7369 1596.32 22.1216 1586.88 22.1216C1579.06 22.1216 1574.18 23.8651 1574.18 27.7882C1574.18 31.2753 1576.02 32.583 1588.29 36.724C1602.4 41.5188 1624 47.6213 1624 63.6403Z" fill="#53D3AA"/>
<circle cx="1669" cy="48" r="10" fill="#53D3AA"/>
</svg>
