<svg width="16" height="16" viewBox="0 0 16 16" fill="none" xmlns="http://www.w3.org/2000/svg">
<g clip-path="url(#clip0_4971_353)">
<path d="M0.751609 7.21455C0.340101 7.21455 0.0034132 7.56364 0.0034132 7.9903C0.0034132 8.41697 0.340101 8.76606 0.751609 8.76606H13.4522L7.76594 14.6812C7.46666 14.9721 7.46666 15.457 7.76594 15.7673C8.04652 16.0776 8.51414 16.0776 8.81342 15.7673L15.7716 8.53333C16.0709 8.24242 16.0709 7.75758 15.7716 7.44727L8.81342 0.232727C8.51414 -0.0775758 8.04652 -0.0775758 7.76594 0.232727C7.46666 0.523636 7.46666 1.00848 7.76594 1.31879L13.4522 7.21455H0.751609Z" fill="#06D1F3"/>
</g>
<defs>
<clipPath id="clip0_4971_353">
<rect width="16" height="16" fill="white" transform="matrix(-1 0 0 1 16 0)"/>
</clipPath>
</defs>
</svg>
