<svg width="115" height="108" viewBox="0 0 115 108" fill="none" xmlns="http://www.w3.org/2000/svg">
<g clip-path="url(#clip0_535_990)">
<path d="M31.47 61.69C48.16 61.69 61.69 48.16 61.69 31.47C61.69 14.78 48.16 1.25 31.47 1.25C14.78 1.25 1.25 14.78 1.25 31.47C1.25 48.16 14.78 61.69 31.47 61.69Z" stroke="white" stroke-width="2.5" stroke-miterlimit="10"/>
<path d="M72.4801 92.22L90.9601 96.17V81.19H100.45C104.1 81.19 107.05 78.05 107.05 74.18V64.1L111.65 62.69C112.98 62.28 113.74 60.81 113.36 59.41L108.15 40.19C108.21 36.58 108.07 33.02 107.54 31.34C103.45 18.31 91.7201 10.11 78.0901 10.11C70.5901 10.11 63.7101 12.96 58.3601 17.68" stroke="white" stroke-width="2.5" stroke-miterlimit="10"/>
<path d="M49.62 55.63C51.38 60.09 54.04 64.05 57.36 67.25L57.43 81.1" stroke="white" stroke-width="2.5" stroke-miterlimit="10"/>
<path d="M55.13 21C50.21 26.81 47.22 34.5 47.22 42.93C47.22 46.22 47.68 49.39 48.53 52.39" stroke="white" stroke-width="2.5" stroke-miterlimit="10"/>
<path d="M31.47 31.47L15.68 47.93C11.36 43.78 8.66003 37.94 8.66003 31.47C8.66003 25 11.21 19.47 15.34 15.34L31.47 31.47Z" fill="#909295"/>
<path d="M40.4399 106.38V95.7" stroke="white" stroke-width="2.5" stroke-miterlimit="10"/>
<path d="M51.1201 106.38V74.34" stroke="white" stroke-width="2.5" stroke-miterlimit="10"/>
<path d="M61.8 106.38V85.02" stroke="white" stroke-width="2.5" stroke-miterlimit="10"/>
<path d="M72.48 106.38V63.66" stroke="white" stroke-width="2.5" stroke-miterlimit="10"/>
<path d="M35.05 106.38H77.8701" stroke="white" stroke-width="2.5" stroke-miterlimit="10"/>
</g>
<defs>
<clipPath id="clip0_535_990">
<rect width="114.71" height="107.62" fill="white"/>
</clipPath>
</defs>
</svg>
