<svg width="112" height="121" viewBox="0 0 112 121" fill="none" xmlns="http://www.w3.org/2000/svg">
<g clip-path="url(#clip0_535_985)">
<path d="M22.8999 65.58C22.8999 47.46 36.7299 32.76 53.7799 32.76C67.4099 32.76 79.1399 40.96 83.2299 53.99C83.7599 55.66 83.8899 59.22 83.8399 62.84L89.0499 82.06C89.4299 83.47 88.6699 84.94 87.3399 85.34L82.7399 86.75V96.83C82.7399 100.7 79.7799 103.84 76.1399 103.84H66.6499V118.82L34.0799 111.86L33.0499 89.9C26.8199 83.9 22.8999 75.22 22.8999 65.58Z" stroke="#06D4F6" stroke-width="2.5" stroke-miterlimit="10"/>
<path d="M86.6699 102.74L99.2399 100.21L100.27 79.53C106.5 73.88 110.42 65.71 110.42 56.63C110.42 39.57 96.5899 25.73 79.5399 25.73C71.5199 25.73 64.1799 28.42 58.6399 33.12C70.1499 34.82 79.6399 42.54 83.2399 53.99C83.7699 55.66 83.8999 59.22 83.8499 62.84" stroke="#06D4F6" stroke-width="2.5" stroke-miterlimit="10"/>
<path d="M55.2699 36.49C53.0099 39.16 51.2399 42.26 50.0799 45.73C49.5499 47.3 49.4199 50.66 49.4699 54.06L44.2599 72.15C43.8799 73.48 44.6399 74.86 45.9699 75.24L50.5699 76.57V86.06C50.5699 89.71 53.5299 92.66 57.1699 92.66H66.6599V108.46" stroke="#06D4F6" stroke-width="2.5" stroke-miterlimit="10"/>
<path d="M17.62 0C7.89 0 0 7.89 0 17.62C0 21.36 1.17 24.82 3.16 27.67L19.02 11.81H8.7V7.05H27.47V25.82H22.71V14.86L6.38 31.19C9.43 33.72 13.34 35.24 17.61 35.24C27.34 35.24 35.23 27.35 35.23 17.62C35.23 7.89 27.35 0 17.62 0Z" fill="#909295"/>
</g>
<defs>
<clipPath id="clip0_535_985">
<rect width="111.66" height="120.37" fill="white"/>
</clipPath>
</defs>
</svg>
