<svg width="97" height="112" viewBox="0 0 97 112" fill="none" xmlns="http://www.w3.org/2000/svg">
<g clip-path="url(#clip0_535_1001)">
<path d="M30.7901 47.69C43.6141 47.69 54.0101 37.2941 54.0101 24.47C54.0101 11.6459 43.6141 1.25 30.7901 1.25C17.966 1.25 7.57007 11.6459 7.57007 24.47C7.57007 37.2941 17.966 47.69 30.7901 47.69Z" stroke="white" stroke-width="2.5" stroke-miterlimit="10"/>
<path d="M30.7901 47.69C43.6141 47.69 54.0101 37.2941 54.0101 24.47C54.0101 11.6459 43.6141 1.25 30.7901 1.25C17.966 1.25 7.57007 11.6459 7.57007 24.47C7.57007 37.2941 17.966 47.69 30.7901 47.69Z" stroke="white" stroke-width="2.5" stroke-miterlimit="10"/>
<path d="M30.79 47.69C30.37 47.69 29.95 47.68 29.54 47.66C30.45 55.7 34.09 62.84 39.46 68.01L40.49 89.97L73.06 96.93V81.95H82.55C86.2 81.95 89.15 78.81 89.15 74.94V64.86L93.75 63.45C95.08 63.04 95.84 61.57 95.46 60.17L90.25 40.95C90.31 37.34 90.17 33.78 89.64 32.1C85.55 19.07 73.82 10.87 60.19 10.87C56.87 10.87 53.67 11.43 50.67 12.47" stroke="white" stroke-width="2.5" stroke-miterlimit="10"/>
<path d="M46.2001 14.43C36.1801 19.85 29.3101 30.91 29.3101 43.68" stroke="white" stroke-width="2.5" stroke-miterlimit="10"/>
<path d="M12.4499 38.7L2.09994 49.06C0.969941 50.19 0.969941 52.03 2.09994 53.17C3.22994 54.3 5.06994 54.3 6.20994 53.17L16.5599 42.82C15.7999 42.23 15.0699 41.6 14.3799 40.9C13.6799 40.2 13.0499 39.47 12.4599 38.72L12.4499 38.7Z" stroke="white" stroke-width="2.5" stroke-miterlimit="10"/>
<path d="M15.0601 17.95C16.7301 13.92 19.9301 10.53 24.2801 8.72998" stroke="white" stroke-width="2.5" stroke-miterlimit="10"/>
<path d="M12.4499 38.7L9.38989 41.76L13.4899 45.86L16.5499 42.8C15.7899 42.21 15.0599 41.58 14.3699 40.88C13.6699 40.18 13.0399 39.45 12.4499 38.7Z" stroke="white" stroke-width="2.5" stroke-miterlimit="10"/>
<path d="M23.2401 84.7C23.2601 88.39 20.2801 91.4 16.5901 91.42C12.9001 91.44 9.89009 88.46 9.87009 84.77C9.85009 81.08 12.8301 78.07 16.5201 78.05C20.2101 78.03 23.2201 81.01 23.2401 84.7ZM32.0401 84.65C31.9901 76.1 25.0201 69.2 16.4701 69.25C7.92009 69.3 1.02009 76.27 1.07009 84.82C1.09009 88.28 2.26009 91.46 4.19009 94.03L5.02009 95.32L16.7001 111.55L28.3901 94.92L28.9201 94.02C30.8801 91.41 32.0501 88.17 32.0401 84.65Z" fill="black"/>
</g>
<defs>
<clipPath id="clip0_535_1001">
<rect width="96.81" height="111.55" fill="white"/>
</clipPath>
</defs>
</svg>
