<svg width="244" height="260" viewBox="0 0 244 260" fill="none" xmlns="http://www.w3.org/2000/svg">
<path d="M122.019 196.64V184H97.0794C87.4994 184 79.7394 176.18 79.7394 166.54V141.46L67.6594 137.96C64.1794 136.96 62.1794 133.3 63.1794 129.8L76.8794 81.9796C76.7394 72.9796 77.0994 64.1197 78.4794 59.9597C81.0394 52.2397 84.7194 45.2196 89.3594 38.9796M170.579 218.84L207.619 209.4L210.319 149.32C226.699 134.38 236.979 112.8 236.979 88.7997C236.979 43.6997 200.659 7.13965 155.859 7.13965C135.379 7.13965 116.539 13.8197 102.139 25.5997" stroke="#02DFAD" stroke-width="5" stroke-linejoin="round"/>
<path d="M7.06055 111.8C7.06055 64.1996 43.3805 25.5996 88.1805 25.5996C124.001 25.5996 154.801 47.1396 165.541 81.3596C166.921 85.7596 167.281 95.0996 167.141 104.6L180.841 155.08C181.841 158.78 179.841 162.64 176.361 163.7L164.281 167.4V193.88C164.281 204.06 156.521 212.3 146.941 212.3H122.001V251.66L36.4406 233.36L33.7406 175.68C17.3606 159.9 7.08055 137.14 7.08055 111.8H7.06055Z" stroke="#06D4F6" stroke-width="5" stroke-miterlimit="10"/>
</svg>
