<svg width="60" height="60" viewBox="0 0 60 60" fill="none" xmlns="http://www.w3.org/2000/svg">
<g clip-path="url(#clip0_5339_943)">
<path d="M36.7196 5.02859C37.8076 5.32266 38.8663 5.68535 39.8955 6.10684C40.9346 6.53815 41.9344 7.03806 42.9048 7.587L45.3946 5.09721C45.9828 4.50907 46.9434 4.50907 47.5413 5.09721L54.9029 12.4587C55.491 13.0469 55.491 14.0075 54.9029 14.6055L52.4131 17.0952C52.9718 18.0657 53.4717 19.0655 53.903 20.1046C54.3245 21.1338 54.6872 22.1925 54.9813 23.2805H58.4905C59.3237 23.2805 60.0099 23.9569 60.0099 24.7999V35.2099C60.0099 36.0431 59.3335 36.7293 58.4905 36.7293H54.9813C54.6872 37.8173 54.3245 38.876 53.903 39.9052C53.4717 40.9443 52.9718 41.9539 52.4131 42.9146L54.9029 45.4043C55.491 45.9925 55.491 46.9531 54.9029 47.551L47.5413 54.9126C46.9532 55.5007 45.9926 55.5007 45.3946 54.9126L42.9048 52.4228C41.9344 52.9815 40.9346 53.4815 39.8955 53.903C38.8663 54.3245 37.8076 54.6871 36.7196 54.9812V58.4904C36.7196 59.3236 36.0432 60.0098 35.2002 60.0098H24.7901C23.9569 60.0098 23.2708 59.3334 23.2708 58.4904V54.9812C22.1827 54.6871 21.1241 54.3245 20.0948 53.903C19.0558 53.4717 18.0559 52.9717 17.0855 52.4228L14.5957 54.9126C14.0076 55.5007 13.047 55.5007 12.449 54.9126L5.08748 47.551C4.49934 46.9629 4.49934 46.0023 5.08748 45.4043L7.57727 42.9146C7.01854 41.9441 6.51862 40.9443 6.08731 39.9052C5.66581 38.876 5.30313 37.8173 5.00906 36.7293H1.49983C0.666631 36.7293 -0.0195312 36.0529 -0.0195312 35.2099V24.7999C-0.0195312 23.9667 0.656829 23.2805 1.49983 23.2805H5.00906C5.30313 22.1925 5.66581 21.1338 6.08731 20.1046C6.51862 19.0655 7.01854 18.0657 7.57727 17.0952L5.08748 14.6055C4.49934 14.0173 4.49934 13.0567 5.08748 12.4587L12.449 5.09721C13.0372 4.50907 13.9978 4.50907 14.5957 5.09721L17.0855 7.587C18.0559 7.02826 19.0558 6.52834 20.0948 6.10684C21.1241 5.68535 22.1827 5.32266 23.2708 5.02859V1.51936C23.2708 0.686162 23.9471 0 24.7901 0H35.2002C36.0334 0 36.7196 0.67636 36.7196 1.51936V5.02859ZM38.729 8.91031C37.5234 8.41039 36.2589 8.0085 34.9453 7.71443C34.2298 7.5968 33.6906 6.96945 33.6906 6.21467V3.02892H26.3193V6.21467C26.3193 6.91064 25.8292 7.54779 25.1234 7.69482C23.7903 7.98889 22.5062 8.39079 21.2711 8.90051C20.0458 9.41023 18.8695 10.018 17.7619 10.7237C17.1639 11.1648 16.3307 11.106 15.7916 10.5767L13.5371 8.32217L8.32224 13.537L10.5768 15.7915C11.0669 16.2817 11.1747 17.0658 10.7826 17.6834C10.0573 18.8107 9.42991 20.0163 8.91038 21.271C8.41047 22.4767 8.00857 23.7412 7.7145 25.0547C7.59687 25.7703 6.96952 26.3094 6.21474 26.3094H3.02899V33.6808H6.21474C6.91071 33.6808 7.54786 34.1709 7.69489 34.8767C7.98897 36.2098 8.39086 37.4939 8.90058 38.729C9.4103 39.9543 10.018 41.1305 10.7238 42.2382C11.1649 42.8361 11.1061 43.6693 10.5768 44.2085L8.32224 46.463L13.5371 51.6778L15.7916 49.4233C16.2817 48.9332 17.0659 48.8254 17.6835 49.2174C18.8107 49.9428 20.0164 50.5702 21.2711 51.0897C22.4768 51.5896 23.7413 51.9915 25.0548 52.2856C25.7704 52.4032 26.3193 53.0305 26.3193 53.7853V56.9711H33.6906V53.7853C33.6906 53.0894 34.1808 52.4522 34.8865 52.3052C36.2197 52.0111 37.5038 51.6092 38.7388 51.0995C39.9641 50.5898 41.1404 49.982 42.2481 49.2763C42.846 48.8352 43.6792 48.894 44.2183 49.4233L46.4729 51.6778L51.6877 46.463L49.4332 44.2085C48.9431 43.7183 48.8352 42.9342 49.2273 42.3166C49.9527 41.1893 50.58 39.9837 51.0996 38.729C51.5995 37.5233 52.0014 36.2588 52.2955 34.9453C52.4131 34.2297 53.0404 33.6906 53.7952 33.6906H56.981V26.3192H53.7952C53.0992 26.3192 52.4621 25.8291 52.3151 25.1233C52.021 23.7902 51.6191 22.5061 51.1094 21.271C50.5997 20.0457 49.9919 18.8695 49.2861 17.7618C48.845 17.1639 48.9039 16.3307 49.4332 15.7915L51.6877 13.537L46.4729 8.32217L44.2183 10.5767C43.7282 11.0668 42.944 11.1746 42.3265 10.7826C41.1992 10.0572 39.9935 9.42983 38.7388 8.91031H38.729Z" fill="black"/>
<path d="M29.9949 16.4875C33.7296 16.4875 37.1016 17.9971 39.5522 20.4477C41.993 22.8885 43.5123 26.2703 43.5123 30.0049C43.5123 33.7396 42.0028 37.1116 39.5522 39.5622C37.1114 42.003 33.7296 43.5224 29.9949 43.5224C26.2603 43.5224 22.8883 42.0128 20.4377 39.5622C17.9969 37.1214 16.4775 33.7396 16.4775 30.0049C16.4775 26.2703 17.9871 22.8983 20.4377 20.4477C22.8785 18.0069 26.2603 16.4875 29.9949 16.4875ZM37.4055 22.5944C35.5136 20.7025 32.8866 19.5263 29.9949 19.5263C27.1033 19.5263 24.486 20.7025 22.5844 22.5944C20.6925 24.4862 19.5163 27.1133 19.5163 30.0049C19.5163 32.8966 20.6925 35.5139 22.5844 37.4155C24.4762 39.3074 27.1033 40.4836 29.9949 40.4836C32.8866 40.4836 35.5038 39.3074 37.4055 37.4155C39.2973 35.5237 40.4736 32.8966 40.4736 30.0049C40.4736 27.1133 39.2973 24.496 37.4055 22.5944Z" fill="#06D7F9"/>
</g>
<defs>
<clipPath id="clip0_5339_943">
<rect width="60" height="60" fill="white"/>
</clipPath>
</defs>
</svg>
