<svg width="174" height="174" viewBox="0 0 174 174" fill="none" xmlns="http://www.w3.org/2000/svg">
<circle cx="87" cy="87" r="55" fill="#06D7F9"/>
<path d="M99.2371 94.8592C99.2759 94.2382 99.818 93.8113 100.399 93.8501C100.98 93.8889 101.444 94.3935 101.367 95.0144C100.709 103.786 98.9661 111.47 96.5264 116.943C94.0092 122.609 90.7176 125.985 87 125.985C82.7402 125.985 78.9839 121.483 76.3506 114.187C73.8722 107.201 72.2844 97.5759 72.2844 87.0194C72.2844 76.4241 73.8722 66.799 76.3506 59.8519C78.9839 52.5166 82.7402 48.0146 87 48.0146C88.123 48.0146 89.2073 48.3251 90.2916 48.946C91.2985 49.5282 92.2666 50.382 93.196 51.4687C93.5833 51.9345 93.5058 52.5942 93.0798 52.9823C92.6151 53.3705 91.9181 53.2928 91.5696 52.8659C90.7951 51.9345 90.0206 51.2359 89.2073 50.8089C88.5103 50.382 87.7358 50.1492 87 50.1492C83.7471 50.1492 80.6878 54.1467 78.3643 60.5505C75.9633 67.3035 74.453 76.6569 74.453 87.0194C74.453 97.3431 75.9633 106.696 78.3643 113.45C80.6878 119.892 83.7471 123.851 87 123.851C89.7882 123.851 92.4215 120.94 94.5901 116.05C96.9136 110.81 98.5788 103.359 99.2371 94.8592Z" fill="black"/>
<path d="M73.9109 93.5784C74.3756 93.9277 74.4917 94.5875 74.1819 95.0921C73.8334 95.5578 73.1751 95.6742 72.6717 95.3637C65.5075 90.396 59.7762 85.0789 56.3296 80.2275C52.7282 75.2597 51.4503 70.7189 53.3091 67.4976C53.3091 67.4976 53.3478 67.4588 53.3478 67.42C55.5164 63.8106 61.2864 62.8403 68.8379 64.1987C76.1182 65.5182 85.1799 68.9724 94.3578 74.2507C103.497 79.5677 111.01 85.6998 115.812 91.3662C120.807 97.2655 122.821 102.815 120.691 106.502L120.652 106.58C120.071 107.512 119.258 108.288 118.212 108.909C117.206 109.491 115.966 109.918 114.534 110.151C113.953 110.267 113.411 109.879 113.294 109.297C113.217 108.715 113.604 108.132 114.185 108.055C115.347 107.861 116.354 107.512 117.167 107.046C117.864 106.619 118.445 106.114 118.793 105.493L118.832 105.416C120.459 102.583 118.561 97.9641 114.146 92.7246C109.538 87.2523 102.219 81.2754 93.2734 76.1136C84.3279 70.9517 75.4986 67.5752 68.4506 66.2944C61.7899 65.0913 56.8331 65.7511 55.1679 68.5455V68.5843C53.7738 70.9906 54.9742 74.7164 58.0335 78.9856C61.3639 83.6041 66.9016 88.7659 73.9109 93.5784Z" fill="black"/>
<path d="M87.6582 72.4266C87.1161 72.6982 86.4965 72.4654 86.2254 71.922C85.993 71.3787 86.2254 70.7577 86.7288 70.486C94.6675 66.7214 102.18 64.3927 108.105 63.7717C114.262 63.112 118.832 64.2763 120.691 67.4976C120.691 67.5364 120.73 67.5752 120.73 67.5752C122.782 71.301 120.768 76.7734 115.811 82.6338C111.01 88.3002 103.497 94.4711 94.3577 99.7494L94.2802 99.7882C85.1411 105.066 76.0794 108.521 68.8378 109.84C61.2089 111.199 55.4389 110.189 53.309 106.502L53.2703 106.425C52.7281 105.455 52.457 104.329 52.457 103.126C52.457 101.923 52.7281 100.603 53.2315 99.2448C53.4639 98.7015 54.0835 98.391 54.6256 98.6238C55.1678 98.8179 55.4389 99.4389 55.2452 99.9822C54.8193 101.147 54.5869 102.194 54.5869 103.126C54.5869 103.98 54.7805 104.717 55.1291 105.377L55.1678 105.416C56.7943 108.249 61.7511 108.909 68.4505 107.706C75.4985 106.464 84.2891 103.087 93.1959 97.9252L93.2734 97.8864C102.219 92.7246 109.538 86.7477 114.146 81.2754C118.522 76.0748 120.458 71.4563 118.871 68.6231L118.832 68.5843C117.438 66.178 113.604 65.3242 108.337 65.9063C102.606 66.4885 95.3645 68.7395 87.6582 72.4266Z" fill="black"/>
<path d="M57.9948 96.7997C60.0266 96.7997 61.6737 95.149 61.6737 93.1127C61.6737 91.0764 60.0266 89.4257 57.9948 89.4257C55.963 89.4257 54.3159 91.0764 54.3159 93.1127C54.3159 95.149 55.963 96.7997 57.9948 96.7997Z" fill="black"/>
<path d="M96.1003 62.3746C98.1321 62.3746 99.7792 60.7238 99.7792 58.6875C99.7792 56.6512 98.1321 55.0005 96.1003 55.0005C94.0685 55.0005 92.4214 56.6512 92.4214 58.6875C92.4214 60.7238 94.0685 62.3746 96.1003 62.3746Z" fill="black"/>
<path d="M106.866 112.712C108.898 112.712 110.545 111.061 110.545 109.025C110.545 106.989 108.898 105.338 106.866 105.338C104.834 105.338 103.187 106.989 103.187 109.025C103.187 111.061 104.834 112.712 106.866 112.712Z" fill="black"/>
<circle cx="87" cy="87" r="61.5" stroke="#06D7F9" stroke-width="3"/>
<circle cx="87" cy="87" r="72" stroke="#06D7F9" stroke-width="2"/>
<circle cx="87" cy="87" r="86.5" stroke="#06D7F9"/>
</svg>
