<svg width="56" height="56" viewBox="0 0 56 56" fill="none" xmlns="http://www.w3.org/2000/svg">
<path d="M28 0C35.6364 0 42.8485 2.9697 47.9394 8.06061C53.0303 13.1515 56 20.3636 56 28C56 35.6364 53.0303 42.8485 47.9394 47.9394C42.8485 53.0303 35.6364 56 28 56C20.3636 56 13.1515 53.0303 8.06061 47.9394C3.39394 42.8485 0 35.6364 0 28C0 20.3636 3.39394 13.1515 8.06061 8.06061C13.1515 2.9697 20.3636 0 28 0ZM45.8182 10.1818C41.1515 5.51515 34.7879 2.9697 28 2.9697C21.2121 2.9697 14.8485 5.51515 10.1818 10.1818C5.51515 14.8485 2.9697 21.2121 2.9697 28C2.9697 34.7879 5.51515 41.1515 10.1818 45.8182C14.8485 50.4849 21.2121 53.0303 28 53.0303C34.7879 53.0303 41.1515 50.4849 45.8182 45.8182C50.4849 41.1515 53.0303 34.7879 53.0303 28C53.0303 21.2121 50.4849 14.8485 45.8182 10.1818Z" fill="#2ECD71"/>
<path d="M42.0008 18.2427C42.425 17.8185 43.2735 17.8185 43.6978 18.2427C44.5462 19.0912 44.5462 19.9397 43.6978 20.364L26.3038 38.1821C25.8796 38.6064 24.6069 38.6064 24.1826 38.1821L14.0008 28.0003C13.5766 27.5761 13.5766 26.7276 14.0008 25.8791C14.8493 25.4549 15.6978 25.4549 16.122 25.8791L25.0311 35.2124L42.0008 18.2427Z" fill="#2ECD71"/>
</svg>
