<svg width="76" height="127" viewBox="0 0 76 127" fill="none" xmlns="http://www.w3.org/2000/svg">
<g clip-path="url(#clip0_3690_13856)">
<path d="M22.1151 5.21875H36.7931C37.8031 5.21875 38.7213 5.6247 39.3903 6.29254C40.0592 6.96039 40.4659 7.87704 40.4659 8.88535C40.4659 9.89367 40.0592 10.8103 39.3903 11.4651C38.7213 12.1329 37.8031 12.5389 36.7931 12.5389H22.1151C21.1051 12.5389 20.1869 12.1329 19.518 11.4651C18.849 10.7972 18.4424 9.89367 18.4424 8.88535C18.4424 7.87704 18.849 6.96039 19.518 6.29254C20.1869 5.6247 21.1051 5.21875 22.1151 5.21875ZM36.7931 8.04727H22.1151C21.8922 8.04727 21.6823 8.13894 21.5249 8.29608C21.3675 8.45322 21.2757 8.64964 21.2757 8.88535C21.2757 9.12106 21.3675 9.31749 21.5249 9.47463C21.6823 9.63177 21.879 9.72343 22.1151 9.72343H36.7931C37.0161 9.72343 37.226 9.63177 37.3834 9.47463C37.5276 9.31749 37.6326 9.12106 37.6326 8.88535C37.6326 8.66274 37.5408 8.45322 37.3834 8.29608C37.226 8.13894 37.0292 8.04727 36.7931 8.04727Z" fill="#06D7F9"/>
<path d="M24.2663 77.3359C22.889 76.4062 21.7478 75.1491 20.9608 73.6693C20.2 72.242 19.7803 70.6182 19.7803 68.9028C19.7803 66.0873 20.9215 63.5469 22.771 61.7005C24.6205 59.8541 27.1652 58.7148 29.9853 58.7148C32.8055 58.7148 35.3502 59.8541 37.1997 61.7005C39.0492 63.5469 40.1904 66.0873 40.1904 68.9028C40.1904 70.7753 39.6788 72.5301 38.7868 74.0491C37.8686 75.6205 36.5438 76.9169 34.9698 77.7943L33.5794 75.3324C34.7337 74.6907 35.6912 73.7479 36.3471 72.6217C36.9898 71.5348 37.344 70.2646 37.344 68.9028C37.344 66.873 36.5176 65.0397 35.1928 63.704C33.8548 62.3683 32.0185 61.5565 29.9853 61.5565C27.9522 61.5565 26.1158 62.3814 24.7779 63.704C23.4399 65.0397 22.6267 66.873 22.6267 68.9028C22.6267 70.1468 22.9415 71.3253 23.4793 72.3467C24.0433 73.4205 24.8697 74.3241 25.8666 74.9919L24.2794 77.3359H24.2663Z" fill="#06D7F9"/>
<path d="M17.8782 68.9021C17.8782 69.6747 17.2486 70.3164 16.4616 70.3164C15.6877 70.3164 15.0449 69.6878 15.0449 68.9021C15.0449 64.7903 16.7108 61.0582 19.4129 58.3606C22.115 55.6631 25.8402 54 29.9721 54C34.0908 54 37.8292 55.6631 40.5313 58.3606C43.2334 61.0582 44.8993 64.7772 44.8993 68.9021C44.8993 69.6878 44.2696 70.3164 43.4826 70.3164C42.6956 70.3164 42.066 69.6878 42.066 68.9021C42.066 65.576 40.7149 62.551 38.5244 60.3642C36.3338 58.1773 33.3169 56.8285 29.9721 56.8285C26.6404 56.8285 23.6103 58.1773 21.4198 60.3642C19.2292 62.551 17.8782 65.5629 17.8782 68.9021Z" fill="#06D7F9"/>
<path d="M23.5834 92.4712C24.3704 92.4712 25 93.0998 25 93.8855C25 94.6712 24.3704 95.2997 23.5834 95.2997H8.08008C5.85019 95.2997 3.83017 94.3962 2.37418 92.9295C0.905074 91.4629 0 89.4463 0 87.2332V8.08703C0 5.86088 0.905074 3.84425 2.37418 2.3907C3.84329 0.924063 5.86331 0.0205078 8.08008 0.0205078H50.5923C52.8222 0.0205078 54.8423 0.924063 56.2982 2.3907C57.7673 3.85734 58.6724 5.87397 58.6724 8.08703V28.5861C58.6724 29.3718 58.0428 30.0004 57.2558 30.0004C56.4688 30.0004 55.8391 29.3718 55.8391 28.5861V8.08703C55.8391 6.64658 55.2489 5.33708 54.2913 4.38114C53.3338 3.42521 52.0221 2.83593 50.5792 2.83593H8.06697C6.62409 2.83593 5.31239 3.42521 4.35485 4.38114C3.39731 5.33708 2.80704 6.64658 2.80704 8.08703V87.2332C2.80704 88.6737 3.39731 89.9832 4.35485 90.9391C5.31239 91.895 6.62409 92.4843 8.06697 92.4843H23.5702L23.5834 92.4712ZM55.8523 41.0004C55.8523 40.2147 56.4819 39.5861 57.2689 39.5861C58.0559 39.5861 58.6855 40.2147 58.6855 41.0004V88.0861C58.6855 88.8718 58.0559 89.5004 57.2689 89.5004C56.4819 89.5004 55.8523 88.8718 55.8523 88.0861V41.0004Z" fill="#06D7F9"/>
<path d="M35.7964 93.5731C35.7964 94.3588 35.1668 94.9873 34.3798 94.9873C33.5928 94.9873 32.9632 94.3588 32.9632 93.5731V92.1064V87.3922V72.608C32.9632 71.7568 32.6221 70.9842 32.0581 70.4342C31.4941 69.8711 30.7333 69.5307 29.8807 69.5307C29.0281 69.5307 28.2542 69.8711 27.7032 70.4342C27.1523 70.9842 26.7982 71.7568 26.7982 72.608V93.9398V99.8718C26.7982 100.657 26.1686 101.286 25.3815 101.286C24.5945 101.286 23.9649 100.657 23.9649 99.8718V95.354C23.1123 95.3802 22.3515 95.7207 21.8006 96.2837C21.2234 96.8599 20.8693 97.6456 20.8693 98.523V109.929C20.8693 113.713 22.4171 117.157 24.9224 119.645C27.4278 122.133 30.8907 123.692 34.6946 123.692H46.1589C49.9628 123.692 53.4126 122.146 55.9311 119.645C58.4364 117.157 59.9842 113.713 59.9842 109.929V93.4421C59.9842 92.591 59.6432 91.8184 59.0792 91.2684C58.5282 90.7184 57.7543 90.3648 56.9017 90.3648C56.0491 90.3648 55.2752 90.7053 54.7243 91.2684C54.1734 91.8184 53.8192 92.591 53.8192 93.4421V96.179C53.8192 96.2183 53.8192 96.2576 53.8192 96.2968V97.829C53.8192 98.6016 53.1896 99.2432 52.4026 99.2432C51.6287 99.2432 50.9859 98.6147 50.9859 97.829V96.2968C50.9859 96.2576 50.9859 96.2183 50.9859 96.179V93.4421C50.9859 93.3636 50.9859 93.2719 50.9859 93.1933V90.26C50.9859 89.4089 50.6318 88.6494 50.0809 88.0863C49.5168 87.5232 48.7561 87.1827 47.9035 87.1827C47.0508 87.1827 46.2769 87.5232 45.726 88.0863C45.162 88.6494 44.8209 89.4089 44.8209 90.26V94.0576V95.5242C44.8209 96.3099 44.1913 96.9385 43.4043 96.9385C42.6173 96.9385 41.9877 96.3099 41.9877 95.5242V94.0576V90.26V87.3922C41.9877 86.5804 41.6597 85.8339 41.1351 85.284L41.0695 85.2316C40.5055 84.6685 39.7447 84.328 38.8921 84.328C38.0395 84.328 37.2787 84.6816 36.7146 85.2316C36.1506 85.7947 35.8096 86.5542 35.8096 87.4053V92.1195V93.5862L35.7964 93.5731ZM23.9518 92.5124V72.608C23.9518 70.9842 24.6207 69.5176 25.6832 68.4438L25.6963 68.4307C26.7719 67.3569 28.2542 66.7021 29.8676 66.7021C31.4941 66.7021 32.9763 67.37 34.0388 68.4307C35.1144 69.5045 35.7702 70.9711 35.7702 72.5949V82.3507C36.6753 81.8007 37.7246 81.4864 38.8527 81.4864C40.4792 81.4864 41.9614 82.1542 43.037 83.2149L43.1157 83.3066C43.6929 83.909 44.152 84.6423 44.4406 85.4411C45.4112 84.7471 46.5917 84.3411 47.8641 84.3411C49.4906 84.3411 50.9728 85.009 52.0484 86.0697C52.7305 86.7506 53.2552 87.6018 53.5438 88.5577C54.5013 87.903 55.6425 87.5232 56.8755 87.5232C58.502 87.5232 59.9711 88.191 61.0467 89.2517L61.0598 89.2648C62.1354 90.3386 62.7913 91.8184 62.7913 93.429V109.916C62.7913 114.473 60.9155 118.624 57.8986 121.636C54.8817 124.634 50.7236 126.507 46.1327 126.507H34.6684C30.0905 126.507 25.9193 124.648 22.9024 121.636C19.8855 118.624 18.0098 114.486 18.0098 109.916V98.5099C18.0098 96.8599 18.6919 95.3671 19.7806 94.2671L19.7937 94.254C20.8693 93.1802 22.3384 92.5124 23.9518 92.4993V92.5124Z" fill="white"/>
<path d="M14.1135 37.9404C15.9105 37.9404 17.537 38.6738 18.7175 39.8392C19.8981 41.0178 20.6195 42.6415 20.6195 44.4356C20.6195 46.2296 19.8981 47.8533 18.7175 49.0319C17.537 50.2104 15.9105 50.9307 14.1135 50.9307C12.3164 50.9307 10.6899 50.2104 9.50939 49.0319C8.32886 47.8533 7.60742 46.2296 7.60742 44.4356C7.60742 42.6415 8.32886 41.0178 9.50939 39.8392C10.6899 38.6607 12.3164 37.9404 14.1135 37.9404ZM16.7106 41.8427C16.0417 41.1749 15.1235 40.769 14.1135 40.769C13.1035 40.769 12.1853 41.1749 11.5163 41.8427C10.8473 42.5106 10.4407 43.4272 10.4407 44.4356C10.4407 45.4439 10.8473 46.3605 11.5163 47.0284C12.1853 47.6962 13.1035 48.1021 14.1135 48.1021C15.1235 48.1021 16.0417 47.6962 16.7106 47.0284C17.3796 46.3605 17.7862 45.4439 17.7862 44.4356C17.7862 43.4272 17.3796 42.5106 16.7106 41.8427Z" fill="white"/>
<path d="M31.3488 19.4893C33.1458 19.4893 34.7724 20.2095 35.9529 21.388C37.1334 22.5666 37.8549 24.1904 37.8549 25.9844C37.8549 27.7784 37.1334 29.4022 35.9529 30.5807C34.7724 31.7593 33.1458 32.4795 31.3488 32.4795C29.5518 32.4795 27.9253 31.7593 26.7447 30.5807C25.5642 29.4022 24.8428 27.7784 24.8428 25.9844C24.8428 24.1904 25.5642 22.5666 26.7447 21.388C27.9253 20.2095 29.5518 19.4893 31.3488 19.4893ZM33.946 23.3916C33.277 22.7237 32.3588 22.3178 31.3488 22.3178C30.3388 22.3178 29.4206 22.7237 28.7516 23.3916C28.0827 24.0594 27.676 24.9761 27.676 25.9844C27.676 26.9927 28.0827 27.9093 28.7516 28.5772C29.4206 29.245 30.3388 29.651 31.3488 29.651C32.3588 29.651 33.277 29.245 33.946 28.5772C34.615 27.9093 35.0216 26.9927 35.0216 25.9844C35.0216 24.9761 34.615 24.0594 33.946 23.3916Z" fill="white"/>
<path d="M45.0302 35.6876C46.8272 35.6876 48.4538 36.4078 49.6343 37.5864C50.8148 38.7649 51.5363 40.3887 51.5363 42.1827C51.5363 43.9768 50.8148 45.6005 49.6343 46.7791C48.4538 47.9576 46.8272 48.6779 45.0302 48.6779C43.2332 48.6779 41.6067 47.9576 40.4261 46.7791C39.2456 45.6005 38.5242 43.9768 38.5242 42.1827C38.5242 40.3887 39.2456 38.7649 40.4261 37.5864C41.6067 36.4078 43.2332 35.6876 45.0302 35.6876ZM47.6274 39.5899C46.9584 38.9221 46.0402 38.5161 45.0302 38.5161C44.0202 38.5161 43.102 38.9221 42.433 39.5899C41.7641 40.2578 41.3574 41.1744 41.3574 42.1827C41.3574 43.1911 41.7641 44.1077 42.433 44.7756C43.102 45.4434 44.0202 45.8493 45.0302 45.8493C46.0402 45.8493 46.9584 45.4434 47.6274 44.7756C48.2963 44.1077 48.703 43.1911 48.703 42.1827C48.703 41.1744 48.2963 40.2578 47.6274 39.5899Z" fill="white"/>
<path d="M69.4936 9C71.2906 9 72.9171 9.72022 74.0977 10.8988C75.2782 12.0773 75.9996 13.7011 75.9996 15.4951C75.9996 17.2891 75.2782 18.9129 74.0977 20.0915C72.9171 21.27 71.2906 21.9902 69.4936 21.9902C67.6966 21.9902 66.07 21.27 64.8895 20.0915C63.709 18.9129 62.9875 17.2891 62.9875 15.4951C62.9875 13.7011 63.709 12.0773 64.8895 10.8988C66.07 9.72022 67.6966 9 69.4936 9ZM72.0908 12.9023C71.4218 12.2345 70.5036 11.8285 69.4936 11.8285C68.4836 11.8285 67.5654 12.2345 66.8964 12.9023C66.2275 13.5702 65.8208 14.4868 65.8208 15.4951C65.8208 16.5034 66.2275 17.4201 66.8964 18.0879C67.5654 18.7558 68.4836 19.1617 69.4936 19.1617C70.5036 19.1617 71.4218 18.7558 72.0908 18.0879C72.7597 17.4201 73.1664 16.5034 73.1664 15.4951C73.1664 14.4868 72.7597 13.5702 72.0908 12.9023Z" fill="white"/>
<path d="M18.6389 41.5938C18.1142 42.17 17.2223 42.2093 16.6451 41.6855C16.068 41.1617 16.0286 40.2712 16.5533 39.695L26.719 28.5643C27.2437 27.9881 28.1356 27.9488 28.7128 28.4726C29.2899 28.9964 29.3293 29.8869 28.8046 30.4631L18.6389 41.5938Z" fill="white"/>
<path d="M43.0231 37.1408C43.5215 37.7432 43.4428 38.6336 42.8394 39.1312C42.2361 39.6288 41.3441 39.5503 40.8457 38.9479L33.8018 30.5671C33.3034 29.9647 33.3821 29.0743 33.9855 28.5767C34.5888 28.0791 35.4808 28.1576 35.9792 28.76L43.0231 37.1408Z" fill="white"/>
<path d="M49.8049 39.367C49.2803 39.9432 48.3883 39.9825 47.8111 39.4587C47.234 38.9349 47.1946 38.0444 47.7193 37.4683L65.0994 18.4412C65.6241 17.8651 66.516 17.8258 67.0932 18.3496C67.6703 18.8734 67.7097 19.7638 67.185 20.34L49.8049 39.367Z" fill="white"/>
</g>
<defs>
<clipPath id="clip0_3690_13856">
<rect width="76" height="127" fill="white"/>
</clipPath>
</defs>
</svg>
