<svg width="100" height="100" viewBox="0 0 100 100" fill="none" xmlns="http://www.w3.org/2000/svg">
<g clip-path="url(#clip0_3690_14120)">
<path d="M85.7679 20.4986C85.1315 19.7235 85.2424 18.5797 86.0175 17.9433C86.7925 17.3069 87.9364 17.4178 88.5728 18.1929C92.204 22.5908 95.0976 27.6237 97.065 33.1017C98.9658 38.3939 100.002 44.084 100.002 49.9987C100.002 63.8053 94.4043 76.3059 85.3561 85.354C76.308 94.4022 63.8074 99.9994 50.0009 99.9994C48.3801 99.9994 46.7371 99.9163 45.0775 99.754C43.3984 99.5904 41.7762 99.3506 40.2137 99.04C39.2265 98.8473 38.5832 97.8906 38.7759 96.9048C38.9686 95.9176 39.9253 95.2743 40.9111 95.467C42.4223 95.7665 43.9267 95.9925 45.4185 96.1381C46.8854 96.2823 48.4133 96.3558 49.9995 96.3558C62.8009 96.3558 74.3891 91.1676 82.7773 82.7793C91.1655 74.3911 96.3537 62.8015 96.3537 50.0015C96.3537 44.4861 95.3984 39.2091 93.6459 34.3287C91.8241 29.2542 89.1385 24.5859 85.7665 20.5013L85.7679 20.4986ZM37.3478 46.0015C36.6366 45.2903 36.6366 44.1367 37.3478 43.4254C38.0591 42.7142 39.2126 42.7142 39.9239 43.4254L49.4504 52.952L72.0639 30.3384C72.7752 29.6272 73.9288 29.6272 74.64 30.3384C75.3513 31.0497 75.3513 32.2032 74.64 32.9145L50.7385 56.8161C50.0272 57.5273 48.8736 57.5273 48.1624 56.8161L37.3478 46.0015ZM74.8757 6.74883C75.9405 6.74883 76.8043 7.61261 76.8043 8.67742C76.8043 9.74224 75.9405 10.606 74.8757 10.606C73.8109 10.606 72.9471 9.74224 72.9471 8.67742C72.9471 7.61261 73.8109 6.74883 74.8757 6.74883ZM24.9499 89.5662C26.0147 89.5662 26.8785 90.4299 26.8785 91.4948C26.8785 92.5596 26.0147 93.4234 24.9499 93.4234C23.8851 93.4234 23.0213 92.5596 23.0213 91.4948C23.0213 90.4299 23.8851 89.5662 24.9499 89.5662ZM68.9277 50.6227C68.9277 49.6161 69.743 48.8008 70.7495 48.8008C71.7561 48.8008 72.5714 49.6161 72.5714 50.6227V63.1578C72.5714 65.8712 71.4622 68.335 69.6764 70.1208C67.8906 71.9065 65.4255 73.0157 62.7135 73.0157H37.0012C34.2892 73.0157 31.8241 71.9079 30.0383 70.1208C28.2525 68.335 27.1433 65.8698 27.1433 63.1578V37.4455C27.1433 34.7322 28.2525 32.2684 30.0383 30.4826C31.8241 28.6968 34.2892 27.5877 37.0012 27.5877H50.0716C51.0782 27.5877 51.8934 28.4029 51.8934 29.4095C51.8934 30.4161 51.0782 31.2313 50.0716 31.2313H37.0012C35.2944 31.2313 33.7416 31.9315 32.6144 33.0573C31.4872 34.1845 30.7884 35.7374 30.7884 37.4442V63.1565C30.7884 64.8632 31.4885 66.4161 32.6144 67.5433C33.7416 68.6705 35.2944 69.3693 37.0012 69.3693H62.7135C64.4203 69.3693 65.9731 68.6691 67.1003 67.5433C68.2275 66.4161 68.9263 64.8632 68.9263 63.1565V50.6213L68.9277 50.6227ZM14.4556 79.7596C15.1003 80.5305 14.9977 81.6771 14.2282 82.3218C13.4573 82.9665 12.3107 82.8639 11.666 82.0944C7.96272 77.6757 5.00813 72.6026 2.99912 67.0705C1.06082 61.7339 0.00292969 55.9842 0.00292969 49.9987C0.00292969 36.1922 5.59877 23.6916 14.6483 14.6435C23.6965 5.59527 36.197 -0.00195312 50.0036 -0.00195312C51.6979 -0.00195312 53.4074 0.0881682 55.1239 0.262865C56.8362 0.437562 58.5222 0.69822 60.179 1.04068C61.162 1.24172 61.7957 2.19978 61.596 3.1828C61.395 4.16581 60.4369 4.79943 59.4539 4.59978C57.919 4.28228 56.3551 4.03964 54.769 3.87881C53.2355 3.72214 51.6466 3.64311 50.0036 3.64311C37.2022 3.64311 25.614 8.83132 17.2258 17.2195C8.83759 25.6078 3.64938 37.1974 3.64938 49.9974C3.64938 55.5682 4.62685 60.8993 6.41818 65.8296C8.27884 70.9499 11.0199 75.6528 14.4584 79.7568L14.4556 79.7596Z" fill="#949CAF"/>
</g>
<defs>
<clipPath id="clip0_3690_14120">
<rect width="100" height="100" fill="white"/>
</clipPath>
</defs>
</svg>
