<svg width="166" height="69" viewBox="0 0 166 69" fill="none" xmlns="http://www.w3.org/2000/svg">
<mask id="mask0_4159_143" style="mask-type:alpha" maskUnits="userSpaceOnUse" x="0" y="0" width="166" height="69">
<rect width="166" height="69.0001" fill="#C4C4C4"/>
</mask>
<g mask="url(#mask0_4159_143)">
<path d="M28.108 32.2898H25.983C25.9224 31.9413 25.8106 31.6326 25.6477 31.3637C25.4849 31.091 25.2822 30.8599 25.0398 30.6705C24.7974 30.4811 24.5209 30.3391 24.2102 30.2444C23.9034 30.1459 23.572 30.0966 23.2159 30.0966C22.5834 30.0966 22.0227 30.2557 21.5341 30.5739C21.0455 30.8883 20.6629 31.3504 20.3864 31.9603C20.1099 32.5663 19.9716 33.3069 19.9716 34.1819C19.9716 35.072 20.1099 35.822 20.3864 36.4319C20.6667 37.0379 21.0493 37.4963 21.5341 37.8069C22.0227 38.1137 22.5815 38.2671 23.2102 38.2671C23.5587 38.2671 23.8845 38.2216 24.1875 38.1307C24.4943 38.036 24.769 37.8978 25.0114 37.716C25.2576 37.5341 25.464 37.3107 25.6307 37.0455C25.8012 36.7803 25.9186 36.4773 25.983 36.1364L28.108 36.1478C28.0284 36.7008 27.8561 37.2197 27.5909 37.7046C27.3296 38.1894 26.9868 38.6175 26.5625 38.9887C26.1383 39.3561 25.6421 39.644 25.0739 39.8523C24.5057 40.0569 23.875 40.1591 23.1818 40.1591C22.1591 40.1591 21.2462 39.9224 20.4432 39.4489C19.6402 38.9754 19.0076 38.2917 18.5455 37.3978C18.0834 36.5038 17.8523 35.4319 17.8523 34.1819C17.8523 32.9281 18.0852 31.8561 18.5512 30.966C19.0171 30.072 19.6515 29.3883 20.4546 28.9148C21.2576 28.4413 22.1667 28.2046 23.1818 28.2046C23.8296 28.2046 24.4318 28.2955 24.9887 28.4773C25.5455 28.6591 26.0417 28.9262 26.4773 29.2785C26.9129 29.6269 27.2709 30.055 27.5512 30.5625C27.8352 31.0663 28.0209 31.6421 28.108 32.2898Z" fill="#949CAF"/>
<path d="M40.4361 34.1819C40.4361 35.4357 40.2013 36.5095 39.7316 37.4035C39.2656 38.2936 38.6293 38.9754 37.8225 39.4489C37.0194 39.9224 36.1085 40.1591 35.0895 40.1591C34.0706 40.1591 33.1577 39.9224 32.3509 39.4489C31.5478 38.9716 30.9115 38.2879 30.4418 37.3978C29.9759 36.5038 29.7429 35.4319 29.7429 34.1819C29.7429 32.9281 29.9759 31.8561 30.4418 30.966C30.9115 30.072 31.5478 29.3883 32.3509 28.9148C33.1577 28.4413 34.0706 28.2046 35.0895 28.2046C36.1085 28.2046 37.0194 28.4413 37.8225 28.9148C38.6293 29.3883 39.2656 30.072 39.7316 30.966C40.2013 31.8561 40.4361 32.9281 40.4361 34.1819ZM38.3168 34.1819C38.3168 33.2993 38.1785 32.555 37.902 31.9489C37.6293 31.3391 37.2505 30.8788 36.7656 30.5682C36.2808 30.2538 35.7221 30.0966 35.0895 30.0966C34.4569 30.0966 33.8982 30.2538 33.4134 30.5682C32.9285 30.8788 32.5478 31.3391 32.2713 31.9489C31.9986 32.555 31.8622 33.2993 31.8622 34.1819C31.8622 35.0644 31.9986 35.8107 32.2713 36.4205C32.5478 37.0266 32.9285 37.4868 33.4134 37.8012C33.8982 38.1118 34.4569 38.2671 35.0895 38.2671C35.7221 38.2671 36.2808 38.1118 36.7656 37.8012C37.2505 37.4868 37.6293 37.0266 37.902 36.4205C38.1785 35.8107 38.3168 35.0644 38.3168 34.1819Z" fill="#949CAF"/>
<path d="M42.429 28.3637H45.0085L48.4631 36.7955H48.5995L52.054 28.3637H54.6335V40H52.6108V32.0057H52.5029L49.287 39.966H47.7756L44.5597 31.9887H44.4517V40H42.429V28.3637Z" fill="#949CAF"/>
<path d="M56.929 40V28.3637H61.2926C62.1866 28.3637 62.9366 28.5303 63.5426 28.8637C64.1525 29.197 64.6127 29.6553 64.9233 30.2387C65.2377 30.8182 65.3949 31.4773 65.3949 32.216C65.3949 32.9622 65.2377 33.625 64.9233 34.2046C64.6089 34.7841 64.1449 35.2406 63.5313 35.5739C62.9176 35.9035 62.162 36.0682 61.2642 36.0682H58.3722V34.3353H60.9801C61.5029 34.3353 61.9309 34.2444 62.2642 34.0625C62.5976 33.8807 62.8438 33.6307 63.0029 33.3125C63.1657 32.9944 63.2472 32.6288 63.2472 32.216C63.2472 31.8031 63.1657 31.4394 63.0029 31.125C62.8438 30.8107 62.5957 30.5663 62.2585 30.3921C61.9252 30.2141 61.4953 30.125 60.9688 30.125H59.037V40H56.929Z" fill="#949CAF"/>
<path d="M67.4233 40H65.1733L69.2699 28.3637H71.8722L75.9745 40H73.7245L70.6165 30.75H70.5256L67.4233 40ZM67.4972 35.4375H73.6335V37.1307H67.4972V35.4375Z" fill="#949CAF"/>
<path d="M87.0696 28.3637V40H85.1946L79.7117 32.0739H79.6151V40H77.5071V28.3637H79.3935L84.8708 36.2955H84.973V28.3637H87.0696Z" fill="#949CAF"/>
<path d="M88.571 28.3637H90.9517L93.7983 33.5114H93.912L96.7585 28.3637H99.1392L94.9063 35.6591V40H92.804V35.6591L88.571 28.3637Z" fill="#949CAF"/>
<path d="M104.601 40V28.3637H106.709V38.233H111.834V40H104.601Z" fill="#949CAF"/>
<path d="M123.608 34.1819C123.608 35.4357 123.373 36.5095 122.903 37.4035C122.438 38.2936 121.801 38.9754 120.994 39.4489C120.191 39.9224 119.28 40.1591 118.261 40.1591C117.242 40.1591 116.33 39.9224 115.523 39.4489C114.72 38.9716 114.083 38.2879 113.614 37.3978C113.148 36.5038 112.915 35.4319 112.915 34.1819C112.915 32.9281 113.148 31.8561 113.614 30.966C114.083 30.072 114.72 29.3883 115.523 28.9148C116.33 28.4413 117.242 28.2046 118.261 28.2046C119.28 28.2046 120.191 28.4413 120.994 28.9148C121.801 29.3883 122.438 30.072 122.903 30.966C123.373 31.8561 123.608 32.9281 123.608 34.1819ZM121.489 34.1819C121.489 33.2993 121.35 32.555 121.074 31.9489C120.801 31.3391 120.422 30.8788 119.938 30.5682C119.453 30.2538 118.894 30.0966 118.261 30.0966C117.629 30.0966 117.07 30.2538 116.585 30.5682C116.1 30.8788 115.72 31.3391 115.443 31.9489C115.17 32.555 115.034 33.2993 115.034 34.1819C115.034 35.0644 115.17 35.8107 115.443 36.4205C115.72 37.0266 116.1 37.4868 116.585 37.8012C117.07 38.1118 117.629 38.2671 118.261 38.2671C118.894 38.2671 119.453 38.1118 119.938 37.8012C120.422 37.4868 120.801 37.0266 121.074 36.4205C121.35 35.8107 121.489 35.0644 121.489 34.1819Z" fill="#949CAF"/>
<path d="M133.396 32.0796C133.302 31.7728 133.171 31.4982 133.004 31.2557C132.841 31.0095 132.644 30.7993 132.413 30.625C132.186 30.4508 131.925 30.3201 131.629 30.233C131.334 30.1421 131.012 30.0966 130.663 30.0966C130.038 30.0966 129.482 30.2538 128.993 30.5682C128.504 30.8826 128.12 31.3447 127.84 31.9546C127.563 32.5607 127.425 33.2993 127.425 34.1705C127.425 35.0493 127.563 35.7936 127.84 36.4035C128.116 37.0133 128.5 37.4773 128.993 37.7955C129.485 38.1099 130.057 38.2671 130.709 38.2671C131.3 38.2671 131.811 38.1535 132.243 37.9262C132.679 37.6989 133.014 37.3769 133.249 36.9603C133.483 36.5398 133.601 36.0474 133.601 35.483L134.078 35.5569H130.919V33.9091H135.641V35.3069C135.641 36.3031 135.429 37.1648 135.004 37.8921C134.58 38.6194 133.997 39.18 133.254 39.5739C132.512 39.9641 131.66 40.1591 130.697 40.1591C129.625 40.1591 128.684 39.9186 127.874 39.4375C127.067 38.9527 126.436 38.2652 125.982 37.375C125.531 36.4811 125.305 35.4205 125.305 34.1932C125.305 33.2538 125.438 32.4148 125.703 31.6762C125.972 30.9375 126.347 30.3107 126.828 29.7955C127.309 29.2766 127.874 28.8826 128.521 28.6137C129.169 28.341 129.874 28.2046 130.635 28.2046C131.279 28.2046 131.879 28.2993 132.436 28.4887C132.993 28.6743 133.487 28.9394 133.919 29.2841C134.355 29.6288 134.713 30.0379 134.993 30.5114C135.273 30.9849 135.457 31.5076 135.544 32.0796H133.396Z" fill="#949CAF"/>
<path d="M148.077 34.1819C148.077 35.4357 147.842 36.5095 147.372 37.4035C146.906 38.2936 146.27 38.9754 145.463 39.4489C144.66 39.9224 143.749 40.1591 142.73 40.1591C141.711 40.1591 140.798 39.9224 139.992 39.4489C139.188 38.9716 138.552 38.2879 138.082 37.3978C137.616 36.5038 137.384 35.4319 137.384 34.1819C137.384 32.9281 137.616 31.8561 138.082 30.966C138.552 30.072 139.188 29.3883 139.992 28.9148C140.798 28.4413 141.711 28.2046 142.73 28.2046C143.749 28.2046 144.66 28.4413 145.463 28.9148C146.27 29.3883 146.906 30.072 147.372 30.966C147.842 31.8561 148.077 32.9281 148.077 34.1819ZM145.957 34.1819C145.957 33.2993 145.819 32.555 145.543 31.9489C145.27 31.3391 144.891 30.8788 144.406 30.5682C143.921 30.2538 143.363 30.0966 142.73 30.0966C142.098 30.0966 141.539 30.2538 141.054 30.5682C140.569 30.8788 140.188 31.3391 139.912 31.9489C139.639 32.555 139.503 33.2993 139.503 34.1819C139.503 35.0644 139.639 35.8107 139.912 36.4205C140.188 37.0266 140.569 37.4868 141.054 37.8012C141.539 38.1118 142.098 38.2671 142.73 38.2671C143.363 38.2671 143.921 38.1118 144.406 37.8012C144.891 37.4868 145.27 37.0266 145.543 36.4205C145.819 35.8107 145.957 35.0644 145.957 34.1819Z" fill="#949CAF"/>
<rect x="0.5" y="0.5" width="165" height="68" rx="7.5" stroke="#D9D9D9"/>
</g>
</svg>
