<svg width="80" height="80" viewBox="0 0 80 80" fill="none" xmlns="http://www.w3.org/2000/svg">
<g clip-path="url(#clip0_5603_4369)">
<path d="M48.9648 6.71305C50.4154 7.10099 51.8153 7.59013 53.1984 8.14674C54.5815 8.72022 55.9309 9.37803 57.2128 10.1202L60.5356 6.79739C61.3283 6.00464 62.6102 6.00464 63.403 6.79739L73.2195 16.614C74.0123 17.4067 74.0123 18.6886 73.2195 19.4813L69.9136 22.7873C70.6557 24.0692 71.3136 25.4185 71.887 26.8016C72.4605 28.1678 72.9328 29.5847 73.3207 31.0352H78.0097C79.123 31.0352 80.0338 31.946 80.0338 33.0592V46.9408C80.0338 48.054 79.123 48.9648 78.0097 48.9648H73.3207C72.9328 50.4153 72.4436 51.8322 71.887 53.1984C71.3136 54.5815 70.6557 55.9308 69.9136 57.2127L73.2195 60.5187C74.0123 61.3114 74.0123 62.5933 73.2195 63.386L63.403 73.2026C62.6102 73.9954 61.3283 73.9954 60.5356 73.2026L57.2128 69.8798C55.9309 70.622 54.5815 71.2798 53.1984 71.8533C51.8322 72.4267 50.4154 72.899 48.9648 73.2869V77.976C48.9648 79.0892 48.054 80 46.9408 80H33.0593C31.9461 80 31.0353 79.0892 31.0353 77.976V73.2869C29.5847 72.899 28.1847 72.4099 26.8016 71.8533C25.4186 71.2798 24.0692 70.622 22.7873 69.8798L19.4645 73.2026C18.6718 73.9954 17.3899 73.9954 16.5971 73.2026L6.78056 63.386C5.98781 62.5933 5.98781 61.3114 6.78056 60.5187L10.0865 57.2127C9.34434 55.9308 8.68653 54.5815 8.11305 53.1984C7.53957 51.8322 7.0673 50.4153 6.67936 48.9648H1.99034C0.877124 48.9648 -0.0336914 48.054 -0.0336914 46.9408V33.0592C-0.0336914 31.946 0.877124 31.0352 1.99034 31.0352H6.67936C7.0673 29.5847 7.55644 28.1847 8.11305 26.8016C8.68653 25.4185 9.34434 24.0692 10.0865 22.7873L6.78056 19.4813C5.98781 18.6886 5.98781 17.4067 6.78056 16.614L16.5971 6.79739C17.3899 6.00464 18.6718 6.00464 19.4645 6.79739L22.7873 10.1202C24.0692 9.37803 25.4186 8.72022 26.8016 8.14674C28.1679 7.57327 29.5847 7.10099 31.0353 6.71305V2.02404C31.0353 0.910816 31.9461 0 33.0593 0H46.9408C48.054 0 48.9648 0.910816 48.9648 2.02404V6.71305ZM51.6467 11.8912C50.0275 11.2165 48.3408 10.6937 46.6035 10.3057C45.642 10.137 44.9168 9.31056 44.9168 8.31541V4.06494H35.0833V8.31541C35.0833 9.24309 34.4424 10.0864 33.481 10.2888C31.7099 10.6768 29.9895 11.2165 28.3534 11.8912C26.7173 12.5659 25.1487 13.3924 23.6813 14.3201C22.8885 14.9104 21.7753 14.8429 21.05 14.1176L18.0477 11.1153L11.0985 18.0645L14.1008 21.0668C14.7586 21.7246 14.8936 22.7704 14.3707 23.58C13.4093 25.0812 12.5659 26.6835 11.8744 28.3534C11.1997 29.9726 10.6768 31.6593 10.2889 33.3966C10.1202 34.358 9.29374 35.0833 8.29859 35.0833H4.04811V44.9167H8.29859C9.22627 44.9167 10.0696 45.5577 10.272 46.5191C10.66 48.2901 11.1997 50.0105 11.8744 51.6466C12.5491 53.2827 13.3755 54.8514 14.3032 56.3188C14.8936 57.1115 14.8261 58.2248 14.1008 58.95L11.0985 61.9524L18.0477 68.9015L21.05 65.8992C21.7078 65.2414 22.7536 65.1065 23.5632 65.6293C25.0643 66.5908 26.6667 67.4341 28.3365 68.1257C29.9558 68.8003 31.6425 69.3232 33.3798 69.7112C34.3412 69.8798 35.0665 70.7063 35.0665 71.7015V75.9519H44.8999V71.7015C44.8999 70.7738 45.5408 69.9304 46.5023 69.728C48.2733 69.3401 49.9937 68.8003 51.6298 68.1257C53.2659 67.451 54.8345 66.6245 56.302 65.6968C57.0947 65.1065 58.2079 65.1739 58.9332 65.8992L61.9355 68.9015L68.8847 61.9524L65.8824 58.95C65.2246 58.2922 65.0897 57.2465 65.6125 56.4369C66.5739 54.9357 67.4173 53.3333 68.1088 51.6635C68.7835 50.0443 69.3064 48.3576 69.6943 46.6203C69.863 45.6589 70.6895 44.9336 71.6846 44.9336H75.9351V35.1001H71.6846C70.757 35.1001 69.9136 34.4592 69.7112 33.4978C69.3233 31.7268 68.7835 30.0063 68.1088 28.3702C67.4342 26.7341 66.6077 25.1655 65.68 23.6981C65.0896 22.9053 65.1571 21.7921 65.8824 21.0668L68.8847 18.0645L61.9355 11.1153L58.9332 14.1176C58.2754 14.7755 57.2296 14.9104 56.42 14.3875C54.9189 13.4261 53.3165 12.5828 51.6467 11.8912Z" fill="#06D7F9"/>
<path d="M47.3118 20.8813C49.1166 20.8813 50.7696 21.6235 51.9502 22.8042C52.6755 23.5295 53.2321 24.4234 53.5526 25.4186H56.4875C57.6007 25.4186 58.5115 26.3294 58.5115 27.4426C58.5115 28.5558 57.6007 29.4666 56.4875 29.4666H53.5526C53.2321 30.4618 52.6755 31.3557 51.9502 32.081C50.7696 33.2617 49.1166 34.0038 47.3118 34.0038C45.5071 34.0038 43.8541 33.2617 42.6734 32.081C41.9481 31.3557 41.3915 30.4618 41.0711 29.4666H23.4282C22.315 29.4666 21.4042 28.5558 21.4042 27.4426C21.4042 26.3294 22.315 25.4186 23.4282 25.4186H41.0711C41.3915 24.4234 41.9481 23.5295 42.6734 22.8042C43.8541 21.6235 45.5071 20.8813 47.3118 20.8813ZM56.4875 37.9844C57.6007 37.9844 58.5115 38.8953 58.5115 40.0085C58.5115 41.1217 57.6007 42.0325 56.4875 42.0325H38.8446C38.5241 43.0277 37.9675 43.9216 37.2423 44.6469C36.0616 45.8276 34.4086 46.5697 32.6038 46.5697C30.7991 46.5697 29.1461 45.8276 27.9654 44.6469C27.2401 43.9216 26.6835 43.0277 26.3631 42.0325H23.4282C22.315 42.0325 21.4042 41.1217 21.4042 40.0085C21.4042 38.8953 22.315 37.9844 23.4282 37.9844H26.3631C26.6835 36.9893 27.2401 36.0953 27.9654 35.3701C29.1461 34.1894 30.7991 33.4472 32.6038 33.4472C34.4086 33.4472 36.0616 34.1894 37.2423 35.3701C37.9675 36.0953 38.5241 36.9893 38.8446 37.9844H56.4875ZM30.8328 41.7795C31.2882 42.2349 31.9123 42.5217 32.6038 42.5217C33.2954 42.5217 33.9195 42.2349 34.3749 41.7795C34.8303 41.3241 35.117 40.7 35.117 40.0085C35.117 39.3169 34.8303 38.6929 34.3749 38.2375C33.9195 37.782 33.2954 37.4953 32.6038 37.4953C31.9123 37.4953 31.2882 37.782 30.8328 38.2375C30.3774 38.6929 30.0907 39.3169 30.0907 40.0085C30.0907 40.7 30.3774 41.3241 30.8328 41.7795ZM23.4282 54.5984C22.315 54.5984 21.4042 53.6876 21.4042 52.5744C21.4042 51.4612 22.315 50.5503 23.4282 50.5503H41.0711C41.3915 49.5552 41.9481 48.6612 42.6734 47.936C43.8541 46.7553 45.5071 46.0131 47.3118 46.0131C49.1166 46.0131 50.7696 46.7553 51.9502 47.936C52.6755 48.6612 53.2321 49.5552 53.5526 50.5503H56.4875C57.6007 50.5503 58.5115 51.4612 58.5115 52.5744C58.5115 53.6876 57.6007 54.5984 56.4875 54.5984H53.5526C53.2321 55.5936 52.6755 56.4875 51.9502 57.2128C50.7696 58.3935 49.1166 59.1356 47.3118 59.1356C45.5071 59.1356 43.8541 58.3935 42.6734 57.2128C41.9481 56.4875 41.3915 55.5936 41.0711 54.5984H23.4282ZM47.3118 55.0875C48.0034 55.0875 48.6274 54.8008 49.0829 54.3454C49.5383 53.89 49.825 53.2659 49.825 52.5744C49.825 51.8828 49.5383 51.2587 49.0829 50.8033C48.6274 50.3479 48.0034 50.0612 47.3118 50.0612C46.6203 50.0612 45.9962 50.3479 45.5408 50.8033C45.0854 51.2587 44.7986 51.8828 44.7986 52.5744C44.7986 53.2659 45.0854 53.89 45.5408 54.3454C45.9962 54.8008 46.6203 55.0875 47.3118 55.0875ZM49.0829 25.6716C48.6274 25.2162 48.0034 24.9294 47.3118 24.9294C46.6203 24.9294 45.9962 25.2162 45.5408 25.6716C45.0854 26.127 44.7986 26.7511 44.7986 27.4426C44.7986 28.1341 45.0854 28.7582 45.5408 29.2136C45.9962 29.669 46.6203 29.9558 47.3118 29.9558C48.0034 29.9558 48.6274 29.669 49.0829 29.2136C49.5383 28.7582 49.825 28.1341 49.825 27.4426C49.825 26.7511 49.5383 26.127 49.0829 25.6716Z" fill="white"/>
</g>
<defs>
<clipPath id="clip0_5603_4369">
<rect width="80" height="80" fill="white"/>
</clipPath>
</defs>
</svg>
