<svg width="130" height="128" viewBox="0 0 130 128" fill="none" xmlns="http://www.w3.org/2000/svg">
<path d="M21.5105 17.6602H10.8232V18.9097H21.5105V17.6602Z" fill="#2EC971"/>
<path d="M21.0417 20.51H10.3545V21.7595H21.0417V20.51Z" fill="#2EC971"/>
<path d="M24.4579 22.1557C23.9137 23.8776 22.387 24.8071 20.437 24.8071C17.6858 24.8071 15.8718 23.07 15.8718 19.7786C15.8718 16.4871 17.6858 14.7652 20.437 14.7652C22.3567 14.7652 23.8835 15.649 24.4428 17.3405H28.0556C27.3602 13.79 24.5486 11.5957 20.3916 11.5957C15.373 11.5957 12.2742 15.1462 12.2742 19.7786C12.2742 24.4109 15.373 27.9767 20.3916 27.9767C24.5788 27.9767 27.3905 25.7671 28.0707 22.1709H24.4579V22.1557Z" fill="#2EC971"/>
<path d="M85.2253 39.5879H74.5381V40.8374H85.2253V39.5879Z" fill="#06D4F6"/>
<path d="M84.7565 42.4377H74.0693V43.6873H84.7565V42.4377Z" fill="#06D4F6"/>
<path d="M88.1727 44.0834C87.6286 45.8053 86.1018 46.7349 84.1518 46.7349C81.4006 46.7349 79.5867 44.9977 79.5867 41.7063C79.5867 38.4149 81.4006 36.693 84.1518 36.693C86.0716 36.693 87.5983 37.5768 88.1576 39.2682H91.7704C91.0751 35.7177 88.2634 33.5234 84.1065 33.5234C79.0879 33.5234 75.989 37.0739 75.989 41.7063C75.989 46.3387 79.0879 49.9044 84.1065 49.9044C88.2937 49.9044 91.1053 47.6949 91.7855 44.0987H88.1727V44.0834Z" fill="#06D4F6"/>
<path d="M20.0286 38.4306C9.79489 38.4306 1.46582 30.0344 1.46582 19.7182C1.46582 9.40205 9.79489 1.00586 20.0286 1.00586C30.2623 1.00586 38.5914 9.40205 38.5914 19.7182C38.5914 30.0344 30.2623 38.4306 20.0286 38.4306ZM20.0286 3.50491C11.1554 3.50491 3.94489 10.7887 3.94489 19.7182C3.94489 28.6478 11.1554 35.9316 20.0286 35.9316C28.9019 35.9316 36.1123 28.663 36.1123 19.7182C36.1123 10.7735 28.9019 3.50491 20.0286 3.50491Z" fill="#2EC971"/>
<path d="M112.208 12.8454C128.035 28.434 128.322 54.0035 112.858 69.9578C97.3941 85.9121 72.029 86.2016 56.2023 70.613C40.3755 55.0244 40.0883 29.4549 55.5523 13.5006C71.0162 -2.45365 96.3813 -2.74317 112.208 12.8454ZM65.922 23.7102C56.0511 33.8892 56.2325 50.194 66.3302 60.1445C76.4278 70.0949 92.6023 69.9121 102.473 59.733C112.344 49.554 112.163 33.2492 102.065 23.2987C91.9674 13.3483 75.793 13.5311 65.922 23.7102Z" fill="#06D4F6"/>
<path d="M102.065 23.2985C107.643 28.7995 110.182 36.2509 109.683 43.5347L124.225 43.3671C124.664 32.3347 120.658 21.1652 112.208 12.8452C103.758 4.52521 92.8589 0.822352 82.0508 1.4014L82.2171 16.0604C89.3066 15.5119 96.5926 17.889 102.065 23.2985Z" fill="#2EC971"/>
<path d="M55.7941 126.049C55.3255 126.049 54.7662 125.973 54.1313 125.79C52.6953 125.363 23.8685 113.112 18.1092 110.674C17.8069 110.537 12.3197 107.809 13.4383 102.674C14.6325 97.2033 19.2278 97.6452 20.7394 97.7976C21.4801 97.8738 25.7883 98.7119 32.7266 100.053C36.6418 100.815 40.7987 101.622 43.958 102.217C44.8348 102.384 45.4092 103.238 45.258 104.121C45.0918 105.005 44.2604 105.584 43.3685 105.432C40.1941 104.838 36.0371 104.03 32.1069 103.253C26.9371 102.247 21.0569 101.104 20.422 101.028C18.5173 100.845 17.1266 100.906 16.5976 103.359C16.0232 106.011 19.3941 107.672 19.4394 107.687C33.0441 113.462 53.8441 122.255 55.0836 122.666C55.7336 122.864 56.0359 122.758 56.0359 122.758L56.2929 122.605H56.4592L93.0406 116.159C93.9174 116.007 94.7639 116.601 94.915 117.485C95.0662 118.369 94.4766 119.222 93.5999 119.375L57.2301 125.79C56.9127 125.912 56.4441 126.049 55.8092 126.049H55.7941Z" fill="#06D4F6"/>
<path d="M47.0271 104.778C46.7852 102.842 47.6015 98.8499 52.484 97.5395L52.741 97.4938L64.7282 96.3204C65.9375 95.0557 69.4143 92.069 76.534 90.1338C86.9794 88.1985 91.8922 93.1052 93.1468 94.6442C93.3736 94.9338 94.734 96.6861 94.734 96.6861L92.1794 98.6976C92.1794 98.6976 90.8643 96.9909 90.6375 96.7166C89.9422 95.8633 86.0573 91.7033 77.2445 93.3185C69.5503 95.4061 66.8143 98.8347 66.784 98.8804L66.3608 99.429L65.6654 99.5052L53.1945 100.724C50.1259 101.608 50.1864 103.924 50.2317 104.381L47.0119 104.778H47.0271Z" fill="#06D4F6"/>
<path d="M53.8289 110.872C51.6673 110.872 47.6917 109.638 47.0266 104.853C46.9056 103.954 47.5254 103.131 48.4021 103.009C49.2789 102.888 50.1103 103.512 50.2312 104.396C50.6696 107.642 53.6626 107.596 53.9952 107.596H65.1207C66.0126 107.596 66.7382 108.328 66.7382 109.227C66.7382 110.126 66.0126 110.857 65.1207 110.857H54.0707C53.9952 110.857 53.9196 110.857 53.8289 110.857V110.872Z" fill="#06D4F6"/>
<path d="M42.2497 70.0801H31.5625V71.3296H42.2497V70.0801Z" fill="white"/>
<path d="M41.7663 72.9299H31.0791V74.1795H41.7663V72.9299Z" fill="white"/>
<path d="M45.1974 74.5756C44.6532 76.2975 43.1265 77.2271 41.1765 77.2271C38.4253 77.2271 36.6113 75.4899 36.6113 72.1985C36.6113 68.907 38.4253 67.1851 41.1765 67.1851C43.0962 67.1851 44.623 68.069 45.1823 69.7604H48.7951C48.0997 66.2099 45.2881 64.0156 41.1311 64.0156C36.1125 64.0156 33.0137 67.5661 33.0137 72.1985C33.0137 76.8309 36.1125 80.3966 41.1311 80.3966C45.3183 80.3966 48.13 78.187 48.8102 74.5909H45.1974V74.5756Z" fill="white"/>
<path d="M41.2218 45.1963H38.7578V54.6592H41.2218V45.1963Z" fill="white"/>
<path d="M55.295 39.9697H52.8311V50.1793H55.295V39.9697Z" fill="white"/>
<path d="M32.6358 27.9775H30.1719V38.1871H32.6358V27.9775Z" fill="white"/>
<path d="M26.5138 43.2002H24.0498V49.524H26.5138V43.2002Z" fill="white"/>
<path d="M26.5138 54.9336H24.0498V64.3965H26.5138V54.9336Z" fill="white"/>
<path d="M14.6632 50.5293H12.1992V56.8531H14.6632V50.5293Z" fill="#2EC971"/>
<path d="M13.4385 62.248V68.5719" stroke="white" stroke-width="1.63" stroke-linejoin="round"/>
<path d="M123.198 81.6766H120.023V84.8766H123.198V81.6766Z" fill="#42E7E2"/>
<path d="M129.94 81.6768H126.766V84.8768H129.94V81.6768Z" fill="#42E7E2"/>
<path d="M126.523 78.248H123.349V81.448H126.523V78.248Z" fill="#42E7E2"/>
<path d="M126.523 85.0596H123.349V88.2596H126.523V85.0596Z" fill="#42E7E2"/>
<path d="M40.7532 90.8339C30.5195 90.8339 22.1904 82.4378 22.1904 72.1216C22.1904 61.8054 30.5195 53.4092 40.7532 53.4092C50.9869 53.4092 59.316 61.8054 59.316 72.1216C59.316 82.4378 50.9869 90.8339 40.7532 90.8339ZM40.7532 55.9082C31.88 55.9082 24.6695 63.1768 24.6695 72.1216C24.6695 81.0663 31.88 88.3349 40.7532 88.3349C49.6265 88.3349 56.8369 81.0511 56.8369 72.1216C56.8369 63.192 49.6265 55.9082 40.7532 55.9082Z" fill="white"/>
<path d="M102.79 121.904H92.209V94.4756H102.79" fill="black"/>
<path d="M102.79 123.428H90.6973V92.9521H102.79V96.4111H94.2484V119.969H102.79V123.428Z" fill="white"/>
<path d="M102.791 126.477H114.884V89.9051H102.791V126.477Z" fill="#06D7F9"/>
</svg>
