<svg width="81" height="80" viewBox="0 0 81 80" fill="none" xmlns="http://www.w3.org/2000/svg">
<g clip-path="url(#clip0_3690_14237)">
<path d="M67.4527 41.3C67.1328 40.4654 67.5552 39.5287 68.394 39.2104C69.2328 38.8922 70.1742 39.3125 70.494 40.1471C71.019 41.5222 71.4293 42.9693 71.7069 44.4704C71.9785 45.9415 72.1233 47.4427 72.1233 48.9498C72.1233 53.2431 71.013 57.2901 69.0578 60.8268C67.1811 64.2254 64.526 67.1496 61.3398 69.3533V75.7061C61.3398 76.883 60.857 77.9579 60.0726 78.7384L60.0665 78.7444C59.2821 79.525 58.2079 80.0054 57.0191 80.0054H50.0615C48.8727 80.0054 47.7925 79.525 47.008 78.7444C46.2236 77.9639 45.7408 76.889 45.7408 75.7061V73.7787H31.3427V75.7061C31.3427 76.883 30.8599 77.9579 30.0755 78.7384L30.0694 78.7444C29.285 79.525 28.2108 80.0054 27.0221 80.0054H20.0644C18.8756 80.0054 17.7954 79.525 17.011 78.7444C16.2265 77.9639 15.7437 76.889 15.7437 75.7061V69.1792C13.5532 67.63 11.6283 65.7326 10.0352 63.5769C8.53863 61.5414 7.33778 59.2717 6.5171 56.8398H2.91455C2.11198 56.8398 1.38785 56.5156 0.856818 55.9872L0.850784 55.9812C0.319755 55.4528 -0.00610352 54.7322 -0.00610352 53.9336V44.0081C-0.00610352 43.2095 0.319755 42.4889 0.850784 41.9605L0.856818 41.9545C1.38785 41.4261 2.11198 41.1018 2.91455 41.1018H6.51107C8.12226 36.3222 11.1696 32.1791 15.1343 29.1828C19.3282 26.0124 24.5419 24.127 30.166 24.127C31.0651 24.127 31.7953 24.8535 31.7953 25.7482C31.7953 26.6429 31.0651 27.3694 30.166 27.3694C25.26 27.3694 20.7282 29.0027 17.0894 31.7527C13.3843 34.5509 10.6024 38.5079 9.29293 43.0653C9.13604 43.7979 8.48432 44.3443 7.69985 44.3443H3.24645V53.6033H7.71192C8.42398 53.6033 9.0757 54.0717 9.27483 54.7802C9.98689 57.2841 11.1455 59.6079 12.6541 61.6615C14.1687 63.721 16.0394 65.5044 18.1756 66.9215C18.6644 67.1977 18.9963 67.7261 18.9963 68.3265V75.7061C18.9963 75.9944 19.117 76.2586 19.3101 76.4507C19.5032 76.6428 19.7687 76.7629 20.0583 76.7629H27.016C27.3117 76.7629 27.5772 76.6428 27.7703 76.4507C27.9634 76.2586 28.0841 75.9944 28.0841 75.7001V72.1454H28.0901V72.1274C28.1022 71.2387 28.8324 70.5242 29.7315 70.5362L30.0272 70.5422C30.0694 70.5362 30.1177 70.5362 30.16 70.5362H47.1649V70.5422H47.1951C47.2494 70.5362 47.3037 70.5362 47.358 70.5362C48.2572 70.5362 48.9873 71.2628 48.9873 72.1574V75.7061C48.9873 75.9944 49.108 76.2586 49.3011 76.4507C49.4942 76.6428 49.7597 76.7629 50.0494 76.7629H57.0071C57.3028 76.7629 57.5683 76.6428 57.7614 76.4507C57.9545 76.2586 58.0752 75.9944 58.0752 75.7001V68.4887H58.0812C58.0812 67.9603 58.3467 67.4379 58.8295 67.1316C61.895 65.1741 64.4475 62.4661 66.2035 59.2717C67.8932 56.2033 68.8587 52.6846 68.8587 48.9498C68.8587 47.5988 68.738 46.3018 68.5087 45.0529C68.2733 43.7739 67.9113 42.5129 67.4466 41.3H67.4527Z" fill="#06D7F9"/>
<path d="M15.4722 31.8491C15.4722 32.7438 14.742 33.4704 13.8429 33.4704C12.9438 33.4704 12.2136 32.7438 12.2136 31.8491V19.3537C12.2136 18.459 12.9438 17.7324 13.8429 17.7324C16.5765 17.7324 18.8153 18.5851 20.5532 19.9721C22.4902 21.5153 23.7635 23.707 24.373 26.1028C24.5902 26.9674 24.0592 27.8441 23.1902 28.0663C22.3213 28.2824 21.4402 27.754 21.217 26.8894C20.7765 25.1481 19.8713 23.5749 18.5136 22.494C17.6868 21.8335 16.667 21.3472 15.4601 21.119V31.8491H15.4722Z" fill="#06D7F9"/>
<path d="M18.079 41.7027C19.0488 41.7027 19.835 40.9204 19.835 39.9553C19.835 38.9903 19.0488 38.208 18.079 38.208C17.1092 38.208 16.323 38.9903 16.323 39.9553C16.323 40.9204 17.1092 41.7027 18.079 41.7027Z" fill="#06D7F9"/>
<path d="M77.7475 47.8449C77.7475 46.9502 78.4776 46.2236 79.3768 46.2236C80.2759 46.2236 81.0061 46.9502 81.0061 47.8449C81.0061 50.2347 80.0345 52.3963 78.4596 53.9635C76.8846 55.5307 74.7122 56.4974 72.3105 56.4974C71.8277 56.4974 71.345 56.4554 70.8562 56.3713C70.3734 56.2933 69.9027 56.1672 69.4441 56.0111C68.5993 55.7168 68.1528 54.7981 68.4484 53.9575C68.7441 53.1169 69.6674 52.6725 70.5122 52.9668C70.7898 53.0628 71.0855 53.1409 71.3932 53.1889C71.6769 53.237 71.9846 53.261 72.3105 53.261C73.813 53.261 75.1708 52.6545 76.1604 51.6758C77.144 50.697 77.7535 49.34 77.7535 47.8449H77.7475Z" fill="#06D7F9"/>
<path d="M68.4005 3.07493C73.91 6.23933 77.6091 11.3312 79.1358 16.9935C80.6625 22.6558 80.0108 28.9005 76.8306 34.3887C75.9375 35.9259 74.9056 37.3129 73.7591 38.5439C72.5764 39.8108 71.2609 40.9277 69.8428 41.8884C66.5902 44.0861 62.8308 45.4131 58.9506 45.7614C55.4145 46.0796 51.7818 45.5932 48.3421 44.2302L45.0473 46.1216C44.2689 46.566 43.2793 46.3078 42.8267 45.5332C42.6637 45.251 42.5913 44.9387 42.6094 44.6325V41.7143H42.6034V40.9217C38.2586 37.5171 35.4164 32.7735 34.3302 27.6456C33.2018 22.3135 33.9682 16.5612 36.925 11.4693V11.4633C40.1052 5.98114 45.2223 2.30034 50.9128 0.781187C56.6033 -0.737967 62.879 -0.0894741 68.3945 3.07493H68.4005ZM75.9979 17.8341C74.6884 12.9644 71.5083 8.59312 66.7773 5.87306C62.0463 3.15899 56.6515 2.60657 51.7576 3.90956C46.8637 5.21255 42.4706 8.37696 39.7371 13.0845C37.2026 17.4619 36.5448 22.4036 37.5164 26.9911C38.4879 31.5786 41.0888 35.8058 45.0775 38.742C45.5542 39.0242 45.868 39.5406 45.868 40.1291V41.7143H45.862V41.9244L47.3646 41.0598C47.8051 40.7776 48.3783 40.7115 48.8973 40.9397C52.0533 42.3328 55.4145 42.8371 58.667 42.5429C62.0041 42.2427 65.2385 41.1018 68.0324 39.2104C69.2333 38.3998 70.3617 37.433 71.3936 36.3342C72.3893 35.2654 73.2824 34.0765 74.0367 32.7735C76.7703 28.0659 77.3254 22.6978 76.0099 17.8221L75.9979 17.8341Z" fill="black"/>
<path fill-rule="evenodd" clip-rule="evenodd" d="M55.3053 9.42169V11.127C54.2433 11.127 52.6924 11.7875 51.9019 12.424C51.0148 13.1385 50.2605 13.9732 49.7899 15.078C49.0174 16.8974 49.0537 19.035 49.995 20.7343C51.745 23.8807 53.9114 24.0308 57.3691 24.8894C58.9501 25.2797 60.0665 25.3878 61.0018 27.0211C62.1363 28.9906 60.9173 32.2691 57.5079 32.2691C55.6191 32.2691 54.0743 32.3591 52.9278 30.6538C52.3726 29.8252 52.5174 29.6511 52.3062 28.8585C51.8416 27.1532 48.8787 27.2492 49.3493 29.8852C49.6812 31.7647 50.8821 33.3799 52.451 34.3226C53.1027 34.7129 54.2795 35.2473 55.2993 35.2473V36.9526C55.2993 38.718 58.3648 38.9581 58.3648 36.6704V35.2533C60.0423 35.2533 61.563 34.3046 62.6251 33.2478C63.2526 32.6293 63.488 32.221 63.9044 31.3984C65.0087 29.2127 64.4957 26.1624 62.9449 24.4511C60.5372 21.7911 58.407 22.2054 54.7683 21.0886C54.1165 20.8904 53.4527 20.398 53.0967 19.9177C51.1778 17.3597 52.9941 14.1113 56.0838 14.1113C58.0208 14.1113 59.632 13.9792 60.8027 15.7265C61.3578 16.5551 61.213 16.7292 61.4242 17.5218C61.7078 18.5726 62.8483 18.987 63.7957 18.3865C65.2561 17.4618 63.8863 14.7237 63.2164 13.817C62.1664 12.394 60.2053 11.133 58.3587 11.133C58.3587 9.87204 58.6122 8.29884 56.9648 8.04665C56.1441 7.92055 55.2932 8.6411 55.2932 9.4337L55.3053 9.42169Z" fill="black"/>
<path d="M53.9779 65.204C53.1693 65.5823 52.1978 65.2401 51.8176 64.4355C51.4374 63.6308 51.7814 62.6641 52.59 62.2858C54.5753 61.3491 56.2348 60.2443 57.5805 58.9713C58.896 57.7284 59.9097 56.3113 60.6278 54.7321C60.9959 53.9155 61.9614 53.5552 62.7761 53.9215C63.5968 54.2878 63.9588 55.2485 63.5907 56.0591C62.7037 58.0226 61.4485 59.7759 59.8192 61.3131C58.2201 62.8262 56.277 64.1232 53.9779 65.21V65.204Z" fill="#06D7F9"/>
</g>
<defs>
<clipPath id="clip0_3690_14237">
<rect width="81" height="80" fill="white"/>
</clipPath>
</defs>
</svg>
