<svg width="101" height="113" viewBox="0 0 101 113" fill="none" xmlns="http://www.w3.org/2000/svg">
<g clip-path="url(#clip0_535_964)">
<path d="M-8.58307e-06 31.256H8.05933V27.6264H-8.58307e-06V31.256Z" fill="white"/>
<path d="M11.9513 31.256H20.0106V27.6264H11.9513V31.256Z" fill="white"/>
<path d="M8.3177 27.6436H11.9513V20.6939H8.3177V27.6436Z" fill="white"/>
<path d="M8.3177 39.8054H11.9513L11.9513 31.2732H8.3177V39.8054Z" fill="white"/>
<path d="M39.9178 10.562L47.9772 10.562V6.93239L39.9178 6.93239V10.562Z" fill="white"/>
<path d="M51.8691 10.562L59.9285 10.562V6.93239L51.8691 6.93239V10.562Z" fill="white"/>
<path d="M48.2356 6.94958L51.8691 6.94958V-2.67029e-05L48.2356 -2.67029e-05V6.94958Z" fill="white"/>
<path d="M48.2356 19.1115H51.8691V10.5793H48.2356V19.1115Z" fill="white"/>
<path d="M80.9894 104.468H89.0487V100.838H80.9894V104.468Z" fill="white"/>
<path d="M92.9407 104.468H101V100.838H92.9407V104.468Z" fill="white"/>
<path d="M89.307 100.838H92.9406V93.8885H89.307V100.838Z" fill="white"/>
<path d="M89.307 113H92.9406V104.468H89.307V113Z" fill="white"/>
<path d="M20.2689 50.2471H28.3282V46.6174H20.2689V50.2471Z" fill="white"/>
<path d="M32.2202 50.2471H40.2795V46.6174H32.2202V50.2471Z" fill="white"/>
<path d="M28.6038 46.6174H32.2374V39.6678H28.6038V46.6174Z" fill="white"/>
<path d="M28.6038 58.7793H32.2374V50.2471H28.6038V58.7793Z" fill="white"/>
</g>
<defs>
<clipPath id="clip0_535_964">
<rect width="101" height="113" fill="white"/>
</clipPath>
</defs>
</svg>
