<svg width="101" height="113" viewBox="0 0 101 113" fill="none" xmlns="http://www.w3.org/2000/svg">
<g clip-path="url(#clip0_1604_885)">
<path d="M101 81.744H92.9404V85.3736H101V81.744Z" fill="#06D7F9"/>
<path d="M89.0486 81.744H80.9893V85.3736H89.0486V81.744Z" fill="#06D7F9"/>
<path d="M92.6824 85.3564H89.0488V92.306H92.6824V85.3564Z" fill="#06D7F9"/>
<path d="M92.6824 73.1945H89.0488V81.7267H92.6824V73.1945Z" fill="#06D7F9"/>
<path d="M61.0818 102.438H53.0225V106.068H61.0818V102.438Z" fill="#06D7F9"/>
<path d="M49.1306 102.438H41.0713V106.068H49.1306V102.438Z" fill="#06D7F9"/>
<path d="M52.7644 106.05H49.1309V113H52.7644V106.05Z" fill="#06D7F9"/>
<path d="M52.7644 93.8885H49.1309V102.421H52.7644V93.8885Z" fill="#06D7F9"/>
<path d="M20.0105 8.53223L11.9512 8.53223V12.1619H20.0105V8.53223Z" fill="#06D7F9"/>
<path d="M8.05934 8.53223L0 8.53223L0 12.1619H8.05934V8.53223Z" fill="#06D7F9"/>
<path d="M11.6932 12.1618H8.05957V19.1114H11.6932V12.1618Z" fill="#06D7F9"/>
<path d="M11.6932 0L8.05957 0L8.05957 8.5322H11.6932V0Z" fill="#06D7F9"/>
<path d="M80.7312 62.7528H72.6719V66.3824H80.7312V62.7528Z" fill="#06D7F9"/>
<path d="M68.78 62.7528H60.7207V66.3824H68.78V62.7528Z" fill="#06D7F9"/>
<path d="M72.3963 66.3823H68.7627V73.3319H72.3963V66.3823Z" fill="#06D7F9"/>
<path d="M72.3963 54.2207H68.7627V62.7529H72.3963V54.2207Z" fill="#06D7F9"/>
</g>
<defs>
<clipPath id="clip0_1604_885">
<rect width="101" height="113" fill="white" transform="matrix(-1 0 0 -1 101 113)"/>
</clipPath>
</defs>
</svg>
