<svg width="24" height="24" viewBox="0 0 24 24" fill="none" xmlns="http://www.w3.org/2000/svg">
<path d="M1.00195 19.5982C1.00195 19.2362 1.29831 18.9394 1.66694 18.9394C2.02835 18.9394 2.32471 19.2362 2.32471 19.5982V22.6462C2.32471 22.6534 2.32471 22.6606 2.33194 22.6606C2.33916 22.6679 2.34639 22.6751 2.35362 22.6751H20.6481C20.6554 22.6751 20.6626 22.6679 20.6698 22.6606C20.6698 22.6606 20.677 22.6534 20.677 22.6462V19.5982C20.677 19.2362 20.9734 18.9394 21.3348 18.9394C21.7034 18.9394 21.9998 19.2362 21.9998 19.5982V22.6462C21.9998 23.0154 21.848 23.3557 21.6022 23.6018C21.3565 23.848 21.024 24 20.6481 24H2.35362C1.97776 24 1.64526 23.848 1.3995 23.6018C1.15374 23.3557 1.00195 23.0154 1.00195 22.6462V19.5982ZM10.8395 17.4697V0.666063C10.8395 0.296833 11.1359 0 11.4973 0C11.8659 0 12.1623 0.296833 12.1623 0.666063V17.4697L16.5208 13.1041C16.7811 12.8434 17.2003 12.8434 17.4605 13.1041C17.7135 13.3575 17.7135 13.7774 17.4605 14.038L11.9671 19.533C11.7069 19.7937 11.2949 19.7937 11.0347 19.533L5.54125 14.038C5.28826 13.7774 5.28826 13.3575 5.54125 13.1041C5.80146 12.8434 6.22069 12.8434 6.48091 13.1041L10.8395 17.4697Z" fill="black"/>
</svg>
