<svg width="80" height="80" viewBox="0 0 80 80" fill="none" xmlns="http://www.w3.org/2000/svg">
<g clip-path="url(#clip0_5392_1454)">
<path fill-rule="evenodd" clip-rule="evenodd" d="M25.3598 28.4268V29.8442C24.4798 29.8442 23.1884 30.3928 22.537 30.9301C21.8055 31.5244 21.177 32.2217 20.7884 33.1475C20.1484 34.6677 20.1713 36.4508 20.9598 37.8682C22.4112 40.4971 24.2055 40.6114 27.074 41.3315C28.3883 41.663 29.314 41.7545 30.0911 43.1032C31.0282 44.7492 30.0225 47.481 27.1883 47.481C25.6226 47.481 24.3426 47.561 23.3941 46.1322C22.9369 45.4464 23.0512 45.2978 22.8798 44.6349C22.4912 43.2061 20.0341 43.2975 20.4227 45.4921C20.697 47.0581 21.6913 48.4068 22.9941 49.1955C23.5312 49.527 24.5141 49.9728 25.3598 49.9728V51.3901C25.3598 52.8646 27.9083 53.0704 27.9083 51.1501V49.9613C29.3025 49.9613 30.5597 49.1727 31.4397 48.2925C31.9539 47.7782 32.1596 47.4353 32.5025 46.7495C33.4168 44.9206 32.9939 42.3831 31.7139 40.9543C29.714 38.7369 27.954 39.0798 24.9255 38.1539C24.3883 37.9825 23.8398 37.571 23.5312 37.1709C21.9427 35.0335 23.4512 32.3245 26.0112 32.3245C27.6111 32.3245 28.9483 32.2102 29.9311 33.6733C30.3882 34.3591 30.274 34.5077 30.4454 35.1707C30.6854 36.0394 31.6225 36.3937 32.4111 35.8908C33.6225 35.1249 32.4911 32.8389 31.9311 32.0845C31.0625 30.8958 29.4283 29.8442 27.8969 29.8442C27.8969 28.7926 28.1026 27.4781 26.7426 27.2724C26.0569 27.1695 25.3598 27.7639 25.3598 28.4268Z" fill="#06D7F9"/>
<path d="M26.6623 20.14C32.1136 20.14 37.0507 22.346 40.6278 25.9237C44.2048 29.5014 46.4105 34.4392 46.4105 39.8914C46.4105 45.3436 44.2048 50.2815 40.6278 53.8591C37.0507 57.4368 32.1136 59.6428 26.6623 59.6428C21.211 59.6428 16.2739 57.4368 12.6968 53.8591C9.11974 50.2815 6.91406 45.3436 6.91406 39.8914C6.91406 34.4392 9.11974 29.5014 12.6968 25.9237C16.2739 22.346 21.211 20.14 26.6623 20.14ZM38.3878 28.164C35.3821 25.1579 31.2336 23.3062 26.6623 23.3062C22.0795 23.3062 17.931 25.1579 14.9368 28.164C11.9311 31.1702 10.0797 35.3193 10.0797 39.8914C10.0797 44.4749 11.9311 48.6241 14.9368 51.6188C17.9424 54.6249 22.0909 56.4766 26.6623 56.4766C31.2451 56.4766 35.3936 54.6249 38.3878 51.6188C41.3935 48.6127 43.2449 44.4635 43.2449 39.8914C43.2449 35.3079 41.3935 31.1587 38.3878 28.164Z" fill="#06D7F9"/>
<path d="M26.6624 13.2247C34.0223 13.2247 40.6964 16.208 45.5192 21.0316C50.342 25.8551 53.3248 32.5303 53.3248 39.8914C53.3248 47.2524 50.342 53.9277 45.5192 58.7512C40.6964 63.5748 34.0223 66.5581 26.6624 66.5581C19.3025 66.5581 12.6284 63.5748 7.80558 58.7512C2.98281 53.9277 0 47.2524 0 39.8914C0 32.5303 2.98281 25.8551 7.80558 21.0316C12.6284 16.208 19.3025 13.2247 26.6624 13.2247ZM43.2793 23.2719C39.0279 19.0198 33.1537 16.3909 26.6624 16.3909C20.1711 16.3909 14.2969 19.0198 10.0455 23.2719C5.79419 27.5239 3.16566 33.399 3.16566 39.8914C3.16566 46.3838 5.79419 52.2589 10.0455 56.5109C14.2969 60.7629 20.1711 63.3919 26.6624 63.3919C33.1537 63.3919 39.0279 60.7629 43.2793 56.5109C47.5306 52.2589 50.1591 46.3838 50.1591 39.8914C50.1591 33.399 47.5306 27.5239 43.2793 23.2719Z" fill="white"/>
<path d="M35.7597 15.8879C35.7597 16.7566 35.0511 17.4653 34.1826 17.4653C33.314 17.4653 32.6055 16.7566 32.6055 15.8879V4.17195C32.6055 3.02893 33.074 1.98878 33.8283 1.23438C34.5826 0.479991 35.6226 0.0113525 36.7654 0.0113525H63.5535C64.6963 0.0113525 65.7363 0.479991 66.4906 1.23438C67.2449 1.98878 67.7134 3.02893 67.7134 4.17195V46.2237H76.1362C76.1819 46.2237 76.2276 46.2237 76.2733 46.2351C77.0618 46.2465 77.759 46.4637 78.3304 46.8066C78.9932 47.2067 79.4847 47.7782 79.7475 48.4526C80.0104 49.1155 80.0789 49.8585 79.8847 50.6243C79.7018 51.3673 79.3018 52.1102 78.6275 52.7732L51.428 79.5656C50.8109 80.1714 49.828 80.1714 49.2109 79.5656L34.114 64.6949C33.4969 64.0891 33.4855 63.0832 34.0912 62.466C34.6969 61.8488 35.7026 61.8373 36.3197 62.4431L50.308 76.2165L76.399 50.5214C76.6276 50.2928 76.7647 50.0756 76.8104 49.8813C76.8333 49.7899 76.8333 49.6984 76.799 49.6299C76.7761 49.5727 76.7304 49.527 76.6733 49.4927C76.5704 49.4241 76.4219 49.3898 76.2276 49.3784C76.1819 49.3784 76.1476 49.3784 76.1019 49.3784H66.0906C65.2221 49.3784 64.5135 48.6697 64.5135 47.801V4.16052C64.5135 3.88619 64.3992 3.63473 64.2164 3.45184C64.0335 3.26896 63.7821 3.15466 63.5078 3.15466H36.7197C36.4454 3.15466 36.194 3.26896 36.0111 3.45184C35.8283 3.63473 35.714 3.88619 35.714 4.16052V15.8765L35.7597 15.8879Z" fill="white"/>
</g>
<defs>
<clipPath id="clip0_5392_1454">
<rect width="80" height="80" fill="white"/>
</clipPath>
</defs>
</svg>
