<svg width="80" height="80" viewBox="0 0 80 80" fill="none" xmlns="http://www.w3.org/2000/svg">
<g clip-path="url(#clip0_5603_4339)">
<path d="M45.5865 28.0457C44.4806 28.0457 43.5698 27.1336 43.5698 26.0261C43.5698 24.9186 44.4806 24.0066 45.5865 24.0066H57.719C58.825 24.0066 59.7357 24.9186 59.7357 26.0261C59.7357 27.1336 58.825 28.0457 57.719 28.0457H45.5865Z" fill="#06D7F9"/>
<path d="M45.5865 35.6677C44.4806 35.6677 43.5698 34.7557 43.5698 33.6482C43.5698 32.5407 44.4806 31.6287 45.5865 31.6287H57.719C58.825 31.6287 59.7357 32.5407 59.7357 33.6482C59.7357 34.7557 58.825 35.6677 57.719 35.6677H45.5865Z" fill="#06D7F9"/>
<path d="M23.1592 4.03909C22.0533 4.03909 21.1426 3.12704 21.1426 2.01954C21.1426 0.912052 22.0533 0 23.1592 0H38.1379C42.1224 0 43.2446 1.04235 44.8059 2.50814C45.0661 2.75244 45.3426 3.01303 45.7167 3.30619L46.9527 4.31596C48.0749 5.2443 46.8063 4.20195 47.1804 4.5114C47.9122 5.11401 48.5628 5.66775 51.0511 5.66775H56.1903C57.2962 5.66775 58.207 6.5798 58.207 7.6873C58.207 8.79479 57.2962 9.70684 56.1903 9.70684H51.0511C47.4406 9.70684 46.1558 8.85993 44.936 7.86645C45.0336 7.94788 45.0011 7.91531 44.3993 7.443L43.1633 6.43322C42.773 6.10749 42.4152 5.76547 42.0737 5.45603C41.1954 4.62541 40.5612 4.03909 38.1379 4.03909H23.1592Z" fill="#06D7F9"/>
<path d="M3.8707 57.948H17.4507C18.5241 57.948 19.4836 58.3877 20.183 59.0881C20.2317 59.1369 20.2805 59.2021 20.3293 59.2509C20.9473 59.935 21.3214 60.847 21.3214 61.8242V76.1239C21.3214 77.1825 20.8823 78.1434 20.183 78.86L20.1667 78.8763C19.4674 79.5767 18.4916 80.0164 17.4507 80.0164H3.8707C2.81358 80.0164 1.83777 79.5767 1.13844 78.8763C0.439113 78.176 0 77.1988 0 76.1402V61.8405C0 60.7656 0.439113 59.8047 1.13844 59.1043C1.83777 58.404 2.81358 57.9643 3.8707 57.9643V57.948ZM17.2881 61.9871H4.03334V75.9773H17.2881V61.9871Z" fill="#06D7F9"/>
<path d="M62.5494 57.948H76.1294C77.2028 57.948 78.1623 58.3877 78.8617 59.0881C78.9105 59.1369 78.9592 59.2021 79.008 59.2509C79.6261 59.935 80.0001 60.847 80.0001 61.8242V76.1239C80.0001 77.1825 79.561 78.1434 78.8617 78.86L78.8454 78.8763C78.1461 79.5767 77.1703 80.0164 76.1294 80.0164H62.5494C61.4923 80.0164 60.5165 79.5767 59.8171 78.8763C59.1178 78.176 58.6787 77.1988 58.6787 76.1402V61.8405C58.6787 60.7656 59.1178 59.8047 59.8171 59.1043C60.5165 58.404 61.4923 57.9643 62.5494 57.9643V57.948ZM75.9668 61.9871H62.712V75.9773H75.9668V61.9871Z" fill="#06D7F9"/>
<path d="M33.2101 57.948H46.7901C47.8634 57.948 48.823 58.3877 49.5223 59.0881C49.5711 59.1369 49.6199 59.2021 49.6687 59.2509C50.2867 59.935 50.6608 60.847 50.6608 61.8242V76.1239C50.6608 77.1825 50.2216 78.1434 49.5223 78.86L49.5061 78.8763C48.8067 79.5767 47.8309 80.0164 46.7901 80.0164H33.2101C32.1529 80.0164 31.1771 79.5767 30.4778 78.8763C29.7785 78.176 29.3394 77.1988 29.3394 76.1402V61.8405C29.3394 60.7656 29.7785 59.8047 30.4778 59.1043C31.1771 58.404 32.1529 57.9643 33.2101 57.9643V57.948ZM46.6274 61.9871H33.3727V75.9773H46.6274V61.9871Z" fill="#06D7F9"/>
<path d="M41.9923 59.8533C41.9923 60.9608 41.0816 61.8729 39.9757 61.8729C38.8697 61.8729 37.959 60.9608 37.959 59.8533V41.5471C37.959 40.4396 38.8697 39.5276 39.9757 39.5276C41.0816 39.5276 41.9923 40.4396 41.9923 41.5471V59.8533Z" fill="#06D7F9"/>
<path d="M12.2626 59.9185C12.2626 61.026 11.3518 61.9381 10.2459 61.9381C9.14 61.9381 8.22925 61.026 8.22925 59.9185V56.4332C8.22925 54.8697 8.86352 53.469 9.88812 52.443C10.9127 51.4169 12.3276 50.7817 13.8727 50.7817H66.0784C67.6397 50.7817 69.0383 51.4169 70.0629 52.443C71.0875 53.469 71.7218 54.886 71.7218 56.4332V59.7557C71.7218 60.8632 70.8111 61.7752 69.7051 61.7752C68.5992 61.7752 67.6885 60.8632 67.6885 59.7557V56.4332C67.6885 55.9935 67.5096 55.5863 67.2168 55.2931C66.9241 55 66.5175 54.8208 66.0784 54.8208H13.8727C13.4336 54.8208 13.027 55 12.7342 55.2931C12.4415 55.5863 12.2626 55.9935 12.2626 56.4332V59.9185Z" fill="#06D7F9"/>
<path d="M8.83112 71.2542C7.72521 71.2542 6.81445 70.3421 6.81445 69.2346C6.81445 68.1271 7.72521 67.2151 8.83112 67.2151H18.7356C19.8415 67.2151 20.7522 68.1271 20.7522 69.2346C20.7522 70.3421 19.8415 71.2542 18.7356 71.2542H8.83112Z" fill="#06D7F9"/>
<path d="M38.2029 71.2542C37.097 71.2542 36.1863 70.3421 36.1863 69.2346C36.1863 68.1271 37.097 67.2151 38.2029 67.2151H48.0423C49.1483 67.2151 50.059 68.1271 50.059 69.2346C50.059 70.3421 49.1483 71.2542 48.0423 71.2542H38.2029Z" fill="#06D7F9"/>
<path d="M67.8675 71.2542C66.7616 71.2542 65.8508 70.3421 65.8508 69.2346C65.8508 68.1271 66.7616 67.2151 67.8675 67.2151H77.9183C79.0242 67.2151 79.935 68.1271 79.935 69.2346C79.935 70.3421 79.0242 71.2542 77.9183 71.2542H67.8675Z" fill="#06D7F9"/>
<path d="M24.509 39.0392C25.6149 39.0392 26.5257 39.9512 26.5257 41.0587C26.5257 42.1662 25.6149 43.0782 24.509 43.0782H19.2071C17.5971 43.0782 16.1333 42.4268 15.0762 41.3519C14.0191 40.2932 13.3523 38.8274 13.3523 37.2151V5.87955C13.3523 4.26717 14.0028 2.80137 15.0762 1.74274C16.1333 0.68411 17.5971 0.0163574 19.2071 0.0163574H27.0299C31.0144 0.0163574 32.1366 1.07499 33.6979 2.54079C33.9581 2.78509 34.2346 3.04567 34.6086 3.35512L35.8447 4.36489C36.9668 5.29323 35.6983 4.25089 36.0724 4.56033C36.8042 5.16294 37.4547 5.71668 39.9431 5.71668H60.744C62.3541 5.71668 63.8178 6.36815 64.8749 7.44307C65.9321 8.5017 66.5989 9.9675 66.5989 11.5799V37.2151C66.5989 38.8274 65.9483 40.2769 64.8749 41.3519L64.8587 41.3681C63.8016 42.4268 62.3378 43.0782 60.7278 43.0782H31.7463C30.6404 43.0782 29.7296 42.1662 29.7296 41.0587C29.7296 39.9512 30.6404 39.0392 31.7463 39.0392H60.7278C61.2319 39.0392 61.6873 38.8437 62.0126 38.5017C62.3378 38.176 62.5493 37.7199 62.5493 37.2151V11.5799C62.5493 11.075 62.3378 10.619 62.0126 10.2932C61.6873 9.9675 61.2319 9.75577 60.7278 9.75577H39.9268C36.3163 9.75577 35.0315 8.90886 33.8117 7.91538C33.9093 7.99681 33.8768 7.96424 33.275 7.49193L32.039 6.48216C31.6487 6.15642 31.2746 5.8144 30.9331 5.48867C30.0549 4.65805 29.4206 4.07173 27.0299 4.07173H19.2071C18.703 4.07173 18.2476 4.28346 17.9223 4.60919C17.5971 4.93492 17.3856 5.39095 17.3856 5.89584V37.2313C17.3856 37.7362 17.5971 38.1923 17.9223 38.518C18.2476 38.8437 18.703 39.0554 19.2071 39.0554H24.509V39.0392Z" fill="white"/>
</g>
<defs>
<clipPath id="clip0_5603_4339">
<rect width="80" height="80" fill="white"/>
</clipPath>
</defs>
</svg>
