<svg width="1018" height="1185" viewBox="0 0 1018 1185" fill="none" xmlns="http://www.w3.org/2000/svg">
<mask id="path-1-inside-1_5339_46" fill="white">
<path fill-rule="evenodd" clip-rule="evenodd" d="M671.805 371.408L782.889 734.506V734.757H790.244L1014.86 1.426H1291.95L896.391 1185L664.513 1108.14L763.344 812.816H560.974L427.168 417.235C385.764 294.608 270.641 212.017 140.875 212.017H0V0H168.898C400.155 0 604.145 150.829 671.805 371.408Z"/>
</mask>
<path d="M782.889 734.506H783.889V734.356L783.846 734.213L782.889 734.506ZM671.805 371.408L672.762 371.115L672.761 371.114L671.805 371.408ZM782.889 734.757H781.889V735.757H782.889V734.757ZM790.244 734.757V735.757H790.984L791.2 735.05L790.244 734.757ZM1014.86 1.426V0.425998H1014.12L1013.9 1.13314L1014.86 1.426ZM1291.95 1.426L1292.9 1.74297L1293.34 0.425998H1291.95V1.426ZM896.391 1185L896.077 1185.95L897.024 1186.26L897.34 1185.32L896.391 1185ZM664.513 1108.14L663.564 1107.83L663.246 1108.78L664.198 1109.09L664.513 1108.14ZM763.344 812.816L764.292 813.133L764.733 811.816H763.344V812.816ZM560.974 812.816L560.027 813.136L560.257 813.816H560.974V812.816ZM427.168 417.235L426.221 417.555L426.221 417.556L427.168 417.235ZM0 212.017H-1V213.017H0V212.017ZM0 0V-1H-1V0H0ZM783.846 734.213L672.762 371.115L670.849 371.7L781.933 734.798L783.846 734.213ZM783.889 734.757V734.506H781.889V734.757H783.889ZM790.244 733.757H782.889V735.757H790.244V733.757ZM1013.9 1.13314L789.288 734.465L791.2 735.05L1015.81 1.71886L1013.9 1.13314ZM1291.95 0.425998H1014.86V2.426H1291.95V0.425998ZM897.34 1185.32L1292.9 1.74297L1291 1.10903L895.443 1184.68L897.34 1185.32ZM664.198 1109.09L896.077 1185.95L896.706 1184.05L664.827 1107.2L664.198 1109.09ZM762.396 812.499L663.564 1107.83L665.461 1108.46L764.292 813.133L762.396 812.499ZM560.974 813.816H763.344V811.816H560.974V813.816ZM426.221 417.556L560.027 813.136L561.921 812.495L428.116 416.915L426.221 417.556ZM140.875 213.017C270.213 213.017 384.954 295.335 426.221 417.555L428.116 416.916C386.574 293.881 271.069 211.017 140.875 211.017V213.017ZM0 213.017H140.875V211.017H0V213.017ZM-1 0V212.017H1V0H-1ZM168.898 -1H0V1H168.898V-1ZM672.761 371.114C604.972 150.115 400.593 -1 168.898 -1V1C399.716 1 603.318 151.543 670.849 371.701L672.761 371.114Z" fill="#06D1F3" mask="url(#path-1-inside-1_5339_46)"/>
</svg>
