<svg width="20" height="20" viewBox="0 0 20 20" fill="none" xmlns="http://www.w3.org/2000/svg">
<g clip-path="url(#clip0_1601_795)">
<path d="M6.48 5.68L10 9.12L13.44 5.68L14.32 6.48L10.88 10L14.32 13.44L13.44 14.32L10 10.88L6.48 14.32L5.68 13.44L9.12 10L5.68 6.48L6.48 5.68ZM10 0C12.72 0 15.28 1.12 17.04 2.96C18.88 4.72 20 7.2 20 10C20 12.72 18.88 15.28 17.04 17.04C15.28 18.88 12.72 20 10 20C7.2 20 4.72 18.88 2.96 17.04C1.12 15.28 0 12.72 0 10C0 7.2 1.12 4.72 2.96 2.96C4.72 1.12 7.2 0 10 0ZM16.16 3.76C14.56 2.24 12.4 1.2 10 1.2C7.6 1.2 5.36 2.24 3.76 3.76C2.24 5.36 1.2 7.6 1.2 10C1.2 12.4 2.24 14.56 3.76 16.16C5.36 17.76 7.6 18.72 10 18.72C12.4 18.72 14.56 17.76 16.16 16.16C17.76 14.56 18.72 12.4 18.72 10C18.72 7.6 17.76 5.36 16.16 3.76Z" fill="#06D7F9"/>
</g>
<defs>
<clipPath id="clip0_1601_795">
<rect width="20" height="20" fill="white"/>
</clipPath>
</defs>
</svg>
