<svg width="201" height="218" viewBox="0 0 201 218" fill="none" xmlns="http://www.w3.org/2000/svg">
<path d="M7 175C7 166.989 7.68262 159.137 8.99288 151.5C20.148 86.4788 76.7958 37 145 37C162.256 37 178.773 40.1673 194 45.9523" stroke="#FF490F" stroke-dasharray="2 2"/>
<path d="M7 175C7 189.645 9.2812 203.757 13.5076 217" stroke="#42EAE5" stroke-dasharray="2 2"/>
<path d="M94.4004 46.6001L158 215" stroke="#2ECC71" stroke-miterlimit="10" stroke-linecap="square" stroke-linejoin="round"/>
<path d="M67.8996 87.5H73.8996L66.2996 113.6H54.0996L46.5996 87.5H52.5996L59.4996 112.1H60.8996L67.8996 87.5Z" fill="white"/>
<path d="M40.4004 87.5H46.3004L40.4004 105.4H37.4004V113.6H31.5004V105.4H28.2004L22.4004 87.5H28.4004L33.6004 103.9H35.1004L40.4004 87.5Z" fill="white"/>
<path d="M101.801 113.7H95.6008C94.4008 111.6 92.4008 110.4 89.4008 110.4C86.4008 110.4 84.3008 111.6 83.1008 113.7H76.8008C78.5008 108.7 83.0008 105.2 89.3008 105.2C95.7008 105.3 100.101 108.7 101.801 113.7Z" fill="#2ECC71"/>
<path d="M118.1 87.2002C109.8 87.2002 104.8 93.0002 104.8 100.6C104.8 108.2 109.8 114 118.1 114C126.4 114 131.4 108.2 131.4 100.6C131.4 93.0002 126.4 87.2002 118.1 87.2002ZM118.1 108.8C113.2 108.8 110.7 105.6 110.7 100.5C110.7 95.5002 113.2 92.3002 118.1 92.3002C123 92.3002 125.5 95.5002 125.5 100.5C125.5 105.6 123 108.8 118.1 108.8ZM89.3 77.7002C81 77.7002 76 83.5002 76 91.1002C76 98.7002 81 104.5 89.3 104.5C97.6 104.5 102.6 98.7002 102.6 91.1002C102.6 83.5002 97.6 77.7002 89.3 77.7002ZM89.3 99.3002C84.4 99.3002 81.9 96.1002 81.9 91.0002C81.9 86.0002 84.4 82.8002 89.3 82.8002C94.2 82.8002 96.7 86.0002 96.7 91.0002C96.7 96.1002 94.2 99.3002 89.3 99.3002Z" fill="white"/>
<path d="M144.4 86.6001L139.7 100.8H133.9L138.4 86.6001H144.4Z" fill="#42EAE5"/>
<path d="M81.1992 28.2L80.1992 25.9L94.3992 21.2L80.1992 16.3L81.1992 14L97.3992 19.8V22.6L81.1992 28.2Z" fill="#42EAE5"/>
<path d="M85.2 20.1001H70V22.1001H85.2V20.1001Z" fill="#42EAE5"/>
<path d="M156.199 128.5V122.3" stroke="#FF490F" stroke-width="2" stroke-miterlimit="10" stroke-linejoin="round"/>
<path d="M162.4 128.5V109.8" stroke="#FF490F" stroke-width="2" stroke-miterlimit="10" stroke-linejoin="round"/>
<path d="M168.699 128.5V116" stroke="#FF490F" stroke-width="2" stroke-miterlimit="10" stroke-linejoin="round"/>
<path d="M174.9 128.5V103.5" stroke="#FF490F" stroke-width="2" stroke-miterlimit="10" stroke-linejoin="round"/>
<path d="M153 128.5H178.1" stroke="#42EAE5" stroke-width="2" stroke-miterlimit="10" stroke-linejoin="round"/>
<path d="M11.7008 71.6999L7.30078 67.3999" stroke="#42EAE5" stroke-width="2" stroke-miterlimit="10" stroke-linejoin="round"/>
<path d="M19.8996 67L19.0996 64" stroke="#FF490F" stroke-width="2" stroke-miterlimit="10" stroke-linecap="square" stroke-linejoin="round"/>
<path d="M29.4004 67L31.0004 61" stroke="#42EAE5" stroke-width="2" stroke-miterlimit="10" stroke-linejoin="round"/>
<path d="M6.9 89.5L1 91" stroke="#42EAE5" stroke-width="2" stroke-miterlimit="10" stroke-linejoin="round"/>
<path d="M6.9 79.9L4 79.2" stroke="#FF490F" stroke-width="2" stroke-miterlimit="10" stroke-linecap="square" stroke-linejoin="round"/>
<path d="M54.9 143H42H35V136C35 132.2 38.1 129 42 129H54.9C58.7 129 61.9 132.1 61.9 136C61.9 139.9 58.7 143 54.9 143Z" stroke="#2ECC71" stroke-width="2" stroke-miterlimit="10" stroke-linejoin="round"/>
<path d="M41.9004 136C44.8004 136 41.9004 136 44.8004 136" stroke="white" stroke-width="2" stroke-miterlimit="10"/>
<path d="M47.8008 136C50.7008 136 47.8008 136 50.7008 136" stroke="white" stroke-width="2" stroke-miterlimit="10"/>
<path d="M53.7012 136C56.6012 136 53.7012 136 56.6012 136" stroke="white" stroke-width="2" stroke-miterlimit="10"/>
<path d="M196.2 2.3999H194V4.5999H196.2V2.3999Z" fill="#42EAE5"/>
<path d="M200.899 2.3999H198.699V4.5999H200.899V2.3999Z" fill="#42EAE5"/>
<path d="M198.501 0H196.301V2.2H198.501V0Z" fill="#42EAE5"/>
<path d="M198.501 4.69995H196.301V6.89996H198.501V4.69995Z" fill="#42EAE5"/>
<path d="M169.3 57.2C169.3 58.9 167.9 60.3 166.2 60.3C164.5 60.3 163.1 58.9 163.1 57.2C163.1 55.5 164.5 54.1 166.2 54.1C167.9 54.1 169.3 55.4 169.3 57.2ZM173.4 57.2C173.4 53.2 170.2 50 166.2 50C162.2 50 159 53.2 159 57.2C159 58.8 159.5 60.3 160.4 61.5L160.8 62.1L166.2 69.6L171.7 61.9L171.9 61.5C172.8 60.3 173.4 58.8 173.4 57.2Z" fill="#2ECC71"/>
<path d="M72.2 161.4H70V163.6H72.2V161.4Z" fill="#42EAE5"/>
<path d="M76.8992 161.4H74.6992V163.6H76.8992V161.4Z" fill="#42EAE5"/>
<path d="M74.5008 159H72.3008V161.2H74.5008V159Z" fill="#42EAE5"/>
<path d="M74.5008 163.7H72.3008V165.9H74.5008V163.7Z" fill="#42EAE5"/>
</svg>
