<svg width="60" height="60" viewBox="0 0 60 60" fill="none" xmlns="http://www.w3.org/2000/svg">
<g clip-path="url(#clip0_5339_948)">
<path d="M12.1372 50.2236C12.7627 50.7785 12.8132 51.7269 12.2684 52.3424C11.7135 52.9679 10.7651 53.0183 10.1497 52.4735C6.98167 49.6687 4.40895 46.2082 2.64335 42.3138C0.948377 38.5505 0 34.3837 0 29.995C0 21.7118 3.35968 14.2156 8.78762 8.78762C14.2156 3.35968 21.7118 0 29.995 0C34.525 0 38.833 1.00891 42.7072 2.82495C46.7126 4.70153 50.2438 7.44577 53.0486 10.8054C53.5833 11.4411 53.4925 12.3894 52.8569 12.9242C52.2213 13.4589 51.2729 13.3681 50.7382 12.7325C48.2159 9.70573 45.0479 7.24399 41.436 5.54902C37.9755 3.92467 34.1012 3.01665 29.995 3.01665C22.5492 3.01665 15.7996 6.03329 10.9164 10.9164C6.03329 15.7996 3.01665 22.5391 3.01665 29.995C3.01665 33.9499 3.86413 37.703 5.38759 41.0728C6.97158 44.5939 9.28199 47.7014 12.1372 50.2236ZM56.378 24.2946C56.2065 23.4774 56.721 22.6803 57.5383 22.5088C58.3555 22.3373 59.1525 22.8519 59.324 23.6691C59.546 24.6881 59.7074 25.7373 59.8285 26.8169C59.9395 27.8863 60 28.9457 60 30.005C60 38.2882 56.6403 45.7844 51.2124 51.2124C45.7844 56.6403 38.2882 60 30.005 60C29.1071 60 28.2193 59.9596 27.3314 59.8789C26.4739 59.8083 25.5961 59.6872 24.6881 59.5157C23.8709 59.3644 23.326 58.5875 23.4774 57.7703C23.6287 56.9531 24.4056 56.4083 25.2228 56.5596C25.9593 56.6908 26.7563 56.7917 27.5937 56.8724C28.3908 56.943 29.1878 56.9733 30.005 56.9733C37.4508 56.9733 44.2004 53.9566 49.0836 49.0735C53.9667 44.1903 56.9834 37.4508 56.9834 29.995C56.9834 28.9961 56.9329 28.0377 56.832 27.1196C56.7311 26.1712 56.5798 25.2329 56.378 24.2946Z" fill="#2B2A29"/>
<path d="M34.2522 3.11757C33.9798 2.33062 34.4035 1.47304 35.1804 1.21072C35.9673 0.938317 36.8249 1.36206 37.0872 2.13892C38.1869 5.32709 39.095 9.37282 39.7306 13.9836C40.3359 18.4026 40.6991 23.3765 40.7597 28.6531C40.7698 29.4804 40.0938 30.1665 39.2665 30.1665C38.4392 30.1766 37.7531 29.5006 37.7531 28.6733C37.7027 23.548 37.3496 18.6952 36.7543 14.377C36.1489 9.9479 35.2914 6.10395 34.2522 3.10748V3.11757ZM36.2297 48.9222C36.381 48.105 37.1579 47.5601 37.9852 47.7014C38.8024 47.8527 39.3472 48.6296 39.206 49.4569C38.9335 51.0005 38.6107 52.4937 38.2576 53.9163C37.9045 55.3389 37.5211 56.6404 37.1276 57.8107C36.8552 58.5976 35.9976 59.0214 35.2107 58.749C34.4237 58.4766 34 57.619 34.2724 56.8321C34.6558 55.7122 35.0089 54.4914 35.3317 53.2C35.6546 51.9086 35.9573 50.4759 36.2297 48.9222ZM23.4266 46.7732C23.5476 47.6005 22.9826 48.3673 22.1553 48.4883C21.328 48.6094 20.5613 48.0444 20.4402 47.2171C20.0467 44.6444 19.744 41.8497 19.5423 38.8936C19.3405 36.0283 19.2295 33.0419 19.2295 29.995C19.2295 24.3653 19.5927 19.018 20.2283 14.266C20.8942 9.32238 21.8728 5.01432 23.0634 1.695C23.3459 0.918139 24.2034 0.504485 24.9904 0.786981C25.7672 1.06948 26.1809 1.92705 25.8984 2.714C24.7785 5.82145 23.8604 9.91763 23.2147 14.6696C22.5993 19.2602 22.2461 24.4661 22.2461 30.0051C22.2461 33.0318 22.347 35.9476 22.5387 38.7019C22.7405 41.547 23.0331 44.2509 23.4165 46.7833L23.4266 46.7732Z" fill="#2B2A29"/>
<path d="M56.7313 35.4633C57.5183 35.2009 58.3759 35.6146 58.6382 36.4116C58.9005 37.1986 58.4869 38.0562 57.6898 38.3185C56.5598 38.7019 55.339 39.0651 54.0275 39.3879C52.7461 39.7108 51.3538 40.0134 49.8405 40.2859C49.0233 40.4372 48.2363 39.8924 48.085 39.0752C47.9336 38.2579 48.4784 37.471 49.2957 37.3197C50.6779 37.0674 52.0197 36.7748 53.291 36.452C54.5319 36.1392 55.6821 35.8063 56.7213 35.4532L56.7313 35.4633ZM29.0468 38.9238C29.8741 38.9238 30.5501 39.5998 30.54 40.4372C30.54 41.2645 29.864 41.9405 29.0266 41.9304C23.6088 41.89 18.5138 41.5268 13.9938 40.9013C9.25194 40.2455 5.12549 39.3173 1.91715 38.1873C1.1302 37.9149 0.716545 37.0472 0.99904 36.2603C1.27145 35.4733 2.13911 35.0597 2.92606 35.3422C5.96289 36.4116 9.88756 37.2995 14.4075 37.9149C18.8265 38.5203 23.8005 38.8835 29.0569 38.9137L29.0468 38.9238Z" fill="#2B2A29"/>
<path d="M49.0738 3.54123C48.2566 3.70266 47.4595 3.16793 47.3082 2.35072C47.1468 1.5335 47.6815 0.736456 48.4987 0.585119C50.3955 0.211822 52.1207 0.151287 53.6341 0.423693C55.2282 0.716278 56.57 1.36198 57.5991 2.39107C60.7873 5.57923 60.2626 10.6541 58.0834 16.0417C54.865 23.9919 47.9236 32.8602 44.6749 36.4923C44.12 37.1077 43.1717 37.1683 42.5562 36.6134C41.9408 36.0585 41.8803 35.1101 42.4352 34.4947C45.5628 31.0038 52.2216 22.4987 55.2887 14.9117C57.0442 10.5834 57.5991 6.65877 55.4703 4.51988C54.875 3.92462 54.078 3.55132 53.1094 3.36972C51.9795 3.16793 50.6275 3.22847 49.0839 3.53114L49.0738 3.54123ZM30.7822 45.5826C31.4279 45.058 32.3763 45.1689 32.9009 45.8146C33.4256 46.4604 33.3146 47.4087 32.6689 47.9334C26.3834 53.0082 20.1786 56.6605 14.9726 58.4563C9.49419 60.3531 4.99444 60.2118 2.39144 57.5987C1.38253 56.5898 0.746918 55.2984 0.444245 53.775C0.161749 52.3221 0.192017 50.6675 0.514869 48.8515C0.656116 48.0343 1.44307 47.4794 2.26029 47.6206C3.07751 47.7618 3.63241 48.5488 3.49116 49.366C3.22884 50.8289 3.19857 52.1203 3.41045 53.1898C3.59205 54.118 3.96535 54.8848 4.53034 55.4498C6.24549 57.1649 9.64552 57.1044 14.004 55.591C18.8771 53.9061 24.759 50.4254 30.7923 45.5624L30.7822 45.5826Z" fill="#06D7F9"/>
<path d="M47.5805 18.9877C48.3978 18.8566 49.1746 19.4216 49.3058 20.2388C49.4369 21.056 48.872 21.8329 48.0547 21.964C45.3509 22.3979 42.4351 22.7409 39.3579 22.9629C36.3614 23.1848 33.2237 23.3059 29.9952 23.3059C24.88 23.3059 20.007 23.0133 15.598 22.4786C10.9974 21.9237 6.92139 21.1065 3.61216 20.1076C2.81512 19.8655 2.36111 19.0281 2.60325 18.2311C2.84538 17.434 3.68278 16.98 4.47982 17.2221C7.63772 18.1806 11.5422 18.9575 15.9512 19.4821C20.2289 19.9966 24.9809 20.2892 29.9851 20.2892C33.1733 20.2892 36.2404 20.1783 39.136 19.9563C42.1526 19.7343 44.9876 19.4014 47.5705 18.9877H47.5805Z" fill="#2B2A29"/>
<path d="M39.2668 32.0027C41.1938 32.0027 42.9393 32.7795 44.2004 34.0508C45.4615 35.3119 46.2485 37.0573 46.2485 38.9844C46.2485 40.9114 45.4716 42.6568 44.2004 43.9179C42.9393 45.1791 41.1938 45.966 39.2668 45.966C37.3398 45.966 35.5944 45.1892 34.3332 43.9179C33.0721 42.6568 32.2852 40.9114 32.2852 38.9844C32.2852 37.0573 33.062 35.3119 34.3332 34.0508C35.5944 32.7896 37.3398 32.0027 39.2668 32.0027ZM42.0716 36.1796C41.3553 35.4633 40.3665 35.0193 39.2668 35.0193C38.1772 35.0193 37.1784 35.4633 36.4621 36.1796C35.7457 36.8959 35.3018 37.8846 35.3018 38.9844C35.3018 40.074 35.7457 41.0728 36.4621 41.7891C37.1784 42.5055 38.1671 42.9494 39.2668 42.9494C40.3565 42.9494 41.3553 42.5055 42.0716 41.7891C42.7879 41.0728 43.2319 40.0841 43.2319 38.9844C43.2319 37.8947 42.7879 36.8959 42.0716 36.1796Z" fill="#06D7F9"/>
</g>
<defs>
<clipPath id="clip0_5339_948">
<rect width="60" height="60" fill="white"/>
</clipPath>
</defs>
</svg>
