<svg width="612" height="446" viewBox="0 0 612 446" fill="none" xmlns="http://www.w3.org/2000/svg">
<g filter="url(#filter0_d_5339_49)">
<rect x="582" y="406" width="552" height="386" rx="30" transform="rotate(180 582 406)" fill="white"/>
</g>
<path d="M475.295 354.364V366H473.886V355.841H473.818L470.977 357.727V356.295L473.886 354.364H475.295Z" fill="#FF0000"/>
<path d="M486.227 359.557V360.807H481.136V359.557H486.227ZM493.268 366V354.364H497.2C498.113 354.364 498.859 354.528 499.439 354.858C500.022 355.184 500.454 355.625 500.734 356.182C501.015 356.739 501.155 357.36 501.155 358.045C501.155 358.731 501.015 359.354 500.734 359.915C500.458 360.475 500.03 360.922 499.45 361.256C498.871 361.585 498.128 361.75 497.223 361.75H494.405V360.5H497.178C497.803 360.5 498.304 360.392 498.683 360.176C499.062 359.96 499.337 359.669 499.507 359.301C499.681 358.93 499.768 358.511 499.768 358.045C499.768 357.58 499.681 357.163 499.507 356.795C499.337 356.428 499.06 356.14 498.678 355.932C498.295 355.72 497.787 355.614 497.155 355.614H494.678V366H493.268ZM506.695 366.182C505.907 366.182 505.215 365.994 504.621 365.619C504.03 365.244 503.568 364.72 503.234 364.045C502.905 363.371 502.74 362.583 502.74 361.682C502.74 360.773 502.905 359.979 503.234 359.301C503.568 358.623 504.03 358.097 504.621 357.722C505.215 357.347 505.907 357.159 506.695 357.159C507.482 357.159 508.172 357.347 508.763 357.722C509.357 358.097 509.82 358.623 510.149 359.301C510.482 359.979 510.649 360.773 510.649 361.682C510.649 362.583 510.482 363.371 510.149 364.045C509.82 364.72 509.357 365.244 508.763 365.619C508.172 365.994 507.482 366.182 506.695 366.182ZM506.695 364.977C507.293 364.977 507.786 364.824 508.172 364.517C508.558 364.21 508.844 363.807 509.03 363.307C509.215 362.807 509.308 362.265 509.308 361.682C509.308 361.098 509.215 360.555 509.03 360.051C508.844 359.547 508.558 359.14 508.172 358.83C507.786 358.519 507.293 358.364 506.695 358.364C506.096 358.364 505.604 358.519 505.217 358.83C504.831 359.14 504.545 359.547 504.359 360.051C504.174 360.555 504.081 361.098 504.081 361.682C504.081 362.265 504.174 362.807 504.359 363.307C504.545 363.807 504.831 364.21 505.217 364.517C505.604 364.824 506.096 364.977 506.695 364.977ZM516.241 366.182C515.454 366.182 514.762 365.994 514.168 365.619C513.577 365.244 513.115 364.72 512.781 364.045C512.452 363.371 512.287 362.583 512.287 361.682C512.287 360.773 512.452 359.979 512.781 359.301C513.115 358.623 513.577 358.097 514.168 357.722C514.762 357.347 515.454 357.159 516.241 357.159C517.029 357.159 517.719 357.347 518.31 357.722C518.904 358.097 519.366 358.623 519.696 359.301C520.029 359.979 520.196 360.773 520.196 361.682C520.196 362.583 520.029 363.371 519.696 364.045C519.366 364.72 518.904 365.244 518.31 365.619C517.719 365.994 517.029 366.182 516.241 366.182ZM516.241 364.977C516.84 364.977 517.332 364.824 517.719 364.517C518.105 364.21 518.391 363.807 518.577 363.307C518.762 362.807 518.855 362.265 518.855 361.682C518.855 361.098 518.762 360.555 518.577 360.051C518.391 359.547 518.105 359.14 517.719 358.83C517.332 358.519 516.84 358.364 516.241 358.364C515.643 358.364 515.151 358.519 514.764 358.83C514.378 359.14 514.092 359.547 513.906 360.051C513.721 360.555 513.628 361.098 513.628 361.682C513.628 362.265 513.721 362.807 513.906 363.307C514.092 363.807 514.378 364.21 514.764 364.517C515.151 364.824 515.643 364.977 516.241 364.977ZM522.243 366V357.273H523.538V358.591H523.629C523.788 358.159 524.076 357.809 524.493 357.54C524.91 357.271 525.379 357.136 525.902 357.136C526 357.136 526.124 357.138 526.271 357.142C526.419 357.146 526.531 357.152 526.607 357.159V358.523C526.561 358.511 526.457 358.494 526.294 358.472C526.135 358.445 525.966 358.432 525.788 358.432C525.364 358.432 524.985 358.521 524.652 358.699C524.322 358.873 524.061 359.116 523.868 359.426C523.679 359.733 523.584 360.083 523.584 360.477V366H522.243Z" fill="#FF0000"/>
<path d="M400.205 366V364.977L404.045 360.773C404.496 360.28 404.867 359.852 405.159 359.489C405.451 359.121 405.667 358.777 405.807 358.455C405.951 358.129 406.023 357.788 406.023 357.432C406.023 357.023 405.924 356.669 405.727 356.369C405.534 356.07 405.269 355.839 404.932 355.676C404.595 355.513 404.216 355.432 403.795 355.432C403.348 355.432 402.958 355.525 402.625 355.71C402.295 355.892 402.04 356.148 401.858 356.477C401.68 356.807 401.591 357.193 401.591 357.636H400.25C400.25 356.955 400.407 356.356 400.722 355.841C401.036 355.326 401.464 354.924 402.006 354.636C402.551 354.348 403.163 354.205 403.841 354.205C404.523 354.205 405.127 354.348 405.653 354.636C406.18 354.924 406.593 355.312 406.892 355.801C407.191 356.29 407.341 356.833 407.341 357.432C407.341 357.86 407.263 358.278 407.108 358.688C406.956 359.093 406.691 359.545 406.312 360.045C405.938 360.542 405.417 361.148 404.75 361.864L402.136 364.659V364.75H407.545V366H400.205Z" fill="#FF7B51"/>
<path d="M415.227 359.557V360.807H410.136V359.557H415.227ZM422.268 366V354.364H429.246V355.614H423.678V359.545H428.723V360.795H423.678V366H422.268ZM434.045 366.205C433.492 366.205 432.991 366.1 432.54 365.892C432.089 365.68 431.731 365.375 431.466 364.977C431.201 364.576 431.068 364.091 431.068 363.523C431.068 363.023 431.167 362.617 431.364 362.307C431.561 361.992 431.824 361.746 432.153 361.568C432.483 361.39 432.847 361.258 433.244 361.17C433.646 361.08 434.049 361.008 434.455 360.955C434.985 360.886 435.415 360.835 435.744 360.801C436.078 360.763 436.32 360.701 436.472 360.614C436.627 360.527 436.705 360.375 436.705 360.159V360.114C436.705 359.553 436.551 359.117 436.244 358.807C435.941 358.496 435.481 358.341 434.864 358.341C434.223 358.341 433.722 358.481 433.358 358.761C432.994 359.042 432.739 359.341 432.591 359.659L431.318 359.205C431.545 358.674 431.848 358.261 432.227 357.966C432.61 357.667 433.027 357.458 433.477 357.341C433.932 357.22 434.379 357.159 434.818 357.159C435.098 357.159 435.42 357.193 435.784 357.261C436.152 357.326 436.506 357.46 436.847 357.665C437.191 357.869 437.477 358.178 437.705 358.591C437.932 359.004 438.045 359.557 438.045 360.25V366H436.705V364.818H436.636C436.545 365.008 436.394 365.21 436.182 365.426C435.97 365.642 435.688 365.826 435.335 365.977C434.983 366.129 434.553 366.205 434.045 366.205ZM434.25 365C434.78 365 435.227 364.896 435.591 364.688C435.958 364.479 436.235 364.21 436.42 363.881C436.61 363.551 436.705 363.205 436.705 362.841V361.614C436.648 361.682 436.523 361.744 436.33 361.801C436.14 361.854 435.92 361.902 435.67 361.943C435.424 361.981 435.184 362.015 434.949 362.045C434.718 362.072 434.53 362.095 434.386 362.114C434.038 362.159 433.712 362.233 433.409 362.335C433.11 362.434 432.867 362.583 432.682 362.784C432.5 362.981 432.409 363.25 432.409 363.591C432.409 364.057 432.581 364.409 432.926 364.648C433.275 364.883 433.716 365 434.25 365ZM440.493 366V357.273H441.834V366H440.493ZM441.175 355.818C440.913 355.818 440.688 355.729 440.499 355.551C440.313 355.373 440.22 355.159 440.22 354.909C440.22 354.659 440.313 354.445 440.499 354.267C440.688 354.089 440.913 354 441.175 354C441.436 354 441.66 354.089 441.845 354.267C442.035 354.445 442.129 354.659 442.129 354.909C442.129 355.159 442.035 355.373 441.845 355.551C441.66 355.729 441.436 355.818 441.175 355.818ZM444.29 366V357.273H445.585V358.591H445.676C445.835 358.159 446.123 357.809 446.54 357.54C446.956 357.271 447.426 357.136 447.949 357.136C448.047 357.136 448.17 357.138 448.318 357.142C448.466 357.146 448.578 357.152 448.653 357.159V358.523C448.608 358.511 448.504 358.494 448.341 358.472C448.182 358.445 448.013 358.432 447.835 358.432C447.411 358.432 447.032 358.521 446.699 358.699C446.369 358.873 446.108 359.116 445.915 359.426C445.725 359.733 445.631 360.083 445.631 360.477V366H444.29Z" fill="#FF7B51"/>
<path d="M321.136 366.159C320.386 366.159 319.718 366.03 319.131 365.773C318.547 365.515 318.083 365.157 317.739 364.699C317.398 364.237 317.212 363.701 317.182 363.091H318.614C318.644 363.466 318.773 363.79 319 364.062C319.227 364.331 319.525 364.54 319.892 364.688C320.259 364.835 320.667 364.909 321.114 364.909C321.614 364.909 322.057 364.822 322.443 364.648C322.83 364.473 323.133 364.231 323.352 363.92C323.572 363.61 323.682 363.25 323.682 362.841C323.682 362.413 323.576 362.036 323.364 361.71C323.152 361.381 322.841 361.123 322.432 360.938C322.023 360.752 321.523 360.659 320.932 360.659H320V359.409H320.932C321.394 359.409 321.799 359.326 322.148 359.159C322.5 358.992 322.775 358.758 322.972 358.455C323.172 358.152 323.273 357.795 323.273 357.386C323.273 356.992 323.186 356.65 323.011 356.358C322.837 356.066 322.591 355.839 322.273 355.676C321.958 355.513 321.587 355.432 321.159 355.432C320.758 355.432 320.379 355.506 320.023 355.653C319.67 355.797 319.383 356.008 319.159 356.284C318.936 356.557 318.814 356.886 318.795 357.273H317.432C317.455 356.663 317.638 356.129 317.983 355.67C318.328 355.208 318.778 354.848 319.335 354.591C319.896 354.333 320.511 354.205 321.182 354.205C321.902 354.205 322.519 354.35 323.034 354.642C323.549 354.93 323.945 355.311 324.222 355.784C324.498 356.258 324.636 356.769 324.636 357.318C324.636 357.973 324.464 358.532 324.119 358.994C323.778 359.456 323.314 359.777 322.727 359.955V360.045C323.462 360.167 324.036 360.479 324.449 360.983C324.862 361.483 325.068 362.102 325.068 362.841C325.068 363.473 324.896 364.042 324.551 364.545C324.21 365.045 323.744 365.439 323.153 365.727C322.563 366.015 321.89 366.159 321.136 366.159Z" fill="#FFC527"/>
<path d="M332.227 359.557V360.807H327.136V359.557H332.227ZM347.223 358C347.098 357.617 346.933 357.275 346.729 356.972C346.528 356.665 346.287 356.403 346.007 356.188C345.731 355.972 345.416 355.807 345.064 355.693C344.712 355.58 344.325 355.523 343.905 355.523C343.215 355.523 342.589 355.701 342.024 356.057C341.46 356.413 341.011 356.938 340.678 357.631C340.344 358.324 340.178 359.174 340.178 360.182C340.178 361.189 340.346 362.04 340.683 362.733C341.02 363.426 341.477 363.951 342.053 364.307C342.628 364.663 343.276 364.841 343.996 364.841C344.662 364.841 345.25 364.699 345.757 364.415C346.268 364.127 346.666 363.722 346.95 363.199C347.238 362.672 347.382 362.053 347.382 361.341L347.814 361.432H344.314V360.182H348.746V361.432C348.746 362.39 348.541 363.223 348.132 363.932C347.727 364.64 347.166 365.189 346.45 365.58C345.738 365.966 344.92 366.159 343.996 366.159C342.965 366.159 342.06 365.917 341.28 365.432C340.503 364.947 339.897 364.258 339.462 363.364C339.03 362.47 338.814 361.409 338.814 360.182C338.814 359.261 338.937 358.434 339.183 357.699C339.433 356.96 339.786 356.331 340.24 355.812C340.695 355.294 341.232 354.896 341.854 354.619C342.475 354.343 343.159 354.205 343.905 354.205C344.518 354.205 345.09 354.297 345.621 354.483C346.155 354.665 346.63 354.924 347.047 355.261C347.467 355.595 347.818 355.994 348.098 356.46C348.378 356.922 348.571 357.436 348.678 358H347.223ZM354.523 366.182C353.735 366.182 353.044 365.994 352.449 365.619C351.858 365.244 351.396 364.72 351.062 364.045C350.733 363.371 350.568 362.583 350.568 361.682C350.568 360.773 350.733 359.979 351.062 359.301C351.396 358.623 351.858 358.097 352.449 357.722C353.044 357.347 353.735 357.159 354.523 357.159C355.311 357.159 356 357.347 356.591 357.722C357.186 358.097 357.648 358.623 357.977 359.301C358.311 359.979 358.477 360.773 358.477 361.682C358.477 362.583 358.311 363.371 357.977 364.045C357.648 364.72 357.186 365.244 356.591 365.619C356 365.994 355.311 366.182 354.523 366.182ZM354.523 364.977C355.121 364.977 355.614 364.824 356 364.517C356.386 364.21 356.672 363.807 356.858 363.307C357.044 362.807 357.136 362.265 357.136 361.682C357.136 361.098 357.044 360.555 356.858 360.051C356.672 359.547 356.386 359.14 356 358.83C355.614 358.519 355.121 358.364 354.523 358.364C353.924 358.364 353.432 358.519 353.045 358.83C352.659 359.14 352.373 359.547 352.188 360.051C352.002 360.555 351.909 361.098 351.909 361.682C351.909 362.265 352.002 362.807 352.188 363.307C352.373 363.807 352.659 364.21 353.045 364.517C353.432 364.824 353.924 364.977 354.523 364.977ZM364.07 366.182C363.282 366.182 362.59 365.994 361.996 365.619C361.405 365.244 360.943 364.72 360.609 364.045C360.28 363.371 360.115 362.583 360.115 361.682C360.115 360.773 360.28 359.979 360.609 359.301C360.943 358.623 361.405 358.097 361.996 357.722C362.59 357.347 363.282 357.159 364.07 357.159C364.857 357.159 365.547 357.347 366.138 357.722C366.732 358.097 367.195 358.623 367.524 359.301C367.857 359.979 368.024 360.773 368.024 361.682C368.024 362.583 367.857 363.371 367.524 364.045C367.195 364.72 366.732 365.244 366.138 365.619C365.547 365.994 364.857 366.182 364.07 366.182ZM364.07 364.977C364.668 364.977 365.161 364.824 365.547 364.517C365.933 364.21 366.219 363.807 366.405 363.307C366.59 362.807 366.683 362.265 366.683 361.682C366.683 361.098 366.59 360.555 366.405 360.051C366.219 359.547 365.933 359.14 365.547 358.83C365.161 358.519 364.668 358.364 364.07 358.364C363.471 358.364 362.979 358.519 362.592 358.83C362.206 359.14 361.92 359.547 361.734 360.051C361.549 360.555 361.456 361.098 361.456 361.682C361.456 362.265 361.549 362.807 361.734 363.307C361.92 363.807 362.206 364.21 362.592 364.517C362.979 364.824 363.471 364.977 364.07 364.977ZM373.366 366.182C372.639 366.182 371.997 365.998 371.44 365.631C370.884 365.259 370.448 364.737 370.134 364.062C369.819 363.384 369.662 362.583 369.662 361.659C369.662 360.742 369.819 359.947 370.134 359.273C370.448 358.598 370.885 358.078 371.446 357.71C372.007 357.343 372.654 357.159 373.389 357.159C373.957 357.159 374.406 357.254 374.736 357.443C375.069 357.629 375.323 357.841 375.497 358.08C375.675 358.314 375.813 358.508 375.912 358.659H376.026V354.364H377.366V366H376.071V364.659H375.912C375.813 364.818 375.673 365.019 375.491 365.261C375.31 365.5 375.05 365.714 374.713 365.903C374.376 366.089 373.927 366.182 373.366 366.182ZM373.548 364.977C374.086 364.977 374.541 364.837 374.912 364.557C375.283 364.273 375.565 363.881 375.759 363.381C375.952 362.877 376.048 362.295 376.048 361.636C376.048 360.985 375.954 360.415 375.764 359.926C375.575 359.434 375.295 359.051 374.923 358.778C374.552 358.502 374.094 358.364 373.548 358.364C372.98 358.364 372.507 358.509 372.128 358.801C371.753 359.089 371.471 359.481 371.281 359.977C371.096 360.47 371.003 361.023 371.003 361.636C371.003 362.258 371.098 362.822 371.287 363.33C371.48 363.833 371.764 364.235 372.139 364.534C372.518 364.83 372.988 364.977 373.548 364.977Z" fill="#FFC527"/>
<path d="M196.932 363.614V362.455L202.045 354.364H202.886V356.159H202.318L198.455 362.273V362.364H205.341V363.614H196.932ZM202.409 366V363.261V362.722V354.364H203.75V366H202.409Z" fill="#06D1F3"/>
<path d="M212.227 359.557V360.807H207.136V359.557H212.227ZM219.746 354.364L223.2 364.159H223.337L226.791 354.364H228.268L223.996 366H222.541L218.268 354.364H219.746ZM232.746 366.182C231.905 366.182 231.179 365.996 230.57 365.625C229.964 365.25 229.496 364.727 229.166 364.057C228.84 363.383 228.678 362.598 228.678 361.705C228.678 360.811 228.84 360.023 229.166 359.341C229.496 358.655 229.954 358.121 230.541 357.739C231.132 357.352 231.821 357.159 232.609 357.159C233.064 357.159 233.513 357.235 233.956 357.386C234.399 357.538 234.803 357.784 235.166 358.125C235.53 358.462 235.82 358.909 236.036 359.466C236.251 360.023 236.359 360.708 236.359 361.523V362.091H229.632V360.932H234.996C234.996 360.439 234.897 360 234.7 359.614C234.507 359.227 234.231 358.922 233.871 358.699C233.515 358.475 233.094 358.364 232.609 358.364C232.075 358.364 231.613 358.496 231.223 358.761C230.837 359.023 230.539 359.364 230.331 359.784C230.123 360.205 230.018 360.655 230.018 361.136V361.909C230.018 362.568 230.132 363.127 230.359 363.585C230.59 364.04 230.911 364.386 231.32 364.625C231.729 364.86 232.204 364.977 232.746 364.977C233.098 364.977 233.416 364.928 233.7 364.83C233.988 364.727 234.236 364.576 234.445 364.375C234.653 364.17 234.814 363.917 234.928 363.614L236.223 363.977C236.087 364.417 235.857 364.803 235.536 365.136C235.214 365.466 234.816 365.723 234.342 365.909C233.869 366.091 233.337 366.182 232.746 366.182ZM238.399 366V357.273H239.695V358.591H239.786C239.945 358.159 240.232 357.809 240.649 357.54C241.066 357.271 241.536 357.136 242.058 357.136C242.157 357.136 242.28 357.138 242.428 357.142C242.575 357.146 242.687 357.152 242.763 357.159V358.523C242.717 358.511 242.613 358.494 242.45 358.472C242.291 358.445 242.123 358.432 241.945 358.432C241.52 358.432 241.142 358.521 240.808 358.699C240.479 358.873 240.217 359.116 240.024 359.426C239.835 359.733 239.74 360.083 239.74 360.477V366H238.399ZM245.482 369.273C245.254 369.273 245.052 369.254 244.874 369.216C244.696 369.182 244.572 369.148 244.504 369.114L244.845 367.932C245.171 368.015 245.459 368.045 245.709 368.023C245.959 368 246.18 367.888 246.374 367.688C246.571 367.491 246.75 367.17 246.913 366.727L247.163 366.045L243.936 357.273H245.391L247.8 364.227H247.891L250.3 357.273H251.754L248.05 367.273C247.883 367.723 247.677 368.097 247.43 368.392C247.184 368.691 246.898 368.913 246.572 369.057C246.25 369.201 245.887 369.273 245.482 369.273ZM261.547 369.455C260.899 369.455 260.342 369.371 259.876 369.205C259.411 369.042 259.022 368.826 258.712 368.557C258.405 368.292 258.161 368.008 257.979 367.705L259.047 366.955C259.168 367.114 259.321 367.295 259.507 367.5C259.693 367.708 259.946 367.888 260.268 368.04C260.594 368.195 261.02 368.273 261.547 368.273C262.251 368.273 262.833 368.102 263.291 367.761C263.75 367.42 263.979 366.886 263.979 366.159V364.386H263.865C263.767 364.545 263.626 364.742 263.445 364.977C263.267 365.208 263.009 365.415 262.672 365.597C262.339 365.775 261.888 365.864 261.32 365.864C260.615 365.864 259.982 365.697 259.422 365.364C258.865 365.03 258.424 364.545 258.098 363.909C257.776 363.273 257.615 362.5 257.615 361.591C257.615 360.697 257.772 359.919 258.087 359.256C258.401 358.589 258.839 358.074 259.399 357.71C259.96 357.343 260.607 357.159 261.342 357.159C261.911 357.159 262.361 357.254 262.695 357.443C263.032 357.629 263.289 357.841 263.467 358.08C263.649 358.314 263.789 358.508 263.888 358.659H264.024V357.273H265.32V366.25C265.32 367 265.149 367.61 264.808 368.08C264.471 368.553 264.017 368.9 263.445 369.119C262.876 369.343 262.244 369.455 261.547 369.455ZM261.501 364.659C262.039 364.659 262.494 364.536 262.865 364.29C263.236 364.044 263.518 363.689 263.712 363.227C263.905 362.765 264.001 362.212 264.001 361.568C264.001 360.939 263.907 360.384 263.717 359.903C263.528 359.422 263.248 359.045 262.876 358.773C262.505 358.5 262.047 358.364 261.501 358.364C260.933 358.364 260.46 358.508 260.081 358.795C259.706 359.083 259.424 359.47 259.234 359.955C259.049 360.439 258.956 360.977 258.956 361.568C258.956 362.174 259.051 362.71 259.24 363.176C259.433 363.638 259.717 364.002 260.092 364.267C260.471 364.528 260.941 364.659 261.501 364.659ZM271.32 366.182C270.532 366.182 269.84 365.994 269.246 365.619C268.655 365.244 268.193 364.72 267.859 364.045C267.53 363.371 267.365 362.583 267.365 361.682C267.365 360.773 267.53 359.979 267.859 359.301C268.193 358.623 268.655 358.097 269.246 357.722C269.84 357.347 270.532 357.159 271.32 357.159C272.107 357.159 272.797 357.347 273.388 357.722C273.982 358.097 274.445 358.623 274.774 359.301C275.107 359.979 275.274 360.773 275.274 361.682C275.274 362.583 275.107 363.371 274.774 364.045C274.445 364.72 273.982 365.244 273.388 365.619C272.797 365.994 272.107 366.182 271.32 366.182ZM271.32 364.977C271.918 364.977 272.411 364.824 272.797 364.517C273.183 364.21 273.469 363.807 273.655 363.307C273.84 362.807 273.933 362.265 273.933 361.682C273.933 361.098 273.84 360.555 273.655 360.051C273.469 359.547 273.183 359.14 272.797 358.83C272.411 358.519 271.918 358.364 271.32 358.364C270.721 358.364 270.229 358.519 269.842 358.83C269.456 359.14 269.17 359.547 268.984 360.051C268.799 360.555 268.706 361.098 268.706 361.682C268.706 362.265 268.799 362.807 268.984 363.307C269.17 363.807 269.456 364.21 269.842 364.517C270.229 364.824 270.721 364.977 271.32 364.977ZM280.866 366.182C280.079 366.182 279.387 365.994 278.793 365.619C278.202 365.244 277.74 364.72 277.406 364.045C277.077 363.371 276.912 362.583 276.912 361.682C276.912 360.773 277.077 359.979 277.406 359.301C277.74 358.623 278.202 358.097 278.793 357.722C279.387 357.347 280.079 357.159 280.866 357.159C281.654 357.159 282.344 357.347 282.935 357.722C283.529 358.097 283.991 358.623 284.321 359.301C284.654 359.979 284.821 360.773 284.821 361.682C284.821 362.583 284.654 363.371 284.321 364.045C283.991 364.72 283.529 365.244 282.935 365.619C282.344 365.994 281.654 366.182 280.866 366.182ZM280.866 364.977C281.465 364.977 281.957 364.824 282.344 364.517C282.73 364.21 283.016 363.807 283.202 363.307C283.387 362.807 283.48 362.265 283.48 361.682C283.48 361.098 283.387 360.555 283.202 360.051C283.016 359.547 282.73 359.14 282.344 358.83C281.957 358.519 281.465 358.364 280.866 358.364C280.268 358.364 279.776 358.519 279.389 358.83C279.003 359.14 278.717 359.547 278.531 360.051C278.346 360.555 278.253 361.098 278.253 361.682C278.253 362.265 278.346 362.807 278.531 363.307C278.717 363.807 279.003 364.21 279.389 364.517C279.776 364.824 280.268 364.977 280.866 364.977ZM290.163 366.182C289.436 366.182 288.794 365.998 288.237 365.631C287.68 365.259 287.245 364.737 286.93 364.062C286.616 363.384 286.459 362.583 286.459 361.659C286.459 360.742 286.616 359.947 286.93 359.273C287.245 358.598 287.682 358.078 288.243 357.71C288.804 357.343 289.451 357.159 290.186 357.159C290.754 357.159 291.203 357.254 291.533 357.443C291.866 357.629 292.12 357.841 292.294 358.08C292.472 358.314 292.61 358.508 292.709 358.659H292.822V354.364H294.163V366H292.868V364.659H292.709C292.61 364.818 292.47 365.019 292.288 365.261C292.107 365.5 291.847 365.714 291.51 365.903C291.173 366.089 290.724 366.182 290.163 366.182ZM290.345 364.977C290.883 364.977 291.338 364.837 291.709 364.557C292.08 364.273 292.362 363.881 292.555 363.381C292.749 362.877 292.845 362.295 292.845 361.636C292.845 360.985 292.75 360.415 292.561 359.926C292.372 359.434 292.091 359.051 291.72 358.778C291.349 358.502 290.891 358.364 290.345 358.364C289.777 358.364 289.304 358.509 288.925 358.801C288.55 359.089 288.268 359.481 288.078 359.977C287.893 360.47 287.8 361.023 287.8 361.636C287.8 362.258 287.894 362.822 288.084 363.33C288.277 363.833 288.561 364.235 288.936 364.534C289.315 364.83 289.785 364.977 290.345 364.977Z" fill="#06D1F3"/>
<path d="M89.8409 366.159C89.1742 366.159 88.5739 366.027 88.0398 365.761C87.5057 365.496 87.0777 365.133 86.7557 364.67C86.4337 364.208 86.2576 363.682 86.2273 363.091H87.5909C87.6439 363.617 87.8826 364.053 88.3068 364.398C88.7348 364.739 89.2462 364.909 89.8409 364.909C90.3182 364.909 90.7424 364.797 91.1136 364.574C91.4886 364.35 91.7822 364.044 91.9943 363.653C92.2102 363.259 92.3182 362.814 92.3182 362.318C92.3182 361.811 92.2064 361.358 91.983 360.96C91.7633 360.559 91.4602 360.242 91.0739 360.011C90.6875 359.78 90.2462 359.663 89.75 359.659C89.3939 359.655 89.0284 359.71 88.6534 359.824C88.2784 359.934 87.9697 360.076 87.7273 360.25L86.4091 360.091L87.1136 354.364H93.1591V355.614H88.2955L87.8864 359.045H87.9545C88.1932 358.856 88.4924 358.699 88.8523 358.574C89.2121 358.449 89.5871 358.386 89.9773 358.386C90.6894 358.386 91.3239 358.557 91.8807 358.898C92.4413 359.235 92.8807 359.697 93.1989 360.284C93.5208 360.871 93.6818 361.542 93.6818 362.295C93.6818 363.038 93.5152 363.701 93.1818 364.284C92.8523 364.864 92.3977 365.322 91.8182 365.659C91.2386 365.992 90.5795 366.159 89.8409 366.159Z" fill="#2EC671"/>
<path d="M101.227 359.557V360.807H96.1364V359.557H101.227ZM108.268 366V354.364H115.291V355.614H109.678V359.545H114.928V360.795H109.678V364.75H115.382V366H108.268ZM118.649 357.273L120.74 360.841L122.831 357.273H124.376L121.558 361.636L124.376 366H122.831L120.74 362.614L118.649 366H117.104L119.876 361.636L117.104 357.273H118.649ZM129.476 366.182C128.658 366.182 127.953 365.989 127.362 365.602C126.771 365.216 126.317 364.684 125.999 364.006C125.68 363.328 125.521 362.553 125.521 361.682C125.521 360.795 125.684 360.013 126.01 359.335C126.339 358.653 126.798 358.121 127.385 357.739C127.976 357.352 128.665 357.159 129.453 357.159C130.067 357.159 130.62 357.273 131.112 357.5C131.605 357.727 132.008 358.045 132.322 358.455C132.637 358.864 132.832 359.341 132.908 359.886H131.567C131.464 359.489 131.237 359.136 130.885 358.83C130.536 358.519 130.067 358.364 129.476 358.364C128.953 358.364 128.495 358.5 128.101 358.773C127.711 359.042 127.406 359.422 127.186 359.915C126.97 360.403 126.862 360.977 126.862 361.636C126.862 362.311 126.968 362.898 127.18 363.398C127.396 363.898 127.699 364.286 128.089 364.562C128.483 364.839 128.946 364.977 129.476 364.977C129.824 364.977 130.141 364.917 130.425 364.795C130.709 364.674 130.949 364.5 131.146 364.273C131.343 364.045 131.483 363.773 131.567 363.455H132.908C132.832 363.97 132.644 364.434 132.345 364.847C132.05 365.256 131.658 365.581 131.169 365.824C130.684 366.062 130.12 366.182 129.476 366.182ZM138.527 366.182C137.686 366.182 136.961 365.996 136.351 365.625C135.745 365.25 135.277 364.727 134.947 364.057C134.622 363.383 134.459 362.598 134.459 361.705C134.459 360.811 134.622 360.023 134.947 359.341C135.277 358.655 135.735 358.121 136.322 357.739C136.913 357.352 137.603 357.159 138.391 357.159C138.845 357.159 139.294 357.235 139.737 357.386C140.18 357.538 140.584 357.784 140.947 358.125C141.311 358.462 141.601 358.909 141.817 359.466C142.033 360.023 142.141 360.708 142.141 361.523V362.091H135.413V360.932H140.777C140.777 360.439 140.679 360 140.482 359.614C140.288 359.227 140.012 358.922 139.652 358.699C139.296 358.475 138.875 358.364 138.391 358.364C137.857 358.364 137.394 358.496 137.004 358.761C136.618 359.023 136.321 359.364 136.112 359.784C135.904 360.205 135.8 360.655 135.8 361.136V361.909C135.8 362.568 135.913 363.127 136.141 363.585C136.372 364.04 136.692 364.386 137.101 364.625C137.51 364.86 137.985 364.977 138.527 364.977C138.879 364.977 139.197 364.928 139.482 364.83C139.769 364.727 140.018 364.576 140.226 364.375C140.434 364.17 140.595 363.917 140.709 363.614L142.004 363.977C141.868 364.417 141.639 364.803 141.317 365.136C140.995 365.466 140.597 365.723 140.124 365.909C139.65 366.091 139.118 366.182 138.527 366.182ZM145.521 354.364V366H144.18V354.364H145.521ZM149.318 354.364V366H147.977V354.364H149.318ZM155.433 366.182C154.592 366.182 153.867 365.996 153.257 365.625C152.651 365.25 152.183 364.727 151.854 364.057C151.528 363.383 151.365 362.598 151.365 361.705C151.365 360.811 151.528 360.023 151.854 359.341C152.183 358.655 152.642 358.121 153.229 357.739C153.82 357.352 154.509 357.159 155.297 357.159C155.751 357.159 156.2 357.235 156.643 357.386C157.087 357.538 157.49 357.784 157.854 358.125C158.217 358.462 158.507 358.909 158.723 359.466C158.939 360.023 159.047 360.708 159.047 361.523V362.091H152.32V360.932H157.683C157.683 360.439 157.585 360 157.388 359.614C157.195 359.227 156.918 358.922 156.558 358.699C156.202 358.475 155.782 358.364 155.297 358.364C154.763 358.364 154.301 358.496 153.911 358.761C153.524 359.023 153.227 359.364 153.018 359.784C152.81 360.205 152.706 360.655 152.706 361.136V361.909C152.706 362.568 152.82 363.127 153.047 363.585C153.278 364.04 153.598 364.386 154.007 364.625C154.416 364.86 154.892 364.977 155.433 364.977C155.786 364.977 156.104 364.928 156.388 364.83C156.676 364.727 156.924 364.576 157.132 364.375C157.34 364.17 157.501 363.917 157.615 363.614L158.911 363.977C158.774 364.417 158.545 364.803 158.223 365.136C157.901 365.466 157.503 365.723 157.03 365.909C156.556 366.091 156.024 366.182 155.433 366.182ZM162.428 360.75V366H161.087V357.273H162.382V358.636H162.496C162.7 358.193 163.011 357.837 163.428 357.568C163.844 357.295 164.382 357.159 165.041 357.159C165.632 357.159 166.149 357.28 166.592 357.523C167.036 357.761 167.38 358.125 167.626 358.614C167.873 359.098 167.996 359.712 167.996 360.455V366H166.655V360.545C166.655 359.86 166.477 359.326 166.121 358.943C165.765 358.557 165.276 358.364 164.655 358.364C164.227 358.364 163.844 358.456 163.507 358.642C163.174 358.828 162.911 359.098 162.717 359.455C162.524 359.811 162.428 360.242 162.428 360.75ZM174.241 357.273V358.409H169.719V357.273H174.241ZM171.037 355.182H172.378V363.5C172.378 363.879 172.433 364.163 172.543 364.352C172.656 364.538 172.8 364.663 172.974 364.727C173.152 364.788 173.34 364.818 173.537 364.818C173.685 364.818 173.806 364.811 173.901 364.795C173.995 364.777 174.071 364.761 174.128 364.75L174.401 365.955C174.31 365.989 174.183 366.023 174.02 366.057C173.857 366.095 173.651 366.114 173.401 366.114C173.022 366.114 172.651 366.032 172.287 365.869C171.927 365.706 171.628 365.458 171.389 365.125C171.154 364.792 171.037 364.371 171.037 363.864V355.182Z" fill="#2EC671"/>
<rect width="338" height="27" rx="10" transform="matrix(-1 0 0 1 423 65)" fill="#2EC671"/>
<rect width="442" height="66" rx="10" transform="matrix(-1 0 0 1 527 96)" fill="#06D1F3"/>
<rect width="266" height="98" rx="10" transform="matrix(-1 0 0 1 351 166)" fill="#FFC527"/>
<rect width="155" height="49" rx="10" transform="matrix(-1 0 0 1 240 268)" fill="#FF7B51"/>
<defs>
<filter id="filter0_d_5339_49" x="0" y="0" width="612" height="446" filterUnits="userSpaceOnUse" color-interpolation-filters="sRGB">
<feFlood flood-opacity="0" result="BackgroundImageFix"/>
<feColorMatrix in="SourceAlpha" type="matrix" values="0 0 0 0 0 0 0 0 0 0 0 0 0 0 0 0 0 0 127 0" result="hardAlpha"/>
<feOffset dy="10"/>
<feGaussianBlur stdDeviation="15"/>
<feComposite in2="hardAlpha" operator="out"/>
<feColorMatrix type="matrix" values="0 0 0 0 0 0 0 0 0 0 0 0 0 0 0 0 0 0 0.1 0"/>
<feBlend mode="normal" in2="BackgroundImageFix" result="effect1_dropShadow_5339_49"/>
<feBlend mode="normal" in="SourceGraphic" in2="effect1_dropShadow_5339_49" result="shape"/>
</filter>
</defs>
</svg>
