<svg width="498" height="498" viewBox="0 0 498 498" fill="none" xmlns="http://www.w3.org/2000/svg">
<g filter="url(#filter0_d_5339_70)">
<rect width="438" height="438" rx="30" transform="matrix(1 0 0 -1 30 458)" fill="white"/>
</g>
<path d="M123.016 263.784L116.499 251.175L98.2533 212.479L96.5156 209.436V204.218L146.909 165.088L176.45 101.609L192.089 95.0877L208.163 90.3051L224.671 87.2616L241.614 85.9573L260.294 87.2616L276.368 90.3051L292.876 94.653L308.081 101.609L316.77 105.523L333.712 116.392L351.524 132.044L362.819 144.653L369.77 154.653L378.458 169.871L384.975 184.218L391.057 204.218L392.794 215.523L394.532 232.479L394.098 251.175L391.057 271.61L387.581 283.784L381.934 299.001L372.376 316.827L362.385 332.914L294.614 349.001L242.483 389.871L221.63 388.567L203.385 385.089L189.048 380.306L177.319 374.654L149.516 314.654L143.868 308.567L138.655 300.306L130.835 284.653L123.45 265.523L123.016 263.784Z" fill="url(#paint0_radial_5339_70)" fill-opacity="0.4"/>
<g clip-path="url(#clip0_5339_70)">
<path d="M242.417 390.306V85.9573" stroke="#DDE3EA" stroke-width="0.755866" style="mix-blend-mode:multiply"/>
<path d="M176.586 375.285L308.247 100.979" stroke="#DDE3EA" stroke-width="0.755866" style="mix-blend-mode:multiply"/>
<path d="M123.779 333.029L361.19 143.233" stroke="#DDE3EA" stroke-width="0.755866" style="mix-blend-mode:multiply"/>
<path d="M94.3672 271.963L390.465 204.298" stroke="#DDE3EA" stroke-width="0.755866" style="mix-blend-mode:multiply"/>
<path d="M94.3672 204.298L390.465 271.963" stroke="#DDE3EA" stroke-width="0.755866" style="mix-blend-mode:multiply"/>
<path d="M123.779 143.233L361.19 333.029" stroke="#DDE3EA" stroke-width="0.755866" style="mix-blend-mode:multiply"/>
<path d="M176.586 100.979L308.247 375.285" stroke="#DDE3EA" stroke-width="0.755866" style="mix-blend-mode:multiply"/>
</g>
<path d="M242.917 86.4573C326.615 86.4573 394.467 154.364 394.467 238.132C394.467 321.9 326.615 389.806 242.917 389.806C159.219 389.806 91.3684 321.9 91.3682 238.132C91.3682 154.364 159.219 86.4575 242.917 86.4573Z" stroke="#DDE3EA" style="mix-blend-mode:multiply"/>
<mask id="mask0_5339_70" style="mask-type:alpha" maskUnits="userSpaceOnUse" x="177" y="79" width="231" height="254">
<rect x="177.754" y="79" width="230.246" height="253.914" fill="#D9D9D9"/>
</mask>
<g mask="url(#mask0_5339_70)">
<path d="M242.917 86.4573C326.615 86.4573 394.467 154.364 394.467 238.132C394.467 321.9 326.615 389.806 242.917 389.806C159.219 389.806 91.3684 321.9 91.3682 238.132C91.3682 154.364 159.219 86.4575 242.917 86.4573Z" stroke="#06D1F3"/>
</g>
<mask id="mask1_5339_70" style="mask-type:alpha" maskUnits="userSpaceOnUse" x="177" y="365" width="66" height="34">
<rect x="177.754" y="365.087" width="65.164" height="33.9131" fill="#D9D9D9"/>
</mask>
<g mask="url(#mask1_5339_70)">
<path d="M242.917 86.4553C326.615 86.4553 394.467 154.362 394.467 238.13C394.467 321.898 326.615 389.804 242.917 389.804C159.219 389.804 91.3684 321.898 91.3682 238.13C91.3682 154.362 159.219 86.4555 242.917 86.4553Z" stroke="#06D1F3"/>
</g>
<path d="M242.919 116.891C309.822 116.891 364.058 171.171 364.058 238.13C364.058 305.089 309.822 359.369 242.919 359.37C176.016 359.37 121.779 305.089 121.779 238.13C121.779 171.171 176.016 116.891 242.919 116.891Z" stroke="#DDE3EA" style="mix-blend-mode:multiply"/>
<mask id="mask2_5339_70" style="mask-type:alpha" maskUnits="userSpaceOnUse" x="114" y="265" width="35" height="58">
<rect x="114.329" y="265.086" width="33.8853" height="57.3915" fill="#D9D9D9"/>
</mask>
<g mask="url(#mask2_5339_70)">
<path d="M242.92 116.891C309.823 116.891 364.058 171.171 364.059 238.13C364.059 305.089 309.823 359.369 242.92 359.37C176.017 359.37 121.78 305.089 121.78 238.13C121.78 171.171 176.017 116.891 242.92 116.891Z" stroke="#06D1F3"/>
</g>
<path d="M242.919 147.327C293.027 147.327 333.648 187.981 333.648 238.132C333.648 288.282 293.027 328.937 242.919 328.937C192.811 328.937 152.19 288.282 152.189 238.132C152.189 187.981 192.811 147.327 242.919 147.327Z" stroke="#DDE3EA" style="mix-blend-mode:multiply"/>
<path d="M242.918 177.761C276.231 177.761 303.238 204.79 303.238 238.131C303.238 271.473 276.231 298.5 242.918 298.5C209.605 298.5 182.599 271.473 182.599 238.131C182.599 204.79 209.605 177.761 242.918 177.761Z" stroke="#DDE3EA" style="mix-blend-mode:multiply"/>
<path d="M242.919 208.195C259.437 208.195 272.828 221.597 272.828 238.13C272.828 254.663 259.437 268.065 242.919 268.065C226.401 268.065 213.009 254.663 213.009 238.13C213.009 221.597 226.401 208.195 242.919 208.195Z" stroke="#DDE3EA" style="mix-blend-mode:multiply"/>
<line y1="-0.5" x2="68.8619" y2="-0.5" transform="matrix(0.416372 0.909194 -0.908935 0.416938 148.213 312.914)" stroke="#06D1F3"/>
<line y1="-0.5" x2="66.499" y2="-0.5" transform="matrix(-0.431167 -0.902272 0.901996 -0.431744 123.886 265.088)" stroke="#06D1F3"/>
<line y1="-0.5" x2="67.4623" y2="-0.5" transform="matrix(-0.785624 0.618704 -0.618076 -0.786118 148.213 163.348)" stroke="#06D1F3"/>
<line y1="-0.5" x2="66.129" y2="-0.5" transform="matrix(0.42044 -0.90732 0.907056 0.42101 148.213 163.348)" stroke="#06D1F3"/>
<line y1="-0.5" x2="66.7819" y2="-0.5" transform="matrix(0.780618 -0.625008 0.624382 0.781119 242.918 390.305)" stroke="#06D1F3"/>
<line y1="-0.5" x2="67.8625" y2="-0.5" transform="matrix(-0.973038 0.230646 -0.230287 -0.973123 361.082 332.914)" stroke="#06D1F3"/>
<ellipse cx="389.753" cy="204.218" rx="5.21312" ry="5.21741" fill="#06D1F3"/>
<ellipse cx="95.2131" cy="205.087" rx="5.21312" ry="5.21741" fill="#06D1F3"/>
<ellipse cx="361.082" cy="332.913" rx="5.21312" ry="5.21741" fill="#06D1F3"/>
<ellipse cx="295.048" cy="347.697" rx="5.21312" ry="5.21741" fill="#06D1F3"/>
<ellipse cx="176.885" cy="375.522" rx="5.21312" ry="5.21741" fill="#06D1F3"/>
<ellipse cx="176.016" cy="100.739" rx="5.21312" ry="5.21741" fill="#06D1F3"/>
<ellipse cx="148.213" cy="163.348" rx="5.21312" ry="5.21741" fill="#06D1F3"/>
<ellipse cx="361.082" cy="142.479" rx="5.21312" ry="5.21741" fill="#06D1F3"/>
<ellipse cx="148.213" cy="312.913" rx="5.21312" ry="5.21741" fill="#06D1F3"/>
<ellipse cx="308.082" cy="100.739" rx="5.21312" ry="5.21741" fill="#06D1F3"/>
<ellipse cx="242.918" cy="85.9567" rx="5.21312" ry="5.21741" fill="#06D1F3"/>
<ellipse cx="242.918" cy="390.305" rx="5.21312" ry="5.21741" fill="#06D1F3"/>
<path d="M123.885 256.892C128.407 256.892 132.073 260.561 132.073 265.087C132.073 269.614 128.407 273.283 123.885 273.283C119.363 273.283 115.696 269.614 115.696 265.087C115.696 260.561 119.363 256.892 123.885 256.892Z" fill="white" stroke="#06D1F3"/>
<ellipse cx="123.886" cy="265.088" rx="5.21312" ry="5.21741" fill="#06D1F3"/>
<ellipse cx="390.623" cy="272.043" rx="5.21312" ry="5.21741" fill="#06D1F3"/>
<g filter="url(#filter1_d_5339_70)">
<rect x="70" y="231" width="106" height="22" rx="10" fill="white" shape-rendering="crispEdges"/>
<path d="M91 242C91 245.866 87.866 249 84 249C80.134 249 77 245.866 77 242C77 238.134 80.134 235 84 235C87.866 235 91 238.134 91 242Z" fill="#06D1F3"/>
<path d="M81.7945 243.547V242.939L84.4791 238.691H84.9206V239.634H84.6223L82.5939 242.843V242.891H86.2093V243.547H81.7945ZM84.67 244.8V238.691H85.374V244.8H84.67Z" fill="white"/>
<path fill-rule="evenodd" clip-rule="evenodd" d="M96.5235 236H159.477C160.865 236 162 237.181 162 238.625V245.375C162 246.819 160.865 248 159.477 248H96.5235C95.1354 248 94 246.819 94 245.375V238.625C94 237.181 95.1354 236 96.5235 236Z" fill="#CDCFD8"/>
</g>
<defs>
<filter id="filter0_d_5339_70" x="0" y="0" width="498" height="498" filterUnits="userSpaceOnUse" color-interpolation-filters="sRGB">
<feFlood flood-opacity="0" result="BackgroundImageFix"/>
<feColorMatrix in="SourceAlpha" type="matrix" values="0 0 0 0 0 0 0 0 0 0 0 0 0 0 0 0 0 0 127 0" result="hardAlpha"/>
<feOffset dy="10"/>
<feGaussianBlur stdDeviation="15"/>
<feComposite in2="hardAlpha" operator="out"/>
<feColorMatrix type="matrix" values="0 0 0 0 0 0 0 0 0 0 0 0 0 0 0 0 0 0 0.1 0"/>
<feBlend mode="normal" in2="BackgroundImageFix" result="effect1_dropShadow_5339_70"/>
<feBlend mode="normal" in="SourceGraphic" in2="effect1_dropShadow_5339_70" result="shape"/>
</filter>
<filter id="filter1_d_5339_70" x="60" y="225" width="126" height="42" filterUnits="userSpaceOnUse" color-interpolation-filters="sRGB">
<feFlood flood-opacity="0" result="BackgroundImageFix"/>
<feColorMatrix in="SourceAlpha" type="matrix" values="0 0 0 0 0 0 0 0 0 0 0 0 0 0 0 0 0 0 127 0" result="hardAlpha"/>
<feOffset dy="4"/>
<feGaussianBlur stdDeviation="5"/>
<feComposite in2="hardAlpha" operator="out"/>
<feColorMatrix type="matrix" values="0 0 0 0 0.917647 0 0 0 0 0.933333 0 0 0 0 0.976471 0 0 0 1 0"/>
<feBlend mode="multiply" in2="BackgroundImageFix" result="effect1_dropShadow_5339_70"/>
<feBlend mode="normal" in="SourceGraphic" in2="effect1_dropShadow_5339_70" result="shape"/>
</filter>
<radialGradient id="paint0_radial_5339_70" cx="0" cy="0" r="1" gradientUnits="userSpaceOnUse" gradientTransform="translate(242.483 236.827) rotate(90) scale(137.827 218.58)">
<stop offset="0.184898" stop-color="#06D1F3"/>
<stop offset="0.570616" stop-color="#2EC671"/>
<stop offset="1" stop-color="#2EC671"/>
</radialGradient>
<clipPath id="clip0_5339_70">
<rect width="296.279" height="304.349" fill="white" transform="translate(94.3447 85.9573)"/>
</clipPath>
</defs>
</svg>
