<svg width="82" height="80" viewBox="0 0 82 80" fill="none" xmlns="http://www.w3.org/2000/svg">
<g clip-path="url(#clip0_3690_14201)">
<path d="M69.0468 17.2364C66.7935 18.7051 64.2173 19.9939 61.3793 21.0658C62.7615 25.7339 63.5875 30.9502 63.7184 36.4693H75.8637C75.5488 29.281 73.0625 22.6573 69.0427 17.2364H69.0468ZM42.5439 3.21571V21.4626C47.4633 21.3399 52.1088 20.6444 56.2922 19.4784C56.6929 19.3679 57.0937 19.2493 57.4863 19.1306C56.6725 16.9091 55.7197 14.8553 54.6483 13.0101C51.4423 7.49514 47.2016 3.8744 42.548 3.21571H42.5439ZM42.5439 24.5638V32.9754C41.3907 33.6995 40.3479 34.5832 39.4442 35.5896V24.5638C34.263 24.441 29.3395 23.6964 24.8903 22.4609C24.4405 22.3341 23.9947 22.2072 23.5531 22.0722C22.2813 26.4253 21.5125 31.302 21.3817 36.4734H37.7553C37.0274 37.4225 36.4181 38.4617 35.9396 39.5745H21.3817C21.5084 44.7458 22.2772 49.6226 23.5531 53.9757C23.9907 53.8406 24.4323 53.7138 24.878 53.587C28.3948 52.6092 32.202 51.9382 36.2014 51.6396C36.7207 52.7156 37.3709 53.722 38.1274 54.6303C33.6987 54.8348 29.5071 55.5099 25.7 56.5695C25.3033 56.68 24.9067 56.7945 24.5182 56.9132C25.332 59.1347 26.2848 61.1885 27.3562 63.0337C30.5581 68.5445 34.7905 72.1612 39.4401 72.8281V55.0476C40.3438 56.0581 41.3907 56.9377 42.5398 57.6619V72.8281C43.1736 72.7381 43.7993 72.5949 44.4168 72.3985V75.8883C43.2922 75.9906 42.1513 76.0397 40.9981 76.0397C30.5049 76.0397 21.0055 71.7848 14.1272 64.9034C7.24898 58.0219 2.99609 48.518 2.99609 38.0198C2.99609 27.5217 7.24898 18.0178 14.1272 11.1363C21.0055 4.25488 30.5049 0 40.9981 0C51.4913 0 60.9908 4.25488 67.869 11.1363C74.7473 18.0178 79.0002 27.5217 79.0002 38.0198C79.0002 43.1789 77.9697 48.1006 76.109 52.5887L73.3978 51.0218C74.8291 47.4583 75.6878 43.6044 75.8637 39.5704H63.7184L63.7143 39.6768C62.9741 37.9135 61.8945 36.322 60.5614 34.9923C60.3365 30.3692 59.5963 26.0039 58.4473 22.064C58.0056 22.199 57.5599 22.33 57.11 22.4568C52.6568 23.6964 47.7251 24.4369 42.5398 24.5597L42.5439 24.5638ZM39.4442 21.4585V3.21571C34.7946 3.88258 30.5622 7.49923 27.3603 13.0101C26.2889 14.8553 25.336 16.905 24.5223 19.1306C24.9148 19.2493 25.3156 19.3679 25.7163 19.4784C29.8915 20.6403 34.5329 21.3358 39.4442 21.4585ZM29.6748 71.0525C27.8305 69.2892 26.1498 67.1085 24.6817 64.5801C23.5122 62.5673 22.4735 60.3293 21.5902 57.9114C19.1285 58.8483 16.8875 59.9611 14.9165 61.2131C15.3704 61.7245 15.8406 62.2236 16.3232 62.7064C20.0404 66.4253 24.5918 69.3096 29.6748 71.0525ZM12.9577 58.8033C15.2109 57.3346 17.7872 56.0458 20.6251 54.9739C19.243 50.3058 18.4169 45.0895 18.2861 39.5704H6.14078C6.45566 46.7587 8.94196 53.3824 12.9618 58.8033H12.9577ZM6.13669 36.4693H18.282C18.4128 30.9502 19.243 25.7339 20.6211 21.0658C17.7872 19.9939 15.2068 18.7051 12.9536 17.2364C8.93378 22.6573 6.44748 29.281 6.1326 36.4693H6.13669ZM14.9165 14.8225C16.8875 16.0745 19.1285 17.1873 21.5902 18.1242C22.4735 15.7063 23.5122 13.4683 24.6817 11.4555C26.1498 8.92707 27.8305 6.74645 29.6748 4.98312C24.5959 6.72599 20.0404 9.61031 16.3232 13.3292C15.8406 13.812 15.3704 14.3111 14.9165 14.8225ZM52.3296 4.98312C54.1739 6.74645 55.8546 8.92707 57.3227 11.4555C58.4922 13.4683 59.5309 15.7063 60.4142 18.1242C62.876 17.1873 65.1169 16.0745 67.088 14.8225C66.6341 14.3111 66.1638 13.812 65.6813 13.3292C61.9641 9.61031 57.4127 6.72599 52.3296 4.98312Z" fill="#06D7F9"/>
<path d="M45.2597 51.2268C45.9099 51.7791 45.9876 52.7528 45.4356 53.4034C44.8835 54.0539 43.9102 54.1316 43.26 53.5793C42.066 52.5606 41.0927 51.2964 40.4343 49.8644C39.7923 48.4775 39.4365 46.9351 39.4365 45.315C39.4365 42.3161 40.6511 39.6036 42.6139 37.6398C44.5768 35.676 47.288 34.4609 50.2855 34.4609C53.283 34.4609 55.9942 35.676 57.957 37.6398C59.9199 39.6036 61.1344 42.3161 61.1344 45.315C61.1344 46.1701 60.4393 46.8656 59.5846 46.8656C58.7299 46.8656 58.0347 46.1701 58.0347 45.315C58.0347 43.1753 57.1678 41.236 55.7652 39.8327C54.3625 38.4294 52.4242 37.5621 50.2855 37.5621C48.1468 37.5621 46.2084 38.4294 44.8058 39.8327C43.4032 41.236 42.5362 43.1753 42.5362 45.315C42.5362 46.481 42.7898 47.5815 43.2437 48.5675C43.7221 49.6026 44.4132 50.5068 45.2597 51.2268Z" fill="#53D3AA"/>
<path d="M51.2952 43.9686L64.2869 51.4719V51.4678L77.3155 58.9957C78.0557 59.4253 78.3051 60.3704 77.8798 61.1109C77.6835 61.4505 77.3768 61.6877 77.0333 61.8023L69.6358 64.4943L74.1013 72.235C74.5307 72.9755 74.2771 73.9205 73.537 74.3501L64.1193 79.7915C63.3791 80.221 62.4345 79.9674 62.0051 79.2269L61.9601 79.141L57.5396 71.4822L51.4751 76.5758C50.8208 77.124 49.8435 77.0381 49.2955 76.3835C49.0297 76.0643 48.9111 75.6716 48.9397 75.2911V45.286C48.9397 44.4309 49.6308 43.7395 50.4855 43.7395C50.784 43.7395 51.0621 43.8254 51.2993 43.9686H51.2952ZM62.7371 54.1435L52.0272 47.9576V72.0713L56.963 67.9269L56.9671 67.931C57.0366 67.8737 57.1102 67.8205 57.1879 67.7755C57.928 67.35 58.8727 67.6037 59.2939 68.3442L63.9066 76.3385L70.6458 72.4436L66.0331 64.4452C65.9881 64.3675 65.9513 64.2857 65.9186 64.1957C65.6282 63.3938 66.0413 62.506 66.8469 62.2155L72.895 60.0103L62.7371 54.1394V54.1353V54.1435Z" fill="black"/>
</g>
<defs>
<clipPath id="clip0_3690_14201">
<rect width="82" height="80" fill="white"/>
</clipPath>
</defs>
</svg>
