<svg width="80" height="80" viewBox="0 0 80 80" fill="none" xmlns="http://www.w3.org/2000/svg">
<g clip-path="url(#clip0_5603_4329)">
<path d="M39.9998 7.81396C48.8835 7.81396 56.93 11.4109 62.7595 17.2403C68.5889 23.0698 72.1858 31.1163 72.1858 40C72.1858 48.8837 68.5889 56.9302 62.7595 62.7597C56.93 68.5892 48.899 72.1861 39.9998 72.1861C31.116 72.1861 23.0695 68.5892 17.2401 62.7597C11.4106 56.9302 7.81372 48.8992 7.81372 40C7.81372 31.1163 11.4106 23.0698 17.2401 17.2403C23.0695 11.4109 31.116 7.81396 39.9998 7.81396ZM68.0308 38.5582C67.2556 39.6744 66.2323 40.2636 64.806 39.4574C63.6277 38.7907 62.9765 37.1628 62.2633 35.4109C61.9067 34.5426 61.5502 33.6279 61.2246 33.0233C61.2556 33.6434 61.0075 34.2171 60.1238 34.7752C58.6664 35.6744 57.2246 36.5426 56.0928 37.1473C54.899 37.7985 53.8912 38.2016 53.2711 38.2016C52.93 38.2016 52.6044 38.093 52.2788 37.907C52.5424 38.5116 53.0385 38.9923 54.4649 39.4729C55.3021 39.7519 56.1393 40.1861 56.7595 40.6977C57.5502 41.3333 58.1083 42.1551 58.2168 43.0853C58.2788 43.6279 58.1393 44.1861 57.7517 44.6357L53.5502 49.6744V49.6899C53.5502 49.8605 53.5346 50.124 53.5346 50.5271C53.5346 50.7597 53.5347 50.9768 53.5191 51.1938C54.0618 50.3101 54.837 49.9535 55.6897 49.5349C56.0308 49.3644 56.4184 49.1938 56.6199 48.9923C56.7285 48.8837 56.9455 48.4651 57.0385 48.2791C57.1936 48 57.3021 47.814 57.5657 47.5814L57.5967 47.5504C57.9533 47.2558 58.3409 47.1008 58.7595 47.0698H58.775C59.7827 46.9923 60.4959 47.4884 60.9765 48.4186C61.1005 48.6667 61.2246 48.9923 61.3331 49.3644C61.6587 50.4961 61.9222 52.3411 61.7517 53.3643C61.6277 54.1085 61.3796 55.1783 61.1005 56.2016C60.8525 57.0853 60.5734 57.938 60.2943 58.5582C59.3486 60.6667 58.0618 61.5659 56.806 61.7675C56.1393 61.876 55.5036 61.783 54.9455 61.5504C54.4339 61.3489 53.9998 61.0388 53.6432 60.6822C52.6974 59.7519 52.2478 58.2636 52.6044 57.2403C52.992 56.1395 52.93 55.5814 52.868 55.0543L52.837 54.7907C52.3564 56 51.6587 56.8837 50.93 57.8295C50.3874 58.5271 49.7982 59.2713 49.3331 60.3256C49.3176 60.3566 49.2711 60.4496 49.1936 60.6202C48.7439 61.5039 47.7827 62.8062 46.6974 63.7364C45.2711 64.9768 43.5191 65.7209 41.7982 64.9613L41.6122 64.8682C40.2168 64.155 39.0385 62.2016 38.2633 60.124C37.3641 57.7054 36.9765 54.8682 37.4726 53.6899C37.5347 53.5504 37.5502 52.7132 37.5191 51.845C37.5036 51.2868 37.8447 51.2248 37.7052 51.0698C35.8757 49.0543 35.7827 48.6977 35.3951 47.0233C35.3486 46.8062 35.2866 46.5581 35.1936 46.2016L35.1471 46.1861C33.9688 46.7132 32.8835 46.8837 31.7982 46.8062C30.7595 46.7287 29.7982 46.4341 28.744 46.0465C26.868 45.3489 25.3951 44.1085 24.4804 42.5271C23.5812 40.9768 23.2246 39.1163 23.5657 37.1008C24.0153 34.4806 26.4804 31.3178 28.0618 29.3023C28.0928 29.2558 28.1238 29.2093 28.1548 29.1783L28.1703 29.1628C28.3253 28.9613 28.4804 28.7752 28.6199 28.6047L25.8292 24.4651C25.4106 23.845 25.3796 23.0853 25.6742 22.4651L27.5191 17.5504C27.7052 17.0698 28.0463 16.6977 28.4649 16.4651L30.1238 15.5659C30.3098 15.4574 30.5114 15.3954 30.7129 15.3488L39.9533 13.1473L40.7285 11.9225C40.4804 11.9225 40.2323 11.907 39.9843 11.907C33.7052 11.907 27.9067 13.969 23.2401 17.4419C23.4106 17.5969 23.5812 17.7675 23.7362 17.938C24.3098 18.5426 24.806 19.2403 25.085 19.969C26.2788 23.0233 24.4804 25.2558 22.6974 27.4729C22.1858 28.1085 21.6742 28.7597 21.3176 29.3333C20.9765 29.907 20.744 30.4341 20.5269 30.9302C19.8292 32.5116 19.2401 33.814 17.1316 35.1318C16.8835 35.2868 17.5036 35.2403 17.6122 35.4419C17.7827 35.783 17.9378 36.093 18.0463 36.4961C18.4959 38.0155 18.2323 39.1783 16.3409 39.7364C16.0773 39.814 15.8447 39.876 15.6122 39.938C16.0928 40.1085 16.5579 40.3721 16.992 40.7597C17.8137 41.4884 18.992 42.2946 20.2168 42.9457C21.2866 43.5039 22.3564 43.9225 23.2401 44.0775C23.9533 44.2016 24.961 44.6357 25.7052 45.2403C26.4339 45.8295 27.0385 46.6202 27.2091 47.5659C27.3021 48.062 27.3021 48.5582 27.2711 49.0388C27.2401 49.4109 27.1781 49.8295 27.116 50.1861C27.054 50.5581 27.0695 50.6202 27.116 50.7287C27.2246 51.0388 27.3796 51.4109 27.5191 52.093C27.6587 52.7597 27.7207 53.4574 27.6277 54.124C27.4881 55.0543 27.0695 55.8915 26.2013 56.4806C25.8912 56.6977 25.6742 56.8527 25.3641 57.0388C25.054 57.2403 24.775 57.3954 24.4494 57.5814C24.4339 57.5969 24.3874 57.6434 24.3098 57.7364L24.2943 57.7209C24.2013 58.1395 24.2788 57.783 24.1238 58.4651C23.8292 59.783 23.4726 61.3178 23.3641 62.5892C28.0153 66.0155 33.7672 68.0465 39.9843 68.0465C47.7362 68.0465 54.7595 64.8992 59.8292 59.8295C64.9145 54.7442 68.0463 47.7364 68.0463 39.9845C68.0463 39.5039 68.0308 39.0233 68.0153 38.5426L68.0308 38.5582ZM47.7517 30.2016C47.7362 29.8295 47.7827 29.5039 47.8137 29.2093C47.8292 29.1318 47.7982 29.3488 47.6122 29.1938C47.2246 28.8682 46.6354 28.5116 46.0308 28.2326C45.5657 28.0155 45.116 27.8605 44.806 27.8295C43.5347 27.7209 42.2943 27.4419 41.023 27.1628C38.6664 26.6512 36.1083 26.093 34.1858 26.6977H34.6044V26.6822H34.806V26.6977H35.116C37.9843 26.6822 38.9765 26.6822 40.1238 29.7985C40.2168 30.0465 40.1548 29.5659 40.3409 29.6899C40.6199 29.876 40.744 30.0775 40.806 30.2326C41.7672 29.4264 43.5657 28.5271 46.6354 29.6589C47.0385 29.7985 47.4106 29.9845 47.7517 30.1861V30.2016ZM45.2866 12.4186L42.9765 16.0465C42.6974 16.4806 42.2633 16.8062 41.7207 16.9457L31.8602 19.3023L31.1005 19.7209L29.8447 23.0853L30.5734 24.1551C30.868 23.8295 31.2091 23.5504 31.5812 23.3644C34.868 21.6589 38.5114 22.4496 41.8757 23.1783C43.085 23.4419 44.2478 23.6899 45.1626 23.783C45.9998 23.8605 46.899 24.1551 47.7362 24.5426C48.6509 24.9613 49.5502 25.5349 50.1858 26.0465C52.1548 27.6589 52.0308 28.5892 51.8757 29.783C51.8602 29.8915 51.8447 30.031 51.9222 30.2171C52.0773 30.5582 53.054 32.3876 53.8757 33.7054L53.8912 33.7209C53.9688 33.6744 54.0618 33.6124 54.1703 33.5659C54.899 33.1628 55.8137 32.6357 56.7905 32.0465C56.6354 31.2868 56.6664 30.4341 57.4261 29.5969C58.0928 28.8372 59.1626 28.4961 60.2013 28.4341C61.3486 28.3721 62.6974 28.6822 63.2866 29.1318C64.5114 30.0775 65.3021 31.969 66.0153 33.7519C66.3098 33.3799 66.744 32.8682 67.054 32.5116C65.7362 27.783 63.2246 23.5504 59.8447 20.1861C55.9533 16.2946 50.9145 13.5349 45.2866 12.4651V12.4186ZM53.2401 34.124C53.3021 34.124 53.3641 34.062 53.5191 33.938L53.3641 33.9845L53.1626 34.1085H53.2401V34.124ZM53.3641 34C53.116 34.0775 52.93 34.124 53.1626 34.124L53.3641 34ZM57.6277 53.1783L57.4571 53.2558C57.1936 53.3799 57.0385 53.2868 57.0075 53.3954C56.8525 53.876 56.899 54.2326 56.9455 54.6047C56.9765 54.9147 57.023 55.2248 57.023 55.5814L57.1471 55.1318C57.3331 54.4651 57.5036 53.7675 57.6122 53.1783H57.6277ZM50.1083 47.4264L53.4106 43.4574C53.3331 43.4264 53.2401 43.3954 53.1471 43.3644C48.9455 41.938 48.5734 40.4031 48.0153 38.0465C47.8292 37.2403 47.5967 36.2791 46.9455 35.1783C46.7285 34.8062 46.4649 34.4496 46.1548 34.1395C45.8757 33.876 45.5657 33.6589 45.2091 33.5194C43.7672 32.9923 43.3021 33.4884 43.1471 33.6589C42.837 34 42.6354 34.2326 42.0618 34.3876L41.9688 34.4186C41.2246 34.6822 40.4494 34.4961 39.8912 34.0155C39.2711 33.7675 38.6044 33.4574 38.0928 33.1163C37.2556 32.5737 36.5114 31.907 36.2478 31.2093C36.0928 30.7752 35.8292 30.7752 35.1005 30.7752H34.7905V30.7907H34.5889V30.7752C32.5269 30.7752 32.1238 30.7752 31.4106 31.6899L31.3951 31.7054C31.3641 31.752 31.3331 31.783 31.2866 31.8295C29.9533 33.5194 27.8912 36.1551 27.6122 37.783C27.4416 38.8062 27.5967 39.7364 28.0153 40.4651C28.4649 41.2403 29.2091 41.845 30.1858 42.2016C30.899 42.4651 31.5191 42.6667 32.0773 42.7132C32.5424 42.7442 33.0075 42.6667 33.5191 42.4186C33.6897 42.3411 33.8757 42.2636 34.0618 42.2171C34.7595 42.031 35.6897 42.0465 36.5269 42.3256C37.4726 42.6357 38.3719 43.2558 38.8525 44.2791C38.9455 44.4651 39.0075 44.6512 39.0695 44.8527C39.1936 45.3023 39.2866 45.7364 39.3796 46.0775C39.5657 46.8992 39.6122 47.0698 40.7285 48.2946C41.3021 48.9147 41.5657 50.3256 41.6122 51.7209C41.6432 53.0698 41.5036 54.6512 41.2401 55.2868C41.1161 55.5814 41.5191 57.1163 42.0928 58.6822C42.5424 59.8915 43.054 60.9613 43.4261 61.1938C43.4106 61.1783 43.4106 61.1938 43.4261 61.1938C43.4726 61.2093 43.6587 60.9302 43.9998 60.6202C44.6819 60.031 45.2711 59.2403 45.5347 58.7287C45.5502 58.6977 45.5346 58.7287 45.5657 58.6512C46.2168 57.1628 46.9765 56.2016 47.6897 55.2868C48.6044 54.124 49.4106 53.0853 49.4106 50.4961C49.4106 50.2016 49.4261 49.8605 49.4416 49.4729C49.4571 49.1008 49.4881 48.8062 49.5036 48.5892C49.5657 48.124 49.7672 47.7054 50.0773 47.3954L50.1083 47.4264ZM43.4416 61.2248L43.4726 61.2403C43.5191 61.2713 43.4571 61.2403 43.4416 61.2248ZM11.9067 40.1395C11.9843 40.1085 12.0618 40.093 12.1393 40.062C12.0618 40.031 11.9843 40.0155 11.9067 39.9845V40V40.1395ZM19.7207 59.4264C19.8447 58.7907 19.9843 58.1706 20.1238 57.5969C20.1548 57.4419 20.0618 57.8915 20.3098 56.7597C20.4339 56.2016 20.7595 55.6434 21.1471 55.1628C21.5347 54.6822 22.0463 54.2481 22.4649 54.0155C22.806 53.8295 23.0075 53.7054 23.1626 53.6124C23.2556 53.5504 23.3951 53.4574 23.5657 53.3488C23.5502 53.2248 23.5347 53.1008 23.5036 52.9458V52.9302C23.4416 52.6047 23.3486 52.3721 23.2866 52.1861C22.992 51.4109 22.8215 50.9768 23.1005 49.4884C23.1315 49.2868 23.1781 49.0388 23.1936 48.7442C23.2091 48.6047 23.2091 48.4806 23.2091 48.3876L23.1781 48.4186C23.1781 48.4496 23.1626 48.4496 23.1471 48.4496C22.93 48.2636 22.6974 48.155 22.5889 48.1395C21.2711 47.9225 19.7672 47.3333 18.3409 46.5892C16.7905 45.783 15.3021 44.7597 14.2633 43.8295C14.0463 43.6279 13.054 44.031 12.2788 44.4031C13.1936 50.1861 15.8602 55.3799 19.7362 59.4264H19.7207ZM23.1781 48.3101C23.1626 48.2016 23.1626 48.3566 23.1626 48.4341L23.1936 48.4031C23.1936 48.3721 23.1936 48.3411 23.1781 48.3256V48.3101ZM24.2943 57.7519C24.2943 57.7364 24.3253 57.5349 24.3098 57.6279L24.2788 57.7364H24.2943V57.7519ZM12.2943 35.3178C12.8525 35.814 13.2091 36.1085 13.4261 36.1706C12.8525 34.7287 12.6664 33.1008 14.961 31.6589C16.0153 30.9923 16.3719 30.2171 16.7905 29.2713C17.0695 28.6512 17.3641 27.9845 17.7982 27.2558C18.2943 26.4341 18.899 25.6744 19.5191 24.9147C20.5579 23.6124 21.6122 22.3101 21.2866 21.4419C21.2091 21.2558 21.023 21.0078 20.775 20.7442C20.5734 20.5271 20.3409 20.3256 20.1238 20.1551C16.1083 24.1861 13.3021 29.4419 12.3098 35.3023L12.2943 35.3178Z" fill="#06D7F9"/>
<path d="M75.8913 40C75.8913 38.8682 76.8061 37.9535 77.9379 37.9535C79.0696 37.9535 79.9844 38.8682 79.9844 40C79.9844 51.0388 75.5037 61.0388 68.2634 68.2791C61.0231 75.5194 51.0231 80 39.9844 80C28.9456 80 18.9456 75.5194 11.7053 68.2791C4.465 61.0388 -0.015625 51.0388 -0.015625 40C-0.015625 28.9612 4.465 18.9612 11.7053 11.7209C18.9456 4.48062 28.9456 0 39.9844 0C41.1162 0 42.0309 0.914729 42.0309 2.04651C42.0309 3.17829 41.1162 4.09302 39.9844 4.09302C30.0774 4.09302 21.1007 8.10853 14.6045 14.6047C8.10841 21.1008 4.0929 30.0775 4.0929 39.9845C4.0929 49.8915 8.10841 58.8682 14.6045 65.3643C21.1007 71.8605 30.0774 75.876 39.9844 75.876C49.8913 75.876 58.8681 71.8605 65.3642 65.3643C71.8603 58.8682 75.8758 49.8915 75.8758 39.9845L75.8913 40Z" fill="white"/>
</g>
<defs>
<clipPath id="clip0_5603_4329">
<rect width="80" height="80" fill="white"/>
</clipPath>
</defs>
</svg>
