<svg width="151" height="70" viewBox="0 0 151 70" fill="none" xmlns="http://www.w3.org/2000/svg">
<path d="M145 0C148.314 0 151 2.68629 151 6V58C151 61.3137 148.314 64 145 64H25.6973L19.8486 69.8486L14 64H6C2.68629 64 0 61.3137 0 58V6C0 2.68629 2.68629 1.48984e-07 6 0H145Z" fill="#FEFEFE"/>
<path fill-rule="evenodd" clip-rule="evenodd" d="M60.4362 31.0107H123.564C124.354 31.0107 125 31.6015 125 32.3234V35.6983C125 36.4203 124.354 37.0107 123.564 37.0107H60.4362C59.6463 37.0107 59 36.4203 59 35.6983V32.3234C59 31.6014 59.6462 31.0107 60.4362 31.0107Z" fill="#CDCFD8"/>
<path fill-rule="evenodd" clip-rule="evenodd" d="M59.6636 41H90.3364C90.7015 41 91 41.5908 91 42.3127V45.6875C91 46.4095 90.7015 47 90.3364 47H59.6636C59.2985 47 59 46.4095 59 45.6875V42.3127C59 41.5907 59.2985 41 59.6636 41Z" fill="#CDCFD8"/>
<path fill-rule="evenodd" clip-rule="evenodd" d="M59.6992 15.0107H138.301C138.686 15.0107 139 15.7985 139 16.761V21.2607C139 22.2234 138.686 23.0107 138.301 23.0107H59.6992C59.3142 23.0107 59 22.2234 59 21.2607V16.761C59 15.7983 59.3142 15.0107 59.6992 15.0107Z" fill="#06D7F9"/>
<path d="M32.0129 12C37.5248 12 42.5216 14.2408 46.1533 17.8467C49.7592 21.4784 52 26.4752 52 32.0129C52 37.5248 49.7592 42.5216 46.1533 46.1533C42.5216 49.7592 37.5248 52 32.0129 52C26.4752 52 21.4784 49.7592 17.8725 46.1533C14.2408 42.5216 12 37.5248 12 32.0129C12 26.4752 14.2408 21.4784 17.8725 17.8467C21.4784 14.2408 26.4752 12 32.0129 12ZM44.4791 19.5467C41.2853 16.3529 36.8809 14.3696 32.0129 14.3696C27.1449 14.3696 22.7405 16.3529 19.5467 19.5467C16.3529 22.7147 14.3696 27.1449 14.3696 32.0129C14.3696 36.8809 16.3529 41.2853 19.5467 44.4791C22.7405 47.6471 27.1449 49.6304 32.0129 49.6304C36.8809 49.6304 41.2853 47.6471 44.4791 44.4791C47.6729 41.2853 49.6304 36.8809 49.6304 32.0129C49.6304 27.1449 47.6729 22.7147 44.4791 19.5467Z" fill="#06D7F9"/>
<path fill-rule="evenodd" clip-rule="evenodd" d="M41.0102 40.877C41.471 40.4159 42.2133 40.3903 42.6741 40.8514C43.1348 41.3126 43.1348 42.0555 42.6741 42.5167C41.2918 43.9257 39.628 45.0786 37.785 45.8471C35.9932 46.5901 34.0478 47 32 47C29.9778 47 28.058 46.6157 26.2918 45.8728C24.4488 45.1298 22.8106 44.0282 21.4283 42.6447C20.9676 42.1836 20.9676 41.4406 21.4283 40.9795C21.8891 40.5184 22.6314 40.5184 23.0921 40.9795C24.244 42.1324 25.6263 43.0803 27.1877 43.6951C28.6468 44.31 30.285 44.643 32 44.643C33.7406 44.643 35.3788 44.31 36.8891 43.6695C38.4505 43.029 39.8328 42.0555 41.0102 40.877ZM19.9949 35.9582C20.1997 36.573 19.8413 37.2391 19.227 37.4441C18.6126 37.649 17.9471 37.316 17.7423 36.7011C17.5119 35.9582 17.3072 35.1896 17.1792 34.3954C17.0768 33.6012 17 32.807 17 32.0128C17 27.8625 18.6894 24.0965 21.4027 21.3809C24.116 18.6652 27.8532 17 32 17C36.1468 17 39.884 18.6652 42.5973 21.3809C45.3106 24.0965 47 27.8625 47 32.0128C47 32.807 46.9232 33.6268 46.7952 34.421V34.4722C46.6416 35.2664 46.4625 36.035 46.2065 36.778C46.0017 37.3928 45.3362 37.7259 44.7218 37.5209C44.1075 37.316 43.7747 36.6499 43.9795 36.035C44.1843 35.3945 44.3635 34.7541 44.4659 34.088V34.0367C44.5683 33.3962 44.6195 32.7045 44.6195 32.0128C44.6195 28.503 43.2116 25.3518 40.9334 23.0461C38.6553 20.766 35.4812 19.357 32 19.357C28.4932 19.357 25.3447 20.766 23.0666 23.0461C20.7628 25.3518 19.3549 28.503 19.3549 32.0128C19.3549 32.7045 19.4061 33.3706 19.5085 34.0111C19.6109 34.6772 19.7645 35.3177 19.9949 35.9582Z" fill="#06D7F9"/>
<path d="M37.5946 26.9178V31.1965C37.5946 32.6314 36.9621 33.9619 35.9249 34.875V35.736L39.2389 37.0143C39.3401 37.0665 39.4413 37.1187 39.5172 37.1709C40.9085 38.1362 41.971 39.4146 42.8311 40.8756C43.1094 41.3452 43.0335 41.9452 42.6793 42.3105C41.3133 43.7975 39.6436 44.9977 37.7969 45.8064C34.1288 47.3979 29.8789 47.3979 26.2108 45.8064C24.3388 44.9977 22.6944 43.7975 21.3284 42.3366C20.9489 41.9191 20.8983 41.293 21.1766 40.8495C22.0367 39.3624 23.1245 38.084 24.5158 37.1448C24.5917 37.0926 24.6676 37.0665 24.7435 37.0143L28.0828 35.736V34.875C27.0203 33.9619 26.4131 32.6314 26.4131 31.1965V26.9178C26.4131 24.5176 27.9057 23.0044 29.8283 22.3522C31.2196 21.8826 32.7881 21.8826 34.1794 22.3522C36.0767 23.0044 37.5946 24.5176 37.5946 26.9178ZM35.2672 31.1965V26.9178C35.2672 25.7438 34.4577 24.9872 33.4458 24.6481C32.5351 24.335 31.4473 24.335 30.5366 24.6481C29.5247 24.9872 28.7405 25.7438 28.7405 26.9178V31.1965C28.7405 32.0052 29.1453 32.7618 29.803 33.2053C30.1571 33.414 30.4101 33.8054 30.4101 34.275V36.5708C30.4101 37.0665 30.1065 37.51 29.6512 37.6927L25.6795 39.2058C24.87 39.7798 24.2123 40.5103 23.6557 41.3191C24.6676 42.2583 25.8313 43.041 27.1215 43.5888C30.2077 44.9455 33.8 44.9455 36.8862 43.5888C38.1511 43.041 39.3401 42.2583 40.352 41.3191C39.7701 40.5103 39.1124 39.7798 38.3029 39.2058L34.4324 37.7448C33.9517 37.5883 33.5976 37.1187 33.5976 36.5708V34.275C33.5976 33.8576 33.7747 33.4662 34.1541 33.2575C34.8371 32.814 35.2672 32.0313 35.2672 31.1965Z" fill="#06D7F9"/>
</svg>
