<svg width="117" height="128" viewBox="0 0 117 128" fill="none" xmlns="http://www.w3.org/2000/svg">
<path d="M51.1129 80.1252L55.3841 79.0539L56.3145 58.546C61.9812 53.4539 65.5335 46.08 65.5335 37.8991C65.5335 22.5113 52.9736 10.0312 37.4958 10.0312C25.1192 10.0312 14.4623 17.0017 10.755 28.0626C10.2757 29.4817 10.1488 32.5008 10.2052 35.5756L5.46883 51.8956C5.11642 53.0921 5.82124 54.3443 7.01943 54.6782L11.2061 55.8747V64.4312C11.2061 67.7147 13.8844 70.386 17.197 70.386H25.8099V86.4973L41.0763 82.6713" stroke="white" stroke-width="2.14" stroke-linecap="round" stroke-linejoin="round"/>
<path d="M98.0262 107.617H44.5586V33.5439H82.0691V36.6466H47.688V104.528H94.8827V49.3631H98.0262V107.617Z" fill="#42E7E2"/>
<path d="M82.0693 49.3636H98.0264L82.0693 33.6279V49.3636Z" fill="#2EC971"/>
<path d="M106.423 23.0644L99.137 30.256L101.439 32.5286L108.726 25.337L106.423 23.0644Z" fill="#06D4F6"/>
<path d="M91.7088 19.5306L89.9551 25.995L93.1005 26.8263L94.8543 20.3618L91.7088 19.5306Z" fill="white"/>
<path d="M80.3389 16.1632L77.1936 16.995L79.8606 26.8189L83.0059 25.9871L80.3389 16.1632Z" fill="#2EC971"/>
<path d="M105.756 48.4387L104.913 51.5431L114.867 54.1754L115.709 51.071L105.756 48.4387Z" fill="#06D4F6"/>
<path d="M111.458 36.7368L104.909 38.4678L105.751 41.5723L112.301 39.8414L111.458 36.7368Z" fill="#2EC971"/>
<path d="M100.043 124.591L87.5533 118.901L75.0498 124.591V92.1045H100.043V124.591Z" fill="black" stroke="#06D4F6" stroke-width="2.22" stroke-miterlimit="10"/>
<path d="M66.4224 0.654297H62.8701V4.16038H66.4224V0.654297Z" fill="#42E7E2"/>
<path d="M73.9361 0.654297H70.3838V4.16038H73.9361V0.654297Z" fill="#42E7E2"/>
<path d="M70.1294 4.38281H66.5771V7.8889H70.1294V4.38281Z" fill="#42E7E2"/>
<path d="M21.8502 92.9805H7.30273V107.52H21.8502V92.9805Z" fill="#2EC971"/>
<path d="M14.5762 86.7754L0.338867 96.8067H29.4761L14.5762 86.7754Z" fill="#2EC971"/>
<path d="M87.594 70.0244L90.5402 71.9444L93.9797 71.1375L96.0801 73.934L99.5901 74.3375L100.591 77.6766L103.763 79.2348L103.537 82.7131L105.976 85.2453L104.566 88.4453L105.976 91.6453L103.537 94.1775L103.763 97.6557L100.591 99.214L99.5901 102.567L96.0801 102.957L93.9797 105.767L90.5402 104.946L87.594 106.88L84.6479 104.946L81.2084 105.767L79.108 102.957L75.5839 102.567L74.5831 99.214L71.4255 97.6557L71.6369 94.1775L69.1982 91.6453L70.622 88.4453L69.1982 85.2453L71.6369 82.7131L71.4255 79.2348L74.5831 77.6766L75.5839 74.3375L79.108 73.934L81.2084 71.1375L84.6479 71.9444L87.594 70.0244Z" fill="black"/>
<path d="M87.5945 108.731L84.3524 106.602L80.5604 107.506L78.2486 104.418L74.3862 103.986L73.2867 100.299L69.8049 98.588L70.0445 94.748L67.3662 91.9654L68.9168 88.4454L67.3662 84.9254L70.0445 82.1428L69.8049 78.3028L73.2867 76.5915L74.3862 72.9045L78.2486 72.4732L80.5604 69.3845L84.3524 70.2889L87.5945 68.1602L90.8367 70.2889L94.6286 69.3845L96.9404 72.4732L100.803 72.9045L101.902 76.5915L105.384 78.3028L105.145 82.1428L107.823 84.9254L106.272 88.4454L107.823 91.9654L105.145 94.748L105.384 98.588L101.902 100.299L100.803 103.986L96.9404 104.418L94.6286 107.506L90.8367 106.602L87.5945 108.731ZM84.9444 103.291L87.5945 105.03L90.2446 103.291L93.3318 104.028L95.2207 101.51L98.3783 101.162L99.2804 98.1428L102.128 96.7515L101.931 93.621L104.13 91.3393L102.861 88.4593L104.13 85.5793L101.931 83.3115L102.128 80.181L99.2804 78.7897L98.3783 75.7706L95.2207 75.4228L93.3318 72.8906L90.2446 73.628L87.5945 71.8889L84.9444 73.628L81.8573 72.8906L79.9684 75.4228L76.8108 75.7706L75.9086 78.7897L73.0612 80.181L73.2585 83.3115L71.0736 85.5793L72.3422 88.4593L71.0736 91.3393L73.2585 93.621L73.0612 96.7515L75.9086 98.1428L76.8108 101.162L79.9684 101.51L81.8573 104.028L84.9444 103.291Z" fill="#42E7E2"/>
<path d="M87.5947 98.8803C81.7729 98.8803 77.0225 94.2055 77.0225 88.4455C77.0225 82.6855 81.7588 78.0107 87.5947 78.0107C93.4307 78.0107 98.167 82.6855 98.167 88.4455C98.167 94.2055 93.4307 98.8803 87.5947 98.8803ZM87.5947 80.5986C83.2108 80.5986 79.6444 84.1186 79.6444 88.4455C79.6444 92.7725 83.2108 96.2925 87.5947 96.2925C91.9787 96.2925 95.5451 92.7725 95.5451 88.4455C95.5451 84.1186 91.9787 80.5986 87.5947 80.5986Z" fill="#06D4F6"/>
</svg>
