<svg width="771" height="919" viewBox="0 0 771 919" fill="none" xmlns="http://www.w3.org/2000/svg">
<path fill-rule="evenodd" clip-rule="evenodd" d="M46.3128 1.72168H722.875C748.347 1.72168 769.188 22.5887 769.188 48.0932V967.628C769.188 993.133 748.347 1014 722.875 1014H46.3128C20.8409 1014 0 993.133 0 967.628V48.0932C0 22.5887 20.8408 1.72168 46.3128 1.72168Z" fill="#F6F8F9"/>
<path fill-rule="evenodd" clip-rule="evenodd" d="M46.8491 5.37402H722.339C745.993 5.37402 765.347 24.7514 765.347 48.4365V967.285C765.347 990.97 745.993 1010.35 722.339 1010.35H46.8491C23.1949 1010.35 3.84155 990.97 3.84155 967.285V48.4365C3.84155 24.7515 23.1949 5.37402 46.8491 5.37402Z" fill="black"/>
<path fill-rule="evenodd" clip-rule="evenodd" d="M51.8544 78H717.146C733.016 78 746 90.2856 746 105.302V963.698C746 978.714 733.016 991 717.146 991H51.8544C35.9846 991 23 978.714 23 963.698V105.302C23 90.2857 35.9846 78 51.8544 78Z" fill="#FEFEFE"/>
<rect x="133" y="765" width="479" height="8" rx="2" fill="#E5E7F1"/>
<rect x="133" y="777" width="479" height="8" rx="2" fill="#E5E7F1"/>
<rect x="133" y="789" width="479" height="8" rx="2" fill="#E5E7F1"/>
<rect x="133" y="801" width="364" height="8" rx="2" fill="#E5E7F1"/>
<circle cx="657" cy="635" r="42" fill="url(#paint0_radial_5603_3790)"/>
<circle cx="657.5" cy="634.5" r="35.5" fill="url(#paint1_radial_5603_3790)"/>
<circle cx="657.5" cy="634.5" r="30.5" fill="#2ECD71"/>
<g clip-path="url(#clip0_5603_3790)">
<path d="M671.5 622.497H656.354C655.801 622.497 655.298 622.726 654.932 623.094C654.567 623.462 654.34 623.968 654.34 624.525V638.316L658.228 635.958C658.348 635.885 658.481 635.85 658.612 635.85V635.849H671.5C672.053 635.849 672.556 635.621 672.921 635.253C673.286 634.885 673.513 634.378 673.513 633.822V624.525C673.513 623.968 673.286 623.462 672.921 623.094C672.556 622.726 672.053 622.497 671.5 622.497ZM660.659 639.078C660.659 638.664 660.992 638.329 661.402 638.329C661.813 638.329 662.146 638.664 662.146 639.078V647.251C662.146 647.665 661.813 648 661.402 648C661.249 648 661.106 647.953 660.987 647.873L656.183 644.959H643.5C642.537 644.959 641.661 644.562 641.027 643.924C640.393 643.285 640 642.404 640 641.433V632.137C640 631.167 640.393 630.285 641.027 629.647C641.661 629.008 642.537 628.612 643.5 628.612H652.854V624.525C652.854 623.555 653.247 622.673 653.881 622.035C654.515 621.396 655.39 621 656.354 621H671.5C672.463 621 673.338 621.396 673.972 622.035C674.606 622.673 675 623.555 675 624.525V633.822C675 634.792 674.606 635.673 673.972 636.312C673.338 636.95 672.463 637.347 671.5 637.347H658.816L654.012 640.261C653.893 640.341 653.751 640.388 653.597 640.388C653.186 640.388 652.854 640.053 652.854 639.639V630.109H643.5C642.947 630.109 642.444 630.338 642.078 630.706C641.713 631.073 641.486 631.58 641.486 632.137V641.433C641.486 641.99 641.713 642.497 642.078 642.865C642.444 643.233 642.947 643.461 643.5 643.461H656.388V643.462C656.519 643.462 656.651 643.496 656.771 643.569L660.659 645.927V639.078H660.659ZM663.021 633.909H664.832V628.367H663.021V633.909ZM663.927 624.235C664.624 624.235 665.189 624.804 665.189 625.506C665.189 626.208 664.624 626.777 663.927 626.777C663.23 626.777 662.665 626.208 662.665 625.506C662.665 624.804 663.23 624.235 663.927 624.235ZM650.02 635.518C650.717 635.518 651.282 636.087 651.282 636.789C651.282 637.491 650.717 638.06 650.02 638.06C649.323 638.06 648.758 637.491 648.758 636.789C648.758 636.087 649.323 635.518 650.02 635.518ZM646.163 635.518C646.861 635.518 647.426 636.087 647.426 636.789C647.426 637.491 646.861 638.06 646.163 638.06C645.466 638.06 644.901 637.491 644.901 636.789C644.901 636.087 645.466 635.518 646.163 635.518Z" fill="white"/>
</g>
<path d="M163.69 648.772L160.34 642.288L150.96 622.386L150.067 620.821V618.138L175.973 598.013L191.159 565.365L199.199 562.011L207.462 559.552L215.949 557.986L224.659 557.315L234.262 557.986L242.525 559.552L251.011 561.788L258.828 565.365L263.294 567.378L272.004 572.968L281.161 581.018L286.967 587.503L290.54 592.646L295.007 600.472L298.357 607.852L301.483 618.138L302.377 623.952L303.27 632.672L303.047 642.288L301.483 652.797L299.697 659.058L296.794 666.885L291.88 676.053L286.744 684.327L251.905 692.6L225.105 713.62L214.386 712.949L205.006 711.16L197.636 708.7L191.606 705.793L177.313 674.935L174.41 671.804L171.73 667.556L167.71 659.506L163.913 649.667L163.69 648.772Z" fill="url(#paint2_radial_5603_3790)" fill-opacity="0.4"/>
<g clip-path="url(#clip1_5603_3790)">
<path d="M225.106 713.843V557.315" stroke="#DDE3EA" stroke-width="0.755866" style="mix-blend-mode:multiply"/>
<path d="M191.249 706.118L258.963 565.041" stroke="#DDE3EA" stroke-width="0.755866" style="mix-blend-mode:multiply"/>
<path d="M164.091 684.386L286.192 586.772" stroke="#DDE3EA" stroke-width="0.755866" style="mix-blend-mode:multiply"/>
<path d="M148.964 652.979L301.248 618.179" stroke="#DDE3EA" stroke-width="0.755866" style="mix-blend-mode:multiply"/>
<path d="M148.964 618.179L301.248 652.979" stroke="#DDE3EA" stroke-width="0.755866" style="mix-blend-mode:multiply"/>
<path d="M164.091 586.772L286.192 684.386" stroke="#DDE3EA" stroke-width="0.755866" style="mix-blend-mode:multiply"/>
<path d="M191.249 565.041L258.963 706.118" stroke="#DDE3EA" stroke-width="0.755866" style="mix-blend-mode:multiply"/>
</g>
<path d="M225.329 557.815C268.221 557.816 302.993 592.631 302.993 635.579C302.993 678.527 268.221 713.343 225.329 713.343C182.436 713.343 147.664 678.528 147.664 635.579C147.664 592.631 182.436 557.815 225.329 557.815Z" stroke="#DDE3EA" style="mix-blend-mode:multiply"/>
<mask id="mask0_5603_3790" style="mask-type:alpha" maskUnits="userSpaceOnUse" x="191" y="553" width="120" height="132">
<rect x="191.83" y="553.737" width="118.364" height="130.589" fill="#D9D9D9"/>
</mask>
<g mask="url(#mask0_5603_3790)">
<path d="M225.329 557.815C268.221 557.816 302.993 592.631 302.993 635.579C302.993 678.527 268.221 713.343 225.329 713.343C182.436 713.343 147.664 678.528 147.664 635.579C147.664 592.631 182.436 557.815 225.329 557.815Z" stroke="#06D1F3"/>
</g>
<mask id="mask1_5603_3790" style="mask-type:alpha" maskUnits="userSpaceOnUse" x="191" y="700" width="35" height="19">
<rect x="191.83" y="700.873" width="33.4992" height="17.4417" fill="#D9D9D9"/>
</mask>
<g mask="url(#mask1_5603_3790)">
<path d="M225.329 557.814C268.221 557.815 302.993 592.63 302.993 635.578C302.993 678.526 268.221 713.342 225.329 713.342C182.436 713.342 147.664 678.527 147.664 635.578C147.664 592.63 182.436 557.814 225.329 557.814Z" stroke="#06D1F3"/>
</g>
<path d="M225.33 573.468C259.588 573.468 287.361 601.276 287.361 635.579C287.361 669.882 259.588 697.69 225.33 697.69C191.071 697.69 163.298 669.883 163.298 635.579C163.298 601.275 191.071 573.468 225.33 573.468Z" stroke="#DDE3EA" style="mix-blend-mode:multiply"/>
<mask id="mask2_5603_3790" style="mask-type:alpha" maskUnits="userSpaceOnUse" x="159" y="649" width="18" height="30">
<rect x="159.224" y="649.442" width="17.4196" height="29.5167" fill="#D9D9D9"/>
</mask>
<g mask="url(#mask2_5603_3790)">
<path d="M225.33 573.468C259.588 573.468 287.361 601.276 287.361 635.579C287.361 669.882 259.588 697.69 225.33 697.69C191.071 697.69 163.298 669.883 163.298 635.579C163.298 601.275 191.071 573.468 225.33 573.468Z" stroke="#06D1F3"/>
</g>
<path d="M225.329 589.121C250.954 589.121 271.728 609.92 271.728 635.579C271.728 661.238 250.954 682.038 225.329 682.038C199.704 682.038 178.93 661.238 178.93 635.579C178.931 609.921 199.704 589.121 225.329 589.121Z" stroke="#DDE3EA" style="mix-blend-mode:multiply"/>
<path d="M225.329 604.773C242.32 604.773 256.095 618.565 256.095 635.579C256.095 652.593 242.32 666.385 225.329 666.385C208.338 666.385 194.563 652.593 194.563 635.579C194.563 618.565 208.338 604.774 225.329 604.773Z" stroke="#DDE3EA" style="mix-blend-mode:multiply"/>
<path d="M225.329 620.426C233.686 620.426 240.461 627.209 240.462 635.578C240.462 643.947 233.686 650.731 225.329 650.731C216.972 650.731 210.196 643.947 210.196 635.578C210.196 627.209 216.972 620.426 225.329 620.426Z" stroke="#DDE3EA" style="mix-blend-mode:multiply"/>
<line y1="-0.5" x2="35.4132" y2="-0.5" transform="matrix(0.416218 0.909265 -0.908865 0.417091 176.643 674.04)" stroke="#06D1F3"/>
<line y1="-0.5" x2="34.1979" y2="-0.5" transform="matrix(-0.431011 -0.902347 0.901921 -0.431901 164.137 649.443)" stroke="#06D1F3"/>
<line y1="-0.5" x2="34.6866" y2="-0.5" transform="matrix(-0.78549 0.618874 -0.617906 -0.786252 176.643 597.118)" stroke="#06D1F3"/>
<line y1="-0.5" x2="34.0077" y2="-0.5" transform="matrix(0.420286 -0.907392 0.906985 0.421164 176.643 597.118)" stroke="#06D1F3"/>
<line y1="-0.5" x2="34.3369" y2="-0.5" transform="matrix(0.780482 -0.625178 0.624212 0.781255 225.329 713.843)" stroke="#06D1F3"/>
<line y1="-0.5" x2="34.8873" y2="-0.5" transform="matrix(-0.973015 0.230743 -0.23019 -0.973146 286.074 684.326)" stroke="#06D1F3"/>
<ellipse cx="300.813" cy="618.137" rx="2.67993" ry="2.68333" fill="#06D1F3"/>
<ellipse cx="149.397" cy="618.585" rx="2.67993" ry="2.68333" fill="#06D1F3"/>
<ellipse cx="286.074" cy="684.326" rx="2.67993" ry="2.68333" fill="#06D1F3"/>
<ellipse cx="252.128" cy="691.929" rx="2.67993" ry="2.68333" fill="#06D1F3"/>
<ellipse cx="191.383" cy="706.24" rx="2.67993" ry="2.68333" fill="#06D1F3"/>
<ellipse cx="190.936" cy="564.918" rx="2.67993" ry="2.68333" fill="#06D1F3"/>
<ellipse cx="176.643" cy="597.118" rx="2.67993" ry="2.68333" fill="#06D1F3"/>
<ellipse cx="286.074" cy="586.385" rx="2.67993" ry="2.68333" fill="#06D1F3"/>
<ellipse cx="176.644" cy="674.04" rx="2.67993" ry="2.68333" fill="#06D1F3"/>
<ellipse cx="258.828" cy="564.918" rx="2.67993" ry="2.68333" fill="#06D1F3"/>
<ellipse cx="225.329" cy="557.315" rx="2.67993" ry="2.68333" fill="#06D1F3"/>
<ellipse cx="225.329" cy="713.843" rx="2.67993" ry="2.68333" fill="#06D1F3"/>
<path d="M164.137 645.471C166.327 645.471 168.104 647.249 168.104 649.443C168.104 651.637 166.327 653.415 164.137 653.415C161.947 653.415 160.171 651.638 160.171 649.443C160.171 647.249 161.947 645.471 164.137 645.471Z" fill="white" stroke="#06D1F3"/>
<ellipse cx="164.138" cy="649.443" rx="2.67993" ry="2.68333" fill="#06D1F3"/>
<ellipse cx="301.261" cy="653.02" rx="2.67993" ry="2.68333" fill="#06D1F3"/>
<g filter="url(#filter0_d_5603_3790)">
<rect x="133" y="625" width="87" height="18" rx="9" fill="white" shape-rendering="crispEdges"/>
<path d="M150 634C150 636.761 147.761 639 145 639C142.239 639 140 636.761 140 634C140 631.239 142.239 629 145 629C147.761 629 150 631.239 150 634Z" fill="#06D1F3"/>
<path d="M143.425 635.105V634.67L145.342 631.636H145.658V632.31H145.445L143.996 634.602V634.636H146.578V635.105H143.425ZM145.479 636V631.636H145.981V636H145.479Z" fill="white"/>
<path fill-rule="evenodd" clip-rule="evenodd" d="M158.818 630H204.182C205.182 630 206 630.787 206 631.75V636.25C206 637.213 205.182 638 204.182 638H158.818C157.818 638 157 637.213 157 636.25V631.75C157 630.787 157.818 630 158.818 630Z" fill="#CDCFD8"/>
</g>
<path d="M165.629 453.712L154.989 411.793C154.989 411.793 164.01 390.023 185.058 376.127C204.256 365.243 212.583 363.784 229.006 363.158C253.293 362.232 273.416 376.359 273.416 376.359L282.437 383.075L290.532 390.949L297.934 401.371L301.172 407.161L302.791 411.793L293.308 452.785L292.845 454.175C292.845 454.175 290.995 465.755 287.294 472.008L282.899 479.882L277.117 487.062L271.565 493.547L266.477 500.958L252.599 519.485L248.666 522.496L240.571 523.886L232.244 524.812L225.305 524.58L220.679 524.349L212.583 523.191L208.42 521.801H206.801L200.787 519.485L192.229 515.78L186.677 512.769L180.432 508.6L175.112 504.2L168.405 497.715L165.629 453.712Z" fill="url(#paint3_radial_5603_3790)" fill-opacity="0.4"/>
<g clip-path="url(#clip2_5603_3790)">
<path d="M228.996 443.7V362.927" stroke="#DDE3EA" stroke-width="0.755915" style="mix-blend-mode:multiply"/>
<path d="M228.996 443.7L273.447 376.23" stroke="#DDE3EA" stroke-width="0.755915" style="mix-blend-mode:multiply"/>
<path d="M228.996 443.7L303.181 411.551" stroke="#DDE3EA" stroke-width="0.755915" style="mix-blend-mode:multiply"/>
<path d="M228.996 443.7L308.803 456.761" stroke="#DDE3EA" stroke-width="0.755915" style="mix-blend-mode:multiply"/>
<path d="M228.996 443.7L289.304 497.53" stroke="#DDE3EA" stroke-width="0.755915" style="mix-blend-mode:multiply"/>
<path d="M228.996 443.7L251.427 521.32" stroke="#DDE3EA" stroke-width="0.755915" style="mix-blend-mode:multiply"/>
<path d="M228.995 443.7L206.601 521.32" stroke="#DDE3EA" stroke-width="0.755915" style="mix-blend-mode:multiply"/>
<path d="M228.996 443.7L168.687 497.512" stroke="#DDE3EA" stroke-width="0.755915" style="mix-blend-mode:multiply"/>
<path d="M228.996 443.7L149.207 456.836" stroke="#DDE3EA" stroke-width="0.755915" style="mix-blend-mode:multiply"/>
<path d="M228.996 443.7L154.828 411.532" stroke="#DDE3EA" stroke-width="0.755915" style="mix-blend-mode:multiply"/>
<path d="M228.995 443.7L184.525 376.249" stroke="#DDE3EA" stroke-width="0.755915" style="mix-blend-mode:multiply"/>
</g>
<path d="M229.237 363.427C273.671 363.427 309.693 399.494 309.693 443.985C309.693 488.477 273.671 524.544 229.237 524.544C184.803 524.544 148.781 488.477 148.781 443.985C148.781 399.494 184.803 363.427 229.237 363.427Z" stroke="#DDE3EA" style="mix-blend-mode:multiply"/>
<mask id="mask3_5603_3790" style="mask-type:alpha" maskUnits="userSpaceOnUse" x="152" y="335" width="152" height="78">
<rect x="152.907" y="335.599" width="150.347" height="76.4266" fill="#D9D9D9"/>
</mask>
<g mask="url(#mask3_5603_3790)">
<path d="M229.237 363.427C273.671 363.427 309.693 399.494 309.693 443.985C309.693 488.477 273.671 524.544 229.237 524.544C184.803 524.544 148.781 488.477 148.781 443.985C148.781 399.494 184.803 363.427 229.237 363.427Z" stroke="#06D1F3"/>
</g>
<mask id="mask4_5603_3790" style="mask-type:alpha" maskUnits="userSpaceOnUse" x="168" y="497" width="84" height="33">
<rect x="168.636" y="497.716" width="82.8062" height="31.9602" fill="#D9D9D9"/>
</mask>
<g mask="url(#mask4_5603_3790)">
<path d="M229.237 363.427C273.671 363.427 309.693 399.494 309.693 443.985C309.693 488.477 273.671 524.544 229.237 524.544C184.803 524.544 148.781 488.477 148.781 443.985C148.781 399.494 184.803 363.427 229.237 363.427Z" stroke="#06D1F3"/>
</g>
<path d="M229.237 379.639C264.729 379.639 293.501 408.447 293.501 443.985C293.501 479.524 264.729 508.332 229.237 508.332C193.745 508.332 164.972 479.524 164.972 443.985C164.972 408.447 193.745 379.639 229.237 379.639Z" stroke="#DDE3EA" style="mix-blend-mode:multiply"/>
<mask id="mask5_5603_3790" style="mask-type:alpha" maskUnits="userSpaceOnUse" x="268" y="454" width="29" height="34">
<rect x="268.096" y="454.176" width="28.6815" height="32.8866" fill="#D9D9D9"/>
</mask>
<g mask="url(#mask5_5603_3790)">
<path d="M229.237 379.639C264.729 379.639 293.502 408.447 293.502 443.985C293.502 479.524 264.729 508.332 229.237 508.332C193.746 508.332 164.973 479.524 164.973 443.985C164.973 408.447 193.746 379.639 229.237 379.639Z" stroke="#06D1F3"/>
</g>
<path d="M229.237 395.851C255.787 395.851 277.311 417.401 277.311 443.985C277.311 470.57 255.787 492.121 229.237 492.121C202.688 492.121 181.164 470.57 181.164 443.985C181.164 417.401 202.688 395.851 229.237 395.851Z" stroke="#DDE3EA" style="mix-blend-mode:multiply"/>
<path d="M229.237 412.062C246.844 412.063 261.119 426.355 261.119 443.986C261.119 461.617 246.844 475.909 229.237 475.909C211.63 475.909 197.354 461.618 197.354 443.986C197.354 426.355 211.63 412.062 229.237 412.062Z" stroke="#DDE3EA" style="mix-blend-mode:multiply"/>
<path d="M229.237 428.273C237.902 428.274 244.928 435.308 244.928 443.985C244.928 452.663 237.902 459.697 229.237 459.697C220.572 459.697 213.546 452.663 213.546 443.985C213.546 435.307 220.572 428.273 229.237 428.273Z" stroke="#DDE3EA" style="mix-blend-mode:multiply"/>
<line y1="-0.5" x2="43.4726" y2="-0.5" transform="matrix(0.24475 0.969586 -0.969439 0.245334 154.757 412.025)" stroke="#06D1F3"/>
<path d="M154.467 408.5C156.657 408.5 158.433 410.278 158.433 412.473C158.433 414.667 156.656 416.444 154.467 416.444C152.277 416.444 150.5 414.667 150.5 412.473C150.5 410.278 152.276 408.5 154.467 408.5Z" fill="white" stroke="#06D1F3"/>
<ellipse cx="154.467" cy="412.472" rx="2.67993" ry="2.68333" fill="#06D1F3"/>
<line y1="-0.5" x2="43.6284" y2="-0.5" transform="matrix(-0.0636198 -0.997974 0.997964 -0.0637806 168.636 497.716)" stroke="#06D1F3"/>
<ellipse cx="184.827" cy="376.359" rx="2.77563" ry="2.77915" fill="#06D1F3"/>
<ellipse cx="293.076" cy="454.176" rx="2.77563" ry="2.77915" fill="#06D1F3"/>
<ellipse cx="168.636" cy="497.716" rx="2.77563" ry="2.77915" fill="#06D1F3"/>
<ellipse cx="276.885" cy="487.062" rx="2.77563" ry="2.77915" fill="#06D1F3"/>
<ellipse cx="229.236" cy="362.927" rx="2.77563" ry="2.77915" fill="#06D1F3"/>
<ellipse cx="303.254" cy="411.562" rx="2.77563" ry="2.77915" fill="#06D1F3"/>
<ellipse cx="273.646" cy="376.359" rx="2.77563" ry="2.77915" fill="#06D1F3"/>
<ellipse cx="229.237" cy="443.985" rx="2.31302" ry="2.31596" fill="#DDE3EA"/>
<ellipse cx="165.86" cy="454.176" rx="2.77563" ry="2.77915" fill="#06D1F3"/>
<line y1="-0.5" x2="42.6874" y2="-0.5" transform="matrix(0.596037 -0.802957 0.802233 0.597011 251.442 521.339)" stroke="#06D1F3"/>
<line y1="-0.5" x2="43.3617" y2="-0.5" transform="matrix(0.234707 -0.972066 0.97193 0.23527 293.076 454.176)" stroke="#06D1F3"/>
<ellipse cx="251.441" cy="521.338" rx="2.77563" ry="2.77915" fill="#06D1F3"/>
<ellipse cx="206.569" cy="521.338" rx="2.77563" ry="2.77915" fill="#06D1F3"/>
<rect x="535" y="23" width="142" height="38" rx="19" fill="#06D7F9"/>
<path d="M569.959 46V37.2727H573.155C573.774 37.2727 574.287 37.375 574.693 37.5795C575.099 37.7812 575.403 38.0554 575.605 38.402C575.807 38.7457 575.908 39.1335 575.908 39.5653C575.908 39.929 575.841 40.2358 575.707 40.4858C575.574 40.733 575.395 40.9318 575.17 41.0824C574.949 41.2301 574.704 41.3381 574.437 41.4062V41.4915C574.727 41.5057 575.01 41.5994 575.285 41.7727C575.564 41.9432 575.794 42.1861 575.976 42.5014C576.158 42.8168 576.248 43.2003 576.248 43.652C576.248 44.098 576.143 44.4986 575.933 44.8537C575.726 45.206 575.405 45.4858 574.97 45.6932C574.535 45.8977 573.98 46 573.304 46H569.959ZM571.275 44.8707H573.176C573.807 44.8707 574.258 44.7486 574.531 44.5043C574.804 44.2599 574.94 43.9545 574.94 43.5881C574.94 43.3125 574.871 43.0597 574.731 42.8295C574.592 42.5994 574.393 42.4162 574.135 42.2798C573.879 42.1435 573.575 42.0753 573.223 42.0753H571.275V44.8707ZM571.275 41.0483H573.04C573.335 41.0483 573.601 40.9915 573.837 40.8778C574.075 40.7642 574.264 40.6051 574.403 40.4006C574.545 40.1932 574.616 39.9489 574.616 39.6676C574.616 39.3068 574.49 39.0043 574.237 38.7599C573.984 38.5156 573.596 38.3935 573.074 38.3935H571.275V41.0483ZM585.391 41.6364C585.391 42.5682 585.221 43.3693 584.88 44.0398C584.539 44.7074 584.072 45.2216 583.478 45.5824C582.887 45.9403 582.215 46.1193 581.462 46.1193C580.707 46.1193 580.032 45.9403 579.438 45.5824C578.847 45.2216 578.381 44.706 578.04 44.0355C577.699 43.3651 577.529 42.5653 577.529 41.6364C577.529 40.7045 577.699 39.9048 578.04 39.2372C578.381 38.5668 578.847 38.0526 579.438 37.6946C580.032 37.3338 580.707 37.1534 581.462 37.1534C582.215 37.1534 582.887 37.3338 583.478 37.6946C584.072 38.0526 584.539 38.5668 584.88 39.2372C585.221 39.9048 585.391 40.7045 585.391 41.6364ZM584.087 41.6364C584.087 40.9261 583.972 40.3281 583.742 39.8423C583.515 39.3537 583.202 38.9844 582.805 38.7344C582.41 38.4815 581.962 38.3551 581.462 38.3551C580.959 38.3551 580.511 38.4815 580.116 38.7344C579.721 38.9844 579.408 39.3537 579.178 39.8423C578.951 40.3281 578.837 40.9261 578.837 41.6364C578.837 42.3466 578.951 42.946 579.178 43.4347C579.408 43.9205 579.721 44.2898 580.116 44.5426C580.511 44.7926 580.959 44.9176 581.462 44.9176C581.962 44.9176 582.41 44.7926 582.805 44.5426C583.202 44.2898 583.515 43.9205 583.742 43.4347C583.972 42.946 584.087 42.3466 584.087 41.6364ZM594.614 41.6364C594.614 42.5682 594.443 43.3693 594.103 44.0398C593.762 44.7074 593.294 45.2216 592.701 45.5824C592.11 45.9403 591.438 46.1193 590.685 46.1193C589.929 46.1193 589.254 45.9403 588.661 45.5824C588.07 45.2216 587.604 44.706 587.263 44.0355C586.922 43.3651 586.752 42.5653 586.752 41.6364C586.752 40.7045 586.922 39.9048 587.263 39.2372C587.604 38.5668 588.07 38.0526 588.661 37.6946C589.254 37.3338 589.929 37.1534 590.685 37.1534C591.438 37.1534 592.11 37.3338 592.701 37.6946C593.294 38.0526 593.762 38.5668 594.103 39.2372C594.443 39.9048 594.614 40.7045 594.614 41.6364ZM593.31 41.6364C593.31 40.9261 593.195 40.3281 592.965 39.8423C592.737 39.3537 592.425 38.9844 592.027 38.7344C591.632 38.4815 591.185 38.3551 590.685 38.3551C590.182 38.3551 589.733 38.4815 589.338 38.7344C588.943 38.9844 588.631 39.3537 588.401 39.8423C588.174 40.3281 588.06 40.9261 588.06 41.6364C588.06 42.3466 588.174 42.946 588.401 43.4347C588.631 43.9205 588.943 44.2898 589.338 44.5426C589.733 44.7926 590.182 44.9176 590.685 44.9176C591.185 44.9176 591.632 44.7926 592.027 44.5426C592.425 44.2898 592.737 43.9205 592.965 43.4347C593.195 42.946 593.31 42.3466 593.31 41.6364ZM596.256 46V37.2727H597.572V41.4403H597.679L601.339 37.2727H602.997L599.477 41.2017L603.01 46H601.425L598.604 42.1009L597.572 43.2855V46H596.256ZM610.225 46H607.4V37.2727H610.315C611.17 37.2727 611.904 37.4474 612.518 37.7969C613.132 38.1435 613.602 38.642 613.929 39.2926C614.258 39.9403 614.423 40.7173 614.423 41.6236C614.423 42.5327 614.257 43.3139 613.924 43.9673C613.595 44.6207 613.117 45.1236 612.492 45.4759C611.867 45.8253 611.112 46 610.225 46ZM608.717 44.8494H610.153C610.818 44.8494 611.37 44.7244 611.811 44.4744C612.251 44.2216 612.58 43.8565 612.799 43.3793C613.018 42.8991 613.127 42.3139 613.127 41.6236C613.127 40.9389 613.018 40.358 612.799 39.8807C612.583 39.4034 612.261 39.0412 611.832 38.794C611.403 38.5469 610.87 38.4233 610.234 38.4233H608.717V44.8494ZM616.06 46V37.2727H621.532V38.4062H617.377V41.0653H621.246V42.1946H617.377V44.8665H621.583V46H616.06ZM623.291 37.2727H624.889L627.667 44.0568H627.769L630.548 37.2727H632.146V46H630.893V39.6847H630.812L628.238 45.9872H627.198L624.625 39.6804H624.544V46H623.291V37.2727ZM641.641 41.6364C641.641 42.5682 641.471 43.3693 641.13 44.0398C640.789 44.7074 640.322 45.2216 639.728 45.5824C639.137 45.9403 638.465 46.1193 637.712 46.1193C636.957 46.1193 636.282 45.9403 635.688 45.5824C635.097 45.2216 634.631 44.706 634.29 44.0355C633.949 43.3651 633.779 42.5653 633.779 41.6364C633.779 40.7045 633.949 39.9048 634.29 39.2372C634.631 38.5668 635.097 38.0526 635.688 37.6946C636.282 37.3338 636.957 37.1534 637.712 37.1534C638.465 37.1534 639.137 37.3338 639.728 37.6946C640.322 38.0526 640.789 38.5668 641.13 39.2372C641.471 39.9048 641.641 40.7045 641.641 41.6364ZM640.337 41.6364C640.337 40.9261 640.222 40.3281 639.992 39.8423C639.765 39.3537 639.452 38.9844 639.055 38.7344C638.66 38.4815 638.212 38.3551 637.712 38.3551C637.209 38.3551 636.761 38.4815 636.366 38.7344C635.971 38.9844 635.658 39.3537 635.428 39.8423C635.201 40.3281 635.087 40.9261 635.087 41.6364C635.087 42.3466 635.201 42.946 635.428 43.4347C635.658 43.9205 635.971 44.2898 636.366 44.5426C636.761 44.7926 637.209 44.9176 637.712 44.9176C638.212 44.9176 638.66 44.7926 639.055 44.5426C639.452 44.2898 639.765 43.9205 639.992 43.4347C640.222 42.946 640.337 42.3466 640.337 41.6364Z" fill="black"/>
<g clip-path="url(#clip3_5603_3790)">
<path fill-rule="evenodd" clip-rule="evenodd" d="M130.021 41.4287C130.021 43.449 128.563 44.445 125.676 44.445C123.854 44.445 122.565 44.075 121.78 43.3636C120.995 42.6522 120.631 41.5994 120.631 40.2051H122.565C122.565 41.1726 122.817 41.8555 123.293 42.197C123.798 42.5669 124.611 42.7376 125.704 42.7376C126.545 42.7376 127.134 42.6522 127.526 42.4246C127.89 42.2254 128.087 41.9124 128.087 41.4856C128.087 41.3717 128.087 41.2579 128.03 41.1441C128.002 41.0303 127.946 40.9449 127.89 40.8595C127.806 40.7742 127.722 40.6888 127.638 40.6034C127.582 40.5181 127.47 40.4612 127.302 40.3758C127.162 40.3189 127.021 40.2335 126.937 40.2051C126.853 40.1481 126.685 40.0912 126.489 40.0059C126.293 39.949 126.124 39.892 126.04 39.8636C125.928 39.8067 125.732 39.7498 125.508 39.6929C125.256 39.6075 125.087 39.5506 124.975 39.5221C124.527 39.3798 124.162 39.266 123.938 39.1522C123.686 39.0668 123.378 38.953 123.013 38.7823C122.677 38.64 122.396 38.4977 122.2 38.3554C122.004 38.2132 121.836 38.014 121.64 37.8148C121.443 37.5871 121.303 37.3595 121.219 37.0749C121.135 36.8188 121.107 36.5058 121.107 36.1928C121.107 35.3107 121.443 34.6278 122.116 34.144C122.789 33.6887 123.77 33.4326 125.115 33.4326C126.601 33.4326 127.722 33.8025 128.479 34.5139C129.236 35.2253 129.6 36.1074 129.6 37.1888H127.666C127.666 35.8229 126.797 35.14 125.087 35.14C123.714 35.14 123.041 35.5099 123.041 36.2213C123.041 36.5912 123.181 36.8758 123.49 37.0749C123.798 37.2741 124.387 37.5302 125.284 37.8148C126.629 38.2701 127.526 38.5831 127.946 38.8107C129.32 39.4937 130.021 40.3473 130.021 41.4287Z" fill="white"/>
<path fill-rule="evenodd" clip-rule="evenodd" d="M149.894 44.2744L148.801 40.5751H144.54L143.447 44.2744H141.485L144.681 33.6035H148.661L151.856 44.2744H149.894ZM145.017 38.8678H148.324L146.923 34.1157H146.418L145.017 38.8678Z" fill="white"/>
<path fill-rule="evenodd" clip-rule="evenodd" d="M130.945 38.9539C130.945 37.3603 131.422 36.0514 132.375 34.9985C133.328 33.9741 134.589 33.4619 136.187 33.4619C137.616 33.4619 138.765 33.8318 139.662 34.6001C140.531 35.3684 141.064 36.4213 141.232 37.7303H139.298C139.158 36.905 138.849 36.279 138.289 35.8237C137.756 35.3684 137.056 35.1408 136.215 35.1408C135.15 35.1408 134.337 35.4823 133.748 36.1652C133.159 36.8197 132.879 37.7587 132.879 38.9539C132.879 40.1205 133.159 41.0596 133.748 41.7425C134.337 42.4254 135.15 42.7385 136.215 42.7385C137.056 42.7385 137.756 42.5108 138.289 42.084C138.849 41.6287 139.158 40.9742 139.298 40.1774H141.232C141.064 41.4864 140.531 42.5393 139.662 43.3076C138.765 44.0759 137.616 44.4742 136.187 44.4742C134.589 44.4742 133.328 43.9336 132.375 42.9092C131.422 41.8563 130.945 40.5189 130.945 38.9539Z" fill="white"/>
<path fill-rule="evenodd" clip-rule="evenodd" d="M124.527 46.7783C125.115 46.7783 125.62 46.8068 126.04 46.8637C126.489 46.9206 126.909 47.0344 127.301 47.1767C127.694 47.319 128.03 47.5466 128.283 47.8027C128.535 48.0873 128.759 48.4287 128.899 48.8556C129.039 49.3109 129.123 49.8231 129.123 50.4206C129.123 51.1605 129.011 51.7865 128.787 52.2703C128.591 52.7825 128.254 53.1524 127.834 53.4085C127.386 53.6646 126.909 53.8353 126.405 53.9207C125.9 54.0345 125.283 54.063 124.555 54.063H123.013V57.4492H121.079V46.7783H124.527ZM124.639 52.3841C125.536 52.3841 126.18 52.2418 126.573 52.0142C126.993 51.7581 127.161 51.2174 127.161 50.4206C127.161 49.6239 126.965 49.0832 126.573 48.8556C126.18 48.5995 125.536 48.4857 124.639 48.4857H122.985V52.3841H124.639Z" fill="#2EC671"/>
<path fill-rule="evenodd" clip-rule="evenodd" d="M130.301 57.4776V46.7783H134.169C134.841 46.7783 135.43 46.8352 135.935 46.9206C136.467 47.006 136.916 47.1767 137.336 47.3759C137.784 47.6035 138.093 47.9165 138.317 48.3149C138.541 48.7133 138.625 49.197 138.625 49.7662C138.625 51.1889 137.841 52.0142 136.243 52.2133V52.7255H137.672C138.401 52.7255 138.766 53.0955 138.766 53.8353V57.4776H136.831V53.5223H132.235V57.4776H130.301ZM132.235 51.7865H134.169C134.561 51.7865 134.841 51.7865 135.066 51.7865C135.262 51.7581 135.486 51.7296 135.738 51.6727C135.963 51.6158 136.159 51.5304 136.271 51.4166C136.411 51.3028 136.495 51.132 136.607 50.9328C136.663 50.7052 136.719 50.4491 136.719 50.1361C136.719 49.8231 136.663 49.567 136.579 49.3393C136.495 49.1401 136.411 48.9694 136.271 48.8556C136.159 48.7418 135.991 48.6564 135.738 48.571C135.514 48.5141 135.29 48.4857 135.066 48.4857C134.841 48.4572 134.561 48.4572 134.169 48.4572H132.235V51.7865Z" fill="#2EC671"/>
<path fill-rule="evenodd" clip-rule="evenodd" d="M141.345 56.0555C140.42 55.0311 139.943 53.7222 139.943 52.1002C139.943 50.5067 140.42 49.1977 141.345 48.1733C142.298 47.1489 143.559 46.6367 145.157 46.6367C146.726 46.6367 148.016 47.1489 148.941 48.1733C149.894 49.2262 150.342 50.5351 150.342 52.1002C150.342 53.6937 149.894 55.0311 148.941 56.0555C147.988 57.1084 146.726 57.6206 145.157 57.6206C143.559 57.6206 142.298 57.1084 141.345 56.0555ZM142.718 49.34C142.157 50.0229 141.877 50.962 141.877 52.1287C141.877 53.2953 142.157 54.2059 142.718 54.8889C143.251 55.5718 144.092 55.9133 145.157 55.9133C146.222 55.9133 147.035 55.5718 147.595 54.8889C148.156 54.2059 148.436 53.2953 148.436 52.1287C148.436 50.962 148.156 50.0229 147.595 49.34C147.035 48.6855 146.222 48.3156 145.157 48.3156C144.092 48.3156 143.251 48.6855 142.718 49.34Z" fill="#2EC671"/>
<path fill-rule="evenodd" clip-rule="evenodd" d="M159.872 52.7543V54.234H156.761V57.3925H155.275V54.234H152.164V52.7543H155.275V49.5957H156.761V52.7543H159.872Z" fill="#2EC671"/>
<path fill-rule="evenodd" clip-rule="evenodd" d="M84.7522 57.4496C85.8173 55.5716 87.6953 54.4902 90.3862 54.4902C93.1051 54.4902 94.9831 55.5716 96.0202 57.4496H101.626C100.084 52.8967 96.1043 49.7666 90.3862 49.7666C84.6681 49.7666 80.6879 52.8967 79.1462 57.4496H84.7522Z" fill="#2EC671"/>
<path fill-rule="evenodd" clip-rule="evenodd" d="M90.3864 24.6973C97.8143 24.6973 102.355 29.99 102.355 36.8763C102.355 43.791 97.8143 49.0838 90.3864 49.0838C82.9586 49.0838 78.4177 43.791 78.4177 36.8763C78.4177 29.99 82.9586 24.6973 90.3864 24.6973ZM90.3864 44.3886C94.8152 44.3886 97.0295 41.4576 97.0295 36.8763C97.0295 32.3234 94.8432 29.3924 90.3864 29.3924C85.9858 29.3924 83.7434 32.3234 83.7434 36.8763C83.7434 41.4576 85.9577 44.3886 90.3864 44.3886Z" fill="white"/>
<path fill-rule="evenodd" clip-rule="evenodd" d="M111.156 48.5434L115.977 33.6611H110.624L105.886 48.5434H111.156Z" fill="#06D1F3"/>
<path d="M153.005 44.2744H154.939V35.5385L154.546 34.1726H155.331L158.527 44.2744H162.843V33.6035H160.909V42.3394L161.301 43.7337H160.517L157.321 33.6035H153.005V44.2744Z" fill="white"/>
</g>
<path d="M80.2614 107H78.3977L82.5852 95.3636H84.6136L88.8011 107H86.9375L83.6477 97.4773H83.5568L80.2614 107ZM80.5739 102.443H86.6193V103.92H80.5739V102.443ZM97.9645 95.3636H99.7259V103.017C99.7259 103.831 99.5346 104.553 99.152 105.182C98.7694 105.807 98.2315 106.299 97.5384 106.659C96.8452 107.015 96.0327 107.193 95.1009 107.193C94.1728 107.193 93.3622 107.015 92.669 106.659C91.9759 106.299 91.438 105.807 91.0554 105.182C90.6728 104.553 90.4815 103.831 90.4815 103.017V95.3636H92.2372V102.875C92.2372 103.402 92.3527 103.869 92.5838 104.278C92.8187 104.688 93.1501 105.009 93.5781 105.244C94.0062 105.475 94.5137 105.591 95.1009 105.591C95.6918 105.591 96.2012 105.475 96.6293 105.244C97.0611 105.009 97.3906 104.688 97.6179 104.278C97.849 103.869 97.9645 103.402 97.9645 102.875V95.3636ZM106.045 107H102.278V95.3636H106.165C107.305 95.3636 108.284 95.5966 109.102 96.0625C109.92 96.5246 110.547 97.1894 110.983 98.0568C111.422 98.9205 111.642 99.9564 111.642 101.165C111.642 102.377 111.42 103.419 110.977 104.29C110.538 105.161 109.902 105.831 109.068 106.301C108.235 106.767 107.227 107 106.045 107ZM104.034 105.466H105.949C106.835 105.466 107.572 105.299 108.159 104.966C108.746 104.629 109.186 104.142 109.477 103.506C109.769 102.866 109.915 102.085 109.915 101.165C109.915 100.252 109.769 99.4773 109.477 98.8409C109.189 98.2045 108.759 97.7216 108.188 97.392C107.616 97.0625 106.905 96.8977 106.057 96.8977H104.034V105.466ZM115.581 95.3636V107H113.825V95.3636H115.581ZM117.564 96.875V95.3636H126.57V96.875H122.939V107H121.189V96.875H117.564ZM132.794 107V95.3636H136.942C137.843 95.3636 138.591 95.5189 139.186 95.8295C139.785 96.1402 140.232 96.5701 140.527 97.1193C140.822 97.6648 140.97 98.2955 140.97 99.0114C140.97 99.7235 140.821 100.35 140.521 100.892C140.226 101.43 139.779 101.848 139.18 102.148C138.586 102.447 137.838 102.597 136.936 102.597H133.794V101.085H136.777C137.345 101.085 137.807 101.004 138.163 100.841C138.523 100.678 138.786 100.441 138.953 100.131C139.12 99.8201 139.203 99.447 139.203 99.0114C139.203 98.572 139.118 98.1913 138.947 97.8693C138.781 97.5473 138.518 97.3011 138.158 97.1307C137.802 96.9564 137.334 96.8693 136.754 96.8693H134.55V107H132.794ZM138.538 101.75L141.413 107H139.413L136.595 101.75H138.538ZM143.107 107V95.3636H150.402V96.875H144.862V100.42H150.021V101.926H144.862V105.489H150.47V107H143.107ZM152.747 107V95.3636H156.895C157.8 95.3636 158.55 95.5284 159.145 95.858C159.74 96.1875 160.185 96.6383 160.48 97.2102C160.776 97.7784 160.923 98.4186 160.923 99.1307C160.923 99.8466 160.774 100.491 160.474 101.062C160.179 101.631 159.732 102.081 159.134 102.415C158.539 102.744 157.791 102.909 156.889 102.909H154.037V101.42H156.73C157.302 101.42 157.766 101.322 158.122 101.125C158.478 100.924 158.74 100.652 158.906 100.307C159.073 99.9621 159.156 99.5701 159.156 99.1307C159.156 98.6913 159.073 98.3011 158.906 97.9602C158.74 97.6193 158.476 97.3523 158.116 97.1591C157.76 96.9659 157.291 96.8693 156.707 96.8693H154.503V107H152.747ZM173.089 101.182C173.089 102.424 172.862 103.492 172.408 104.386C171.953 105.277 171.33 105.962 170.538 106.443C169.75 106.92 168.855 107.159 167.851 107.159C166.843 107.159 165.944 106.92 165.152 106.443C164.364 105.962 163.743 105.275 163.288 104.381C162.834 103.487 162.607 102.42 162.607 101.182C162.607 99.9394 162.834 98.8731 163.288 97.983C163.743 97.089 164.364 96.4034 165.152 95.9261C165.944 95.4451 166.843 95.2045 167.851 95.2045C168.855 95.2045 169.75 95.4451 170.538 95.9261C171.33 96.4034 171.953 97.089 172.408 97.983C172.862 98.8731 173.089 99.9394 173.089 101.182ZM171.351 101.182C171.351 100.235 171.197 99.4375 170.891 98.7898C170.588 98.1383 170.171 97.6458 169.641 97.3125C169.114 96.9754 168.518 96.8068 167.851 96.8068C167.18 96.8068 166.582 96.9754 166.055 97.3125C165.529 97.6458 165.112 98.1383 164.805 98.7898C164.502 99.4375 164.351 100.235 164.351 101.182C164.351 102.129 164.502 102.928 164.805 103.58C165.112 104.227 165.529 104.72 166.055 105.057C166.582 105.39 167.18 105.557 167.851 105.557C168.518 105.557 169.114 105.39 169.641 105.057C170.171 104.72 170.588 104.227 170.891 103.58C171.197 102.928 171.351 102.129 171.351 101.182ZM175.278 107V95.3636H179.426C180.328 95.3636 181.076 95.5189 181.67 95.8295C182.269 96.1402 182.716 96.5701 183.011 97.1193C183.307 97.6648 183.455 98.2955 183.455 99.0114C183.455 99.7235 183.305 100.35 183.006 100.892C182.71 101.43 182.263 101.848 181.665 102.148C181.07 102.447 180.322 102.597 179.42 102.597H176.278V101.085H179.261C179.83 101.085 180.292 101.004 180.648 100.841C181.008 100.678 181.271 100.441 181.438 100.131C181.604 99.8201 181.688 99.447 181.688 99.0114C181.688 98.572 181.602 98.1913 181.432 97.8693C181.265 97.5473 181.002 97.3011 180.642 97.1307C180.286 96.9564 179.818 96.8693 179.239 96.8693H177.034V107H175.278ZM181.023 101.75L183.898 107H181.898L179.08 101.75H181.023ZM185.017 96.875V95.3636H194.023V96.875H190.392V107H188.642V96.875H185.017Z" fill="black"/>
<path fill-rule="evenodd" clip-rule="evenodd" d="M81.2014 130.308H122.738C124.228 130.308 125.447 131.528 125.447 133.019V139.991C125.447 141.482 124.228 142.702 122.738 142.702H81.2014C79.7117 142.702 78.4929 141.482 78.4929 139.991V133.019C78.4929 131.528 79.7117 130.308 81.2014 130.308Z" fill="#06D7F9"/>
<path fill-rule="evenodd" clip-rule="evenodd" d="M79.6451 152.393H453.68C454.312 152.393 454.832 152.911 454.832 153.545V156.509C454.832 157.144 454.312 157.662 453.68 157.662H79.6451C79.0128 157.662 78.4929 157.144 78.4929 156.509V153.545C78.4929 152.911 79.0128 152.393 79.6451 152.393Z" fill="#CDCFD8"/>
<path fill-rule="evenodd" clip-rule="evenodd" d="M79.6451 160.3H453.68C454.312 160.3 454.832 160.819 454.832 161.453V164.417C454.832 165.051 454.312 165.569 453.68 165.569H79.6451C79.0128 165.569 78.4929 165.051 78.4929 164.417V161.453C78.4929 160.819 79.0128 160.3 79.6451 160.3Z" fill="#CDCFD8"/>
<path fill-rule="evenodd" clip-rule="evenodd" d="M79.6455 168.206H370.016C370.65 168.206 371.169 168.725 371.169 169.359V172.323C371.169 172.957 370.65 173.475 370.016 173.475H79.6455C79.0118 173.475 78.4929 172.957 78.4929 172.323V169.359C78.4929 168.725 79.0118 168.206 79.6455 168.206Z" fill="#CDCFD8"/>
<path fill-rule="evenodd" clip-rule="evenodd" d="M79.6444 190.645H100.175C100.808 190.645 101.326 191.163 101.326 191.797V194.761C101.326 195.396 100.808 195.914 100.175 195.914H79.6444C79.011 195.914 78.4929 195.396 78.4929 194.761V191.797C78.4929 191.163 79.011 190.645 79.6444 190.645Z" fill="#CDCFD8"/>
<path fill-rule="evenodd" clip-rule="evenodd" d="M79.6444 203.039H88.3257C88.959 203.039 89.477 203.558 89.477 204.192V207.156C89.477 207.79 88.959 208.309 88.3257 208.309H79.6444C79.0111 208.309 78.4929 207.79 78.4929 207.156V204.192C78.4929 203.558 79.0111 203.039 79.6444 203.039Z" fill="#CDCFD8"/>
<path fill-rule="evenodd" clip-rule="evenodd" d="M79.6444 215.434H99.6907C100.324 215.434 100.842 215.952 100.842 216.586V219.55C100.842 220.185 100.324 220.703 99.6907 220.703H79.6444C79.0111 220.703 78.4929 220.185 78.4929 219.55V216.586C78.4929 215.952 79.0111 215.434 79.6444 215.434Z" fill="#CDCFD8"/>
<path fill-rule="evenodd" clip-rule="evenodd" d="M79.644 227.828H149.153C149.786 227.828 150.304 228.347 150.304 228.981V231.945C150.304 232.579 149.786 233.098 149.153 233.098H79.644C79.0111 233.098 78.4929 232.579 78.4929 231.945V228.981C78.4929 228.347 79.0111 227.828 79.644 227.828Z" fill="#CDCFD8"/>
<path fill-rule="evenodd" clip-rule="evenodd" d="M79.6443 240.223H88.1128C88.7461 240.223 89.2641 240.742 89.2641 241.376V244.34C89.2641 244.974 88.7461 245.492 88.1128 245.492H79.6443C79.011 245.492 78.4929 244.974 78.4929 244.34V241.376C78.4929 240.741 79.011 240.223 79.6443 240.223Z" fill="#CDCFD8"/>
<path fill-rule="evenodd" clip-rule="evenodd" d="M79.6444 252.618H92.1676C92.8009 252.618 93.319 253.137 93.319 253.771V256.735C93.319 257.369 92.8009 257.888 92.1676 257.888H79.6444C79.011 257.888 78.4929 257.369 78.4929 256.735V253.771C78.4929 253.137 79.011 252.618 79.6444 252.618Z" fill="#CDCFD8"/>
<path fill-rule="evenodd" clip-rule="evenodd" d="M79.6444 265.013H99.7445C100.378 265.013 100.896 265.532 100.896 266.166V269.13C100.896 269.764 100.378 270.282 99.7445 270.282H79.6444C79.011 270.282 78.4929 269.764 78.4929 269.13V266.166C78.4929 265.531 79.011 265.013 79.6444 265.013Z" fill="#CDCFD8"/>
<path fill-rule="evenodd" clip-rule="evenodd" d="M79.6445 277.407H139.334C139.967 277.407 140.486 277.926 140.486 278.56V281.524C140.486 282.158 139.967 282.677 139.334 282.677H79.6445C79.0112 282.677 78.4929 282.158 78.4929 281.524V278.56C78.4929 277.926 79.0112 277.407 79.6445 277.407Z" fill="#CDCFD8"/>
<path fill-rule="evenodd" clip-rule="evenodd" d="M79.6442 289.802H130.371C131.004 289.802 131.522 290.321 131.522 290.955V293.919C131.522 294.553 131.004 295.071 130.371 295.071H79.6442C79.0111 295.071 78.4929 294.553 78.4929 293.919V290.955C78.4929 290.321 79.0111 289.802 79.6442 289.802Z" fill="#CDCFD8"/>
<path fill-rule="evenodd" clip-rule="evenodd" d="M79.6444 302.196H114.577C115.21 302.196 115.728 302.715 115.728 303.349V306.313C115.728 306.947 115.21 307.466 114.577 307.466H79.6444C79.0111 307.466 78.4929 306.947 78.4929 306.313V303.349C78.4929 302.715 79.0111 302.196 79.6444 302.196Z" fill="#CDCFD8"/>
<path fill-rule="evenodd" clip-rule="evenodd" d="M79.6444 314.592H100.175C100.808 314.592 101.326 315.11 101.326 315.745V318.709C101.326 319.343 100.808 319.861 100.175 319.861H79.6444C79.011 319.861 78.4929 319.343 78.4929 318.709V315.745C78.4929 315.11 79.011 314.592 79.6444 314.592Z" fill="#CDCFD8"/>
<path fill-rule="evenodd" clip-rule="evenodd" d="M79.6444 326.986H100.175C100.808 326.986 101.326 327.505 101.326 328.139V331.103C101.326 331.737 100.808 332.256 100.175 332.256H79.6444C79.011 332.256 78.4929 331.737 78.4929 331.103V328.139C78.4929 327.505 79.011 326.986 79.6444 326.986Z" fill="#CDCFD8"/>
<path fill-rule="evenodd" clip-rule="evenodd" d="M273.862 190.645H302.584C303.218 190.645 303.736 191.163 303.736 191.797V194.761C303.736 195.396 303.218 195.914 302.584 195.914H273.862C273.229 195.914 272.711 195.396 272.711 194.761V191.797C272.711 191.163 273.229 190.645 273.862 190.645Z" fill="#CDCFD8"/>
<path fill-rule="evenodd" clip-rule="evenodd" d="M273.862 203.039H302.584C303.218 203.039 303.736 203.558 303.736 204.192V207.156C303.736 207.79 303.218 208.309 302.584 208.309H273.862C273.229 208.309 272.711 207.79 272.711 207.156V204.192C272.711 203.558 273.229 203.039 273.862 203.039Z" fill="#CDCFD8"/>
<path fill-rule="evenodd" clip-rule="evenodd" d="M273.862 215.434H340.858C341.492 215.434 342.009 215.952 342.009 216.586V219.55C342.009 220.185 341.491 220.703 340.858 220.703H273.862C273.229 220.703 272.711 220.185 272.711 219.55V216.586C272.711 215.952 273.229 215.434 273.862 215.434Z" fill="#CDCFD8"/>
<path fill-rule="evenodd" clip-rule="evenodd" d="M273.862 227.828H302.584C303.218 227.828 303.736 228.347 303.736 228.981V231.945C303.736 232.579 303.218 233.098 302.584 233.098H273.862C273.229 233.098 272.711 232.579 272.711 231.945V228.981C272.711 228.347 273.229 227.828 273.862 227.828Z" fill="#CDCFD8"/>
<path fill-rule="evenodd" clip-rule="evenodd" d="M273.862 240.223H302.584C303.218 240.223 303.736 240.742 303.736 241.376V244.34C303.736 244.974 303.218 245.492 302.584 245.492H273.862C273.229 245.492 272.711 244.974 272.711 244.34V241.376C272.711 240.741 273.229 240.223 273.862 240.223Z" fill="#CDCFD8"/>
<path fill-rule="evenodd" clip-rule="evenodd" d="M273.862 252.618H337.668C338.302 252.618 338.82 253.137 338.82 253.771V256.735C338.82 257.369 338.302 257.888 337.668 257.888H273.862C273.229 257.888 272.711 257.369 272.711 256.735V253.771C272.711 253.137 273.229 252.618 273.862 252.618Z" fill="#CDCFD8"/>
<path fill-rule="evenodd" clip-rule="evenodd" d="M273.862 265.013H336.508C337.142 265.013 337.66 265.532 337.66 266.166V269.13C337.66 269.764 337.142 270.282 336.508 270.282H273.862C273.229 270.282 272.711 269.764 272.711 269.13V266.166C272.711 265.531 273.229 265.013 273.862 265.013Z" fill="#CDCFD8"/>
<path fill-rule="evenodd" clip-rule="evenodd" d="M273.862 277.407H302.584C303.218 277.407 303.736 277.926 303.736 278.56V281.524C303.736 282.158 303.218 282.677 302.584 282.677H273.862C273.229 282.677 272.711 282.158 272.711 281.524V278.56C272.711 277.926 273.229 277.407 273.862 277.407Z" fill="#CDCFD8"/>
<path fill-rule="evenodd" clip-rule="evenodd" d="M273.862 289.802H302.584C303.218 289.802 303.736 290.321 303.736 290.955V293.919C303.736 294.553 303.218 295.071 302.584 295.071H273.862C273.229 295.071 272.711 294.553 272.711 293.919V290.955C272.711 290.321 273.229 289.802 273.862 289.802Z" fill="#CDCFD8"/>
<path fill-rule="evenodd" clip-rule="evenodd" d="M273.862 302.196H363.188C363.821 302.196 364.339 302.715 364.339 303.349V306.313C364.339 306.947 363.821 307.466 363.188 307.466H273.862C273.229 307.466 272.711 306.947 272.711 306.313V303.349C272.711 302.715 273.229 302.196 273.862 302.196Z" fill="#CDCFD8"/>
<path fill-rule="evenodd" clip-rule="evenodd" d="M273.862 314.592H302.584C303.218 314.592 303.736 315.11 303.736 315.745V318.709C303.736 319.343 303.218 319.861 302.584 319.861H273.862C273.229 319.861 272.711 319.343 272.711 318.709V315.745C272.711 315.11 273.229 314.592 273.862 314.592Z" fill="#CDCFD8"/>
<path fill-rule="evenodd" clip-rule="evenodd" d="M273.862 326.986H315.919C316.552 326.986 317.07 327.505 317.07 328.139V331.103C317.07 331.737 316.552 332.256 315.919 332.256H273.862C273.229 332.256 272.711 331.737 272.711 331.103V328.139C272.711 327.505 273.229 326.986 273.862 326.986Z" fill="#CDCFD8"/>
<path d="M590.5 146.755H679.281C684.329 146.755 688.458 150.89 688.458 155.944V335.022C688.458 340.077 684.329 344.211 679.281 344.211H532.444C527.396 344.211 523.266 340.077 523.266 335.022V155.944C523.266 150.89 527.396 146.755 532.444 146.755H535.618" stroke="#CDCFD8" stroke-width="2" stroke-miterlimit="22.9256"/>
<path fill-rule="evenodd" clip-rule="evenodd" d="M620.427 114.804H649.153C649.937 114.804 650.58 115.447 650.58 116.232V119.905C650.58 120.691 649.937 121.334 649.153 121.334H620.427C619.642 121.334 619 120.691 619 119.905V116.232C619 115.447 619.642 114.804 620.427 114.804Z" fill="#949CAF"/>
<path fill-rule="evenodd" clip-rule="evenodd" d="M657.351 114.804H686.076C686.861 114.804 687.503 115.447 687.503 116.232V119.905C687.503 120.691 686.861 121.334 686.076 121.334H657.351C656.566 121.334 655.924 120.691 655.924 119.905V116.232C655.924 115.447 656.566 114.804 657.351 114.804Z" fill="#2ECD71"/>
<path fill-rule="evenodd" clip-rule="evenodd" d="M523.346 174.101C527.413 174.101 530.709 177.401 530.709 181.473C530.709 185.545 527.413 188.845 523.346 188.845C519.28 188.845 515.983 185.545 515.983 181.473C515.983 177.401 519.28 174.101 523.346 174.101Z" fill="#FEFEFE" stroke="#CDCFD8" stroke-width="2" stroke-miterlimit="22.9256"/>
<path fill-rule="evenodd" clip-rule="evenodd" d="M523.346 201.026C527.413 201.026 530.71 204.327 530.71 208.399C530.71 212.471 527.413 215.771 523.346 215.771C519.28 215.771 515.983 212.471 515.983 208.399C515.983 204.327 519.28 201.026 523.346 201.026Z" fill="#FEFEFE" stroke="#CDCFD8" stroke-width="2" stroke-miterlimit="22.9256"/>
<path fill-rule="evenodd" clip-rule="evenodd" d="M523.346 227.952C527.413 227.952 530.71 231.253 530.71 235.325C530.71 239.396 527.413 242.697 523.346 242.697C519.28 242.697 515.983 239.396 515.983 235.325C515.983 231.253 519.28 227.952 523.346 227.952Z" fill="#FEFEFE" stroke="#CDCFD8" stroke-width="2" stroke-miterlimit="22.9256"/>
<path fill-rule="evenodd" clip-rule="evenodd" d="M523.346 254.878C527.413 254.878 530.709 258.179 530.709 262.25C530.709 266.322 527.413 269.623 523.346 269.623C519.28 269.623 515.983 266.322 515.983 262.25C515.983 258.179 519.28 254.878 523.346 254.878Z" fill="#FEFEFE" stroke="#CDCFD8" stroke-width="2" stroke-miterlimit="22.9256"/>
<circle cx="563" cy="140" r="23" fill="#06D7F9"/>
<path fill-rule="evenodd" clip-rule="evenodd" d="M542.118 176.326H588.342C589.57 176.326 590.574 177.332 590.574 178.561V184.307C590.574 185.536 589.57 186.542 588.342 186.542H542.118C540.891 186.542 539.886 185.536 539.886 184.307V178.561C539.886 177.332 540.891 176.326 542.118 176.326Z" fill="#CDCFD8"/>
<path fill-rule="evenodd" clip-rule="evenodd" d="M541.266 205.294H577.456C578.215 205.294 578.836 205.916 578.836 206.676V210.228C578.836 210.988 578.215 211.609 577.456 211.609H541.266C540.507 211.609 539.886 210.988 539.886 210.228V206.676C539.886 205.916 540.507 205.294 541.266 205.294Z" fill="#CDCFD8"/>
<path fill-rule="evenodd" clip-rule="evenodd" d="M541.267 231.686H628.251C629.01 231.686 629.631 232.307 629.631 233.067V236.619C629.631 237.379 629.01 238.001 628.251 238.001H541.267C540.507 238.001 539.886 237.379 539.886 236.619V233.067C539.886 232.307 540.507 231.686 541.267 231.686Z" fill="#CDCFD8"/>
<path fill-rule="evenodd" clip-rule="evenodd" d="M540.834 243.172H556.012C556.533 243.172 556.96 243.599 556.96 244.121V246.561C556.96 247.084 556.533 247.511 556.012 247.511H540.834C540.313 247.511 539.886 247.083 539.886 246.561V244.121C539.886 243.599 540.313 243.172 540.834 243.172Z" fill="#CDCFD8"/>
<path fill-rule="evenodd" clip-rule="evenodd" d="M541.266 258.932H587.807C588.566 258.932 589.187 259.553 589.187 260.313V263.865C589.187 264.625 588.566 265.247 587.807 265.247H541.266C540.507 265.247 539.886 264.625 539.886 263.865V260.313C539.886 259.553 540.507 258.932 541.266 258.932Z" fill="#CDCFD8"/>
<path fill-rule="evenodd" clip-rule="evenodd" d="M540.835 269.67H588.025C588.547 269.67 588.973 270.097 588.973 270.619V273.059C588.973 273.581 588.547 274.009 588.025 274.009H540.835C540.313 274.009 539.886 273.581 539.886 273.059V270.619C539.886 270.097 540.313 269.67 540.835 269.67Z" fill="#CDCFD8"/>
<path fill-rule="evenodd" clip-rule="evenodd" d="M540.835 279.073H610.969C611.49 279.073 611.917 279.5 611.917 280.022V282.463C611.917 282.985 611.49 283.412 610.969 283.412H540.835C540.313 283.412 539.886 282.985 539.886 282.463V280.022C539.886 279.5 540.313 279.073 540.835 279.073Z" fill="#CDCFD8"/>
<path fill-rule="evenodd" clip-rule="evenodd" d="M540.834 291.468H565.936C566.457 291.468 566.884 291.895 566.884 292.417V294.857C566.884 295.379 566.457 295.806 565.936 295.806H540.834C540.313 295.806 539.886 295.379 539.886 294.857V292.417C539.886 291.895 540.313 291.468 540.834 291.468Z" fill="#06D7F9"/>
<path fill-rule="evenodd" clip-rule="evenodd" d="M667.029 160.998C670.479 160.998 673.276 163.798 673.276 167.252C673.276 170.707 670.479 173.507 667.029 173.507C663.579 173.507 660.783 170.707 660.783 167.252C660.783 163.798 663.579 160.998 667.029 160.998Z" fill="#2ECD71"/>
<path fill-rule="evenodd" clip-rule="evenodd" d="M544.298 308.563H668.757C671.183 308.563 673.168 310.551 673.168 312.981V324.337C673.168 326.766 671.183 328.754 668.757 328.754H544.298C541.872 328.754 539.886 326.766 539.886 324.337V312.981C539.886 310.551 541.872 308.563 544.298 308.563Z" fill="#06D7F9"/>
<path fill-rule="evenodd" clip-rule="evenodd" d="M367.083 393.536H415.594C416.797 393.536 417.781 394.52 417.781 395.725V458.313C417.781 459.519 416.797 460.503 415.594 460.503H367.083C365.88 460.503 364.896 459.519 364.896 458.313V395.725C364.896 394.52 365.88 393.536 367.083 393.536Z" fill="#2ECD71"/>
<path fill-rule="evenodd" clip-rule="evenodd" d="M397.383 467.555H415.556C416.78 467.555 417.781 468.557 417.781 469.783V491.398C417.781 492.623 416.78 493.626 415.556 493.626H397.383C396.159 493.626 395.158 492.623 395.158 491.398V469.783C395.158 468.557 396.159 467.555 397.383 467.555Z" fill="#06D7F9"/>
<path fill-rule="evenodd" clip-rule="evenodd" d="M425.593 395.012H584.595C585.227 395.012 585.746 395.531 585.746 396.165V399.129C585.746 399.763 585.227 400.281 584.595 400.281H425.593C424.961 400.281 424.442 399.763 424.442 399.129V396.165C424.442 395.531 424.961 395.012 425.593 395.012Z" fill="#CDCFD8"/>
<path fill-rule="evenodd" clip-rule="evenodd" d="M425.593 403.346H435.41C436.043 403.346 436.561 403.864 436.561 404.499V407.463C436.561 408.097 436.043 408.615 435.41 408.615H425.593C424.96 408.615 424.442 408.097 424.442 407.463V404.499C424.442 403.864 424.96 403.346 425.593 403.346Z" fill="#CDCFD8"/>
<path fill-rule="evenodd" clip-rule="evenodd" d="M425.593 411.787H461.768C462.401 411.787 462.919 412.306 462.919 412.94V415.904C462.919 416.538 462.401 417.057 461.768 417.057H425.593C424.96 417.057 424.442 416.538 424.442 415.904V412.94C424.442 412.306 424.96 411.787 425.593 411.787Z" fill="#CDCFD8"/>
<path fill-rule="evenodd" clip-rule="evenodd" d="M425.594 420.335H477.028C477.662 420.335 478.179 420.854 478.179 421.488V424.452C478.179 425.086 477.662 425.605 477.028 425.605H425.594C424.96 425.605 424.442 425.086 424.442 424.452V421.488C424.442 420.854 424.96 420.335 425.594 420.335Z" fill="#CDCFD8"/>
<path fill-rule="evenodd" clip-rule="evenodd" d="M425.594 428.669H528.998C529.631 428.669 530.15 429.188 530.15 429.822V432.786C530.15 433.42 529.631 433.938 528.998 433.938H425.594C424.959 433.938 424.442 433.42 424.442 432.786V429.822C424.442 429.188 424.959 428.669 425.594 428.669Z" fill="#CDCFD8"/>
<path fill-rule="evenodd" clip-rule="evenodd" d="M425.593 437.323H538.283C538.916 437.323 539.434 437.842 539.434 438.476V441.44C539.434 442.074 538.916 442.593 538.283 442.593H425.593C424.96 442.593 424.442 442.074 424.442 441.44V438.476C424.442 437.842 424.96 437.323 425.593 437.323Z" fill="#CDCFD8"/>
<path fill-rule="evenodd" clip-rule="evenodd" d="M425.593 445.551H508.403C509.036 445.551 509.554 446.07 509.554 446.704V449.668C509.554 450.302 509.036 450.82 508.403 450.82H425.593C424.96 450.82 424.442 450.302 424.442 449.668V446.704C424.442 446.07 424.96 445.551 425.593 445.551Z" fill="#CDCFD8"/>
<path fill-rule="evenodd" clip-rule="evenodd" d="M425.593 453.991H527.398C528.031 453.991 528.549 454.51 528.549 455.144V458.108C528.549 458.742 528.031 459.261 527.398 459.261H425.593C424.96 459.261 424.442 458.742 424.442 458.108V455.144C424.442 454.51 424.96 453.991 425.593 453.991Z" fill="#CDCFD8"/>
<path fill-rule="evenodd" clip-rule="evenodd" d="M425.593 470.125H492.502C493.135 470.125 493.653 470.644 493.653 471.278V474.242C493.653 474.876 493.135 475.394 492.502 475.394H425.593C424.96 475.394 424.442 474.876 424.442 474.242V471.278C424.442 470.644 424.96 470.125 425.593 470.125Z" fill="#CDCFD8"/>
<path fill-rule="evenodd" clip-rule="evenodd" d="M425.593 478.353H490.047C490.681 478.353 491.199 478.871 491.199 479.505V482.469C491.199 483.104 490.681 483.622 490.047 483.622H425.593C424.96 483.622 424.442 483.104 424.442 482.469V479.505C424.442 478.871 424.96 478.353 425.593 478.353Z" fill="#CDCFD8"/>
<path fill-rule="evenodd" clip-rule="evenodd" d="M425.593 486.847H477.135C477.769 486.847 478.286 487.365 478.286 488V490.964C478.286 491.598 477.768 492.116 477.135 492.116H425.593C424.96 492.116 424.442 491.598 424.442 490.964V488C424.442 487.365 424.96 486.847 425.593 486.847Z" fill="#CDCFD8"/>
<path fill-rule="evenodd" clip-rule="evenodd" d="M367.083 573.684H415.594C416.797 573.684 417.781 574.671 417.781 575.875V655.067C417.781 656.272 416.797 657.259 415.594 657.259H367.083C365.88 657.259 364.896 656.272 364.896 655.067V575.875C364.896 574.671 365.88 573.684 367.083 573.684Z" fill="#2ECD71"/>
<path fill-rule="evenodd" clip-rule="evenodd" d="M397.383 664.798H415.556C416.78 664.798 417.781 665.801 417.781 667.025V695.847C417.781 697.072 416.78 698.075 415.556 698.075H397.383C396.159 698.075 395.158 697.072 395.158 695.847V667.025C395.158 665.801 396.159 664.798 397.383 664.798Z" fill="#06D7F9"/>
<path fill-rule="evenodd" clip-rule="evenodd" d="M425.593 575.159H451.549C452.182 575.159 452.7 575.678 452.7 576.312V579.276C452.7 579.91 452.182 580.429 451.549 580.429H425.593C424.96 580.429 424.442 579.91 424.442 579.276V576.312C424.442 575.678 424.96 575.159 425.593 575.159Z" fill="#CDCFD8"/>
<path fill-rule="evenodd" clip-rule="evenodd" d="M425.594 583.493H555.06C555.694 583.493 556.212 584.012 556.212 584.646V587.61C556.212 588.244 555.694 588.763 555.06 588.763H425.594C424.96 588.763 424.442 588.244 424.442 587.61V584.646C424.442 584.012 424.96 583.493 425.594 583.493Z" fill="#CDCFD8"/>
<path fill-rule="evenodd" clip-rule="evenodd" d="M425.593 591.935H464.568C465.201 591.935 465.719 592.453 465.719 593.087V596.051C465.719 596.686 465.201 597.204 464.568 597.204H425.593C424.96 597.204 424.442 596.686 424.442 596.051V593.087C424.442 592.453 424.96 591.935 425.593 591.935Z" fill="#CDCFD8"/>
<path fill-rule="evenodd" clip-rule="evenodd" d="M425.593 600.482H468.675C469.309 600.482 469.827 601.001 469.827 601.635V604.599C469.827 605.233 469.309 605.752 468.675 605.752H425.593C424.96 605.752 424.442 605.233 424.442 604.599V601.635C424.442 601.001 424.96 600.482 425.593 600.482Z" fill="#CDCFD8"/>
<path fill-rule="evenodd" clip-rule="evenodd" d="M425.593 608.816H515.736C516.368 608.816 516.887 609.335 516.887 609.969V612.933C516.887 613.567 516.368 614.086 515.736 614.086H425.593C424.96 614.086 424.442 613.567 424.442 612.933V609.969C424.442 609.335 424.96 608.816 425.593 608.816Z" fill="#CDCFD8"/>
<path fill-rule="evenodd" clip-rule="evenodd" d="M425.593 617.471H455.016C455.649 617.471 456.167 617.99 456.167 618.624V621.588C456.167 622.222 455.649 622.74 455.016 622.74H425.593C424.96 622.74 424.442 622.222 424.442 621.588V618.624C424.442 617.989 424.96 617.471 425.593 617.471Z" fill="#CDCFD8"/>
<path fill-rule="evenodd" clip-rule="evenodd" d="M425.593 625.698H467.715C468.348 625.698 468.866 626.217 468.866 626.851V629.815C468.866 630.449 468.348 630.968 467.715 630.968H425.593C424.96 630.968 424.442 630.449 424.442 629.815V626.851C424.442 626.217 424.96 625.698 425.593 625.698Z" fill="#CDCFD8"/>
<path fill-rule="evenodd" clip-rule="evenodd" d="M425.593 634.139H464.513C465.146 634.139 465.664 634.658 465.664 635.292V638.256C465.664 638.89 465.146 639.408 464.513 639.408H425.593C424.96 639.408 424.442 638.89 424.442 638.256V635.292C424.442 634.657 424.96 634.139 425.593 634.139Z" fill="#CDCFD8"/>
<path fill-rule="evenodd" clip-rule="evenodd" d="M425.593 666.407H467.236C467.869 666.407 468.387 666.926 468.387 667.56V670.524C468.387 671.158 467.869 671.677 467.236 671.677H425.593C424.96 671.677 424.442 671.158 424.442 670.524V667.56C424.442 666.926 424.96 666.407 425.593 666.407Z" fill="#CDCFD8"/>
<path fill-rule="evenodd" clip-rule="evenodd" d="M425.593 674.635H566.052C566.685 674.635 567.203 675.154 567.203 675.788V678.752C567.203 679.386 566.685 679.904 566.052 679.904H425.593C424.96 679.904 424.442 679.386 424.442 678.752V675.788C424.442 675.154 424.96 674.635 425.593 674.635Z" fill="#CDCFD8"/>
<path fill-rule="evenodd" clip-rule="evenodd" d="M425.593 683.129H541.081C541.713 683.129 542.232 683.648 542.232 684.282V687.246C542.232 687.88 541.713 688.398 541.081 688.398H425.593C424.96 688.398 424.442 687.88 424.442 687.246V684.282C424.442 683.648 424.96 683.129 425.593 683.129Z" fill="#CDCFD8"/>
<path fill-rule="evenodd" clip-rule="evenodd" d="M425.594 691.355H526.354C526.987 691.355 527.506 691.874 527.506 692.508V695.472C527.506 696.106 526.987 696.625 526.354 696.625H425.594C424.961 696.625 424.442 696.106 424.442 695.472V692.508C424.442 691.874 424.961 691.355 425.594 691.355Z" fill="#CDCFD8"/>
<path fill-rule="evenodd" clip-rule="evenodd" d="M425.593 641.564H476.199C476.832 641.564 477.35 642.083 477.35 642.717V645.681C477.35 646.315 476.832 646.834 476.199 646.834H425.593C424.96 646.834 424.442 646.315 424.442 645.681V642.717C424.442 642.083 424.96 641.564 425.593 641.564Z" fill="#CDCFD8"/>
<path fill-rule="evenodd" clip-rule="evenodd" d="M425.594 650.113H478.813C479.446 650.113 479.964 650.632 479.964 651.266V654.23C479.964 654.864 479.446 655.383 478.813 655.383H425.594C424.96 655.383 424.442 654.864 424.442 654.23V651.266C424.442 650.632 424.96 650.113 425.594 650.113Z" fill="#CDCFD8"/>
<rect x="131" y="823" width="111" height="76" rx="6" fill="#06D7F9"/>
<rect x="254" y="823" width="111" height="76" rx="6" fill="#06D7F9"/>
<rect x="378" y="823" width="111" height="76" rx="6" fill="#06D7F9"/>
<rect x="501" y="823" width="111" height="76" rx="6" fill="#06D7F9"/>
<g filter="url(#filter1_d_5603_3790)">
<rect x="128" y="385" width="120" height="18" rx="9" fill="white" shape-rendering="crispEdges"/>
<path d="M151 394.5C151 397.538 148.538 400 145.5 400C142.462 400 140 397.538 140 394.5C140 391.462 142.462 389 145.5 389C148.538 389 151 391.462 151 394.5Z" fill="#2EC671"/>
<path d="M145.489 396.766C145.214 396.766 144.967 396.711 144.746 396.602C144.526 396.492 144.349 396.342 144.217 396.152C144.084 395.961 144.011 395.744 143.999 395.5H144.561C144.583 395.717 144.681 395.897 144.856 396.039C145.033 396.18 145.244 396.25 145.489 396.25C145.686 396.25 145.861 396.204 146.014 396.112C146.169 396.02 146.29 395.893 146.377 395.732C146.467 395.57 146.511 395.386 146.511 395.181C146.511 394.972 146.465 394.785 146.373 394.621C146.282 394.455 146.157 394.325 145.998 394.23C145.838 394.134 145.656 394.086 145.452 394.084C145.305 394.083 145.154 394.105 144.999 394.152C144.845 394.198 144.717 394.256 144.617 394.328L144.074 394.263L144.364 391.9H146.858V392.416H144.852L144.683 393.831H144.711C144.809 393.753 144.933 393.688 145.081 393.637C145.23 393.585 145.384 393.559 145.545 393.559C145.839 393.559 146.101 393.63 146.331 393.77C146.562 393.909 146.743 394.1 146.874 394.342C147.007 394.584 147.074 394.861 147.074 395.172C147.074 395.478 147.005 395.752 146.867 395.992C146.731 396.231 146.544 396.42 146.305 396.559C146.066 396.697 145.794 396.766 145.489 396.766Z" fill="white"/>
<path fill-rule="evenodd" clip-rule="evenodd" d="M157.932 390H231.068C232.681 390 234 390.787 234 391.75V396.25C234 397.213 232.681 398 231.068 398H157.932C156.319 398 155 397.213 155 396.25V391.75C155 390.787 156.319 390 157.932 390Z" fill="#CDCFD8"/>
</g>
<defs>
<filter id="filter0_d_5603_3790" x="123" y="619" width="107" height="38" filterUnits="userSpaceOnUse" color-interpolation-filters="sRGB">
<feFlood flood-opacity="0" result="BackgroundImageFix"/>
<feColorMatrix in="SourceAlpha" type="matrix" values="0 0 0 0 0 0 0 0 0 0 0 0 0 0 0 0 0 0 127 0" result="hardAlpha"/>
<feOffset dy="4"/>
<feGaussianBlur stdDeviation="5"/>
<feComposite in2="hardAlpha" operator="out"/>
<feColorMatrix type="matrix" values="0 0 0 0 0.917647 0 0 0 0 0.933333 0 0 0 0 0.976471 0 0 0 1 0"/>
<feBlend mode="multiply" in2="BackgroundImageFix" result="effect1_dropShadow_5603_3790"/>
<feBlend mode="normal" in="SourceGraphic" in2="effect1_dropShadow_5603_3790" result="shape"/>
</filter>
<filter id="filter1_d_5603_3790" x="118" y="379" width="140" height="38" filterUnits="userSpaceOnUse" color-interpolation-filters="sRGB">
<feFlood flood-opacity="0" result="BackgroundImageFix"/>
<feColorMatrix in="SourceAlpha" type="matrix" values="0 0 0 0 0 0 0 0 0 0 0 0 0 0 0 0 0 0 127 0" result="hardAlpha"/>
<feOffset dy="4"/>
<feGaussianBlur stdDeviation="5"/>
<feComposite in2="hardAlpha" operator="out"/>
<feColorMatrix type="matrix" values="0 0 0 0 0.917647 0 0 0 0 0.933333 0 0 0 0 0.976471 0 0 0 1 0"/>
<feBlend mode="multiply" in2="BackgroundImageFix" result="effect1_dropShadow_5603_3790"/>
<feBlend mode="normal" in="SourceGraphic" in2="effect1_dropShadow_5603_3790" result="shape"/>
</filter>
<radialGradient id="paint0_radial_5603_3790" cx="0" cy="0" r="1" gradientUnits="userSpaceOnUse" gradientTransform="translate(657 635) rotate(90) scale(42)">
<stop offset="0.43" stop-color="#2ECD71" stop-opacity="0"/>
<stop offset="0.735" stop-color="#2ECD71" stop-opacity="0"/>
<stop offset="1" stop-color="#2ECD71" stop-opacity="0.2"/>
</radialGradient>
<radialGradient id="paint1_radial_5603_3790" cx="0" cy="0" r="1" gradientUnits="userSpaceOnUse" gradientTransform="translate(657.5 634.5) rotate(90) scale(35.5)">
<stop offset="0.43" stop-color="#2ECD71" stop-opacity="0"/>
<stop offset="0.735" stop-color="#2ECD71" stop-opacity="0"/>
<stop offset="1" stop-color="#2ECD71" stop-opacity="0.2"/>
</radialGradient>
<radialGradient id="paint2_radial_5603_3790" cx="0" cy="0" r="1" gradientUnits="userSpaceOnUse" gradientTransform="translate(225.105 634.909) rotate(90) scale(70.8848 112.366)">
<stop offset="0.184898" stop-color="#06D1F3"/>
<stop offset="0.570616" stop-color="#2EC671"/>
<stop offset="1" stop-color="#2EC671"/>
</radialGradient>
<radialGradient id="paint3_radial_5603_3790" cx="0" cy="0" r="1" gradientUnits="userSpaceOnUse" gradientTransform="translate(229.006 443.985) rotate(-89.6702) scale(80.365 69.4945)">
<stop offset="0.15" stop-color="#06D1F3"/>
<stop offset="0.375" stop-color="#06D1F3"/>
<stop offset="0.725496" stop-color="#2EC671"/>
<stop offset="1" stop-color="#2EC671"/>
</radialGradient>
<clipPath id="clip0_5603_3790">
<rect width="35" height="27" fill="white" transform="translate(640 621)"/>
</clipPath>
<clipPath id="clip1_5603_3790">
<rect width="152.31" height="156.528" fill="white" transform="translate(148.951 557.315)"/>
</clipPath>
<clipPath id="clip2_5603_3790">
<rect width="159.599" height="158.411" fill="white" transform="translate(149.206 362.927)"/>
</clipPath>
<clipPath id="clip3_5603_3790">
<rect width="84.4257" height="32.9266" fill="white" transform="translate(78.4177 24.6953)"/>
</clipPath>
</defs>
</svg>
