<svg width="27" height="34" viewBox="0 0 27 34" fill="none" xmlns="http://www.w3.org/2000/svg">
<path d="M7.24001 33.7414C8.36077 31.7809 10.3888 30.6974 13.3241 30.6974C16.2595 30.6974 18.2341 31.8325 19.3549 33.7414H25.3857C23.7312 29.0464 19.4083 25.8477 13.2708 25.8477C7.07991 25.8477 2.81034 29.0464 1.15588 33.7414H7.24001Z" fill="#2ECC71"/>
<path d="M13.3244 0C21.3298 0 26.1864 5.4173 26.1864 12.5372C26.1864 19.6571 21.3298 25.1259 13.3244 25.1259C5.31893 25.1259 0.408936 19.7086 0.408936 12.5372C0.408936 5.4173 5.26556 0 13.3244 0ZM13.3244 20.2762C18.0742 20.2762 20.4759 17.2838 20.4759 12.5372C20.4759 7.84218 18.1276 4.84977 13.3244 4.84977C8.5211 4.84977 6.17284 7.84218 6.17284 12.5372C6.17284 17.2838 8.57447 20.2762 13.3244 20.2762Z" fill="white"/>
</svg>
