<svg width="100" height="100" viewBox="0 0 100 100" fill="none" xmlns="http://www.w3.org/2000/svg">
<g clip-path="url(#clip0_3690_14052)">
<path d="M58.0361 20.1704C59.3301 20.5187 60.5928 20.9498 61.8185 21.4578C63.0566 21.9714 64.2551 22.5634 65.4074 23.2282L68.3707 20.2649C69.0822 19.5533 70.236 19.5533 70.947 20.2649L79.7349 29.0527C80.4464 29.7643 80.4464 30.918 79.7349 31.6291L76.7716 34.5924C77.4364 35.7446 78.0289 36.9436 78.5424 38.1823C79.0505 39.4079 79.4816 40.6707 79.8303 41.9642H84.0157C85.0223 41.9642 85.8378 42.7802 85.8378 43.7863V56.2143C85.8378 57.2208 85.0218 58.0364 84.0157 58.0364H79.8303C79.4821 59.3303 79.0505 60.5931 78.5424 61.8187C78.0289 63.0574 77.4364 64.2559 76.7716 65.4081L79.7349 68.3714C80.4464 69.083 80.4464 70.2367 79.7349 70.9478L70.947 79.7356C70.2355 80.4472 69.0817 80.4472 68.3707 79.7356L65.4069 76.7719C64.2546 77.4367 63.0561 78.0286 61.8175 78.5422C60.5919 79.0502 59.329 79.4814 58.0356 79.8296V84.0165C58.0356 85.023 57.2195 85.8386 56.2135 85.8386H43.7855C42.779 85.8386 41.9634 85.0225 41.9634 84.0165V79.8301C40.6699 79.4819 39.4071 79.0507 38.1815 78.5427C36.9433 78.0291 35.7444 77.4372 34.5921 76.7724L31.6283 79.7361C30.9168 80.4477 29.763 80.4477 29.052 79.7361L20.2641 70.9483C19.5526 70.2367 19.5526 69.083 20.2641 68.3719L23.2274 65.4087C22.5626 64.2564 21.9701 63.0579 21.4566 61.8197C20.9485 60.5941 20.5174 59.3313 20.1686 58.0374H15.9828C14.9762 58.0374 14.1607 57.2213 14.1607 56.2153V43.7873C14.1607 42.7807 14.9767 41.9652 15.9828 41.9652H20.1681C20.5164 40.6712 20.948 39.4084 21.4561 38.1828C21.9696 36.9446 22.5621 35.7456 23.2269 34.5934L20.2636 31.6301C19.5521 30.9186 19.5521 29.7648 20.2636 29.0537L29.0515 20.2659C29.763 19.5543 30.9168 19.5543 31.6278 20.2659L34.5911 23.2292C35.7434 22.5644 36.9418 21.9724 38.18 21.4588C39.4056 20.9508 40.6684 20.5197 41.9624 20.1714V15.9845C41.9624 14.978 42.7785 14.1624 43.7845 14.1624H56.2125C57.219 14.1624 58.0346 14.9785 58.0346 15.9845V20.1714L58.0361 20.1704ZM85.7675 20.4996C85.1308 19.7252 85.2423 18.581 86.0167 17.9443C86.7911 17.3076 87.9353 17.4192 88.572 18.1936C92.2026 22.591 95.097 27.6241 97.0643 33.1025C98.9648 38.3944 100 44.0842 100 50.0003C100 63.8072 94.4041 76.307 85.3559 85.3557C76.3078 94.4038 63.8074 100 50.0005 100C48.3799 100 46.7367 99.9168 45.0774 99.7545C43.3986 99.5902 41.7765 99.351 40.2132 99.0405C39.2267 98.848 38.583 97.8917 38.7755 96.9053C38.9679 95.9189 39.9242 95.2752 40.9106 95.4676C42.4217 95.7676 43.9262 95.9928 45.4186 96.139C46.886 96.2827 48.4136 96.3561 50 96.3561C62.8009 96.3561 74.3902 91.1677 82.7786 82.7788C91.1669 74.39 96.3558 62.8011 96.3558 50.0003C96.3558 44.4847 95.4005 39.2084 93.6478 34.3266C91.8252 29.2517 89.1398 24.5834 85.768 20.4996H85.7675ZM14.4531 79.7603C15.0978 80.5306 14.9958 81.6778 14.2255 82.3226C13.4551 82.9673 12.3079 82.8653 11.6632 82.0949C7.96022 77.6764 5.00598 72.6031 2.99595 67.0714C1.05728 61.7353 0 55.9856 0 49.9998C0 36.1929 5.59643 23.6925 14.6446 14.6443C23.6927 5.5962 36.1931 -0.000732422 50 -0.000732422C51.6945 -0.000732422 53.4035 0.0892164 55.1211 0.264089C56.8326 0.438459 58.52 0.699763 60.1768 1.04247C61.1592 1.24297 61.7938 2.20226 61.5933 3.18466C61.3928 4.16706 60.4336 4.80173 59.4512 4.60123C57.9165 4.28365 56.3527 4.04194 54.7658 3.88013C53.2331 3.72385 51.6437 3.64395 50.001 3.64395C37.2001 3.64395 25.6108 8.83234 17.2224 17.2212C8.83408 25.6096 3.64519 37.1989 3.64519 49.9998C3.64519 55.5701 4.62206 60.9017 6.4135 65.8328C8.27379 70.9528 11.015 75.6563 14.4541 79.7603H14.4531ZM74.8746 6.74945C75.9399 6.74945 76.8032 7.61276 76.8032 8.67807C76.8032 9.74339 75.9399 10.6067 74.8746 10.6067C73.8093 10.6067 72.946 9.74339 72.946 8.67807C72.946 7.61276 73.8093 6.74945 74.8746 6.74945ZM24.9485 89.5672C26.0138 89.5672 26.8771 90.4305 26.8771 91.4958C26.8771 92.5611 26.0138 93.4245 24.9485 93.4245C23.8832 93.4245 23.0199 92.5611 23.0199 91.4958C23.0199 90.4305 23.8832 89.5672 24.9485 89.5672ZM50 33.8552C54.4582 33.8552 58.4944 35.6627 61.416 38.5843C64.3375 41.5059 66.1451 45.542 66.1451 50.0003C66.1451 54.4585 64.3375 58.4947 61.416 61.4162C58.4944 64.3378 54.4582 66.1453 50 66.1453C45.5417 66.1453 41.5056 64.3378 38.584 61.4162C35.6625 58.4947 33.8549 54.4585 33.8549 50.0003C33.8549 45.542 35.6625 41.5059 38.584 38.5843C41.5056 35.6627 45.5417 33.8552 50 33.8552ZM58.8396 41.1607C56.5778 38.8989 53.4522 37.4994 50 37.4994C46.5478 37.4994 43.4227 38.8984 41.1604 41.1607C38.8986 43.4224 37.4991 46.548 37.4991 50.0003C37.4991 53.4525 38.8981 56.5776 41.1604 58.8399C43.4222 61.1017 46.5478 62.5011 50 62.5011C53.4522 62.5011 56.5773 61.1022 58.8396 58.8399C61.1014 56.5781 62.5009 53.4525 62.5009 50.0003C62.5009 46.548 61.1019 43.4229 58.8396 41.1607ZM60.4235 24.8176C58.9813 24.2196 57.4708 23.7412 55.9055 23.396C55.0462 23.2493 54.3919 22.5011 54.3919 21.6001V17.8061H45.6086V21.6001H45.6071C45.6076 22.4397 45.0247 23.195 44.1709 23.3794C42.5785 23.7262 41.0428 24.2106 39.577 24.8176C38.1117 25.4251 36.7117 26.1563 35.3906 26.997C34.6775 27.5201 33.6705 27.4593 33.0263 26.8151L30.3409 24.1297L24.1294 30.3407L26.8143 33.0256L26.8123 33.0276C27.4047 33.619 27.5269 34.5627 27.0565 35.2959C26.1902 36.6446 25.4384 38.0763 24.8168 39.5763C24.2188 41.0185 23.7405 42.529 23.3947 44.0943C23.248 44.9536 22.4998 45.6078 21.5988 45.6078H17.8058V54.3912H21.5988V54.3927C22.4385 54.3922 23.1937 54.9751 23.3782 55.8289C23.7249 57.4213 24.2093 58.957 24.8168 60.4228C25.4244 61.8881 26.1555 63.2881 26.9967 64.6092C27.5198 65.3222 27.459 66.3293 26.8148 66.974L24.1299 69.6589L30.3409 75.8704L33.0263 73.185L33.0283 73.187C33.6198 72.5945 34.5635 72.4724 35.2966 72.9427C36.6454 73.8091 38.077 74.5603 39.577 75.1819C41.0192 75.7799 42.5292 76.2578 44.0945 76.6035C44.9538 76.7503 45.6081 77.4985 45.6081 78.3995V82.1934H54.3914V78.3995H54.3929C54.3924 77.5598 54.9753 76.8045 55.8291 76.6201C57.4215 76.2734 58.9572 75.7895 60.4225 75.1819C61.8878 74.5744 63.2883 73.8432 64.6094 73.0025C65.322 72.4794 66.3295 72.5402 66.9737 73.1845L69.6591 75.8699L75.8701 69.6584L73.1852 66.9735L73.1872 66.9715C72.5947 66.38 72.4726 65.4363 72.943 64.7031C73.8093 63.3544 74.5606 61.9228 75.1827 60.4228C75.7806 58.9806 76.259 57.47 76.6047 55.9047C76.7515 55.0454 77.4997 54.3912 78.4007 54.3912H82.1936V45.6078H78.4007V45.6063C77.561 45.6068 76.8058 45.0239 76.6213 44.1702C76.2746 42.5777 75.7907 41.0426 75.1827 39.5768C74.5751 38.1114 73.844 36.7115 73.0028 35.3899C72.4797 34.6773 72.5405 33.6698 73.1847 33.0256L75.8696 30.3407L69.6581 24.1297L66.9727 26.8151L66.9707 26.8131C66.3792 27.4055 65.4355 27.5276 64.7024 27.0573C63.3536 26.191 61.922 25.4397 60.422 24.8181L60.4235 24.8176Z" fill="#06D7F9"/>
</g>
<defs>
<clipPath id="clip0_3690_14052">
<rect width="100" height="100" fill="white"/>
</clipPath>
</defs>
</svg>
