<svg width="26" height="36" viewBox="0 0 26 36" fill="none" xmlns="http://www.w3.org/2000/svg">
<g clip-path="url(#clip0_3690_14179)">
<path fill-rule="evenodd" clip-rule="evenodd" d="M10.0876 11.2518V31.9224C10.0876 32.6793 10.756 33.0949 11.4892 32.4637L14.9628 29.6719C15.112 29.9639 15.231 30.1952 15.391 30.4939C15.5511 30.7926 15.6744 31.015 15.8214 31.3137C16.3405 32.3739 17.2165 33.863 17.7853 34.9703C17.8719 35.1388 17.9086 35.2264 17.9973 35.3836C18.2201 35.7722 18.4126 35.9586 18.6375 36.0013H18.8711C19.1804 35.9496 19.5697 35.7183 20.1537 35.4151L22.7729 34.0562C23.4023 33.7305 23.8328 33.6564 23.8328 32.9084C23.8328 32.6546 22.9525 31.1228 22.7275 30.6826C22.6345 30.5029 22.6172 30.5007 22.5264 30.33L20.7874 27.0035L25.1932 27.008C25.8356 26.9945 26.0021 26.6868 26.0021 26.1613C26.0021 25.7637 25.4398 25.3302 25.2062 25.0876L11.9369 11.308C11.6795 11.0407 11.2837 10.4814 10.836 10.4814C10.4402 10.4814 10.092 10.8453 10.092 11.2563L10.0876 11.2518ZM11.7855 13.6462V29.9975L15.5186 26.9968L16.4617 28.8498C16.5958 29.1148 16.732 29.3776 16.8726 29.6404C17.0283 29.9324 17.1862 30.2199 17.3311 30.5164C17.9 31.6821 18.5791 32.8006 19.1804 33.9529C19.2561 33.9102 19.3275 33.8698 19.3902 33.8383L21.817 32.5783C21.6158 32.2099 21.393 31.8371 21.2243 31.5091C21.1681 31.3991 21.0967 31.2958 21.0362 31.1835L17.9259 25.2336L22.946 25.2381L11.7812 13.6439L11.7855 13.6462Z" fill="white"/>
<path fill-rule="evenodd" clip-rule="evenodd" d="M0 11.1796C0 11.7007 0.244406 12.0241 0.813243 12.0241H5.07845C6.01281 12.0241 6.01281 10.4766 5.07845 10.4766H0.813243C0.376341 10.4766 0 10.7394 0 11.1796Z" fill="white"/>
<path fill-rule="evenodd" clip-rule="evenodd" d="M16.5872 12.0241H20.8524C21.9489 12.0241 21.9489 10.4766 20.8524 10.4766H16.5872C15.629 10.4766 15.6679 12.0241 16.5872 12.0241Z" fill="white"/>
<path fill-rule="evenodd" clip-rule="evenodd" d="M10.0876 0.845499V5.27475C10.0876 6.24505 11.5779 6.24505 11.5779 5.27475V0.845499C11.5779 0.337887 11.2794 0.0548822 10.9506 0.000976562H10.7149C10.3861 0.0548822 10.0876 0.335641 10.0876 0.845499Z" fill="white"/>
<path fill-rule="evenodd" clip-rule="evenodd" d="M6.63593 14.767C6.22715 14.8905 6.46074 14.6974 5.94165 15.2409L3.0715 18.2394C2.70381 18.8436 3.19695 19.5399 3.81337 19.4253C4.25676 19.3445 5.80322 17.5633 6.21201 17.1388C6.93441 16.3887 7.82552 15.8204 7.35617 15.0725C7.25668 14.913 7.06202 14.767 6.8652 14.7333L6.76787 14.7266C6.66189 14.7333 6.67487 14.7535 6.63593 14.7647V14.767Z" fill="white"/>
<path fill-rule="evenodd" clip-rule="evenodd" d="M17.9415 3.09362C17.6949 3.14977 17.7165 3.06891 17.5197 3.21715L16.6373 4.12906C16.2371 4.54458 15.8867 4.90844 15.4866 5.32397C15.1795 5.64291 14.5674 6.20442 14.3381 6.52337C13.9228 7.10285 14.3943 7.85079 14.9935 7.76544C15.465 7.69806 15.9646 7.00627 16.2631 6.69407L18.5622 4.29976C18.8283 3.92017 18.7331 3.38561 18.3438 3.15651C18.1664 3.05319 18.1188 3.0487 17.9393 3.08913L17.9415 3.09362Z" fill="white"/>
<path fill-rule="evenodd" clip-rule="evenodd" d="M3.65558 3.09365C3.41982 3.13184 3.14298 3.10488 2.9786 3.59228C2.75798 4.24813 3.68153 4.91521 4.34986 5.607C4.75 6.02253 5.10038 6.38639 5.50052 6.80191C5.80981 7.1231 6.28564 7.83061 6.81987 7.76997C7.46874 7.69809 7.70017 6.92545 7.23082 6.41334L4.06004 3.16103C3.97352 3.11387 3.98866 3.11387 3.86105 3.08691L3.65774 3.09365H3.65558Z" fill="white"/>
</g>
<defs>
<clipPath id="clip0_3690_14179">
<rect width="26" height="36" fill="white"/>
</clipPath>
</defs>
</svg>
