<svg width="534" height="705" viewBox="0 0 534 705" fill="none" xmlns="http://www.w3.org/2000/svg">
<rect width="534.004" height="705" rx="30" fill="#949CAF"/>
<rect x="10" y="10" width="514" height="685" rx="20" fill="white"/>
<path d="M267 599C275.182 599 282.909 602.182 288.364 607.636C293.818 613.091 297 620.818 297 629C297 637.182 293.818 644.909 288.364 650.364C282.909 655.818 275.182 659 267 659C258.818 659 251.091 655.818 245.636 650.364C240.636 644.909 237 637.182 237 629C237 620.818 240.636 613.091 245.636 607.636C251.091 602.182 258.818 599 267 599ZM286.091 609.909C281.091 604.909 274.273 602.182 267 602.182C259.727 602.182 252.909 604.909 247.909 609.909C242.909 614.909 240.182 621.727 240.182 629C240.182 636.273 242.909 643.091 247.909 648.091C252.909 653.091 259.727 655.818 267 655.818C274.273 655.818 281.091 653.091 286.091 648.091C291.091 643.091 293.818 636.273 293.818 629C293.818 621.727 291.091 614.909 286.091 609.909Z" fill="#2ECD71"/>
<path d="M282.001 618.546C282.456 618.091 283.365 618.091 283.819 618.546C284.728 619.455 284.728 620.364 283.819 620.819L265.183 639.91C264.728 640.364 263.365 640.364 262.91 639.91L252.001 629.001C251.547 628.546 251.547 627.637 252.001 626.728C252.91 626.273 253.819 626.273 254.274 626.728L263.819 636.728L282.001 618.546Z" fill="#2ECD71"/>
<rect x="202" y="479" width="130" height="20" rx="2" fill="#DDE3EA"/>
<rect x="202" y="509" width="44.2385" height="5" rx="2" fill="#06D7F9"/>
<rect x="300" y="509" width="20" height="5" rx="2" fill="#DDE3EA"/>
<rect x="300" y="524" width="15" height="5" rx="2" fill="#DDE3EA"/>
<rect x="300" y="539" width="15" height="5" rx="2" fill="#DDE3EA"/>
<rect x="202" y="524" width="28" height="5" rx="2" fill="#06D7F9"/>
<rect x="202" y="539" width="34" height="5" rx="2" fill="#06D7F9"/>
<rect x="202" y="67" width="63" height="22" rx="5" fill="#06D7F9"/>
<rect x="374" y="67" width="130" height="90" rx="5" fill="#06D7F9"/>
<g clip-path="url(#clip0_3922_218)">
<path d="M426.827 96H451.254C452.232 96 453.209 96.4071 453.941 97.1399C454.593 97.7913 455 98.7684 455 99.827V124.254C455 125.232 454.593 126.209 453.941 126.941C453.209 127.593 452.232 128 451.254 128H426.827C425.768 128 424.791 127.593 424.14 126.941C423.407 126.209 423 125.232 423 124.254V99.827C423 98.7684 423.407 97.7913 424.14 97.1399C424.791 96.4071 425.768 96 426.827 96ZM424.384 119.288L430.573 113.099C431.794 111.878 433.83 111.878 434.969 113.099L440.506 118.636C440.995 119.043 442.135 119.043 442.542 118.555L445.31 115.786C446.532 114.646 448.486 114.646 449.707 115.786L453.697 119.776V99.827C453.697 99.1756 453.372 98.5242 452.964 98.117C452.476 97.6285 451.906 97.3842 451.254 97.3842H426.827C426.176 97.3842 425.524 97.6285 425.117 98.117C424.628 98.5242 424.384 99.1756 424.384 99.827V119.288ZM444.17 102.595C446.369 102.595 448.16 104.387 448.16 106.585C448.16 108.865 446.369 110.656 444.17 110.656C441.891 110.656 440.099 108.865 440.099 106.585C440.099 104.387 441.891 102.595 444.17 102.595Z" fill="white"/>
</g>
<rect x="374" y="169" width="130" height="90" rx="5" fill="#06D7F9"/>
<g clip-path="url(#clip1_3922_218)">
<path d="M426.827 198H451.254C452.232 198 453.209 198.407 453.941 199.14C454.593 199.791 455 200.768 455 201.827V226.254C455 227.232 454.593 228.209 453.941 228.941C453.209 229.593 452.232 230 451.254 230H426.827C425.768 230 424.791 229.593 424.14 228.941C423.407 228.209 423 227.232 423 226.254V201.827C423 200.768 423.407 199.791 424.14 199.14C424.791 198.407 425.768 198 426.827 198ZM424.384 221.288L430.573 215.099C431.794 213.878 433.83 213.878 434.969 215.099L440.506 220.636C440.995 221.043 442.135 221.043 442.542 220.555L445.31 217.786C446.532 216.646 448.486 216.646 449.707 217.786L453.697 221.776V201.827C453.697 201.176 453.372 200.524 452.964 200.117C452.476 199.628 451.906 199.384 451.254 199.384H426.827C426.176 199.384 425.524 199.628 425.117 200.117C424.628 200.524 424.384 201.176 424.384 201.827V221.288ZM444.17 204.595C446.369 204.595 448.16 206.387 448.16 208.585C448.16 210.865 446.369 212.656 444.17 212.656C441.891 212.656 440.099 210.865 440.099 208.585C440.099 206.387 441.891 204.595 444.17 204.595Z" fill="white"/>
</g>
<rect x="374" y="271" width="130" height="90" rx="5" fill="#06D7F9"/>
<g clip-path="url(#clip2_3922_218)">
<path d="M426.827 300H451.254C452.232 300 453.209 300.407 453.941 301.14C454.593 301.791 455 302.768 455 303.827V328.254C455 329.232 454.593 330.209 453.941 330.941C453.209 331.593 452.232 332 451.254 332H426.827C425.768 332 424.791 331.593 424.14 330.941C423.407 330.209 423 329.232 423 328.254V303.827C423 302.768 423.407 301.791 424.14 301.14C424.791 300.407 425.768 300 426.827 300ZM424.384 323.288L430.573 317.099C431.794 315.878 433.83 315.878 434.969 317.099L440.506 322.636C440.995 323.043 442.135 323.043 442.542 322.555L445.31 319.786C446.532 318.646 448.486 318.646 449.707 319.786L453.697 323.776V303.827C453.697 303.176 453.372 302.524 452.964 302.117C452.476 301.628 451.906 301.384 451.254 301.384H426.827C426.176 301.384 425.524 301.628 425.117 302.117C424.628 302.524 424.384 303.176 424.384 303.827V323.288ZM444.17 306.595C446.369 306.595 448.16 308.387 448.16 310.585C448.16 312.865 446.369 314.656 444.17 314.656C441.891 314.656 440.099 312.865 440.099 310.585C440.099 308.387 441.891 306.595 444.17 306.595Z" fill="white"/>
</g>
<rect x="374" y="373" width="130" height="90" rx="5" fill="#06D7F9"/>
<g clip-path="url(#clip3_3922_218)">
<path d="M426.827 402H451.254C452.232 402 453.209 402.407 453.941 403.14C454.593 403.791 455 404.768 455 405.827V430.254C455 431.232 454.593 432.209 453.941 432.941C453.209 433.593 452.232 434 451.254 434H426.827C425.768 434 424.791 433.593 424.14 432.941C423.407 432.209 423 431.232 423 430.254V405.827C423 404.768 423.407 403.791 424.14 403.14C424.791 402.407 425.768 402 426.827 402ZM424.384 425.288L430.573 419.099C431.794 417.878 433.83 417.878 434.969 419.099L440.506 424.636C440.995 425.043 442.135 425.043 442.542 424.555L445.31 421.786C446.532 420.646 448.486 420.646 449.707 421.786L453.697 425.776V405.827C453.697 405.176 453.372 404.524 452.964 404.117C452.476 403.628 451.906 403.384 451.254 403.384H426.827C426.176 403.384 425.524 403.628 425.117 404.117C424.628 404.524 424.384 405.176 424.384 405.827V425.288ZM444.17 408.595C446.369 408.595 448.16 410.387 448.16 412.585C448.16 414.865 446.369 416.656 444.17 416.656C441.891 416.656 440.099 414.865 440.099 412.585C440.099 410.387 441.891 408.595 444.17 408.595Z" fill="white"/>
</g>
<rect x="202" y="99" width="130" height="5" rx="2" fill="#CDCFD8"/>
<rect x="202" y="109" width="130" height="5" rx="2" fill="#CDCFD8"/>
<rect x="202" y="119" width="130" height="5" rx="2" fill="#CDCFD8"/>
<rect x="202" y="129" width="130" height="5" rx="2" fill="#CDCFD8"/>
<rect x="202" y="139" width="130" height="5" rx="2" fill="#CDCFD8"/>
<rect x="202" y="149" width="71" height="5" rx="2" fill="#CDCFD8"/>
<rect x="202" y="294" width="130" height="5" rx="2" fill="#CDCFD8"/>
<rect x="202" y="304" width="130" height="5" rx="2" fill="#CDCFD8"/>
<rect x="202" y="314" width="130" height="5" rx="2" fill="#CDCFD8"/>
<rect x="202" y="324" width="130" height="5" rx="2" fill="#CDCFD8"/>
<rect x="202" y="334" width="130" height="5" rx="2" fill="#CDCFD8"/>
<rect x="202" y="344" width="71" height="5" rx="2" fill="#CDCFD8"/>
<rect x="202" y="279" width="45" height="5" rx="2" fill="#949CAF"/>
<rect x="202" y="174" width="45" height="5" rx="2" fill="#CDCFD8"/>
<rect x="202" y="187" width="30" height="5" rx="2" fill="#CDCFD8"/>
<rect x="202" y="200" width="37" height="5" rx="2" fill="#CDCFD8"/>
<rect x="202" y="213" width="25" height="5" rx="2" fill="#CDCFD8"/>
<rect x="202" y="226" width="17" height="5" rx="2" fill="#CDCFD8"/>
<rect x="202" y="239" width="24.5769" height="5" rx="2" fill="#CDCFD8"/>
<rect x="267" y="174" width="65" height="5" rx="2" fill="#CDCFD8"/>
<rect x="267" y="187" width="43.3333" height="5" rx="2" fill="#CDCFD8"/>
<rect x="267" y="200" width="53.4444" height="5" rx="2" fill="#CDCFD8"/>
<rect x="267" y="213" width="36.1111" height="5" rx="2" fill="#CDCFD8"/>
<rect x="267" y="226" width="24.5556" height="5" rx="2" fill="#CDCFD8"/>
<rect x="267" y="239" width="35.5" height="5" rx="2" fill="#CDCFD8"/>
<rect x="215" y="379" width="81" height="5" rx="2" fill="#CDCFD8"/>
<rect x="202" y="379" width="5" height="5" rx="2" fill="#2EC671"/>
<rect x="202" y="392" width="5" height="5" rx="2" fill="#2EC671"/>
<rect x="202" y="405" width="5" height="5" rx="2" fill="#2EC671"/>
<rect x="202" y="418" width="5" height="5" rx="2" fill="#2EC671"/>
<rect x="202" y="431" width="5" height="5" rx="2" fill="#2EC671"/>
<rect x="202" y="444" width="5" height="5" rx="2" fill="#2EC671"/>
<rect x="215" y="392" width="54" height="5" rx="2" fill="#CDCFD8"/>
<rect x="215" y="405" width="66.6" height="5" rx="2" fill="#CDCFD8"/>
<rect x="215" y="418" width="45" height="5" rx="2" fill="#CDCFD8"/>
<rect x="215" y="431" width="30.6" height="5" rx="2" fill="#CDCFD8"/>
<rect x="215" y="444" width="44.2385" height="5" rx="2" fill="#CDCFD8"/>
<path d="M72.8518 643.67H76.3928L71.9075 658.769H64.7075L60.2812 643.67H63.8222L67.8944 657.902H68.7206L72.8518 643.67Z" fill="#06D1F3"/>
<path d="M56.623 643.67H60.105L56.623 654.025H54.8525V658.769H51.3705V654.025H49.423L46 643.67H49.541L52.6099 653.158H53.4951L56.623 643.67Z" fill="#06D1F3"/>
<path d="M92.8596 658.827H89.2006C88.4924 657.612 87.3121 656.918 85.5416 656.918C83.7711 656.918 82.5317 657.612 81.8235 658.827H78.1055C79.1088 655.934 81.7645 653.91 85.4826 653.91C89.2596 653.968 91.8564 655.934 92.8596 658.827Z" fill="#06D1F3"/>
<path d="M102.479 643.496C97.5804 643.496 94.6296 646.851 94.6296 651.248C94.6296 655.645 97.5804 659 102.479 659C107.377 659 110.328 655.645 110.328 651.248C110.328 646.851 107.377 643.496 102.479 643.496ZM102.479 655.992C99.587 655.992 98.1116 654.141 98.1116 651.19C98.1116 648.298 99.587 646.446 102.479 646.446C105.371 646.446 106.846 648.298 106.846 651.19C106.846 654.141 105.371 655.992 102.479 655.992ZM85.482 638C80.5836 638 77.6328 641.355 77.6328 645.752C77.6328 650.149 80.5836 653.504 85.482 653.504C90.3804 653.504 93.3312 650.149 93.3312 645.752C93.3312 641.355 90.3804 638 85.482 638ZM85.482 650.496C82.5902 650.496 81.1148 648.645 81.1148 645.694C81.1148 642.802 82.5902 640.95 85.482 640.95C88.3738 640.95 89.8493 642.802 89.8493 645.694C89.8493 648.645 88.3738 650.496 85.482 650.496Z" fill="#06D1F3"/>
<path d="M117.999 643.149L115.226 651.364H111.803L114.458 643.149H117.999Z" fill="#06D1F3"/>
<path fill-rule="evenodd" clip-rule="evenodd" d="M47.8205 200H142.18C143.181 200 144 200.591 144 201.313V204.687C144 205.409 143.181 206 142.18 206H47.8205C46.8193 206 46 205.409 46 204.687V201.313C46 200.591 46.8193 200 47.8205 200Z" fill="#CDCFD8"/>
<path fill-rule="evenodd" clip-rule="evenodd" d="M47.8236 213H128.177C129.179 213 130 213.591 130 214.313V217.687C130 218.409 129.179 219 128.177 219H47.8236C46.8209 219 46 218.409 46 217.687V214.313C46 213.591 46.8209 213 47.8236 213Z" fill="#CDCFD8"/>
<path fill-rule="evenodd" clip-rule="evenodd" d="M47.8245 226H103.176C104.179 226 105 226.591 105 227.313V230.687C105 231.409 104.179 232 103.176 232H47.8245C46.821 232 46 231.409 46 230.687V227.313C46 226.591 46.8211 226 47.8245 226Z" fill="#CDCFD8"/>
<path fill-rule="evenodd" clip-rule="evenodd" d="M47.8154 239H80.1847C81.1834 239 82 239.591 82 240.313V243.688C82 244.41 81.1834 245 80.1847 245H47.8154C46.8168 245 46 244.41 46 243.688V240.313C46 239.591 46.8168 239 47.8154 239Z" fill="#CDCFD8"/>
<path fill-rule="evenodd" clip-rule="evenodd" d="M47.8154 252H80.1847C81.1834 252 82 252.591 82 253.313V256.688C82 257.41 81.1834 258 80.1847 258H47.8154C46.8168 258 46 257.41 46 256.688V253.313C46 252.591 46.8168 252 47.8154 252Z" fill="#CDCFD8"/>
<g clip-path="url(#clip4_3922_218)">
<path d="M61.9582 160.137C61.8528 159.813 61.5655 159.584 61.2268 159.553L56.6081 159.134L54.7827 154.86C54.648 154.546 54.3413 154.344 54 154.344C53.6587 154.344 53.3519 154.546 53.218 154.86L51.3927 159.134L46.7732 159.553C46.4346 159.584 46.1478 159.814 46.0419 160.137C45.9365 160.461 46.0338 160.817 46.2899 161.041L49.7813 164.103L48.7519 168.637C48.6766 168.97 48.806 169.315 49.0826 169.515C49.2313 169.623 49.406 169.677 49.5812 169.677C49.7319 169.677 49.8826 169.637 50.0173 169.556L54 167.175L57.982 169.556C58.2741 169.731 58.6415 169.715 58.9175 169.515C59.1941 169.315 59.3235 168.97 59.2482 168.637L58.2187 164.103L61.7101 161.041C61.9661 160.817 62.0635 160.462 61.9582 160.137Z" fill="#2EC671"/>
</g>
<g clip-path="url(#clip5_3922_218)">
<path d="M81.9582 160.137C81.8528 159.813 81.5655 159.584 81.2268 159.553L76.6081 159.134L74.7827 154.86C74.648 154.546 74.3413 154.344 74 154.344C73.6587 154.344 73.3519 154.546 73.218 154.86L71.3927 159.134L66.7732 159.553C66.4346 159.584 66.1478 159.814 66.0419 160.137C65.9365 160.461 66.0338 160.817 66.2899 161.041L69.7813 164.103L68.7519 168.637C68.6766 168.97 68.806 169.315 69.0826 169.515C69.2313 169.623 69.406 169.677 69.5812 169.677C69.7319 169.677 69.8826 169.637 70.0173 169.556L74 167.175L77.982 169.556C78.2741 169.731 78.6415 169.715 78.9175 169.515C79.1941 169.315 79.3235 168.97 79.2482 168.637L78.2187 164.103L81.7101 161.041C81.9661 160.817 82.0635 160.462 81.9582 160.137Z" fill="#2EC671"/>
</g>
<g clip-path="url(#clip6_3922_218)">
<path d="M101.958 160.137C101.853 159.813 101.565 159.584 101.227 159.553L96.6081 159.134L94.7827 154.86C94.648 154.546 94.3413 154.344 94 154.344C93.6587 154.344 93.3519 154.546 93.218 154.86L91.3927 159.134L86.7732 159.553C86.4346 159.584 86.1478 159.814 86.0419 160.137C85.9365 160.461 86.0338 160.817 86.2899 161.041L89.7813 164.103L88.7519 168.637C88.6766 168.97 88.806 169.315 89.0826 169.515C89.2313 169.623 89.406 169.677 89.5812 169.677C89.7319 169.677 89.8826 169.637 90.0173 169.556L94 167.175L97.982 169.556C98.2741 169.731 98.6415 169.715 98.9175 169.515C99.1941 169.315 99.3235 168.97 99.2482 168.637L98.2187 164.103L101.71 161.041C101.966 160.817 102.064 160.462 101.958 160.137Z" fill="#2EC671"/>
</g>
<g clip-path="url(#clip7_3922_218)">
<path d="M121.958 160.137C121.853 159.813 121.565 159.584 121.227 159.553L116.608 159.134L114.783 154.86C114.648 154.546 114.341 154.344 114 154.344C113.659 154.344 113.352 154.546 113.218 154.86L111.393 159.134L106.773 159.553C106.435 159.584 106.148 159.814 106.042 160.137C105.937 160.461 106.034 160.817 106.29 161.041L109.781 164.103L108.752 168.637C108.677 168.97 108.806 169.315 109.083 169.515C109.231 169.623 109.406 169.677 109.581 169.677C109.732 169.677 109.883 169.637 110.017 169.556L114 167.175L117.982 169.556C118.274 169.731 118.641 169.715 118.917 169.515C119.194 169.315 119.323 168.97 119.248 168.637L118.219 164.103L121.71 161.041C121.966 160.817 122.064 160.462 121.958 160.137Z" fill="#2EC671"/>
</g>
<g clip-path="url(#clip8_3922_218)">
<path d="M141.958 160.137C141.853 159.813 141.565 159.584 141.227 159.553L136.608 159.134L134.783 154.86C134.648 154.546 134.341 154.344 134 154.344C133.659 154.344 133.352 154.546 133.218 154.86L131.393 159.134L126.773 159.553C126.435 159.584 126.148 159.814 126.042 160.137C125.937 160.461 126.034 160.817 126.29 161.041L129.781 164.103L128.752 168.637C128.677 168.97 128.806 169.315 129.083 169.515C129.231 169.623 129.406 169.677 129.581 169.677C129.732 169.677 129.883 169.637 130.017 169.556L134 167.175L137.982 169.556C138.274 169.731 138.641 169.715 138.917 169.515C139.194 169.315 139.323 168.97 139.248 168.637L138.219 164.103L141.71 161.041C141.966 160.817 142.064 160.462 141.958 160.137Z" fill="#DDE3EA"/>
<mask id="mask0_3922_218" style="mask-type:alpha" maskUnits="userSpaceOnUse" x="126" y="154" width="16" height="16">
<path d="M141.958 160.137C141.853 159.813 141.565 159.584 141.227 159.553L136.608 159.134L134.783 154.86C134.648 154.546 134.341 154.344 134 154.344C133.659 154.344 133.352 154.546 133.218 154.86L131.393 159.134L126.773 159.553C126.435 159.584 126.148 159.814 126.042 160.137C125.937 160.461 126.034 160.817 126.29 161.041L129.781 164.103L128.752 168.637C128.677 168.97 128.806 169.315 129.083 169.515C129.231 169.623 129.406 169.677 129.581 169.677C129.732 169.677 129.883 169.637 130.017 169.556L134 167.175L137.982 169.556C138.274 169.731 138.641 169.715 138.917 169.515C139.194 169.315 139.323 168.97 139.248 168.637L138.219 164.103L141.71 161.041C141.966 160.817 142.064 160.462 141.958 160.137Z" fill="#2EC671"/>
</mask>
<g mask="url(#mask0_3922_218)">
<rect x="125" y="154" width="13" height="17" fill="#2EC671"/>
</g>
</g>
<path fill-rule="evenodd" clip-rule="evenodd" d="M47.8076 131H84.1923C85.1864 131 86 132.083 86 133.407V139.593C86 140.917 85.1864 142 84.1923 142H47.8076C46.8135 142 46 140.917 46 139.593V133.407C46 132.083 46.8135 131 47.8076 131Z" fill="#949CAF"/>
<circle cx="78.5" cy="78.5" r="32.5" fill="#06D7F9"/>
<rect x="180" y="10" width="2" height="683" fill="#DDE3EA"/>
<rect x="352" y="10" width="2" height="683" fill="#DDE3EA"/>
<defs>
<clipPath id="clip0_3922_218">
<rect width="32" height="32" fill="white" transform="translate(423 96)"/>
</clipPath>
<clipPath id="clip1_3922_218">
<rect width="32" height="32" fill="white" transform="translate(423 198)"/>
</clipPath>
<clipPath id="clip2_3922_218">
<rect width="32" height="32" fill="white" transform="translate(423 300)"/>
</clipPath>
<clipPath id="clip3_3922_218">
<rect width="32" height="32" fill="white" transform="translate(423 402)"/>
</clipPath>
<clipPath id="clip4_3922_218">
<rect width="16" height="16" fill="white" transform="translate(46 154)"/>
</clipPath>
<clipPath id="clip5_3922_218">
<rect width="16" height="16" fill="white" transform="translate(66 154)"/>
</clipPath>
<clipPath id="clip6_3922_218">
<rect width="16" height="16" fill="white" transform="translate(86 154)"/>
</clipPath>
<clipPath id="clip7_3922_218">
<rect width="16" height="16" fill="white" transform="translate(106 154)"/>
</clipPath>
<clipPath id="clip8_3922_218">
<rect width="16" height="16" fill="white" transform="translate(126 154)"/>
</clipPath>
</defs>
</svg>
