<svg width="71" height="18" viewBox="0 0 71 18" fill="none" xmlns="http://www.w3.org/2000/svg">
<g clip-path="url(#clip0_3922_127)">
<path d="M69.6398 10H1.36015C0.544061 10 0 9.57895 0 9.05263C0 8.42105 0.544061 8 1.36015 8H69.6398C70.3199 8 71 8.42105 71 9.05263C71 9.57895 70.3199 10 69.6398 10Z" fill="#343B45"/>
<path d="M70.0343 9.89529C69.7531 9.89529 69.5655 9.89529 69.378 9.70681L61.3145 1.60209C60.9394 1.22513 60.9394 0.659686 61.3145 0.282723C61.6895 -0.0942408 62.2521 -0.0942408 62.6272 0.282723L70.6907 8.38743C71.0657 8.7644 71.0657 9.32984 70.6907 9.70681C70.5031 9.89529 70.2219 9.89529 70.0343 9.89529Z" fill="#343B45"/>
<path d="M62.0646 17.9998C61.7833 17.9998 61.5958 17.9055 61.4082 17.7171C61.0332 17.3401 61.0332 16.7746 61.4082 16.3977L69.378 8.38721C69.753 8.01025 70.3156 8.01025 70.6907 8.38721C71.0657 8.76418 71.0657 9.32962 70.6907 9.70659L62.7209 17.7171C62.5334 17.9055 62.2521 17.9998 62.0646 17.9998Z" fill="#343B45"/>
</g>
<defs>
<clipPath id="clip0_3922_127">
<rect width="71" height="18" fill="white"/>
</clipPath>
</defs>
</svg>
