<svg width="588" height="690" viewBox="0 0 588 690" fill="none" xmlns="http://www.w3.org/2000/svg">
<g clip-path="url(#clip0_5929_40)">
<rect width="497" height="690" rx="30" fill="white"/>
<g clip-path="url(#clip1_5929_40)">
<path d="M431.29 301.452C430.774 301.194 430.774 300.677 431.032 300.419C432.065 298.871 433.097 297.581 434.387 296.806C434.903 296.29 437.484 295.516 438.258 295.258V293.968C437.226 293.194 436.452 291.903 436.452 290.613V286.226C436.452 283.903 438 282.613 439.806 281.839C441.355 281.581 442.903 281.581 444.194 281.839C446 282.613 447.548 283.903 447.548 286.226V290.613C447.548 291.903 447.032 293.194 445.742 293.968V295.258C446.516 295.516 449.097 296.29 449.613 296.806C451.161 297.581 452.194 298.871 452.968 300.419C453.226 300.677 453.226 301.194 452.968 301.452C447.032 307.645 437.226 307.645 431.29 301.452ZM442.129 271C453.226 271 462 280.032 462 291.129C462 302.226 453.226 311 442.129 311C431.032 311 422 302.226 422 291.129C422 280.032 431.032 271 442.129 271ZM442.129 272.806C432.065 272.806 423.806 281.065 423.806 291.129C423.806 301.194 432.065 309.194 442.129 309.194C452.194 309.194 460.194 301.194 460.194 291.129C460.194 281.065 452.194 272.806 442.129 272.806ZM451.161 300.677C450.387 299.645 449.613 298.871 448.839 298.355L444.71 296.806C444.194 296.806 443.935 296.29 443.935 296.032V293.71C443.935 293.194 444.194 292.935 444.452 292.935C445.226 292.419 445.742 291.387 445.742 290.613V286.226C445.742 284.935 444.71 284.161 443.677 283.645C442.645 283.387 441.355 283.387 440.581 283.645C439.29 284.161 438.258 284.935 438.258 286.226V290.613C438.258 291.387 438.774 292.161 439.548 292.677C439.806 292.935 440.065 293.194 440.065 293.71V296.032C440.065 296.29 439.806 296.548 439.548 296.806L435.419 298.355C434.387 298.871 433.613 299.645 433.097 300.677C438.258 305.581 446 305.323 451.161 300.677ZM429.484 295.258C429.742 295.774 429.484 296.29 428.968 296.29C428.452 296.548 427.935 296.29 427.677 295.774C427.161 294.226 426.903 292.677 426.903 291.129C426.903 282.613 433.613 275.903 442.129 275.903C450.387 275.903 457.097 282.613 457.097 291.129C457.097 292.677 456.839 294.226 456.323 295.774C456.065 296.29 455.548 296.548 455.29 296.29C454.774 296.29 454.516 295.774 454.516 295.258C455.032 293.968 455.29 292.419 455.29 291.129C455.29 283.645 449.355 277.71 442.129 277.71C434.645 277.71 428.71 283.645 428.71 291.129C428.71 292.419 428.968 293.71 429.484 295.258Z" fill="#2ECD71"/>
</g>
<path fill-rule="evenodd" clip-rule="evenodd" d="M83 184H360.451C368.109 184 374 177.545 374 169.916V100.084C374 92.4551 368.109 86 360.451 86H97.1377C89.4798 86 83 92.4551 83 100.084V184Z" fill="#06D7F9"/>
<path d="M111.352 101.364H113.733L116.58 106.511H116.693L119.54 101.364H121.92L117.688 108.659V113H115.585V108.659L111.352 101.364ZM125.504 113.17C124.652 113.17 123.913 112.983 123.288 112.608C122.663 112.233 122.179 111.708 121.834 111.034C121.493 110.36 121.322 109.572 121.322 108.67C121.322 107.769 121.493 106.979 121.834 106.301C122.179 105.623 122.663 105.097 123.288 104.722C123.913 104.347 124.652 104.159 125.504 104.159C126.357 104.159 127.095 104.347 127.72 104.722C128.345 105.097 128.828 105.623 129.169 106.301C129.514 106.979 129.686 107.769 129.686 108.67C129.686 109.572 129.514 110.36 129.169 111.034C128.828 111.708 128.345 112.233 127.72 112.608C127.095 112.983 126.357 113.17 125.504 113.17ZM125.516 111.523C125.978 111.523 126.364 111.396 126.675 111.142C126.985 110.884 127.216 110.54 127.368 110.108C127.523 109.676 127.601 109.195 127.601 108.665C127.601 108.131 127.523 107.648 127.368 107.216C127.216 106.78 126.985 106.434 126.675 106.176C126.364 105.919 125.978 105.79 125.516 105.79C125.042 105.79 124.648 105.919 124.334 106.176C124.023 106.434 123.79 106.78 123.635 107.216C123.483 107.648 123.408 108.131 123.408 108.665C123.408 109.195 123.483 109.676 123.635 110.108C123.79 110.54 124.023 110.884 124.334 111.142C124.648 111.396 125.042 111.523 125.516 111.523ZM136.994 109.33V104.273H139.051V113H137.057V111.449H136.966C136.769 111.937 136.445 112.337 135.994 112.648C135.547 112.958 134.996 113.114 134.341 113.114C133.769 113.114 133.263 112.987 132.824 112.733C132.388 112.475 132.047 112.102 131.801 111.614C131.555 111.121 131.432 110.527 131.432 109.83V104.273H133.489V109.511C133.489 110.064 133.64 110.504 133.943 110.83C134.246 111.155 134.644 111.318 135.136 111.318C135.439 111.318 135.733 111.244 136.017 111.097C136.301 110.949 136.534 110.729 136.716 110.438C136.902 110.142 136.994 109.773 136.994 109.33Z" fill="white"/>
<path d="M112.973 126.677C111.794 126.677 111.205 126.088 111.205 124.91C111.205 123.731 111.794 122.553 112.973 122.553H344.539C345.128 122.553 346.306 123.731 346.306 124.91C346.306 126.088 345.128 126.677 344.539 126.677H112.973Z" fill="white"/>
<path d="M112.973 139.639C111.794 139.639 111.205 139.05 111.205 137.871C111.205 136.693 111.794 135.515 112.973 135.515H344.539C345.128 135.515 346.306 136.693 346.306 137.871C346.306 139.05 345.128 139.639 344.539 139.639H112.973Z" fill="white"/>
<path d="M112.973 152.602C111.794 152.602 111.205 151.424 111.205 150.245C111.205 149.656 111.794 148.478 112.973 148.478H344.539C345.128 148.478 346.306 149.656 346.306 150.245C346.306 151.424 345.128 152.602 344.539 152.602H112.973Z" fill="white"/>
<path d="M112.973 165.563C111.794 165.563 111.205 164.974 111.205 163.796C111.205 162.618 111.794 162.028 112.973 162.028H237.889C239.067 162.028 239.656 162.618 239.656 163.796C239.656 164.974 239.067 165.563 237.889 165.563H112.973Z" fill="white"/>
<path fill-rule="evenodd" clip-rule="evenodd" d="M414 311H137.138C129.48 311 123 304.506 123 296.831V227.169C123 219.494 129.48 213 137.138 213H399.862C407.52 213 414 219.494 414 227.169V311Z" fill="#2ECD71"/>
<path d="M330.642 240H328.392L332.489 228.364H335.091L339.193 240H336.943L333.835 230.75H333.744L330.642 240ZM330.716 235.438H336.852V237.131H330.716V235.438ZM346.197 236.33V231.273H348.254V240H346.26V238.449H346.169C345.972 238.937 345.648 239.337 345.197 239.648C344.75 239.958 344.199 240.114 343.544 240.114C342.972 240.114 342.466 239.987 342.027 239.733C341.591 239.475 341.25 239.102 341.004 238.614C340.758 238.121 340.635 237.527 340.635 236.83V231.273H342.692V236.511C342.692 237.064 342.843 237.504 343.146 237.83C343.449 238.155 343.847 238.318 344.339 238.318C344.643 238.318 344.936 238.244 345.22 238.097C345.504 237.949 345.737 237.729 345.919 237.438C346.105 237.142 346.197 236.773 346.197 236.33ZM353.608 240.153C352.922 240.153 352.309 239.977 351.767 239.625C351.225 239.273 350.797 238.761 350.483 238.091C350.169 237.42 350.011 236.606 350.011 235.648C350.011 234.678 350.17 233.86 350.489 233.193C350.811 232.523 351.244 232.017 351.79 231.676C352.335 231.331 352.943 231.159 353.614 231.159C354.125 231.159 354.545 231.246 354.875 231.42C355.205 231.591 355.466 231.797 355.659 232.04C355.852 232.278 356.002 232.504 356.108 232.716H356.193V228.364H358.256V240H356.233V238.625H356.108C356.002 238.837 355.848 239.062 355.648 239.301C355.447 239.536 355.182 239.737 354.852 239.903C354.523 240.07 354.108 240.153 353.608 240.153ZM354.182 238.466C354.617 238.466 354.989 238.348 355.295 238.114C355.602 237.875 355.835 237.544 355.994 237.119C356.153 236.695 356.233 236.201 356.233 235.636C356.233 235.072 356.153 234.581 355.994 234.165C355.839 233.748 355.608 233.424 355.301 233.193C354.998 232.962 354.625 232.847 354.182 232.847C353.723 232.847 353.341 232.966 353.034 233.205C352.727 233.443 352.496 233.773 352.341 234.193C352.186 234.614 352.108 235.095 352.108 235.636C352.108 236.182 352.186 236.669 352.341 237.097C352.5 237.521 352.733 237.856 353.04 238.102C353.35 238.345 353.731 238.466 354.182 238.466ZM360.447 240V231.273H362.504V240H360.447ZM361.482 230.034C361.156 230.034 360.875 229.926 360.641 229.71C360.406 229.491 360.288 229.227 360.288 228.92C360.288 228.61 360.406 228.347 360.641 228.131C360.875 227.911 361.156 227.801 361.482 227.801C361.811 227.801 362.091 227.911 362.322 228.131C362.557 228.347 362.675 228.61 362.675 228.92C362.675 229.227 362.557 229.491 362.322 229.71C362.091 229.926 361.811 230.034 361.482 230.034ZM368.977 231.273V232.864H363.96V231.273H368.977ZM365.199 229.182H367.256V237.375C367.256 237.652 367.297 237.864 367.381 238.011C367.468 238.155 367.581 238.254 367.722 238.307C367.862 238.36 368.017 238.386 368.188 238.386C368.316 238.386 368.434 238.377 368.54 238.358C368.65 238.339 368.733 238.322 368.79 238.307L369.136 239.915C369.027 239.953 368.869 239.994 368.665 240.04C368.464 240.085 368.218 240.112 367.926 240.119C367.411 240.134 366.947 240.057 366.534 239.886C366.121 239.712 365.794 239.443 365.551 239.08C365.313 238.716 365.195 238.261 365.199 237.716V229.182ZM374.411 240.17C373.558 240.17 372.82 239.983 372.195 239.608C371.57 239.233 371.085 238.708 370.74 238.034C370.399 237.36 370.229 236.572 370.229 235.67C370.229 234.769 370.399 233.979 370.74 233.301C371.085 232.623 371.57 232.097 372.195 231.722C372.82 231.347 373.558 231.159 374.411 231.159C375.263 231.159 376.001 231.347 376.626 231.722C377.251 232.097 377.734 232.623 378.075 233.301C378.42 233.979 378.592 234.769 378.592 235.67C378.592 236.572 378.42 237.36 378.075 238.034C377.734 238.708 377.251 239.233 376.626 239.608C376.001 239.983 375.263 240.17 374.411 240.17ZM374.422 238.523C374.884 238.523 375.27 238.396 375.581 238.142C375.892 237.884 376.123 237.54 376.274 237.108C376.429 236.676 376.507 236.195 376.507 235.665C376.507 235.131 376.429 234.648 376.274 234.216C376.123 233.78 375.892 233.434 375.581 233.176C375.27 232.919 374.884 232.79 374.422 232.79C373.948 232.79 373.554 232.919 373.24 233.176C372.929 233.434 372.696 233.78 372.541 234.216C372.39 234.648 372.314 235.131 372.314 235.665C372.314 236.195 372.39 236.676 372.541 237.108C372.696 237.54 372.929 237.884 373.24 238.142C373.554 238.396 373.948 238.523 374.422 238.523ZM380.338 240V231.273H382.332V232.727H382.423C382.582 232.223 382.855 231.835 383.241 231.562C383.632 231.286 384.077 231.148 384.577 231.148C384.69 231.148 384.817 231.153 384.957 231.165C385.101 231.172 385.221 231.186 385.315 231.205V233.097C385.228 233.066 385.09 233.04 384.901 233.017C384.715 232.991 384.535 232.977 384.361 232.977C383.986 232.977 383.649 233.059 383.349 233.222C383.054 233.381 382.821 233.602 382.651 233.886C382.48 234.17 382.395 234.498 382.395 234.869V240H380.338Z" fill="white"/>
<path d="M384.017 249.818C385.195 249.818 386.373 250.408 386.373 251.586C386.373 252.764 385.195 253.943 384.017 253.943H185.447C184.269 253.943 183.68 252.764 183.68 251.586C183.68 250.408 184.269 249.818 185.447 249.818H384.017Z" fill="white"/>
<path d="M384.016 262.78C385.195 262.78 386.373 263.369 386.373 264.548C386.373 265.726 385.195 266.905 384.016 266.905H153.04C151.861 266.905 150.683 265.726 150.683 264.548C150.683 263.369 151.861 262.78 153.04 262.78H384.016Z" fill="white"/>
<path d="M384.016 275.742C385.195 275.742 386.373 276.331 386.373 277.51C386.373 278.688 385.195 279.277 384.016 279.277H153.04C151.861 279.277 150.683 278.688 150.683 277.51C150.683 276.331 151.861 275.742 153.04 275.742H384.016Z" fill="white"/>
<path d="M384.017 288.705C385.195 288.705 386.374 289.883 386.374 290.473C386.374 291.651 385.195 292.829 384.017 292.829H259.101C257.922 292.829 257.333 291.651 257.333 290.473C257.333 289.883 257.922 288.705 259.101 288.705H384.017Z" fill="white"/>
<path fill-rule="evenodd" clip-rule="evenodd" d="M83 428H362.219C368.698 428 374 422.688 374 415.604V354.806C374 348.312 368.698 343 362.219 343H95.3704C88.8907 343 83 348.312 83 354.806V428Z" fill="#06D7F9"/>
<path d="M111.352 358.364H113.733L116.58 363.511H116.693L119.54 358.364H121.92L117.688 365.659V370H115.585V365.659L111.352 358.364ZM125.504 370.17C124.652 370.17 123.913 369.983 123.288 369.608C122.663 369.233 122.179 368.708 121.834 368.034C121.493 367.36 121.322 366.572 121.322 365.67C121.322 364.769 121.493 363.979 121.834 363.301C122.179 362.623 122.663 362.097 123.288 361.722C123.913 361.347 124.652 361.159 125.504 361.159C126.357 361.159 127.095 361.347 127.72 361.722C128.345 362.097 128.828 362.623 129.169 363.301C129.514 363.979 129.686 364.769 129.686 365.67C129.686 366.572 129.514 367.36 129.169 368.034C128.828 368.708 128.345 369.233 127.72 369.608C127.095 369.983 126.357 370.17 125.504 370.17ZM125.516 368.523C125.978 368.523 126.364 368.396 126.675 368.142C126.985 367.884 127.216 367.54 127.368 367.108C127.523 366.676 127.601 366.195 127.601 365.665C127.601 365.131 127.523 364.648 127.368 364.216C127.216 363.78 126.985 363.434 126.675 363.176C126.364 362.919 125.978 362.79 125.516 362.79C125.042 362.79 124.648 362.919 124.334 363.176C124.023 363.434 123.79 363.78 123.635 364.216C123.483 364.648 123.408 365.131 123.408 365.665C123.408 366.195 123.483 366.676 123.635 367.108C123.79 367.54 124.023 367.884 124.334 368.142C124.648 368.396 125.042 368.523 125.516 368.523ZM136.994 366.33V361.273H139.051V370H137.057V368.449H136.966C136.769 368.937 136.445 369.337 135.994 369.648C135.547 369.958 134.996 370.114 134.341 370.114C133.769 370.114 133.263 369.987 132.824 369.733C132.388 369.475 132.047 369.102 131.801 368.614C131.555 368.121 131.432 367.527 131.432 366.83V361.273H133.489V366.511C133.489 367.064 133.64 367.504 133.943 367.83C134.246 368.155 134.644 368.318 135.136 368.318C135.439 368.318 135.733 368.244 136.017 368.097C136.301 367.949 136.534 367.729 136.716 367.438C136.902 367.142 136.994 366.773 136.994 366.33Z" fill="white"/>
<path d="M112.973 382.977C111.794 382.977 111.205 382.387 111.205 381.209C111.205 380.031 111.794 379.441 112.973 379.441H307.417C308.596 379.441 309.185 380.031 309.185 381.209C309.185 382.387 308.596 382.977 307.417 382.977H112.973Z" fill="white"/>
<path d="M112.973 395.938C111.794 395.938 111.205 395.349 111.205 394.171C111.205 392.993 111.794 392.403 112.973 392.403H344.539C345.128 392.403 346.306 392.993 346.306 394.171C346.306 395.349 345.128 395.938 344.539 395.938H112.973Z" fill="white"/>
<path d="M112.973 408.901C111.794 408.901 111.205 407.722 111.205 407.133C111.205 405.955 111.794 404.776 112.973 404.776H199C199.589 404.776 200.767 405.955 200.767 407.133C200.767 407.722 199.589 408.901 199 408.901H112.973Z" fill="white"/>
<path d="M249 468C257.182 468 264.909 471.182 270.364 476.636C275.818 482.091 279 489.818 279 498C279 506.182 275.818 513.909 270.364 519.364C264.909 524.818 257.182 528 249 528C240.818 528 233.091 524.818 227.636 519.364C222.636 513.909 219 506.182 219 498C219 489.818 222.636 482.091 227.636 476.636C233.091 471.182 240.818 468 249 468ZM268.091 478.909C263.091 473.909 256.273 471.182 249 471.182C241.727 471.182 234.909 473.909 229.909 478.909C224.909 483.909 222.182 490.727 222.182 498C222.182 505.273 224.909 512.091 229.909 517.091C234.909 522.091 241.727 524.818 249 524.818C256.273 524.818 263.091 522.091 268.091 517.091C273.091 512.091 275.818 505.273 275.818 498C275.818 490.727 273.091 483.909 268.091 478.909Z" fill="#2ECD71"/>
<path d="M264.001 487.546C264.456 487.091 265.365 487.091 265.819 487.546C266.728 488.455 266.728 489.364 265.819 489.819L247.183 508.91C246.728 509.364 245.365 509.364 244.91 508.91L234.001 498.001C233.547 497.546 233.547 496.637 234.001 495.728C234.91 495.273 235.819 495.273 236.274 495.728L245.819 505.728L264.001 487.546Z" fill="#2ECD71"/>
<g clip-path="url(#clip2_5929_40)">
<path d="M55 144C60.5 144 65.5 146.25 69 149.75C72.75 153.5 75 158.5 75 164C75 169.5 72.75 174.5 69 178C65.5 181.75 60.5 184 55 184C49.5 184 44.5 181.75 40.75 178C37.25 174.5 35 169.5 35 164C35 158.5 37.25 153.5 40.75 149.75C44.5 146.25 49.5 144 55 144ZM39.75 173.75C41.5 171.75 43.5 170 46 169C48.75 167.5 51.75 166.75 55 166.75C58.25 166.75 61.25 167.5 64 169C66.25 170 68.5 171.75 70.25 173.75C72 171 73.25 167.5 73.25 164C73.25 159 71 154.5 67.75 151.25C64.5 147.75 60 145.75 55 145.75C50 145.75 45.5 147.75 42.25 151.25C38.75 154.5 36.75 159 36.75 164C36.75 167.5 38 171 39.75 173.75ZM69.25 175.5C67.5 173.25 65.5 171.75 63 170.5C60.75 169.25 58 168.5 55 168.5C52 168.5 49.25 169.25 46.75 170.5C44.5 171.75 42.5 173.25 40.75 175.5C41.25 176 41.75 176.25 42.25 176.75C45.5 180 50 182.25 55 182.25C60 182.25 64.5 180 67.75 176.75C68.25 176.25 68.75 176 69.25 175.5ZM55 149C57.25 149 59.25 150 60.75 151.5C62.25 153 63.25 155 63.25 157.25C63.25 159.5 62.25 161.5 60.75 163C59.25 164.5 57.25 165.5 55 165.5C52.75 165.5 50.75 164.5 49.25 163C47.75 161.5 46.75 159.5 46.75 157.25C46.75 155 47.75 153 49.25 151.5C50.75 150 52.75 149 55 149ZM59.5 152.75C58.25 151.5 56.75 150.75 55 150.75C53.25 150.75 51.5 151.5 50.5 152.75C49.25 154 48.5 155.5 48.5 157.25C48.5 159 49.25 160.5 50.5 161.75C51.5 163 53.25 163.75 55 163.75C56.75 163.75 58.25 163 59.5 161.75C60.75 160.5 61.5 159 61.5 157.25C61.5 155.5 60.75 154 59.5 152.75Z" fill="#06D7F9"/>
</g>
<g clip-path="url(#clip3_5929_40)">
<path d="M55 388C60.5 388 65.5 390.25 69 393.75C72.75 397.5 75 402.5 75 408C75 413.5 72.75 418.5 69 422C65.5 425.75 60.5 428 55 428C49.5 428 44.5 425.75 40.75 422C37.25 418.5 35 413.5 35 408C35 402.5 37.25 397.5 40.75 393.75C44.5 390.25 49.5 388 55 388ZM39.75 417.75C41.5 415.75 43.5 414 46 413C48.75 411.5 51.75 410.75 55 410.75C58.25 410.75 61.25 411.5 64 413C66.25 414 68.5 415.75 70.25 417.75C72 415 73.25 411.5 73.25 408C73.25 403 71 398.5 67.75 395.25C64.5 391.75 60 389.75 55 389.75C50 389.75 45.5 391.75 42.25 395.25C38.75 398.5 36.75 403 36.75 408C36.75 411.5 38 415 39.75 417.75ZM69.25 419.5C67.5 417.25 65.5 415.75 63 414.5C60.75 413.25 58 412.5 55 412.5C52 412.5 49.25 413.25 46.75 414.5C44.5 415.75 42.5 417.25 40.75 419.5C41.25 420 41.75 420.25 42.25 420.75C45.5 424 50 426.25 55 426.25C60 426.25 64.5 424 67.75 420.75C68.25 420.25 68.75 420 69.25 419.5ZM55 393C57.25 393 59.25 394 60.75 395.5C62.25 397 63.25 399 63.25 401.25C63.25 403.5 62.25 405.5 60.75 407C59.25 408.5 57.25 409.5 55 409.5C52.75 409.5 50.75 408.5 49.25 407C47.75 405.5 46.75 403.5 46.75 401.25C46.75 399 47.75 397 49.25 395.5C50.75 394 52.75 393 55 393ZM59.5 396.75C58.25 395.5 56.75 394.75 55 394.75C53.25 394.75 51.5 395.5 50.5 396.75C49.25 398 48.5 399.5 48.5 401.25C48.5 403 49.25 404.5 50.5 405.75C51.5 407 53.25 407.75 55 407.75C56.75 407.75 58.25 407 59.5 405.75C60.75 404.5 61.5 403 61.5 401.25C61.5 399.5 60.75 398 59.5 396.75Z" fill="#06D7F9"/>
</g>
</g>
<g clip-path="url(#clip4_5929_40)" filter="url(#filter0_d_5929_40)">
<path d="M522.791 165.045L522.809 165.044L522.827 165.043C548.652 163.924 570 184.63 570 210.393C570 213.366 569.993 216.662 569.453 219.353L569.425 219.488C569.422 219.491 569.419 219.495 569.415 219.499L568.96 219.952L568.855 220.585C568.309 223.85 567.218 226.584 566.039 229.523C561.486 240.869 550.574 259.276 526.246 279.508C525.715 279.839 525.108 280 524.573 280C523.993 280 523.68 279.82 523.566 279.707L523.494 279.635L523.414 279.57C498.506 259.36 488.122 240.941 482.945 229.483C481.786 226.594 480.714 223.899 480.165 220.699C480.106 219.908 479.738 219.292 479.542 219C479.529 218.981 479.517 218.962 479.504 218.944C479.006 214.627 479 210.288 479 205.818C481.292 183.472 500.388 165.603 522.791 165.045Z" fill="#2ECD71" stroke="white" stroke-width="4"/>
<circle cx="524.5" cy="210.5" r="30.5" fill="#129248"/>
<path d="M524.521 178C533.478 178 541.598 181.641 547.499 187.501C553.359 193.402 557 201.522 557 210.521C557 219.478 553.359 227.598 547.499 233.499C541.598 239.359 533.478 243 524.521 243C515.522 243 507.402 239.359 501.543 233.499C495.641 227.598 492 219.478 492 210.521C492 201.522 495.641 193.402 501.543 187.501C507.402 181.641 515.522 178 524.521 178ZM544.778 190.263C539.589 185.073 532.431 181.851 524.521 181.851C516.61 181.851 509.453 185.073 504.263 190.263C499.073 195.411 495.851 202.61 495.851 210.521C495.851 218.431 499.073 225.589 504.263 230.778C509.453 235.927 516.61 239.149 524.521 239.149C532.431 239.149 539.589 235.927 544.778 230.778C549.968 225.589 553.149 218.431 553.149 210.521C553.149 202.61 549.968 195.411 544.778 190.263Z" fill="white"/>
<path d="M534.418 200.262V207.45C534.418 209.861 533.296 212.096 531.458 213.63V215.076L537.333 217.224C537.512 217.312 537.691 217.399 537.826 217.487C540.292 219.109 542.176 221.256 543.701 223.711C544.194 224.5 544.059 225.508 543.432 226.122C541.01 228.62 538.05 230.636 534.776 231.995C528.274 234.668 520.74 234.668 514.237 231.995C510.919 230.636 508.004 228.62 505.582 226.165C504.909 225.464 504.82 224.412 505.313 223.667C506.838 221.169 508.766 219.021 511.233 217.443C511.367 217.356 511.502 217.312 511.636 217.224L517.556 215.076V213.63C515.672 212.096 514.596 209.861 514.596 207.45V200.262C514.596 196.23 517.242 193.687 520.65 192.592C523.117 191.803 525.897 191.803 528.364 192.592C531.727 193.687 534.418 196.23 534.418 200.262ZM530.292 207.45V200.262C530.292 198.29 528.857 197.019 527.063 196.449C525.449 195.923 523.52 195.923 521.906 196.449C520.112 197.019 518.722 198.29 518.722 200.262V207.45C518.722 208.809 519.439 210.08 520.605 210.825C521.233 211.176 521.682 211.833 521.682 212.622V216.479C521.682 217.312 521.143 218.057 520.336 218.364L513.296 220.906C511.86 221.87 510.694 223.097 509.708 224.456C511.502 226.034 513.565 227.349 515.852 228.269C521.323 230.548 527.691 230.548 533.162 228.269C535.404 227.349 537.512 226.034 539.306 224.456C538.274 223.097 537.108 221.87 535.673 220.906L528.812 218.451C527.96 218.188 527.332 217.399 527.332 216.479V212.622C527.332 211.921 527.646 211.263 528.319 210.913C529.529 210.167 530.292 208.853 530.292 207.45Z" fill="white"/>
</g>
<defs>
<filter id="filter0_d_5929_40" x="461" y="151" width="127" height="151" filterUnits="userSpaceOnUse" color-interpolation-filters="sRGB">
<feFlood flood-opacity="0" result="BackgroundImageFix"/>
<feColorMatrix in="SourceAlpha" type="matrix" values="0 0 0 0 0 0 0 0 0 0 0 0 0 0 0 0 0 0 127 0" result="hardAlpha"/>
<feOffset dy="4"/>
<feGaussianBlur stdDeviation="8"/>
<feColorMatrix type="matrix" values="0 0 0 0 0 0 0 0 0 0 0 0 0 0 0 0 0 0 0.25 0"/>
<feBlend mode="normal" in2="BackgroundImageFix" result="effect1_dropShadow_5929_40"/>
<feBlend mode="normal" in="SourceGraphic" in2="effect1_dropShadow_5929_40" result="shape"/>
</filter>
<clipPath id="clip0_5929_40">
<rect width="497" height="690" fill="white"/>
</clipPath>
<clipPath id="clip1_5929_40">
<rect width="40" height="40" fill="white" transform="translate(422 271)"/>
</clipPath>
<clipPath id="clip2_5929_40">
<rect width="40" height="40" fill="white" transform="translate(35 144)"/>
</clipPath>
<clipPath id="clip3_5929_40">
<rect width="40" height="40" fill="white" transform="translate(35 388)"/>
</clipPath>
<clipPath id="clip4_5929_40">
<rect width="95" height="119" fill="white" transform="translate(477 163)"/>
</clipPath>
</defs>
</svg>
