<svg width="127" height="151" viewBox="0 0 127 151" fill="none" xmlns="http://www.w3.org/2000/svg">
<g clip-path="url(#clip0_3922_86)" filter="url(#filter0_d_3922_86)">
<path d="M61.7906 14.0446L61.809 14.0442L61.8273 14.0434C87.6521 12.9242 109 33.6298 109 59.3933C109 62.3656 108.993 65.662 108.453 68.3526L108.425 68.4881C108.422 68.4914 108.419 68.4949 108.415 68.4987L107.96 68.952L107.855 69.5853C107.309 72.8501 106.218 75.5843 105.039 78.523C100.486 89.8694 89.5742 108.276 65.2461 128.508C64.7149 128.839 64.1083 129 63.5733 129C62.9926 129 62.6795 128.82 62.5663 128.707L62.4938 128.635L62.4144 128.57C37.5057 108.36 27.1222 89.9408 21.9452 78.4835C20.7858 75.594 19.7143 72.8993 19.1648 69.6994C19.1059 68.9076 18.7377 68.292 18.5421 67.9995C18.5294 67.9806 18.5168 67.9621 18.5043 67.9439C18.0061 63.6271 18.0001 59.288 18 54.8182C20.2924 32.4725 39.3877 14.6029 61.7906 14.0446Z" fill="#2ECD71" stroke="white" stroke-width="4"/>
<circle cx="63.5" cy="59.5" r="30.5" fill="#129248"/>
<path d="M63.5209 27C72.4778 27 80.5976 30.6413 86.499 36.501C92.3587 42.4024 96 50.5222 96 59.5209C96 68.4778 92.3587 76.5976 86.499 82.499C80.5976 88.3587 72.4778 92 63.5209 92C54.5222 92 46.4024 88.3587 40.5428 82.499C34.6413 76.5976 31 68.4778 31 59.5209C31 50.5222 34.6413 42.4024 40.5428 36.501C46.4024 30.6413 54.5222 27 63.5209 27ZM83.7785 39.2634C78.5885 34.0734 71.4314 30.8506 63.5209 30.8506C55.6104 30.8506 48.4533 34.0734 43.2634 39.2634C38.0734 44.4115 34.8506 51.6104 34.8506 59.5209C34.8506 67.4314 38.0734 74.5885 43.2634 79.7785C48.4533 84.9266 55.6104 88.1494 63.5209 88.1494C71.4314 88.1494 78.5885 84.9266 83.7785 79.7785C88.9684 74.5885 92.1494 67.4314 92.1494 59.5209C92.1494 51.6104 88.9684 44.4115 83.7785 39.2634Z" fill="white"/>
<path d="M73.4176 49.2619V56.45C73.4176 58.8607 72.2965 61.096 70.4578 62.6301V64.0764L76.3326 66.2241C76.5119 66.3118 76.6913 66.3994 76.8259 66.4871C79.2924 68.1088 81.1758 70.2565 82.7006 72.7109C83.1939 73.4999 83.0593 74.508 82.4315 75.1216C80.0099 77.6199 77.0501 79.6361 73.7764 80.9948C67.2738 83.6684 59.7398 83.6684 53.2373 80.9948C49.9187 79.6361 47.0038 77.6199 44.5821 75.1654C43.9094 74.4641 43.8198 73.4122 44.3131 72.6671C45.8378 70.1688 47.7661 68.0211 50.2326 66.4433C50.3672 66.3556 50.5017 66.3118 50.6362 66.2241L56.5558 64.0764V62.6301C54.6723 61.096 53.596 58.8607 53.596 56.45V49.2619C53.596 45.2296 56.2419 42.6875 59.6501 41.5917C62.1166 40.8028 64.897 40.8028 67.3635 41.5917C70.7269 42.6875 73.4176 45.2296 73.4176 49.2619ZM69.2919 56.45V49.2619C69.2919 47.2896 67.8568 46.0185 66.063 45.4487C64.4486 44.9228 62.5202 44.9228 60.9058 45.4487C59.112 46.0185 57.7218 47.2896 57.7218 49.2619V56.45C57.7218 57.8088 58.4393 59.0798 59.6053 59.8249C60.2331 60.1756 60.6816 60.833 60.6816 61.622V65.479C60.6816 66.3118 60.1434 67.0569 59.3362 67.3637L52.2955 69.9058C50.8605 70.8701 49.6945 72.0973 48.7079 73.456C50.5017 75.0339 52.5646 76.3488 54.8517 77.2692C60.3228 79.5484 66.6908 79.5484 72.162 77.2692C74.4042 76.3488 76.5119 75.0339 78.3058 73.456C77.2743 72.0973 76.1083 70.8701 74.6733 69.9058L67.812 67.4513C66.9599 67.1884 66.3321 66.3994 66.3321 65.479V61.622C66.3321 60.9207 66.646 60.2632 67.3187 59.9126C68.5295 59.1675 69.2919 57.8526 69.2919 56.45Z" fill="white"/>
</g>
<defs>
<filter id="filter0_d_3922_86" x="0" y="0" width="127" height="151" filterUnits="userSpaceOnUse" color-interpolation-filters="sRGB">
<feFlood flood-opacity="0" result="BackgroundImageFix"/>
<feColorMatrix in="SourceAlpha" type="matrix" values="0 0 0 0 0 0 0 0 0 0 0 0 0 0 0 0 0 0 127 0" result="hardAlpha"/>
<feOffset dy="4"/>
<feGaussianBlur stdDeviation="8"/>
<feColorMatrix type="matrix" values="0 0 0 0 0 0 0 0 0 0 0 0 0 0 0 0 0 0 0.25 0"/>
<feBlend mode="normal" in2="BackgroundImageFix" result="effect1_dropShadow_3922_86"/>
<feBlend mode="normal" in="SourceGraphic" in2="effect1_dropShadow_3922_86" result="shape"/>
</filter>
<clipPath id="clip0_3922_86">
<rect width="95" height="119" fill="white" transform="translate(16 12)"/>
</clipPath>
</defs>
</svg>
