<svg width="38" height="38" viewBox="0 0 38 38" fill="none" xmlns="http://www.w3.org/2000/svg">
<circle cx="18.5" cy="18.5" r="16.5" fill="#2ECD71"/>
<path d="M18.6767 0C23.5188 0 28.3609 2.07452 31.8195 5.53205C35.2782 8.98958 37.3534 13.8301 37.3534 18.6707C37.3534 23.5112 35.2782 28.3518 31.8195 31.8093C28.3609 35.2668 23.5188 37.3413 18.6767 37.3413C13.1429 37.3413 8.99248 35.2668 5.53383 31.8093C2.07519 28.3518 0 23.5112 0 18.6707C0 13.8301 2.07519 8.98958 5.53383 5.53205C8.99248 2.07452 13.1429 0 18.6767 0ZM29.7444 7.60657C26.9774 4.84054 22.8271 2.76602 18.6767 2.76602C14.5263 2.76602 10.3759 4.84054 7.60902 7.60657C4.8421 10.3726 2.76692 14.5216 2.76692 18.6707C2.76692 22.8197 4.8421 26.9687 7.60902 29.7348C10.3759 32.5008 14.5263 34.5753 18.6767 34.5753C22.8271 34.5753 26.9774 32.5008 29.7444 29.7348C32.5113 26.9687 33.8947 22.8197 33.8947 18.6707C33.8947 14.5216 32.5113 10.3726 29.7444 7.60657Z" fill="white"/>
<path d="M26.9772 12.4473C27.6689 11.7558 28.3606 11.7558 29.0523 12.4473C29.7441 13.1388 29.7441 13.8304 29.0523 14.5219L17.9847 25.586C17.2929 26.2775 16.6012 26.2775 15.9095 25.586L8.99219 19.3624C8.99219 18.6709 8.99219 17.9794 8.99219 17.2879C9.68392 16.5964 11.0674 16.5964 11.0674 17.2879L16.6012 22.8199L26.9772 12.4473Z" fill="white"/>
</svg>
