<svg width="200" height="33" viewBox="0 0 200 33" fill="none" xmlns="http://www.w3.org/2000/svg">
<g clip-path="url(#clip0_5392_1490)">
<mask id="mask0_5392_1490" style="mask-type:luminance" maskUnits="userSpaceOnUse" x="0" y="0" width="200" height="33">
<path d="M0 0H200V33H0V0Z" fill="white"/>
</mask>
<g mask="url(#mask0_5392_1490)">
<path d="M36.7598 7.43637H40.2356V10.1367C40.8332 9.13368 41.6892 8.30586 42.7161 7.73792C43.7507 7.1655 44.9183 6.87053 46.1034 6.8822C47.0299 6.84692 47.954 7.00737 48.8115 7.35216C49.6654 7.69527 50.4346 8.21651 51.0667 8.8804C51.5436 9.44492 51.9628 10.0548 52.3184 10.7011C52.6896 10.0217 53.1575 9.39475 53.7092 8.83944C55.1196 7.60392 56.9351 6.91733 58.8184 6.90723C60.7027 6.89225 62.5284 7.55499 63.9563 8.7723C65.6517 10.4587 66.0828 12.2544 66.0828 15.8445V26.1826H62.4253V15.9788C62.5402 14.5118 62.169 13.0477 61.3678 11.8083C60.9833 11.276 60.464 10.8533 59.8621 10.5827C59.2548 10.3096 58.5861 10.1974 57.9218 10.2573C57.1989 10.2184 56.4779 10.3633 55.8276 10.6783C55.1817 10.9911 54.6292 11.4649 54.2241 12.053C53.5188 13.1878 53.2065 14.5193 53.3345 15.8457V26.1838H49.5805V15.8457C49.7025 14.5634 49.4309 13.2744 48.8011 12.1474C48.3874 11.5784 47.8402 11.1153 47.2034 10.7955C46.5655 10.475 45.8602 10.3079 45.1448 10.3079C44.4294 10.3079 43.7241 10.475 43.0862 10.7955C42.4523 11.1135 41.9044 11.577 41.4885 12.1474C40.7549 13.2894 40.3956 14.628 40.4598 15.98V26.1838H36.7609L36.7598 7.43637ZM89.6621 26.1838H85.9655V22.9452C85.2464 24.1711 84.198 25.1756 82.9368 25.847C81.6659 26.5245 80.2326 26.8463 78.7908 26.7778C72.5908 26.7778 68.8919 22.0815 68.8919 16.8436C68.8336 15.5494 69.0469 14.2572 69.5184 13.0486C69.9929 11.8335 70.7143 10.7278 71.6379 9.79985C72.5683 8.86523 73.6798 8.12635 74.9057 7.62754C76.1378 7.12575 77.4586 6.87273 78.7908 6.88333C80.2414 6.8195 81.6817 7.15217 82.954 7.84489C84.2168 8.53129 85.2601 9.55427 85.9655 10.7978V7.43637H89.6632V26.1838H89.6621ZM72.5896 16.871C72.5784 17.7336 72.7454 18.5894 73.0805 19.3858C73.4172 20.1856 73.9137 20.9098 74.5402 21.5148C75.1718 22.1244 75.9197 22.6033 76.7402 22.9236C77.5649 23.2461 78.4456 23.4046 79.3322 23.3902C80.5984 23.4268 81.8472 23.091 82.9207 22.4252C83.9845 21.7663 84.8223 20.8044 85.3241 19.6657C85.746 18.7895 85.9781 17.8382 86.0057 16.871C86.0483 15.9077 85.8526 14.9487 85.4356 14.0773C84.9275 12.8931 84.065 11.8915 82.9644 11.2075C81.8538 10.5164 80.5592 10.1715 79.2483 10.2175C78.3581 10.2097 77.4751 10.3768 76.6506 10.7091C75.8295 11.0396 75.0837 11.5298 74.4575 12.1508C73.8361 12.7668 73.348 13.5017 73.023 14.3106C72.6996 15.1156 72.547 15.9778 72.5747 16.8436L72.5896 16.871ZM95.5862 10.2175H92.1092V7.43751H95.585V0.674783H99.2839V7.42271H103.01V10.2186H99.2839V26.1838H95.585V10.2186L95.5862 10.2175ZM123.948 19.5974C123.233 21.899 121.704 23.868 119.64 25.1426C117.557 26.4321 115.082 26.9531 112.649 26.6139C110.223 26.2811 107.995 25.1059 106.363 23.298C104.749 21.5101 103.849 19.2014 103.83 16.8038C103.825 14.3879 104.719 12.0548 106.34 10.2493C107.98 8.42426 110.228 7.24241 112.674 6.91861C115.131 6.58861 117.628 7.13482 119.7 8.45709C121.763 9.76497 123.274 11.773 123.948 14.1046H120.153C119.727 13.1349 119.067 12.2831 118.232 11.624C117.39 10.9593 116.398 10.5053 115.34 10.3005C114.28 10.0946 113.185 10.143 112.147 10.4416C111.114 10.7378 110.169 11.2765 109.392 12.012C108.164 13.2925 107.49 14.9973 107.514 16.7629C107.478 17.6231 107.623 18.4814 107.939 19.2834C108.256 20.0867 108.739 20.8196 109.357 21.4352C109.978 22.0536 110.719 22.5413 111.534 22.869C112.353 23.1979 113.232 23.3617 114.118 23.3503C115.397 23.3769 116.654 23.0297 117.734 22.3524C118.805 21.682 119.648 20.7082 120.153 19.5576L123.948 19.5974ZM126.395 0.674783H130.093V10.123C130.728 9.06105 131.651 8.19681 132.757 7.62868C133.872 7.05521 135.125 6.7973 136.378 6.88333C137.546 6.77023 138.723 6.9462 139.805 7.3954C140.88 7.84037 141.824 8.54639 142.551 9.44823C143.78 11.3654 144.365 13.619 144.22 15.8855V26.1838H140.493V16.1154C140.584 14.6364 140.2 13.1669 139.395 11.9175C138.902 11.3472 138.279 10.9003 137.578 10.6135C136.873 10.3248 136.11 10.2032 135.349 10.2584C134.577 10.2111 133.803 10.3428 133.091 10.6431C132.383 10.9419 131.756 11.4019 131.261 11.9858C130.475 13.0288 130.064 14.3016 130.093 15.6022V26.1849H126.395V0.674783ZM147.028 16.7765C147.13 14.1784 148.26 11.7243 150.174 9.94323C152.108 8.14068 154.666 7.13878 157.323 7.14278C159.99 7.14278 162.553 8.14644 164.472 9.94323C166.386 11.7243 167.516 14.1784 167.618 16.7765C167.516 19.3746 166.386 21.8287 164.472 23.6098C162.538 25.4123 159.98 26.4142 157.323 26.4102C154.656 26.4102 152.093 25.4066 150.174 23.6098C148.26 21.8287 147.13 19.3746 147.028 16.7765ZM150.726 16.8448C150.685 17.7096 150.825 18.5744 151.138 19.3858C151.452 20.1983 151.931 20.9391 152.547 21.5661C153.164 22.1919 153.905 22.6926 154.726 23.0328C155.549 23.3746 156.432 23.5506 157.324 23.5506C158.215 23.5506 159.098 23.3746 159.921 23.0328C160.739 22.6935 161.48 22.1947 162.099 21.5661C162.713 20.9417 163.193 20.1998 163.508 19.3858C163.82 18.5754 163.961 17.7101 163.921 16.8436C163.961 15.9772 163.82 15.1119 163.508 14.3015C163.193 13.4879 162.713 12.7464 162.099 12.1224C161.48 11.4934 160.739 10.9942 159.921 10.6544C159.098 10.3133 158.215 10.1377 157.324 10.1377C156.432 10.1377 155.549 10.3133 154.726 10.6544C153.905 10.9958 153.164 11.4954 152.547 12.1224C151.933 12.7464 151.453 13.4879 151.138 14.3015C150.825 15.1118 150.685 15.9773 150.726 16.8436V16.8448ZM170.497 7.43637H173.972V10.1367C174.489 9.08767 175.31 8.2152 176.331 7.63095C177.36 7.04108 178.541 6.76258 179.729 6.82985V10.4599H179.478C176.002 10.4599 174.18 12.3226 174.18 16.0471V26.1838H170.497V7.43637ZM188.71 25.6444L181.328 7.43751H185.303L190.629 21.1496L196.037 7.43751H200.014L189.461 33H185.526L188.71 25.6444Z" fill="white"/>
<path d="M29.1965 5.02055V18.8953C29.1965 18.9115 29.1932 18.9274 29.1869 18.9423C29.1806 18.9571 29.1713 18.9706 29.1597 18.9818C29.136 19.0046 29.1042 19.0172 29.0712 19.0171H26.1654C26.1346 19.0173 26.1048 19.0064 26.0815 18.9864C26.0588 18.9664 26.0445 18.9389 26.0413 18.909L25.1792 10.4462V9.98762L25.0401 8.63803L24.9286 7.47734L24.7758 5.99234C24.774 5.97634 24.769 5.96085 24.7611 5.94678C24.7532 5.93271 24.7426 5.92034 24.7298 5.91041C24.7168 5.90021 24.7018 5.89265 24.6859 5.88816C24.6699 5.88367 24.6532 5.88234 24.6367 5.88424C23.7942 5.97755 22.962 6.14028 22.1482 6.37014C21.7861 6.47824 21.424 6.6 21.0631 6.73428C20.5194 6.92886 19.985 7.14962 19.4654 7.39655C18.8022 7.73452 18.1666 8.118 17.5597 8.54359C17.2677 8.74614 16.9758 8.976 16.6976 9.20472C16.4194 9.43459 16.4896 9.20472 16.4896 9.12393V8.61186L16.2252 5.99234C16.2214 5.95882 16.205 5.92795 16.1792 5.90586C16.1534 5.88362 16.1203 5.87148 16.0861 5.87172C14.8194 6.00828 13.5769 6.30414 12.3873 6.74793C10.8081 7.35983 9.34229 8.22654 8.04933 9.31283C8.0319 9.32766 8.01072 9.3375 7.98806 9.34131C7.96541 9.34512 7.94213 9.34274 7.92074 9.33443C7.89935 9.32612 7.88064 9.3122 7.86664 9.29416C7.85264 9.27612 7.84388 9.25464 7.84128 9.23203L7.35508 4.56196L6.95163 0.135414C6.94927 0.107109 6.95612 0.078799 6.97117 0.0546207C6.986 0.0303561 7.00809 0.0112656 7.03439 0L24.1355 0C25.3917 0.0363215 26.5922 0.520878 27.516 1.36438C28.4299 2.1978 28.9991 3.3371 29.1137 4.56196V5.02055" fill="#4BAAB7"/>
<path d="M22.8562 26.1838H0.126302C0.108653 26.184 0.0911495 26.1806 0.0749165 26.1738C0.0586835 26.1669 0.044081 26.1568 0.0320487 26.144C0.0198841 26.1311 0.0107 26.1158 0.00514041 26.0991C-0.000419221 26.0824 -0.00221985 26.0647 -0.000135242 26.0472V4.69625C-0.00210646 4.67922 -0.000355275 4.66198 0.00499949 4.64568C0.0103543 4.62938 0.0191873 4.61442 0.0308992 4.6018C0.0428866 4.58896 0.0574808 4.57877 0.0737243 4.57191C0.0899678 4.56504 0.107494 4.56166 0.125152 4.56197H3.46193C3.4927 4.56713 3.52116 4.58141 3.54354 4.60294C3.56574 4.62446 3.58061 4.65231 3.58607 4.68259L4.47688 13.5778L4.68492 15.6022C4.6934 15.6265 4.70942 15.6474 4.73069 15.6622C4.75195 15.6769 4.77737 15.6846 4.80331 15.6841C4.82924 15.6841 4.85452 15.6761 4.87573 15.6614C4.89693 15.6469 4.91301 15.6262 4.9217 15.6022C5.80947 14.3006 6.88706 13.1364 8.1194 12.1474C9.42666 11.0391 10.9114 10.1541 12.5125 9.52904C12.5397 9.51536 12.5709 9.51186 12.6005 9.51918C12.6301 9.5265 12.656 9.54414 12.6734 9.56887C12.6849 9.5848 12.6907 9.60301 12.693 9.62349L13.055 13.2945L13.2631 15.3461C13.2721 15.37 13.2883 15.3906 13.3095 15.4051C13.3306 15.4196 13.3557 15.4274 13.3815 15.4274C13.4072 15.4274 13.4323 15.4196 13.4535 15.4051C13.4747 15.3906 13.4908 15.37 13.4999 15.3461C14.3851 14.0585 15.4581 12.9078 16.6838 11.9312C18.0162 10.8634 19.5197 10.0238 21.132 9.44711C21.1611 9.43815 21.1922 9.43861 21.221 9.44844C21.2497 9.45827 21.2746 9.47694 21.2918 9.50173C21.3033 9.51766 21.3102 9.53587 21.3137 9.55521L22.2447 18.8954L22.9688 25.9949C22.9682 26.0287 22.9551 26.0611 22.932 26.086C22.909 26.111 22.8775 26.1267 22.8435 26.1303" fill="white"/>
</g>
</g>
<defs>
<clipPath id="clip0_5392_1490">
<rect width="200" height="33" fill="white"/>
</clipPath>
</defs>
</svg>
