<svg xmlns="http://www.w3.org/2000/svg" xmlns:xlink="http://www.w3.org/1999/xlink" id="eQLPIDl4yCo1" viewBox="0 0 300 1695"><style><![CDATA[#eQLPIDl4yCo5_to {animation: eQLPIDl4yCo5_to__to 8400ms linear infinite normal forwards}@keyframes eQLPIDl4yCo5_to__to { 0% {transform: translate(-479.51px,7525.5px)} 12.261905% {transform: translate(-479.51px,7525.5px)} 71.428571% {transform: translate(1144.49px,7525.5px)} 100% {transform: translate(1144.49px,7525.5px)}} #eQLPIDl4yCo7_to {animation: eQLPIDl4yCo7_to__to 8400ms linear infinite normal forwards}@keyframes eQLPIDl4yCo7_to__to { 0% {transform: translate(1775.00001px,7669px)} 39.285714% {transform: translate(1775.00001px,7669px)} 98.809524% {transform: translate(145.00001px,7669px)} 100% {transform: translate(145.00001px,7669px)}}]]></style><defs><linearGradient id="eQLPIDl4yCo16-fill" x1="0.266" y1="0.898" x2="1.047" y2="0.108" spreadMethod="pad" gradientUnits="objectBoundingBox" gradientTransform="matrix(1 0 0 1 0 0)"><stop id="eQLPIDl4yCo16-fill-0" offset="0%" stop-color="rgb(0,206,181)"></stop><stop id="eQLPIDl4yCo16-fill-1" offset="100%" stop-color="rgb(239,252,251)"></stop></linearGradient><linearGradient id="eQLPIDl4yCo23-fill" x1="0.266" y1="0.898" x2="1.047" y2="0.108" spreadMethod="pad" gradientUnits="objectBoundingBox" gradientTransform="matrix(1 0 0 1 0 0)"><stop id="eQLPIDl4yCo23-fill-0" offset="0%" stop-color="rgb(0,206,181)"></stop><stop id="eQLPIDl4yCo23-fill-1" offset="100%" stop-color="rgb(239,252,251)"></stop></linearGradient></defs><g id="eQLPIDl4yCo2" transform="matrix(0 1 -1 0 7826.503906 -115)"><g id="eQLPIDl4yCo3"><line id="eQLPIDl4yCo4" x1="0" y1="0" x2="1555" y2="0" transform="matrix(1 0 0 1 183.5 7668.5)" fill="none" stroke="rgb(112,112,112)" stroke-width="2" stroke-linecap="round" stroke-dasharray="0,14"></line><g id="eQLPIDl4yCo5_to" transform="translate(-479.51,7525.5)"><g id="eQLPIDl4yCo5" transform="translate(0,0)"><circle id="eQLPIDl4yCo6" r="6" transform="matrix(1 0 0 1 625.51 143.5)" fill="rgb(0,206,181)" stroke="none" stroke-width="1"></circle></g></g><g id="eQLPIDl4yCo7_to" transform="translate(1775.00001,7669)"><g id="eQLPIDl4yCo7" transform="translate(-1505.51001,-143.5)"><circle id="eQLPIDl4yCo8" r="6" transform="matrix(1 0 0 1 1505.51 143.5)" fill="rgb(0,206,181)" stroke="none" stroke-width="1"></circle></g></g></g><g id="eQLPIDl4yCo9"><path id="eQLPIDl4yCo10" d="M147.5,7702.815L147.5,7807.715L434.1,7807.715" transform="matrix(1 0 0 1 0 3.908)" fill="none" stroke="rgb(112,112,112)" stroke-width="2" stroke-linecap="round" stroke-dasharray="0,14"></path><path id="eQLPIDl4yCo11" d="M147.5,7807.718L147.5,7702.818L434.1,7702.818" transform="matrix(1 0 0 1 0 -176.314)" fill="none" stroke="rgb(112,112,112)" stroke-width="2" stroke-linecap="round" stroke-dasharray="0,14"></path></g><g id="eQLPIDl4yCo12" transform="matrix(1 0 0 1 1338.08 0)"><path id="eQLPIDl4yCo13" d="M434.419,7702.815L434.419,7807.715L147.5,7807.715" transform="matrix(1 0 0 1 0 3.908)" fill="none" stroke="rgb(112,112,112)" stroke-width="2" stroke-linecap="round" stroke-dasharray="0,14"></path><path id="eQLPIDl4yCo14" d="M434.419,7807.718L434.419,7702.818L147.5,7702.818" transform="matrix(1 0 0 1 0 -176.314)" fill="none" stroke="rgb(112,112,112)" stroke-width="2" stroke-linecap="round" stroke-dasharray="0,14"></path></g><g id="eQLPIDl4yCo15" transform="matrix(0 -1 1 0 128.567999 7687.891999)"><ellipse id="eQLPIDl4yCo16" rx="27.5" ry="27.478" transform="matrix(1 0 0 1 18.89 18.932)" fill="url(#eQLPIDl4yCo16-fill)" stroke="none" stroke-width="1"></ellipse><path id="eQLPIDl4yCo17" d="M15.5,-19.508C15.5,-19.508,28.233,-19.432,29.774,-19.508C31.774,-19.608,34.049,-28.247,34.684,-28.208C36.109,-28.151,38.169,-2.145,39.556,-2.145C41.116,-2.145,45.237,-42.099,46.777,-42.079C47.952,-42.06,49.858,-19.507,51.918,-19.507L68.833,-19.507" transform="matrix(1 0 0 1 -23.109 41.407)" fill="none" stroke="rgb(255,255,255)" stroke-width="3" stroke-linecap="square" stroke-linejoin="round" stroke-miterlimit="1.333"></path></g><g id="eQLPIDl4yCo18" transform="matrix(1 0 0 1 -9.173 7088.83)"><circle id="eQLPIDl4yCo19" r="40" transform="matrix(1 0 0 1 969.173 580.172)" fill="rgb(196,247,241)" stroke="none" stroke-width="1"></circle><circle id="eQLPIDl4yCo20" r="30" transform="matrix(1 0 0 1 969.173 580.172)" fill="rgb(163,237,228)" stroke="none" stroke-width="1"></circle><circle id="eQLPIDl4yCo21" r="19" transform="matrix(1 0 0 1 969.173 580.172)" fill="rgb(0,206,181)" stroke="none" stroke-width="1"></circle></g><g id="eQLPIDl4yCo22" transform="matrix(0 -1 1 0 1232 9403)"><circle id="eQLPIDl4yCo23" r="27.5" transform="matrix(1 0 0 1 1734.5 540.5)" fill="url(#eQLPIDl4yCo23-fill)" stroke="none" stroke-width="1"></circle><path id="eQLPIDl4yCo24" d="M13,14.857C17.102923,14.857,20.429,11.530923,20.429,7.428C20.429,3.325077,17.102923,-0.001,13,-0.001C8.897077,-0.001,5.571,3.325077,5.571,7.428C5.571,11.530923,8.897077,14.857,13,14.857ZM18.2,16.714L17.231,16.714C14.546298,17.952565,11.453702,17.952565,8.769,16.714L7.8,16.714C5.731311,16.714,3.747351,17.535783,2.284567,18.998567C0.821783,20.461351,0,22.445311,0,24.514L0,26.928C0,27.666893,0.293524,28.375523,0.816001,28.897999C1.338477,29.420476,2.047107,29.714,2.786,29.714L23.214,29.714C24.752275,29.714,25.999448,28.467275,26,26.929L26,24.514C26,22.445311,25.178217,20.461351,23.715433,18.998567C22.252649,17.535783,20.268689,16.714,18.2,16.714Z" transform="matrix(1 0 0 1 1721.47 525.533)" fill="rgb(255,255,255)" stroke="none" stroke-width="1"></path></g></g></svg>