<svg width="34" height="34" viewBox="0 0 34 34" fill="none" xmlns="http://www.w3.org/2000/svg">
<circle cx="17" cy="17" r="17" fill="#2ECD71"/>
<g clip-path="url(#clip0_3690_14264)">
<path d="M14.5041 20.1529C14.2307 20.1529 14.0048 19.9298 14.0048 19.6597C14.0048 19.3778 14.2307 19.1547 14.5041 19.1547H15.7166C15.99 19.1547 16.2158 19.3778 16.2158 19.6597C16.2158 19.9298 15.99 20.1529 15.7166 20.1529H14.5041ZM10.51 15.9367C10.51 15.6666 10.7359 15.4434 11.0093 15.4434C11.2827 15.4434 11.5086 15.6666 11.5086 15.9367V19.8828C11.5086 19.9885 11.4848 20.0825 11.4253 20.1529L10.1059 22.5018C9.78493 23.089 10.2842 23.5353 10.9023 23.5353H23.0985C23.7166 23.5353 24.2158 23.089 23.8949 22.5018L22.5754 20.1529H17.6542C17.3808 20.1529 17.1549 19.9298 17.1549 19.6597C17.1549 19.3778 17.3808 19.1547 17.6542 19.1547H22.4922V15.0911C22.4922 13.6113 21.8741 12.249 20.8756 11.2742C19.8771 10.2877 18.51 9.67696 17.0004 9.67696C15.7404 9.67696 14.5873 10.0998 13.6601 10.8044C12.7092 11.5326 12.0078 12.5543 11.6869 13.7288C11.6155 13.9989 11.3421 14.1516 11.0806 14.0811C10.8072 14.0106 10.6527 13.7405 10.7121 13.4821C11.0925 12.0846 11.9246 10.8749 13.042 10.0175C13.6245 9.583 14.2664 9.23067 14.9796 8.99579V7.99752C14.9796 7.44553 15.2054 6.95227 15.5739 6.58819C15.9424 6.22412 16.4417 6.00098 17.0004 6.00098C17.5591 6.00098 18.0702 6.22412 18.4268 6.58819C18.7953 6.95227 19.0212 7.44553 19.0212 7.99752V8.99579C19.9959 9.32463 20.8756 9.86487 21.5888 10.5695C22.7656 11.7322 23.4907 13.3295 23.4907 15.0911V19.7536L24.7745 22.0203C25.464 23.2652 24.513 24.5218 23.0985 24.5218H19.7701C19.7106 25.1795 19.4135 25.755 18.9618 26.2013C18.4625 26.6945 17.773 26.9999 17.0004 26.9999C16.2396 26.9999 15.5383 26.6945 15.039 26.2013C14.5873 25.755 14.302 25.1795 14.2307 24.5218H10.9023C9.48776 24.5218 8.53679 23.2652 9.23813 22.0203L10.51 19.7536V15.9367ZM18.7597 24.5218H15.253C15.3124 24.8976 15.4907 25.2382 15.7522 25.4966C16.0732 25.8137 16.513 26.0016 17.0004 26.0016C17.4878 26.0016 17.9276 25.8137 18.2604 25.4966C18.51 25.2382 18.7002 24.8976 18.7597 24.5218ZM15.99 8.7609C16.3109 8.70218 16.6557 8.67869 17.0004 8.67869C17.3451 8.67869 17.6898 8.70218 18.0227 8.7609V7.99752C18.0227 7.7274 17.9038 7.46902 17.7136 7.29286C17.5353 7.10495 17.2857 6.99925 17.0004 6.99925C16.727 6.99925 16.4655 7.10495 16.2872 7.29286C16.097 7.46902 15.99 7.7274 15.99 7.99752V8.7609Z" fill="#FEFEFE"/>
</g>
<defs>
<clipPath id="clip0_3690_14264">
<rect width="16" height="21" fill="white" transform="translate(9 6)"/>
</clipPath>
</defs>
</svg>
