<svg width="80" height="80" viewBox="0 0 80 80" fill="none" xmlns="http://www.w3.org/2000/svg">
<g clip-path="url(#clip0_5392_1478)">
<path d="M38.9532 38.9528L54.4538 71.7599C55.1213 66.7083 56.9164 62.7268 59.8278 59.8154C62.7392 56.9041 66.7208 55.109 71.7611 54.4416L38.9532 38.9413V38.9528ZM54.3387 79.0785L34.1086 36.2601C33.913 35.8344 33.89 35.3396 34.1086 34.8793C34.4883 34.0738 35.4435 33.7286 36.249 34.1083L79.0683 54.338C79.6322 54.6027 80.0119 55.1895 79.9889 55.857C79.9544 56.743 79.2064 57.4334 78.3203 57.3989C77.1811 57.3529 76.0994 57.3529 75.0522 57.3989C69.333 57.6291 65.0177 59.2056 62.1063 62.1054C59.2064 65.0052 57.6299 69.3204 57.3997 75.051C57.3537 76.0751 57.3537 77.1338 57.3997 78.25C57.4573 78.9059 57.1121 79.5503 56.4791 79.8495C55.6736 80.2292 54.7185 79.884 54.3387 79.0785Z" fill="#06D7F9"/>
<path d="M41.6223 63.3021C42.4854 63.072 43.36 63.5898 43.5901 64.4529C43.8203 65.3159 43.3024 66.1904 42.4394 66.4206C36.7202 67.9395 30.6787 67.928 24.9595 66.3861C19.4359 64.9016 14.2115 61.9903 9.88472 57.6636C3.29093 51.07 -0.0117188 42.428 -0.0117188 33.7746C-0.0117188 25.1327 3.29093 16.4907 9.88472 9.88559C16.4785 3.29195 25.1206 -0.0106201 33.7742 -0.0106201C42.4164 -0.0106201 51.0585 3.29195 57.6638 9.88559C61.9906 14.2123 64.902 19.4366 66.3864 24.9601C67.9284 30.6676 67.9399 36.7089 66.421 42.4395C66.1908 43.3026 65.3162 43.8089 64.4532 43.5903C63.5901 43.3601 63.0838 42.4856 63.3024 41.6225C64.6718 36.4443 64.6603 30.9783 63.2679 25.8001C61.9215 20.8175 59.2978 16.0995 55.3738 12.1755C49.4129 6.21479 41.5878 3.23442 33.7742 3.23442C25.9607 3.23442 18.1356 6.21479 12.1747 12.1755C6.21383 18.1363 3.23339 25.9612 3.23339 33.7746C3.23339 41.588 6.21383 49.4129 12.1747 55.3736C16.0988 59.2976 20.8053 61.9213 25.7996 63.2676C30.9779 64.66 36.444 64.6715 41.6223 63.3021Z" fill="white"/>
<path d="M35.8916 50.6902C36.7777 50.5866 37.5832 51.208 37.6868 52.094C37.7903 52.9801 37.1689 53.7856 36.2829 53.8892C33.2334 54.2689 30.1148 53.9582 27.1804 52.9456C24.3496 51.979 21.6914 50.3565 19.4359 48.101C15.4773 44.1425 13.498 38.9528 13.498 33.763C13.498 28.5733 15.4773 23.3835 19.4359 19.425C23.3945 15.4665 28.5844 13.4873 33.7742 13.4873C38.9641 13.4873 44.154 15.4665 48.1125 19.425C50.368 21.6804 51.9791 24.3386 52.9572 27.1694C53.9699 30.1037 54.2806 33.2222 53.9008 36.2716C53.7972 37.1577 52.9917 37.7906 52.1056 37.6755C51.2196 37.5719 50.5867 36.7664 50.7017 35.8804C51.0239 33.3143 50.7593 30.6791 49.9077 28.2166C49.0907 25.8461 47.7328 23.6137 45.8341 21.715C42.5084 18.3894 38.1471 16.7208 33.7857 16.7208C29.4244 16.7208 25.0631 18.3894 21.7374 21.715C18.4117 25.0406 16.7432 29.4018 16.7432 33.763C16.7432 38.1243 18.4117 42.4855 21.7374 45.8111C23.6361 47.7098 25.8686 49.0676 28.2391 49.8847C30.7132 50.7362 33.3369 51.0009 35.9031 50.6787L35.8916 50.6902Z" fill="#06D7F9"/>
</g>
<defs>
<clipPath id="clip0_5392_1478">
<rect width="80" height="80" fill="white"/>
</clipPath>
</defs>
</svg>
