<svg width="233" height="99" viewBox="0 0 233 99" fill="none" xmlns="http://www.w3.org/2000/svg">
<path d="M92.9609 0.5C120.317 0.500007 145.086 6.48766 167.206 18.4551L168.258 19.0293C190.285 31.1822 207.784 48.8635 220.903 72.1621L221.525 73.2764L221.526 73.2773C225.864 81.0561 229.385 89.5117 232.311 98.5H151.724C146.47 89.3038 139.891 81.9529 131.83 76.541H131.829C121.01 69.2605 107.994 65.6309 92.9609 65.6309C78.3961 65.6309 65.7986 69.0376 55.1895 75.8701L54.1699 76.541C46.1102 81.9519 39.4546 89.302 34.1982 98.5H-46.3145C-43.6452 90.1584 -40.3898 82.2161 -36.4268 74.792L-35.6035 73.2754C-22.7 49.8758 -5.26749 31.9433 16.5449 19.6123L17.5869 19.0293C39.8931 6.67976 65.1703 0.5 92.9609 0.5Z" stroke="#53D3AA"/>
</svg>
