<svg width="607" height="269" viewBox="0 0 607 269" fill="none" xmlns="http://www.w3.org/2000/svg">
<path d="M380.394 0.5C454.873 0.5 522.336 16.7995 582.59 49.3906L585.454 50.9551C645.472 84.0591 693.142 132.22 728.872 195.655L730.564 198.688L730.565 198.689C742.568 220.208 752.277 243.616 760.312 268.5H539.607C525.344 243.408 507.469 223.395 485.557 208.688H485.558C456.316 189.014 421.111 179.188 380.394 179.188C340.312 179.188 305.779 188.71 276.817 207.773L275.442 208.688C253.532 223.394 235.447 243.407 221.181 268.5H0.683594C8.2646 244.605 17.6091 221.896 29.0938 200.748L30.2227 198.688C65.3641 134.977 112.852 86.1317 172.282 52.543L175.121 50.9551C235.886 17.3218 304.731 0.500018 380.394 0.5Z" stroke="#53D3AA"/>
</svg>
