<svg width="24" height="24" viewBox="0 0 24 24" fill="none" xmlns="http://www.w3.org/2000/svg">
<g clip-path="url(#clip0_535_1266)">
<path d="M4.14527 18.7137H3.26351C2.37162 18.7137 1.55068 18.3383 0.962838 17.7498C0.364865 17.1512 0 16.3395 0 15.4365V9.3994C0 8.49638 0.364865 7.67453 0.962838 7.08604C1.55068 6.49755 2.37162 6.12214 3.26351 6.12214H4.25676V3.27102C4.25676 2.37815 4.62162 1.55629 5.20946 0.967807C5.80743 0.369174 6.61824 0.00390625 7.52027 0.00390625H16.4797C17.3818 0.00390625 18.1926 0.369174 18.7905 0.967807C19.3784 1.55629 19.7432 2.37815 19.7432 3.27102V6.12214H20.7365C21.6284 6.12214 22.4493 6.49755 23.0372 7.08604C23.6351 7.67453 24 8.49638 24 9.3994V15.4365C24 16.3395 23.6351 17.1512 23.0372 17.7498C22.4493 18.3383 21.6284 18.7137 20.7365 18.7137H19.7432V22.0925C19.7432 22.6201 19.5304 23.0969 19.1858 23.4419C18.8412 23.7869 18.3649 24 17.8378 24H6.06081C5.53378 24 5.05743 23.7869 4.71284 23.4419C4.69257 23.4318 4.68243 23.4115 4.66216 23.4013C4.34797 23.0564 4.14527 22.5896 4.14527 22.0925V18.7137ZM19.7432 17.3846H20.7365C21.2635 17.3846 21.75 17.1613 22.1047 16.8062C22.4595 16.4612 22.6723 15.9742 22.6723 15.4365V9.3994C22.6723 8.86165 22.4595 8.37462 22.1047 8.0195C21.75 7.67453 21.2635 7.45131 20.7365 7.45131H3.26351C2.73649 7.45131 2.25 7.67453 1.89527 8.0195C1.54054 8.37462 1.3277 8.86165 1.3277 9.3994V15.4365C1.3277 15.9742 1.54054 16.4612 1.89527 16.8062C2.25 17.1613 2.73649 17.3846 3.26351 17.3846H4.14527V14.9291H3.67905C3.31419 14.9291 3.02027 14.6349 3.02027 14.2696C3.02027 13.9044 3.31419 13.6 3.67905 13.6H20.3209C20.6858 13.6 20.9797 13.9044 20.9797 14.2696C20.9797 14.6349 20.6858 14.9291 20.3209 14.9291H19.7432V17.3846ZM5.47297 14.9291V22.0925C5.47297 22.2446 5.53378 22.3765 5.625 22.478L5.64527 22.5084C5.75676 22.6099 5.89865 22.6809 6.06081 22.6809H17.8378C18 22.6809 18.1419 22.6099 18.2534 22.5084C18.3547 22.3968 18.4257 22.2548 18.4257 22.0925V14.9291H5.47297ZM3.67905 10.4343C3.31419 10.4343 3.02027 10.1401 3.02027 9.76467C3.02027 9.3994 3.31419 9.10516 3.67905 9.10516H5.92905C6.29392 9.10516 6.58784 9.3994 6.58784 9.76467C6.58784 10.1401 6.29392 10.4343 5.92905 10.4343H3.67905ZM5.58446 6.12214H18.4257V3.27102C18.4257 2.74341 18.2027 2.25639 17.848 1.90127C17.5034 1.54615 17.0169 1.33307 16.4797 1.33307H7.52027C6.98311 1.33307 6.50676 1.54615 6.15203 1.90127C5.7973 2.25639 5.58446 2.74341 5.58446 3.27102V6.12214Z" fill="black"/>
</g>
<defs>
<clipPath id="clip0_535_1266">
<rect width="24" height="24" fill="white"/>
</clipPath>
</defs>
</svg>
