<svg width="80" height="80" viewBox="0 0 80 80" fill="none" xmlns="http://www.w3.org/2000/svg">
<g clip-path="url(#clip0_5603_4359)">
<path d="M59.2662 28.4718C59.1563 27.3709 59.9568 26.3785 61.0869 26.27C62.2013 26.1615 63.2058 26.9522 63.3157 28.0687C63.3784 28.6114 63.4098 29.1541 63.4412 29.7123C63.4726 30.3325 63.4883 30.8752 63.4883 31.3714C63.4883 38.4885 61.0869 45.0319 57.0532 50.3039L62.2641 55.4518C62.7349 55.2502 63.2529 55.1417 63.7551 55.1417C64.7126 55.1417 65.67 55.4983 66.392 56.2271L78.8856 68.5696C79.6076 69.2829 79.9843 70.2442 79.9843 71.1901C79.9843 72.1359 79.6233 73.0818 78.8856 73.7951L73.6904 78.9275C73.6433 78.974 73.5805 79.0205 73.5334 79.067C72.8271 79.6872 71.9325 79.9974 71.0536 79.9974C70.0961 79.9974 69.1387 79.6407 68.4167 78.9119L55.9231 66.5694C55.876 66.5229 55.8289 66.4609 55.7818 66.4143C55.154 65.7166 54.8401 64.8327 54.8401 63.9644C54.8401 63.4682 54.95 62.9566 55.154 62.4914L49.7861 57.1884C44.6694 60.6772 38.454 62.724 31.7677 62.724C22.9939 62.724 15.0677 59.2197 9.32311 53.5446C3.57856 47.8695 0.0313721 40.0236 0.0313721 31.3714C0.0313721 22.7037 3.57856 14.8733 9.32311 9.19819C15.0677 3.52309 23.0096 0.0187988 31.7677 0.0187988C37.3553 0.0187988 42.6133 1.44533 47.1807 3.97276C51.905 6.57772 55.9074 10.3456 58.7483 14.8888C59.3447 15.8346 59.0465 17.0596 58.0891 17.6488C57.1316 18.238 55.8917 17.9434 55.2953 16.9976C52.8154 13.0436 49.331 9.7564 45.203 7.49256C41.2321 5.30625 36.649 4.06579 31.752 4.06579C24.1083 4.06579 17.1866 7.12042 12.1797 12.0667C7.17283 17.0131 4.08081 23.8511 4.08081 31.4024C4.08081 38.9537 7.17283 45.7917 12.1797 50.738C17.1866 55.6844 24.1083 58.739 31.752 58.739C39.3957 58.739 46.3174 55.6844 51.3243 50.738C56.3312 45.7917 59.4232 38.9537 59.4232 31.4024C59.4232 30.8442 59.4075 30.3635 59.3918 29.9449C59.3604 29.4642 59.329 28.9835 59.2819 28.5028L59.2662 28.4718ZM54.3849 53.343C54.3221 53.405 54.2594 53.467 54.1809 53.5446C53.7885 53.9322 53.3804 54.3044 52.9723 54.6765L57.8222 59.4678L59.2034 58.1033L54.3849 53.343ZM63.7551 59.2817L63.5197 59.5143L63.504 59.5298L59.0151 63.9644L71.0378 75.8418L75.7622 71.1746L63.7394 59.2972L63.7551 59.2817ZM51.9835 28.5338C51.8265 27.4329 52.6113 26.4251 53.7257 26.27C54.8401 26.1149 55.8603 26.8902 56.0173 27.9911C56.0957 28.5493 56.1585 29.1231 56.1899 29.6813C56.237 30.2705 56.2527 30.8287 56.2527 31.3714C56.2527 38.0544 53.506 44.1171 49.0798 48.4897C44.638 52.8778 38.5168 55.5758 31.752 55.5758C24.9872 55.5758 18.8503 52.8623 14.4242 48.4897C9.98232 44.1016 7.25131 38.0544 7.25131 31.3714C7.25131 24.6884 9.99802 18.6257 14.4242 14.2531C18.866 9.86494 24.9872 7.16694 31.752 7.16694C35.1265 7.16694 38.3598 7.84919 41.2949 9.07414C44.3555 10.3456 47.0865 12.2218 49.3467 14.5322C50.1314 15.323 50.1157 16.5944 49.2996 17.3697C48.4991 18.145 47.2121 18.1295 46.4273 17.3232C44.5281 15.385 42.2523 13.8344 39.7096 12.7645C37.2768 11.7411 34.5772 11.1829 31.7363 11.1829C26.0859 11.1829 20.9849 13.4468 17.2807 17.0906C13.5766 20.75 11.3007 25.7893 11.3007 31.3714C11.3007 36.9534 13.5923 41.9928 17.2807 45.6522C20.9849 49.3115 26.0859 51.5598 31.7363 51.5598C37.3867 51.5598 42.4877 49.296 46.1919 45.6522C49.896 41.9928 52.1719 36.9534 52.1719 31.3714C52.1719 30.8597 52.1562 30.3945 52.1248 29.9449C52.0934 29.4642 52.0463 28.999 51.9835 28.5493V28.5338Z" fill="#06D7F9"/>
<path d="M15.7112 33.4488C14.5811 33.4488 13.6708 32.5495 13.6708 31.4331C13.6708 30.3167 14.5811 29.4173 15.7112 29.4173H25.0029L29.6959 19.5092C30.1668 18.5013 31.3753 18.0671 32.3955 18.5478C32.9919 18.8269 33.3843 19.3386 33.5099 19.9278L36.1467 31.5881L40.8868 21.0908C41.2164 20.3465 41.9698 19.8968 42.7389 19.8968H65.152H65.2148C65.5601 18.7029 66.2193 17.633 67.0826 16.7647C68.4167 15.4467 70.2531 14.6404 72.2778 14.6404C74.3025 14.6404 76.1546 15.4467 77.473 16.7647C78.8071 18.0827 79.6233 19.8968 79.6233 21.8971C79.6233 23.8973 78.8071 25.727 77.473 27.0295C76.1389 28.3474 74.3025 29.1537 72.2778 29.1537C70.2531 29.1537 68.401 28.3474 67.0826 27.0295C66.2193 26.1766 65.5601 25.1067 65.2148 23.8973H65.152H44.0573L37.371 38.7363C37.1199 39.2945 36.6019 39.7286 35.9584 39.8837C34.8597 40.1163 33.7767 39.434 33.5413 38.3641L30.8731 26.5178L28.2205 32.0998C27.938 32.8751 27.1846 33.4333 26.3057 33.4333H15.7269L15.7112 33.4488ZM74.6007 19.6177C74.0043 19.0285 73.1881 18.6719 72.2778 18.6719C71.3675 18.6719 70.5513 19.0285 69.9549 19.6177C69.3584 20.2069 68.9974 21.0132 68.9974 21.9126C68.9974 22.8119 69.3584 23.6182 69.9549 24.2074C70.5513 24.7966 71.3675 25.1533 72.2778 25.1533C73.1881 25.1533 74.0043 24.7966 74.6007 24.2074C75.1972 23.6182 75.5582 22.8119 75.5582 21.9126C75.5582 21.0132 75.1972 20.2069 74.6007 19.6177Z" fill="white"/>
</g>
<defs>
<clipPath id="clip0_5603_4359">
<rect width="80" height="80" fill="white"/>
</clipPath>
</defs>
</svg>
