<svg width="103" height="100" viewBox="0 0 103 100" fill="none" xmlns="http://www.w3.org/2000/svg">
<g clip-path="url(#clip0_3690_14144)">
<path d="M24.6892 29.6444C24.0928 30.251 23.1094 30.251 22.5026 29.6548C21.8959 29.0586 21.8959 28.0753 22.4922 27.4686C26.4153 23.546 31.0917 20.387 36.3017 18.2322C40.863 16.3389 45.8219 15.2197 51.0005 15.0418V3.09623H39.9424C39.0845 3.09623 38.394 2.40586 38.394 1.54812C38.394 0.690377 39.0845 0 39.9424 0H65.1552C66.0131 0 66.7035 0.690377 66.7035 1.54812C66.7035 2.40586 66.0131 3.09623 65.1552 3.09623H54.0971V15.0418C64.7472 15.4184 74.3929 19.7176 81.6429 26.5377L89.7508 18.431L85.6602 14.341C85.0534 13.7343 85.0534 12.7615 85.6602 12.1548C86.267 11.5481 87.2399 11.5481 87.8467 12.1548L98.5386 22.8452C99.1454 23.4519 99.1454 24.4247 98.5386 25.0314C97.9319 25.6381 96.9589 25.6381 96.3521 25.0314L91.9373 20.6172L83.819 28.7343C90.7865 36.3075 95.0444 46.4121 95.0444 57.5105C95.0444 69.2469 90.2843 79.864 82.5949 87.5628C74.9055 95.251 64.2764 100.01 52.5383 100.01C46.7948 100.01 41.3024 98.8598 36.2912 96.7887C31.0917 94.6339 26.4049 91.4749 22.4817 87.5523C21.8854 86.9456 21.8854 85.9728 22.4922 85.3661C23.099 84.7699 24.0719 84.7699 24.6787 85.3766C28.3089 89.0063 32.6505 91.9351 37.4734 93.9331C42.108 95.8577 47.2028 96.9142 52.5488 96.9142C63.429 96.9142 73.284 92.5 80.4084 85.3766C87.5433 78.2427 91.9477 68.3996 91.9477 57.5209C91.9477 46.9038 87.7421 37.2594 80.9106 30.1778C80.7641 30.1046 80.6177 30 80.4921 29.8745C80.3666 29.749 80.262 29.6025 80.1887 29.4351C73.0747 22.4372 63.3139 18.1067 52.5488 18.1067C47.2028 18.1067 42.108 19.1632 37.4734 21.0879C32.6505 23.0858 28.3194 26.0146 24.6787 29.6444H24.6892ZM29.7631 72.4268C30.621 72.4268 31.3114 73.1171 31.3114 73.9749C31.3114 74.8326 30.621 75.523 29.7631 75.523H4.55029C3.69243 75.523 3.00195 74.8326 3.00195 73.9749C3.00195 73.1171 3.69243 72.4268 4.55029 72.4268H29.7631ZM29.7631 39.4874C30.621 39.4874 31.3114 40.1778 31.3114 41.0356C31.3114 41.8933 30.621 42.5837 29.7631 42.5837H4.55029C3.69243 42.5837 3.00195 41.8933 3.00195 41.0356C3.00195 40.1778 3.69243 39.4874 4.55029 39.4874H29.7631ZM73.1166 34.7594C73.7234 34.1527 74.6963 34.1527 75.3031 34.7594C75.9099 35.3661 75.9099 36.3389 75.3031 36.9456L59.4745 52.772C59.7883 53.2322 60.0499 53.7134 60.2696 54.2155L60.28 54.2364L60.2905 54.2469L60.3219 54.3305L60.3323 54.341L60.3637 54.4247L60.3742 54.4351L60.4056 54.5188V54.5293L60.437 54.613V54.6234C60.709 55.3661 60.8763 56.1611 60.9286 56.9874V57.0607V57.092V57.1653V57.1862V57.2071V57.2803V57.3745V57.3849V57.4895V57.5941V57.6046V57.6987V57.772V57.7929V57.8138V57.887V57.9184V57.9916C60.8763 58.818 60.709 59.613 60.437 60.3556V60.3661L60.4056 60.4498V60.4602L60.3742 60.5439L60.3637 60.5544L60.3323 60.6381L60.3219 60.6485L60.2905 60.7322L60.28 60.7427L60.2696 60.7636C59.9034 61.6318 59.3699 62.4582 58.7003 63.1799L58.6375 63.2427L58.6271 63.2531L58.5643 63.3159L58.5538 63.3264L58.4806 63.3996L58.4074 63.4728L58.3969 63.4833L58.3341 63.546L58.3237 63.5565L58.2609 63.6192C57.5286 64.2992 56.7126 64.8222 55.8442 65.1883L55.8233 65.1987L55.8129 65.2092L55.7292 65.2406L55.7187 65.251L55.635 65.2824L55.6245 65.2929L55.5409 65.3243H55.5304L55.4467 65.3556H55.4362C54.6934 65.6276 53.8984 65.795 53.0719 65.8473H52.9986H52.9673H52.894H52.8731H52.8522H52.7789H52.6848H52.6743H52.5697H52.4651H52.4546H52.3605H52.2872H52.2663H52.2454H52.1722H52.1408H52.0676C51.2411 65.795 50.446 65.6276 49.7032 65.3556H49.6927L49.609 65.3243H49.5986L49.5149 65.2929L49.5044 65.2824L49.4207 65.251L49.4103 65.2406L49.3266 65.2092L49.3161 65.1987L49.2952 65.1883C48.4269 64.8222 47.6004 64.2887 46.8785 63.6192L46.8158 63.5565L46.8053 63.546L46.7425 63.4833L46.7321 63.4728L46.6588 63.3996L46.5856 63.3264L46.5751 63.3159L46.5124 63.2531L46.5019 63.2427L46.4391 63.1799C45.7591 62.4477 45.236 61.6318 44.8699 60.7636L44.8594 60.7427L44.8489 60.7322L44.8176 60.6485L44.8071 60.6381L44.7757 60.5544L44.7652 60.5439L44.7339 60.4602V60.4498L44.7025 60.3661V60.3556C44.4305 59.613 44.2631 58.818 44.2108 57.9916V57.9184V57.887V57.8138V57.7929V57.772V57.6987V57.6046V57.5941V57.4895V57.3849V57.3745V57.2803V57.2071V57.1862V57.1653V57.092V57.0607V56.9874C44.2631 56.1611 44.4305 55.3661 44.7025 54.6234V54.613L44.7339 54.5293V54.5188L44.7652 54.4351L44.7757 54.4247L44.8071 54.341L44.8176 54.3305L44.8489 54.2469L44.8594 54.2364L44.8699 54.2155C45.236 53.3473 45.7696 52.5209 46.4391 51.7992L46.5019 51.7364L46.5124 51.7259L46.5751 51.6632L46.5856 51.6527L46.6588 51.5795L46.7321 51.5063L46.7425 51.4958L46.8053 51.433L46.8158 51.4226L46.8785 51.3598C47.6108 50.6799 48.4269 50.1569 49.2952 49.7908L49.3161 49.7803L49.3266 49.7699L49.4103 49.7385L49.4207 49.728L49.5044 49.6966L49.5149 49.6862L49.5986 49.6548H49.609L49.6927 49.6234H49.7032C50.446 49.3515 51.2411 49.1841 52.0676 49.1318H52.1408H52.1722H52.2454H52.2663H52.2872H52.3605H52.4546H52.4651H52.5697H52.6743H52.6848H52.7789H52.8522H52.8731H52.894H52.9673H52.9986H53.0719C53.8984 49.1841 54.6934 49.3515 55.4362 49.6234H55.4467L55.5304 49.6548H55.5409L55.6245 49.6862L55.635 49.6966L55.7187 49.728L55.7292 49.7385L55.8129 49.7699L55.8233 49.7803L55.8442 49.7908C56.3464 50 56.8276 50.272 57.288 50.5858L73.127 34.749L73.1166 34.7594ZM56.5661 54.069C56.451 54.0063 56.3464 53.9226 56.2418 53.818C56.1476 53.7238 56.0639 53.6088 55.9907 53.4937L55.9593 53.4728C55.5932 53.159 55.1852 52.8975 54.7353 52.6987L54.7248 52.6883H54.7144L54.6621 52.6674H54.6516L54.5993 52.6464H54.5888L54.5365 52.6255H54.5261L54.4738 52.6046H54.4633L54.4005 52.5837L54.3482 52.5628H54.3377C53.8565 52.3849 53.3543 52.2803 52.8522 52.2594H52.8103H52.7894H52.7371H52.7266H52.6743H52.6639H52.6011H52.5383H52.4756H52.4128H52.4023H52.35H52.3396H52.2872H52.2663H52.2245C51.7223 52.2908 51.2201 52.3954 50.7389 52.5628H50.7284L50.6761 52.5837C50.6134 52.6046 50.5611 52.6255 50.4983 52.6569H50.4878L50.4355 52.6778H50.4251L50.3727 52.6987H50.3623L50.3518 52.7092C49.9124 52.9079 49.494 53.1695 49.1278 53.4833L49.0964 53.5042L49.0755 53.5251L49.0441 53.5565L49.0232 53.5669L48.9918 53.5983L48.9813 53.6088L48.9499 53.6402L48.9395 53.6506L48.8976 53.6925L48.8872 53.7029L48.8453 53.7448L48.8035 53.7866L48.7616 53.8284L48.7198 53.8703L48.7093 53.8807L48.6675 53.9226L48.657 53.9331L48.6256 53.9644L48.6152 53.9749L48.5838 54.0063L48.5733 54.0272L48.5419 54.0586L48.521 54.0795L48.5001 54.1109C48.1862 54.477 47.9247 54.8849 47.7259 55.3347L47.7155 55.3452V55.3556L47.6945 55.4079V55.4184L47.6736 55.4707V55.4812C47.6527 55.5439 47.6213 55.5962 47.6004 55.659L47.5795 55.7113V55.7218C47.4016 56.2029 47.297 56.705 47.2761 57.2071V57.249V57.2699V57.3222V57.3326V57.3849V57.3954V57.4582V57.5209V57.5837V57.6464V57.6569V57.7092V57.7197V57.772V57.7929V57.8347C47.3075 58.3368 47.4121 58.8389 47.5795 59.3201V59.3305L47.6004 59.3828L47.6213 59.4456V59.4561L47.6422 59.5084V59.5188L47.6632 59.5711V59.5816L47.6841 59.6339V59.6443L47.705 59.6966V59.7071L47.7155 59.7176C47.9142 60.1569 48.1758 60.5753 48.4896 60.9414L48.5106 60.9728L48.5315 60.9937L48.5629 61.0251L48.5733 61.046L48.6047 61.0774L48.6152 61.0879L48.6466 61.1192L48.657 61.1297L48.6989 61.1715L48.7093 61.182L48.7512 61.2238L48.793 61.2657L48.8349 61.3075L48.8767 61.3494L48.8872 61.3598L48.929 61.4017L48.9395 61.4121L48.9709 61.4435L48.9813 61.454L49.0127 61.4854L49.0336 61.4958L49.065 61.5272L49.0859 61.5481L49.1173 61.569C49.4835 61.8828 49.8915 62.1443 50.3414 62.3431L50.3518 62.3536H50.3623L50.4146 62.3745H50.4251L50.4774 62.3954H50.4878C50.5506 62.4163 50.6029 62.4477 50.6657 62.4686L50.718 62.4895H50.7284C51.2097 62.6674 51.7119 62.772 52.214 62.7929H52.2559H52.2768H52.3291H52.3396H52.3919H52.4023H52.4651H52.5279H52.5906H52.6534H52.6639H52.7162H52.7266H52.7789H52.7999H52.8417C53.3439 62.7615 53.846 62.6569 54.3273 62.4895H54.3377L54.3901 62.4686L54.4528 62.4477H54.4633L54.5156 62.4268H54.5261L54.5784 62.4059H54.5888L54.6411 62.3849H54.6516L54.7039 62.364H54.7144L54.7248 62.3536C55.1642 62.1548 55.5827 61.8933 55.9489 61.5795L55.9802 61.5586L56.0012 61.5377L56.0326 61.5063L56.0535 61.4958L56.0849 61.4644L56.0953 61.454L56.1267 61.4226L56.1372 61.4121L56.179 61.3703L56.1895 61.3598L56.2313 61.318L56.2732 61.2761L56.315 61.2343L56.3569 61.1925L56.3673 61.182L56.4092 61.1402L56.4196 61.1297L56.451 61.0983L56.4615 61.0879L56.4929 61.0565L56.5033 61.0356L56.5347 61.0042L56.5556 60.9833L56.5766 60.9519C56.8904 60.5858 57.152 60.1778 57.3507 59.728L57.3612 59.7176V59.7071L57.3821 59.6548V59.6443L57.403 59.592V59.5816L57.424 59.5293V59.5188L57.4449 59.4665V59.4561L57.4658 59.3933L57.4867 59.341V59.3305C57.6646 58.8494 57.7692 58.3473 57.7901 57.8452V57.8033V57.7824V57.7301V57.7197V57.6674V57.6569V57.5941V57.5314V57.4686V57.4059V57.3954V57.3431V57.3326V57.2803V57.2594V57.2176C57.7587 56.7155 57.6541 56.2134 57.4867 55.7322V55.7218L57.4658 55.6695C57.4449 55.6067 57.424 55.5544 57.3926 55.4916V55.4812L57.3717 55.4289V55.4184L57.3507 55.3661V55.3556L57.3403 55.3452C57.1415 54.9059 56.88 54.4874 56.5661 54.1213L56.5452 54.09L56.5661 54.069ZM75.3031 78.0648C75.9099 78.6715 75.9099 79.6443 75.3031 80.251C74.6963 80.8577 73.7234 80.8577 73.1166 80.251L68.6076 75.7427C68.0008 75.136 68.0008 74.1632 68.6076 73.5565C69.2144 72.9498 70.1873 72.9498 70.7941 73.5565L75.3031 78.0648ZM83.1808 55.9623C84.0387 55.9623 84.7291 56.6527 84.7291 57.5105C84.7291 58.3682 84.0387 59.0586 83.1808 59.0586H76.8096C75.9517 59.0586 75.2612 58.3682 75.2612 57.5105C75.2612 56.6527 75.9517 55.9623 76.8096 55.9623H83.1808ZM35.3078 55.9623C36.1657 55.9623 36.8562 56.6527 36.8562 57.5105C36.8562 58.3682 36.1657 59.0586 35.3078 59.0586H10.095C9.23715 59.0586 8.54668 58.3682 8.54668 57.5105C8.54668 56.6527 9.23715 55.9623 10.095 55.9623H35.3078ZM51.0005 26.8933C51.0005 26.0356 51.6909 25.3452 52.5488 25.3452C53.4067 25.3452 54.0971 26.0356 54.0971 26.8933V33.2636C54.0971 34.1213 53.4067 34.8117 52.5488 34.8117C51.6909 34.8117 51.0005 34.1213 51.0005 33.2636V26.8933ZM51.0005 81.7573C51.0005 80.8996 51.6909 80.2092 52.5488 80.2092C53.4067 80.2092 54.0971 80.8996 54.0971 81.7573V88.1276C54.0971 88.9854 53.4067 89.6757 52.5488 89.6757C51.6909 89.6757 51.0005 88.9854 51.0005 88.1276V81.7573Z" fill="white"/>
</g>
<defs>
<clipPath id="clip0_3690_14144">
<rect width="103" height="100" fill="white"/>
</clipPath>
</defs>
</svg>
