<svg width="80" height="80" viewBox="0 0 80 80" fill="none" xmlns="http://www.w3.org/2000/svg">
<g clip-path="url(#clip0_5603_4294)">
<path d="M17.9797 32.9309C22.9418 32.9309 27.4441 34.9416 30.6941 38.1872C33.944 41.4328 35.9574 45.9291 35.9574 50.8846C35.9574 55.8401 33.944 60.3364 30.6941 63.582C27.4441 66.8276 22.9418 68.8383 17.9797 68.8383C13.0176 68.8383 8.51521 66.8276 5.26527 63.582C2.01533 60.3364 0.00195312 55.8401 0.00195312 50.8846C0.00195312 45.9291 2.01533 41.4328 5.26527 38.1872C8.51521 34.9416 13.0176 32.9309 17.9797 32.9309ZM27.8405 41.037C25.3198 38.5197 21.832 36.9681 17.9797 36.9681C14.1273 36.9681 10.6396 38.5197 8.11888 41.037C5.59819 43.5543 4.04456 47.0374 4.04456 50.8846C4.04456 54.7318 5.59819 58.2149 8.11888 60.7322C10.6396 63.2495 14.1273 64.8011 17.9797 64.8011C21.832 64.8011 25.3198 63.2495 27.8405 60.7322C30.3612 58.2149 31.9148 54.7318 31.9148 50.8846C31.9148 47.0374 30.3612 43.5543 27.8405 41.037Z" fill="white"/>
<path d="M15.9505 45.09C15.9505 43.9818 16.8541 43.0793 17.9639 43.0793C19.0736 43.0793 19.9773 43.9818 19.9773 45.09V50.7421C19.9773 51.3279 19.7236 51.8662 19.3273 52.2303L15.3956 56.3625C14.6347 57.17 13.3505 57.2017 12.542 56.4259C11.7335 55.6659 11.7018 54.3835 12.4786 53.5761L15.9505 49.9347V45.0742V45.09Z" fill="white"/>
<path d="M25.0186 28.5296C25.0186 29.6378 24.1149 30.5403 23.0052 30.5403C21.8955 30.5403 20.9918 29.6378 20.9918 28.5296V7.75777C20.9918 5.62042 21.8638 3.6889 23.2747 2.27983C24.6857 0.87077 26.6198 0 28.76 0H72.2458C74.386 0 76.3201 0.87077 77.731 2.27983C79.142 3.6889 80.0139 5.62042 80.0139 7.75777V72.2422C80.0139 74.3796 79.142 76.3111 77.731 77.7202C76.3201 79.1292 74.386 80 72.2458 80H28.76C26.8734 80 25.1296 79.3034 23.7662 78.1635C22.3869 77.0077 21.4199 75.3928 21.1028 73.5563C20.9126 72.4639 21.6577 71.419 22.7515 71.229C23.8454 71.039 24.8918 71.7831 25.082 72.8755C25.2405 73.7621 25.7003 74.5379 26.3661 75.092C27.0161 75.6303 27.8563 75.9628 28.76 75.9628H72.2458C73.2762 75.9628 74.1957 75.5353 74.8774 74.8704C75.5591 74.1896 75.9713 73.2555 75.9713 72.2422V7.75777C75.9713 6.72868 75.5433 5.81041 74.8774 5.12963C74.1957 4.44884 73.2604 4.03721 72.2458 4.03721H28.76C27.7295 4.03721 26.81 4.46467 26.1283 5.12963C25.4466 5.81041 25.0344 6.74451 25.0344 7.75777V28.5296H25.0186Z" fill="#06D7F9"/>
<path d="M34.3562 24.6348C35.7196 24.6348 36.9562 25.1889 37.8598 26.0913C38.7635 26.9938 39.3183 28.2287 39.3183 29.6061C39.3183 30.9835 38.7635 32.2184 37.8598 33.1208C37.8123 33.1683 37.7647 33.2158 37.7172 33.2475C36.8294 34.0707 35.6404 34.5774 34.3404 34.5774C32.9611 34.5774 31.7246 34.0232 30.8209 33.1208C29.9173 32.2184 29.3624 30.9835 29.3624 29.6061C29.3624 28.2287 29.9173 26.9938 30.8209 26.0913C31.7246 25.1889 32.9611 24.6348 34.3404 24.6348H34.3562ZM35.0062 28.9253C34.8477 28.767 34.6099 28.6561 34.3562 28.6561C34.1026 28.6561 33.8648 28.767 33.7063 28.9253C33.5319 29.0994 33.4367 29.3211 33.4367 29.5744C33.4367 29.8277 33.5477 30.0652 33.7063 30.2235C33.8806 30.3977 34.1026 30.4927 34.3562 30.4927C34.594 30.4927 34.8001 30.4135 34.9587 30.271L35.0062 30.2077C35.1806 30.0335 35.2757 29.8119 35.2757 29.5586C35.2757 29.3053 35.1648 29.0678 35.0062 28.9095V28.9253Z" fill="#06D7F9"/>
<path d="M44.3438 13.9324C45.7072 13.9324 46.9438 14.4865 47.8474 15.3889L47.8633 15.4048C48.7669 16.3072 49.3059 17.5421 49.3059 18.9037C49.3059 20.2652 48.751 21.5002 47.8474 22.4026L47.8315 22.4184C46.9279 23.3209 45.6913 23.8591 44.3279 23.8591C42.9646 23.8591 41.7121 23.305 40.8085 22.4026C40.7609 22.3551 40.7134 22.3076 40.6817 22.2601C39.8573 21.3735 39.3658 20.1861 39.3658 18.9037C39.3658 17.5263 39.9207 16.2914 40.8244 15.3889C41.728 14.4865 42.9646 13.9324 44.3438 13.9324ZM44.9938 18.2229C44.8353 18.0646 44.5975 17.9537 44.3438 17.9537C44.0901 17.9537 43.8523 18.0646 43.6938 18.2229C43.5194 18.397 43.4243 18.6187 43.4243 18.872C43.4243 19.1095 43.5036 19.3153 43.6304 19.4736L43.6938 19.537C43.8682 19.7111 44.0901 19.8061 44.3438 19.8061C44.6133 19.8061 44.8353 19.7111 44.9938 19.537C45.1523 19.3786 45.2633 19.1412 45.2633 18.8878C45.2633 18.6187 45.1682 18.397 44.9938 18.2387V18.2229Z" fill="#06D7F9"/>
<path d="M53.634 24.6032C55.0132 24.6032 56.2498 25.1574 57.1534 26.0598C57.201 26.1073 57.2485 26.1548 57.2802 26.2023C58.1046 27.0889 58.5961 28.2763 58.5961 29.5587C58.5961 30.9203 58.0412 32.1552 57.1375 33.0576L57.1217 33.0735C56.218 33.9759 54.9815 34.5142 53.6181 34.5142C52.2547 34.5142 51.0023 33.9601 50.0986 33.0576C49.195 32.1552 48.6401 30.9203 48.6401 29.5429C48.6401 28.1813 49.195 26.9464 50.0986 26.044C51.0023 25.1415 52.2389 24.5874 53.6181 24.5874L53.634 24.6032ZM54.2839 28.9096C54.1096 28.7354 53.8876 28.6404 53.634 28.6404C53.3803 28.6404 53.1425 28.7513 52.984 28.9096C52.8254 29.0837 52.7145 29.3054 52.7145 29.5745C52.7145 29.8279 52.8254 30.0653 52.984 30.2237C53.1583 30.3978 53.3803 30.4928 53.634 30.4928C53.9035 30.4928 54.1254 30.3978 54.2839 30.2237C54.4425 30.0653 54.5534 29.8279 54.5534 29.5745C54.5534 29.3371 54.4742 29.1312 54.3473 28.9729L54.2839 28.9096Z" fill="#06D7F9"/>
<path d="M67.2678 8.8186C68.6311 8.8186 69.8677 9.37273 70.7713 10.2752L70.7872 10.291C71.6908 11.1934 72.2299 12.4283 72.2299 13.7899C72.2299 15.1673 71.675 16.4022 70.7713 17.3047C69.8677 18.2071 68.6311 18.7612 67.2519 18.7612C65.8885 18.7612 64.6519 18.2071 63.7483 17.3047C62.8447 16.4022 62.2898 15.1673 62.2898 13.7899C62.2898 12.4283 62.8447 11.1776 63.7483 10.2752C64.6519 9.37273 65.8885 8.8186 67.2678 8.8186ZM67.9177 13.1091C67.7592 12.9508 67.5214 12.84 67.2678 12.84C67.0141 12.84 66.7763 12.9508 66.6178 13.1091C66.4434 13.2833 66.3483 13.5049 66.3483 13.7582C66.3483 14.0116 66.4592 14.249 66.6178 14.4074C66.7763 14.5657 67.0141 14.6765 67.2678 14.6765C67.5214 14.6765 67.7592 14.5657 67.9177 14.4074C68.0921 14.2332 68.1872 14.0116 68.1872 13.7582C68.1872 13.4891 68.0921 13.2674 67.9177 13.1091Z" fill="#06D7F9"/>
<path d="M37.8599 28.7513C37.1147 29.5745 35.8306 29.6379 35.0062 28.8779C34.1819 28.1338 34.1185 26.8514 34.8794 26.0281L40.7769 19.5686C41.522 18.7453 42.8061 18.682 43.6305 19.4419C44.4549 20.186 44.5183 21.4685 43.7573 22.2917L37.8599 28.7513Z" fill="#06D7F9"/>
<path d="M53.2376 26.0441C53.951 26.899 53.84 28.1656 52.9839 28.878C52.1278 29.5905 50.8596 29.4796 50.1461 28.6247L44.8511 22.3235C44.1377 21.4686 44.2487 20.202 45.1048 19.4895C45.9609 18.7771 47.2291 18.8879 47.9425 19.7429L53.2376 26.0441Z" fill="#06D7F9"/>
<path d="M56.7412 28.4188C55.9961 29.2421 54.712 29.3054 53.8876 28.5455C53.0632 27.8013 52.9998 26.5189 53.7608 25.6957L63.8277 14.6606C64.5728 13.8374 65.8569 13.774 66.6813 14.534C67.5056 15.2781 67.5691 16.5605 66.8081 17.3838L56.7412 28.4188Z" fill="#06D7F9"/>
<path d="M52.112 48.3515C51.0023 48.3515 50.0986 47.449 50.0986 46.3408C50.0986 45.2325 51.0023 44.3301 52.112 44.3301H70.5495C71.6592 44.3301 72.5629 45.2325 72.5629 46.3408C72.5629 47.449 71.6592 48.3515 70.5495 48.3515H52.112Z" fill="#06D7F9"/>
<path d="M42.9012 48.3515C41.7915 48.3515 40.8878 47.449 40.8878 46.3408C40.8878 45.2325 41.7915 44.3301 42.9012 44.3301H45.6438C46.7536 44.3301 47.6572 45.2325 47.6572 46.3408C47.6572 47.449 46.7536 48.3515 45.6438 48.3515H42.9012Z" fill="#06D7F9"/>
<path d="M52.112 55.9508C51.0023 55.9508 50.0986 55.0484 50.0986 53.9401C50.0986 52.8319 51.0023 51.9294 52.112 51.9294H70.5495C71.6592 51.9294 72.5629 52.8319 72.5629 53.9401C72.5629 55.0484 71.6592 55.9508 70.5495 55.9508H52.112Z" fill="#06D7F9"/>
<path d="M42.9012 55.9508C41.7915 55.9508 40.8878 55.0484 40.8878 53.9401C40.8878 52.8319 41.7915 51.9294 42.9012 51.9294H45.6438C46.7536 51.9294 47.6572 52.8319 47.6572 53.9401C47.6572 55.0484 46.7536 55.9508 45.6438 55.9508H42.9012Z" fill="#06D7F9"/>
<path d="M52.112 63.5663C51.0023 63.5663 50.0986 62.6639 50.0986 61.5556C50.0986 60.4474 51.0023 59.5449 52.112 59.5449H70.5495C71.6592 59.5449 72.5629 60.4474 72.5629 61.5556C72.5629 62.6639 71.6592 63.5663 70.5495 63.5663H52.112Z" fill="#06D7F9"/>
<path d="M42.9012 63.5663C41.7915 63.5663 40.8878 62.6639 40.8878 61.5556C40.8878 60.4474 41.7915 59.5449 42.9012 59.5449H45.6438C46.7536 59.5449 47.6572 60.4474 47.6572 61.5556C47.6572 62.6639 46.7536 63.5663 45.6438 63.5663H42.9012Z" fill="#06D7F9"/>
<path d="M52.112 71.1657C51.0023 71.1657 50.0986 70.2632 50.0986 69.155C50.0986 68.0467 51.0023 67.1443 52.112 67.1443H70.5495C71.6592 67.1443 72.5629 68.0467 72.5629 69.155C72.5629 70.2632 71.6592 71.1657 70.5495 71.1657H52.112Z" fill="#06D7F9"/>
</g>
<defs>
<clipPath id="clip0_5603_4294">
<rect width="80" height="80" fill="white"/>
</clipPath>
</defs>
</svg>
