<svg width="81" height="80" viewBox="0 0 81 80" fill="none" xmlns="http://www.w3.org/2000/svg">
<g clip-path="url(#clip0_3690_14225)">
<path d="M17.3887 0C22.19 0 26.5368 1.94913 29.6806 5.09772C32.8244 8.24632 34.7706 12.5997 34.7706 17.4083C34.7706 21.1995 33.5516 24.7175 31.4878 27.5823C29.4775 30.3722 26.6651 32.5408 23.393 33.751L18.7414 40.7068C18.2388 41.4565 17.223 41.66 16.4744 41.1566C16.282 41.0281 16.1269 40.8675 16.0093 40.6854L11.3737 33.7564C8.1016 32.5462 5.28927 30.3775 3.27893 27.5877C1.21513 24.7229 -0.00390625 21.2048 -0.00390625 17.4137C-0.00390625 12.6051 1.94227 8.25167 5.08609 5.10308C8.22992 1.95448 12.5767 0.00535475 17.378 0.00535475L17.3887 0ZM27.3655 7.42169C24.8152 4.86747 21.2864 3.28246 17.3887 3.28246C13.491 3.28246 9.96757 4.86211 7.41188 7.42169C4.86153 9.9759 3.27893 13.51 3.27893 17.4137C3.27893 20.5033 4.26271 23.3574 5.93621 25.676C7.65248 28.0589 10.0959 29.8849 12.9456 30.8273V30.8327C13.2771 30.9398 13.5819 31.1593 13.7904 31.4752L17.3941 36.8621L20.9282 31.577C21.1207 31.2343 21.4361 30.9665 21.8371 30.8327C24.6869 29.8902 27.1303 28.0643 28.8465 25.6814C30.5147 23.3628 31.5038 20.5087 31.5038 17.419C31.5038 13.5154 29.9266 9.98661 27.3709 7.42704L27.3655 7.42169Z" fill="black"/>
<path d="M12.0694 19.0092C12.326 19.8766 11.8341 20.7869 10.968 21.0493C10.1018 21.3063 9.19289 20.8137 8.93091 19.9462C8.81328 19.5446 8.71704 19.1216 8.65288 18.6879C8.58872 18.2595 8.55664 17.8311 8.55664 17.4081C8.55664 14.9663 9.54577 12.7602 11.1444 11.1591C12.7431 9.55801 14.9459 8.56738 17.3839 8.56738C19.822 8.56738 22.0248 9.55801 23.6235 11.1591C25.2221 12.7602 26.2112 14.9663 26.2112 17.4081C26.2112 19.8498 25.2221 22.056 23.6235 23.6571C22.0248 25.2581 19.822 26.2488 17.3839 26.2488C16.9509 26.2488 16.5178 26.2166 16.0847 26.1524C15.6677 26.0881 15.2399 25.9917 14.8122 25.8632C13.9514 25.6009 13.4649 24.6905 13.7268 23.8231C13.9888 22.961 14.8978 22.4737 15.7639 22.7361C16.0045 22.811 16.2718 22.8699 16.5606 22.9128C16.8225 22.9502 17.1006 22.9717 17.3893 22.9717C18.9238 22.9717 20.3085 22.3505 21.3137 21.3438C22.3189 20.3371 22.9391 18.9502 22.9391 17.4134C22.9391 15.8766 22.3189 14.4897 21.3137 13.483C20.3085 12.4764 18.9238 11.8552 17.3893 11.8552C15.8548 11.8552 14.47 12.4764 13.4649 13.483C12.4597 14.4897 11.8395 15.8766 11.8395 17.4134C11.8395 17.7026 11.8609 17.9757 11.8983 18.2327C11.9357 18.4951 11.9945 18.7575 12.0747 19.0145L12.0694 19.0092Z" fill="black"/>
<path d="M63.6162 33.8584C68.4175 33.8584 72.7643 35.8075 75.9082 38.9561C79.052 42.1047 80.9982 46.4581 80.9982 51.2667C80.9982 55.0579 79.7791 58.5759 77.7153 61.4407C75.705 64.2306 72.8927 66.3992 69.6205 67.6094L64.9689 74.5652C64.4664 75.3149 63.4505 75.5184 62.702 75.015C62.5095 74.8865 62.3544 74.7259 62.2368 74.5438L57.6013 67.6148C54.3291 66.4046 51.5168 64.2359 49.5065 61.4461C47.4427 58.5813 46.2236 55.0632 46.2236 51.2721C46.2236 46.4635 48.1698 42.1101 51.3136 38.9615C54.4575 35.8129 58.8043 33.8638 63.6056 33.8638L63.6162 33.8584ZM73.5931 41.2801C71.0427 38.7259 67.5139 37.1409 63.6162 37.1409C59.7185 37.1409 56.1951 38.7205 53.6394 41.2801C51.0891 43.8343 49.5065 47.3684 49.5065 51.2721C49.5065 54.3617 50.4902 57.2158 52.1637 59.5344C53.88 61.9173 56.3234 63.7433 59.1732 64.6857V64.6911C59.5047 64.7982 59.8094 65.0177 60.018 65.3336L63.6216 70.7205L67.1557 65.4354C67.3482 65.0927 67.6637 64.8249 68.0646 64.6911C70.9144 63.7486 73.3578 61.9227 75.0741 59.5398C76.7422 57.2212 77.7314 54.3671 77.7314 51.2774C77.7314 47.3738 76.1541 43.845 73.5984 41.2854L73.5931 41.2801Z" fill="black"/>
<path d="M63.4447 45.7029C62.5411 45.7297 61.7926 45.0175 61.7659 44.1125C61.7391 43.2076 62.4502 42.4579 63.3538 42.4311C63.7922 42.4204 64.2146 42.4365 64.6263 42.4847C65.0487 42.5329 65.4711 42.6132 65.8935 42.7257C68.246 43.3575 70.1227 44.8836 71.2508 46.8435L71.3043 46.9452C72.3896 48.8836 72.7532 51.2344 72.133 53.5476C71.5021 55.9037 69.9783 57.7832 68.0214 58.9131L67.9198 58.9666C65.9844 60.0536 63.6372 60.4178 61.3274 59.7966C58.9749 59.1648 57.0982 57.6387 55.9701 55.6788L55.9166 55.5771C54.8313 53.6386 54.4677 51.2879 55.0879 48.9747C55.1948 48.5677 55.3445 48.1554 55.521 47.7431C55.7028 47.32 55.9059 46.9291 56.1252 46.5811C56.601 45.8154 57.6115 45.5797 58.3761 46.0563C59.1407 46.5329 59.3759 47.5449 58.9001 48.3107C58.745 48.557 58.6167 48.8033 58.5151 49.0336C58.4135 49.2638 58.328 49.5262 58.2478 49.8154C57.8575 51.2718 58.082 52.7444 58.7557 53.9599L58.7985 54.0349C59.5096 55.2665 60.6912 56.2303 62.1722 56.6266C63.6265 57.0175 65.0968 56.7926 66.3105 56.1179L66.3854 56.0751C67.6151 55.3629 68.5775 54.1795 68.9731 52.6962C69.3634 51.2397 69.1389 49.7672 68.4652 48.5516L68.4224 48.4767C67.7113 47.2451 66.5297 46.2812 65.0487 45.885C64.7814 45.8154 64.5194 45.7618 64.2574 45.7297C63.9687 45.6976 63.696 45.6815 63.4447 45.6922V45.7029Z" fill="black"/>
<path d="M27.4995 68.0371C29.1463 68.0371 30.6434 68.7065 31.7234 69.7881C32.8034 70.8698 33.4717 72.3637 33.4717 74.0184C33.4717 75.6676 32.8034 77.167 31.7234 78.2486C30.6434 79.3303 29.1516 79.9996 27.4995 79.9996C25.8528 79.9996 24.3557 79.3303 23.2757 78.2486C22.1957 77.167 21.5273 75.673 21.5273 74.0184C21.5273 72.3691 22.1957 70.8698 23.2757 69.7881C24.3557 68.7065 25.8474 68.0371 27.4995 68.0371ZM29.4083 72.1067C28.9217 71.6194 28.2481 71.3142 27.4995 71.3142C26.7564 71.3142 26.0827 71.6141 25.5908 72.1067C25.1042 72.594 24.7995 73.2687 24.7995 74.0184C24.7995 74.7627 25.0989 75.4374 25.5908 75.93C26.0773 76.4173 26.751 76.7225 27.4995 76.7225C28.2427 76.7225 28.9164 76.4227 29.4083 75.93C29.8948 75.4427 30.1996 74.768 30.1996 74.0184C30.1996 73.2741 29.9002 72.5994 29.4083 72.1067Z" fill="#06D7F9"/>
<path d="M36.8189 35.0469C38.4656 35.0469 39.9627 35.7162 41.0427 36.7979C42.1227 37.8795 42.7911 39.3735 42.7911 41.0281C42.7911 42.6774 42.1227 44.1767 41.0427 45.2584C39.9627 46.34 38.471 47.0094 36.8189 47.0094C35.1721 47.0094 33.6751 46.34 32.595 45.2584C31.515 44.1767 30.8467 42.6828 30.8467 41.0281C30.8467 39.3789 31.515 37.8795 32.595 36.7979C33.6751 35.7162 35.1668 35.0469 36.8189 35.0469ZM38.7276 39.1165C38.2411 38.6292 37.5674 38.324 36.8189 38.324C36.0757 38.324 35.402 38.6239 34.9101 39.1165C34.4236 39.6038 34.1188 40.2785 34.1188 41.0281C34.1188 41.7724 34.4182 42.4471 34.9101 42.9398C35.3967 43.4271 36.0703 43.7323 36.8189 43.7323C37.5621 43.7323 38.2357 43.4324 38.7276 42.9398C39.2142 42.4525 39.5189 41.7778 39.5189 41.0281C39.5189 40.2838 39.2195 39.6091 38.7276 39.1165Z" fill="#06D7F9"/>
<path d="M18.1753 72.161C19.0789 72.161 19.8113 72.8946 19.8113 73.7995C19.8113 74.7045 19.0789 75.4381 18.1753 75.4381H16.6247C13.8178 75.4381 11.2674 74.2922 9.42283 72.4394C7.57289 70.5867 6.42871 68.0378 6.42871 65.2266C6.42871 62.4153 7.57824 59.8611 9.42283 58.0137C11.2728 56.161 13.8178 55.0151 16.6247 55.0151V55.0204H33.4934V55.0151C35.215 55.0151 36.7923 54.3778 38.0059 53.3337C39.241 52.2681 40.0965 50.7794 40.3424 49.0981C40.4707 48.2038 41.3048 47.5827 42.1977 47.7112C43.0906 47.8397 43.7108 48.675 43.5825 49.5693C43.2136 52.0432 41.9571 54.2386 40.1446 55.8022C38.3535 57.3497 36.0277 58.2922 33.4987 58.2922V58.2868H16.6301V58.2922C14.7267 58.2922 12.9997 59.074 11.7433 60.3323C10.4868 61.5907 9.7062 63.3203 9.7062 65.2266C9.7062 67.1329 10.4868 68.8624 11.7433 70.1208C12.9997 71.3792 14.7267 72.161 16.6301 72.161H18.1806H18.1753ZM57.0774 72.161C57.981 72.161 58.7135 72.8946 58.7135 73.7995C58.7135 74.7045 57.981 75.4381 57.0774 75.4381H37.3911C36.4875 75.4381 35.755 74.7045 35.755 73.7995C35.755 72.8946 36.4875 72.161 37.3911 72.161H57.0774ZM27.3501 37.8691C28.2537 37.8691 28.9862 38.6027 28.9862 39.5077C28.9862 40.4126 28.2537 41.1462 27.3501 41.1462H24.2544C23.3508 41.1462 22.6183 40.4126 22.6183 39.5077C22.6183 38.6027 23.3508 37.8691 24.2544 37.8691H27.3501Z" fill="#53D3AA"/>
</g>
<defs>
<clipPath id="clip0_3690_14225">
<rect width="81" height="80" fill="white"/>
</clipPath>
</defs>
</svg>
