<svg width="468" height="500" viewBox="0 0 468 500" fill="none" xmlns="http://www.w3.org/2000/svg">
<path d="M400 47C414.455 47 428.106 52.6212 437.742 62.2576C447.379 71.8939 453 85.5455 453 100C453 114.455 447.379 128.106 437.742 137.742C428.106 147.379 414.455 153 400 153C385.545 153 371.894 147.379 362.258 137.742C353.424 128.106 347 114.455 347 100C347 85.5455 353.424 71.8939 362.258 62.2576C371.894 52.6212 385.545 47 400 47ZM433.727 66.2727C424.894 57.4394 412.848 52.6212 400 52.6212C387.152 52.6212 375.106 57.4394 366.273 66.2727C357.439 75.1061 352.621 87.1515 352.621 100C352.621 112.848 357.439 124.894 366.273 133.727C375.106 142.561 387.152 147.379 400 147.379C412.848 147.379 424.894 142.561 433.727 133.727C442.561 124.894 447.379 112.848 447.379 100C447.379 87.1515 442.561 75.1061 433.727 66.2727Z" fill="#2ECD71"/>
<path d="M426.502 81.5307C427.305 80.7277 428.911 80.7277 429.714 81.5307C431.32 83.1368 431.32 84.7429 429.714 85.5459L396.79 119.273C395.987 120.076 393.578 120.076 392.775 119.273L373.502 100C372.699 99.1974 372.699 97.5913 373.502 95.9853C375.108 95.1823 376.714 95.1823 377.517 95.9853L394.381 113.652L426.502 81.5307Z" fill="#2ECD71"/>
<path d="M190.58 267.341V256.375L214.415 218.818H224.159V233.705H218.506L204.557 255.807V256.261H239.074V267.341H190.58ZM218.676 277V263.989L218.96 259.188V218.818H232.114V277H218.676ZM260.189 269.045L259.933 272.199C259.706 274.812 259.242 277.36 258.541 279.841C257.859 282.341 257.13 284.585 256.354 286.574C255.577 288.563 254.962 290.106 254.507 291.205H245.757C246.06 290.106 246.467 288.563 246.979 286.574C247.509 284.585 248.001 282.341 248.456 279.841C248.911 277.341 249.166 274.803 249.223 272.227L249.28 269.045H260.189ZM270.714 277L294.18 230.523V230.153H266.737V218.818H308.726V230.239L285.175 277H270.714Z" fill="white"/>
<g clip-path="url(#clip0_4971_330)">
<path d="M400.455 426.675C404.104 423.563 409.539 423.952 412.644 427.609C415.75 431.266 415.362 436.713 411.713 439.826C389.508 458.89 363.888 474.141 335.938 484.49C308.998 494.45 279.884 499.975 249.45 499.975C180.585 499.975 118.242 471.962 73.0571 426.753C27.9496 381.544 0 318.982 0 249.962C0 180.942 27.9496 118.458 73.0571 73.1705C118.165 27.9612 180.585 -0.0515137 249.45 -0.0515137C254.263 -0.0515137 258.145 3.83914 258.145 8.66355C258.145 13.488 254.263 17.3786 249.45 17.3786C185.399 17.3786 127.326 43.446 85.3238 85.5428C43.3218 127.64 17.3132 185.766 17.3132 250.04C17.3132 314.313 43.3218 372.439 85.3238 414.536C127.326 456.633 185.321 482.701 249.45 482.701C277.788 482.701 304.883 477.643 329.96 468.305C355.969 458.656 379.804 444.494 400.455 426.753V426.675Z" fill="#FFC527"/>
<path d="M450.998 301.94C452.162 297.349 456.898 294.548 461.479 295.715C466.059 296.882 468.854 301.629 467.69 306.22C455.112 355.553 426.309 398.35 387.335 428.62C349.215 458.267 301.312 475.93 249.372 475.93C187.185 475.93 130.82 450.641 90.0599 409.789C49.3001 368.937 24.0679 312.445 24.0679 250.117C24.0679 187.788 49.3001 131.296 90.0599 90.4443C130.82 49.5925 187.185 24.3032 249.372 24.3032C254.186 24.3032 258.068 28.1939 258.068 33.0183C258.068 37.8427 254.186 41.7333 249.372 41.7333C191.921 41.7333 139.903 65.0773 102.249 102.817C64.5947 140.556 41.3034 192.691 41.3034 250.272C41.3034 307.854 64.5947 359.989 102.249 397.728C139.903 435.467 191.921 458.811 249.372 458.811C297.353 458.811 341.606 442.548 376.776 415.236C412.722 387.301 439.352 347.772 450.92 302.251L450.998 301.94Z" fill="#06D1F3"/>
<path d="M433.373 250.039C433.373 245.215 437.255 241.324 442.069 241.324C446.882 241.324 450.764 245.215 450.764 250.039C450.764 305.753 428.249 356.176 391.837 392.67C355.425 429.165 305.116 451.73 249.527 451.73C193.939 451.73 143.63 429.165 107.218 392.67C70.8055 356.176 48.2905 305.753 48.2905 250.039C48.2905 194.325 70.8055 143.902 107.218 107.408C143.63 70.9134 193.939 48.3477 249.527 48.3477C254.341 48.3477 258.223 52.2383 258.223 57.0627C258.223 61.8871 254.341 65.7778 249.527 65.7778C198.752 65.7778 152.713 86.3982 119.484 119.78C86.1777 153.162 65.6037 199.227 65.6037 250.117C65.6037 301.007 86.1777 347.15 119.484 380.454C152.791 413.835 198.752 434.456 249.527 434.456C300.302 434.456 346.342 413.835 379.571 380.454C412.877 347.072 433.451 301.007 433.451 250.117L433.373 250.039Z" fill="#2ECD71"/>
<path d="M249.45 410.256C254.264 410.256 258.145 414.147 258.145 418.971C258.145 423.796 254.264 427.686 249.45 427.686C200.538 427.686 156.207 407.844 124.143 375.629C92.0784 343.492 72.2031 299.061 72.2031 250.039C72.2031 201.017 92.0007 156.586 124.065 124.449C156.129 92.312 200.461 72.3918 249.372 72.3918C254.186 72.3918 258.068 76.2825 258.068 81.1069C258.068 85.9313 254.186 89.822 249.372 89.822C205.197 89.822 165.291 107.719 136.332 136.743C107.373 165.767 89.5163 205.763 89.5163 250.039C89.5163 294.315 107.373 334.31 136.332 363.335C165.291 392.359 205.197 410.256 249.372 410.256H249.45Z" fill="#FF7B51"/>
<path d="M113.661 250.039C113.661 254.863 109.779 258.754 104.966 258.754C100.152 258.754 96.2705 254.863 96.2705 250.039C96.2705 207.631 113.428 169.269 141.145 141.49C168.862 113.711 207.137 96.5139 249.45 96.5139C254.263 96.5139 258.145 100.405 258.145 105.229C258.145 110.053 254.263 113.944 249.45 113.944C211.951 113.944 178.023 129.195 153.412 153.784C128.878 178.373 113.661 212.455 113.661 250.039Z" fill="#FF0000"/>
</g>
<defs>
<clipPath id="clip0_4971_330">
<rect width="468" height="500" fill="white"/>
</clipPath>
</defs>
</svg>
