<svg width="114" height="114" viewBox="0 0 114 114" fill="none" xmlns="http://www.w3.org/2000/svg">
<circle cx="57" cy="57" r="57" fill="white"/>
<g clip-path="url(#clip0_5339_268)">
<path d="M77.6147 58.4175C77.1739 58.4175 76.88 58.4175 76.586 58.1191L63.9477 45.2866C63.3599 44.6898 63.3599 43.7945 63.9477 43.1976C64.5355 42.6008 65.4173 42.6008 66.0051 43.1976L78.6434 56.0301C79.2313 56.627 79.2313 57.5223 78.6434 58.1191C78.3495 58.4175 77.9087 58.4175 77.6147 58.4175Z" fill="#06D7F9"/>
<path d="M65.1239 71.2501C64.683 71.2501 64.3891 71.1008 64.0952 70.8024C63.5073 70.2056 63.5073 69.3103 64.0952 68.7134L76.5865 56.0302C77.1744 55.4333 78.0561 55.4333 78.644 56.0302C79.2318 56.627 79.2318 57.5223 78.644 58.1192L66.1526 70.8024C65.8587 71.1008 65.4178 71.2501 65.1239 71.2501Z" fill="#06D7F9"/>
<rect x="33.5293" y="55.7046" width="43.2" height="2.82409" rx="1.41205" fill="#06D7F9"/>
</g>
<defs>
<clipPath id="clip0_5339_268">
<rect width="45.6" height="28.5" fill="white" transform="translate(33.5293 42.75)"/>
</clipPath>
</defs>
</svg>
