<svg width="100" height="100" viewBox="0 0 100 100" fill="none" xmlns="http://www.w3.org/2000/svg">
<g clip-path="url(#clip0_3690_14065)">
<path d="M85.7674 20.4991C85.1307 19.7243 85.2426 18.5801 86.0163 17.9434C86.791 17.3066 87.9352 17.4185 88.572 18.1922C92.2023 22.5897 95.0971 27.6229 97.0639 33.1005C98.9643 38.3924 99.9999 44.083 99.9999 49.9985C99.9999 63.805 94.4027 76.3054 85.3556 85.3536C76.3074 94.4019 63.8069 99.9979 50.0004 99.9979C48.3803 99.9979 46.7362 99.9143 45.077 99.7524C43.3982 99.5883 41.7758 99.3492 40.2133 99.0385C39.2267 98.8461 38.5834 97.8899 38.7757 96.9033C38.968 95.9166 39.9243 95.2733 40.9109 95.4657C42.4213 95.7656 43.9263 95.9905 45.4193 96.1372C46.8862 96.2806 48.414 96.3545 50.0004 96.3545C62.8007 96.3545 74.3906 91.1659 82.7792 82.7773C91.1679 74.3886 96.3565 62.7999 96.3565 49.9985C96.3565 44.4828 95.4013 39.2062 93.6486 34.3252C91.8264 29.2507 89.1403 24.5826 85.7685 20.498L85.7674 20.4991ZM14.454 79.7598C15.0984 80.5302 14.9963 81.6776 14.2258 82.322C13.4554 82.9663 12.308 82.8642 11.6636 82.0938C7.96042 77.6756 5.00592 72.6022 2.99677 67.0703C1.05825 61.7339 0.000976562 55.9846 0.000976562 49.9985C0.000976562 36.192 5.59704 23.6916 14.6453 14.6433C23.6935 5.59508 36.1939 -0.000976562 50.0004 -0.000976562C51.6955 -0.000976562 53.4037 0.0892124 55.1216 0.264157C56.8331 0.439102 58.5206 0.699889 60.1777 1.04217C61.16 1.24211 61.7945 2.20159 61.5946 3.18498C61.3947 4.16727 60.4352 4.80186 59.4518 4.60192C57.9164 4.28463 56.3539 4.04231 54.7663 3.88041C53.2331 3.72394 51.6445 3.64461 50.0015 3.64461C37.2001 3.64461 25.6114 8.83319 17.2227 17.2219C8.83406 25.6105 3.64548 37.1993 3.64548 50.0006C3.64548 55.5706 4.62235 60.9026 6.41417 65.8337C8.27446 70.9538 11.0149 75.6578 14.4551 79.7608L14.454 79.7598Z" fill="#10AD9B"/>
<path d="M74.8739 10.6067C75.9391 10.6067 76.8027 9.74322 76.8027 8.67801C76.8027 7.61279 75.9391 6.74927 74.8739 6.74927C73.8087 6.74927 72.9452 7.61279 72.9452 8.67801C72.9452 9.74322 73.8087 10.6067 74.8739 10.6067Z" fill="#10AD9B"/>
<path d="M24.9484 93.4241C26.0136 93.4241 26.8771 92.5606 26.8771 91.4954C26.8771 90.4302 26.0136 89.5667 24.9484 89.5667C23.8832 89.5667 23.0197 90.4302 23.0197 91.4954C23.0197 92.5606 23.8832 93.4241 24.9484 93.4241Z" fill="#10AD9B"/>
<path d="M49.999 20.2543C45.6547 22.8318 41.1616 25.2006 36.5043 27.338C31.9178 29.4427 27.1845 31.3096 22.2936 32.9177C21.8079 44.5619 23.0803 55.026 27.2529 63.5418C31.4429 72.0945 38.6265 78.7479 50.0001 82.7422C61.3748 78.7479 68.5573 72.0945 72.7473 63.5418C76.9199 55.026 78.1912 44.5619 77.7066 32.9177C72.8146 31.3096 68.0824 29.4427 63.4958 27.338C58.8375 25.2006 54.3444 22.8329 50.0012 20.2543H49.999ZM34.995 24.0347C39.8011 21.8299 44.4757 19.3383 49.033 16.5903C49.5959 16.2382 50.3315 16.2078 50.9389 16.574C55.5038 19.3285 60.1882 21.8256 65.003 24.0347C69.8178 26.2438 74.7814 28.1801 79.9081 29.8165C80.6611 30.0067 81.2348 30.6695 81.2761 31.4856C81.9357 44.1979 80.6307 55.6943 76.0049 65.1348C71.3227 74.6904 63.3079 82.0686 50.6032 86.3802L50.5814 86.3878C50.2152 86.5117 49.8078 86.5215 49.4144 86.3878C36.6967 82.0772 28.6753 74.697 23.9909 65.1358C19.3652 55.6953 18.0602 44.199 18.7197 31.4867H18.7219C18.7599 30.7521 19.2446 30.0849 19.9856 29.8491C25.1492 28.2062 30.1466 26.2579 34.9929 24.0347H34.995Z" fill="#10AD9B"/>
<path d="M49.9995 29.5451C46.9396 31.3489 43.7721 33.0125 40.4851 34.5207C37.2698 35.9964 33.9524 37.3112 30.5263 38.451C30.2188 46.6234 31.138 53.9592 34.0621 59.9269C37.0025 65.9282 42.0379 70.6105 49.9995 73.4476C57.9611 70.6115 62.9965 65.9293 65.9368 59.9269C68.8609 53.9592 69.7791 46.6234 69.4727 38.451C66.0466 37.3112 62.7292 35.9964 59.5139 34.5207C56.2269 33.0125 53.0594 31.35 49.9995 29.5451ZM38.9758 31.2174C42.4116 29.6408 45.7617 27.8555 49.0335 25.8832C49.5963 25.5312 50.332 25.5008 50.9394 25.8669C54.2199 27.8457 57.5786 29.6375 61.0232 31.2174C64.4677 32.7974 68.0166 34.1828 71.6785 35.3531C72.4315 35.5432 73.0053 36.2061 73.0466 37.0221C73.5268 46.2627 72.5728 54.6307 69.1967 61.5209C65.7641 68.5263 59.8974 73.9333 50.6036 77.0878L50.5819 77.0954C50.2157 77.2192 49.8082 77.229 49.4149 77.0954C40.1091 73.942 34.236 68.5318 30.8012 61.5209C27.4251 54.6307 26.471 46.2638 26.9513 37.0221H26.9535C26.9915 36.2876 27.4761 35.6204 28.2172 35.3846C31.916 34.2078 35.4986 32.8115 38.9747 31.2163L38.9758 31.2174Z" fill="#10AD9B"/>
<path d="M40.3407 48.6977C41.2067 47.8316 42.3466 47.3981 43.4843 47.3981V47.4057C44.6263 47.4057 45.7673 47.8371 46.6279 48.6977L47.7101 49.7799L54.333 43.157C55.1991 42.291 56.3389 41.8574 57.4766 41.8574C58.6143 41.8574 59.7542 42.291 60.6202 43.157C61.4862 44.023 61.9198 45.1629 61.9198 46.3006H61.9122C61.9122 47.4383 61.4808 48.576 60.6202 49.4366L60.6169 49.4398L60.6202 49.4431L50.8537 59.2096L50.8048 59.2563C50.7679 59.2943 50.7287 59.3291 50.6896 59.3628C50.6331 59.4171 50.5744 59.4682 50.5114 59.516C50.4701 59.5518 50.4278 59.5866 50.3832 59.6181C50.3387 59.6529 50.293 59.6855 50.2463 59.7148C50.2017 59.7485 50.155 59.78 50.1083 59.8094C50.0561 59.8441 50.0029 59.8757 49.9475 59.905L49.8714 59.9495C49.8247 59.9778 49.7769 60.0039 49.7291 60.0267L49.6291 60.0767C49.5693 60.1071 49.5074 60.1332 49.4455 60.156L49.3966 60.1766C49.3509 60.1951 49.3053 60.2125 49.2586 60.2277L49.2466 60.2332C49.1445 60.2777 49.0391 60.3125 48.9326 60.3364L48.8456 60.3603L48.8467 60.3625L48.7859 60.3777C48.7337 60.3907 48.6816 60.4016 48.6283 60.4103L48.5381 60.4266C48.4632 60.445 48.3871 60.4603 48.311 60.4689C48.2524 60.4776 48.1915 60.4842 48.1307 60.4885C48.0448 60.4994 47.9579 60.5037 47.872 60.5026H47.7101C47.6688 60.5059 47.6276 60.507 47.5852 60.507C47.5189 60.507 47.4537 60.5037 47.3896 60.4961C47.2961 60.4929 47.2038 60.482 47.1136 60.4646L47.0636 60.4559L47.0625 60.4603L46.9506 60.4429C46.9039 60.4363 46.8571 60.4277 46.8115 60.4179L46.705 60.3951C46.6583 60.3853 46.6116 60.3733 46.5659 60.3592L46.5312 60.3505C46.4681 60.3353 46.4073 60.3168 46.3464 60.2951C46.2454 60.2668 46.1487 60.2299 46.0552 60.1853L46.0248 60.1734L46.0237 60.1756L45.965 60.1506C45.9183 60.131 45.8727 60.1104 45.8292 60.0875L45.8281 60.0886C45.7499 60.0517 45.6727 60.0115 45.5956 59.9724C45.4793 59.9169 45.3707 59.8507 45.2696 59.7735L45.25 59.7605L45.2468 59.7648L45.1924 59.7279C45.1457 59.6964 45.1012 59.6627 45.0577 59.6279L44.974 59.5616L44.9719 59.5649L44.8556 59.4703C44.7817 59.4149 44.7122 59.3541 44.6481 59.2878C43.2094 57.986 41.7294 56.3735 40.3396 54.9837C39.4779 54.122 39.0476 52.9822 39.0476 51.8401H39.04C39.04 50.7025 39.4736 49.5626 40.3396 48.6966L40.3407 48.6977ZM42.9171 51.274C42.7628 51.4283 42.6856 51.6337 42.6856 51.8412H42.678C42.678 52.0433 42.7573 52.2498 42.9171 52.4084L47.169 56.6593C47.2157 56.6995 47.2527 56.7266 47.3059 56.7592L47.4124 56.8114L47.495 56.8375L47.533 56.8473V56.8483C47.5895 56.856 47.6417 56.8625 47.6982 56.8668C47.8264 56.8603 47.8862 56.8516 48.0068 56.8103L48.0807 56.7788L48.1459 56.7397L48.21 56.6951L48.2621 56.6473L58.0427 46.8667L58.046 46.87C58.2025 46.7113 58.2807 46.5049 58.2807 46.2995H58.2731C58.2731 46.093 58.196 45.8866 58.0417 45.7323C57.8874 45.578 57.682 45.5008 57.4744 45.5008C57.268 45.5008 57.0615 45.578 56.9072 45.7323L48.9967 53.6428C48.285 54.3546 47.131 54.3546 46.4203 53.6428L44.0493 51.2718C43.8907 51.1132 43.6842 51.0328 43.4821 51.0328V51.0404C43.2757 51.0404 43.0692 51.1175 42.9149 51.2718L42.9171 51.274Z" fill="#10AD9B"/>
</g>
<defs>
<clipPath id="clip0_3690_14065">
<rect width="100" height="100" fill="white"/>
</clipPath>
</defs>
</svg>
