<svg width="24" height="24" viewBox="0 0 24 24" fill="none" xmlns="http://www.w3.org/2000/svg">
<path d="M11.7618 18.7063L5.3142 23.529C4.86227 23.8505 4.3802 23.9966 3.92826 23.9966C3.62697 23.9966 3.32568 23.9382 3.05452 23.8213C2.78336 23.6751 2.54232 23.4997 2.36155 23.2659C2.12052 23.0029 2 22.6521 2 22.2429V2.07523C2 1.49066 2.24103 0.99377 2.63271 0.613799C2.99426 0.233828 3.53659 0 4.10904 0H20.891C21.4634 0 22.0057 0.233828 22.3673 0.613799C22.759 0.99377 23 1.49066 23 2.07523V22.2429C23 22.6521 22.8795 23.0029 22.6385 23.2659C22.4577 23.4997 22.2166 23.6751 21.9455 23.8213C21.6743 23.9382 21.373 23.9966 21.0717 23.9966C20.6198 23.9966 20.1377 23.8505 19.6858 23.529L13.2382 18.7063C13.0574 18.5601 12.7862 18.5017 12.5151 18.5017C12.2138 18.5017 11.9426 18.5601 11.7618 18.7063ZM4.44046 22.4475L10.9182 17.6248C11.34 17.3033 11.9426 17.1279 12.5151 17.1279C13.0875 17.1279 13.66 17.3033 14.1119 17.6248L20.5595 22.4475C20.7102 22.5937 20.9211 22.6229 21.0717 22.6229C21.1621 22.6229 21.2826 22.6229 21.3429 22.5937C21.4333 22.5352 21.4935 22.506 21.5237 22.4475C21.5839 22.3891 21.5839 22.3306 21.5839 22.2429V2.07523C21.5839 1.87063 21.5237 1.69526 21.373 1.57834C21.2525 1.4322 21.0717 1.37374 20.891 1.37374H4.10904C3.92826 1.37374 3.74749 1.4322 3.62697 1.57834C3.47633 1.69526 3.41607 1.87063 3.41607 2.07523V22.2429C3.41607 22.3306 3.4462 22.3891 3.47633 22.4475C3.50646 22.506 3.56671 22.5352 3.6571 22.5937C3.74749 22.6229 3.83788 22.6229 3.92826 22.6229C4.10904 22.6229 4.28981 22.5937 4.44046 22.4475Z" fill="black"/>
</svg>
