<svg width="24" height="24" viewBox="0 0 24 24" fill="none" xmlns="http://www.w3.org/2000/svg">
<path d="M10.4778 1.2002C13.0397 1.2002 15.3592 2.23614 17.0381 3.91123C18.717 5.58632 19.7553 7.90056 19.7553 10.4566C19.7553 12.6646 18.9803 14.6923 17.6872 16.283L22.5064 21.0912C22.8981 21.482 22.8981 22.1157 22.5064 22.5071C22.1147 22.8979 21.4795 22.8979 21.0873 22.5071L16.2626 17.6934C14.6763 18.9572 12.6654 19.7131 10.4778 19.7131C7.91584 19.7131 5.59633 18.6772 3.91741 17.0021C2.2385 15.327 1.2002 13.0127 1.2002 10.4566C1.2002 7.90056 2.2385 5.58632 3.91741 3.91123C5.59633 2.23614 7.91584 1.2002 10.4778 1.2002ZM15.619 5.32709C14.3035 4.01453 12.4857 3.20256 10.4778 3.20256C8.46984 3.20256 6.65205 4.01453 5.3365 5.32709C4.02095 6.63965 3.20712 8.45379 3.20712 10.4566C3.20712 12.46 4.02095 14.2736 5.3365 15.5862C6.65205 16.8988 8.47034 17.7107 10.4778 17.7107C12.4857 17.7107 14.3035 16.8988 15.619 15.5862C16.9346 14.2736 17.7484 12.46 17.7484 10.4566C17.7484 8.45329 16.9346 6.63965 15.619 5.32709Z" fill="#06D1F3"/>
</svg>
