<svg width="24" height="24" viewBox="0 0 24 24" fill="none" xmlns="http://www.w3.org/2000/svg">
<path d="M19.11 0C20.1886 0 21.144 0.426938 21.8528 1.12834C22.5617 1.82973 22.9931 2.80559 22.9931 3.84244C22.9931 4.90978 22.5617 5.88564 21.8528 6.58704C21.144 7.28844 20.1886 7.71537 19.11 7.71537C18.0314 7.71537 17.0452 7.28844 16.3364 6.58704C16.3055 6.55654 16.2747 6.49555 16.2131 6.46506L9.52552 10.582C9.71043 11.0089 9.80289 11.4968 9.80289 11.9848C9.80289 12.5032 9.71043 12.9911 9.52552 13.418L16.2439 17.5349C16.2747 17.5044 16.3055 17.4435 16.3364 17.413C17.0452 16.7116 18.0314 16.2846 19.11 16.2846C20.1886 16.2846 21.144 16.7116 21.8528 17.413C22.5617 18.1144 22.9931 19.0597 22.9931 20.1271C22.9931 21.1944 22.5617 22.1703 21.8528 22.8717C21.144 23.5731 20.1886 24 19.11 24C18.0314 24 17.0452 23.5731 16.3364 22.8717C15.6584 22.1703 15.1961 21.1944 15.1961 20.1271C15.1961 19.6086 15.3194 19.1207 15.5043 18.6633L8.8167 14.5464C8.78588 14.6074 8.72425 14.6684 8.66261 14.7294C7.95379 15.4307 6.9676 15.8577 5.88896 15.8577C4.84114 15.8577 3.85496 15.4307 3.14614 14.7294C2.43732 14.028 2.00586 13.0521 2.00586 11.9848C2.00586 10.9479 2.43732 9.97205 3.14614 9.27065C3.85496 8.56925 4.84114 8.14231 5.88896 8.14231C6.9676 8.14231 7.95379 8.56925 8.66261 9.27065C8.72425 9.33164 8.75506 9.39263 8.8167 9.45362L15.5043 5.33672C15.3194 4.87929 15.1961 4.39136 15.1961 3.84244C15.1961 2.80559 15.6584 1.82973 16.3364 1.12834C17.0452 0.426938 18.0314 0 19.11 0ZM7.70724 10.216C7.24497 9.75858 6.59778 9.45362 5.88896 9.45362C5.21096 9.45362 4.56378 9.75858 4.1015 10.216C3.63923 10.6734 3.36186 11.3138 3.36186 11.9848C3.36186 12.6861 3.63923 13.3266 4.1015 13.784C4.56378 14.2414 5.21096 14.5159 5.88896 14.5159C6.59778 14.5159 7.24497 14.2414 7.70724 13.784C8.16952 13.3266 8.44688 12.6861 8.44688 11.9848C8.44688 11.3138 8.16952 10.6734 7.70724 10.216ZM20.8975 18.3583C20.4352 17.9009 19.8188 17.5959 19.11 17.5959C18.4012 17.5959 17.754 17.9009 17.2917 18.3583C16.8295 18.8158 16.5521 19.4257 16.5521 20.1271C16.5521 20.8285 16.8295 21.4689 17.2917 21.9263C17.754 22.3837 18.4012 22.6582 19.11 22.6582C19.8188 22.6582 20.4352 22.3837 20.8975 21.9263C21.3597 21.4689 21.6679 20.8285 21.6679 20.1271C21.6679 19.4257 21.3597 18.8158 20.8975 18.3583ZM20.8975 2.0737C20.4352 1.61626 19.8188 1.3418 19.11 1.3418C18.4012 1.3418 17.754 1.61626 17.2917 2.0737C16.8295 2.53113 16.5521 3.17154 16.5521 3.84244C16.5521 4.54384 16.8295 5.18424 17.2917 5.64168C17.754 6.09911 18.4012 6.37357 19.11 6.37357C19.8188 6.37357 20.4352 6.09911 20.8975 5.64168C21.3597 5.18424 21.6679 4.54384 21.6679 3.84244C21.6679 3.17154 21.3597 2.53113 20.8975 2.0737Z" fill="black"/>
</svg>
