<svg width="77" height="77" viewBox="0 0 77 77" fill="none" xmlns="http://www.w3.org/2000/svg">
<path d="M38.5386 0C59.7773 0 77 17.2227 77 38.5386C77 59.7773 59.7773 77 38.5386 77C27.8806 77 18.2267 72.7523 11.2758 65.7242C4.32498 58.7733 0 49.1194 0 38.5386C0 27.8806 4.32498 18.2267 11.2758 11.2758C18.2267 4.32498 27.8806 0 38.5386 0ZM18.7673 29.5025H58.2327C59.3912 29.5025 60.4724 29.9659 61.1675 30.7382C61.9398 31.5105 62.4032 32.5145 62.4032 33.673V43.327C62.4032 44.4855 61.9398 45.5667 61.1675 46.2618C60.4724 47.0341 59.3912 47.4975 58.2327 47.4975H18.7673C17.6088 47.4975 16.6048 47.0341 15.8325 46.2618C15.0602 45.5667 14.5968 44.4855 14.5968 43.327V33.673C14.5968 32.5145 15.0602 31.5105 15.8325 30.7382C16.6048 29.9659 17.6088 29.5025 18.7673 29.5025ZM58.2327 32.669H18.7673C18.5356 32.669 18.2267 32.8235 18.0722 32.9779C17.9178 33.1324 17.7633 33.4413 17.7633 33.673V43.327C17.7633 43.6359 17.9178 43.8676 18.0722 44.0221C18.2267 44.2538 18.5356 44.331 18.7673 44.331H58.2327C58.5416 44.331 58.7733 44.2538 58.9278 44.0221C59.1595 43.8676 59.2367 43.6359 59.2367 43.327V33.673C59.2367 33.4413 59.1595 33.1324 58.9278 32.9779C58.7733 32.8235 58.5416 32.669 58.2327 32.669ZM73.8335 38.5386C73.8335 18.999 58.0782 3.1665 38.5386 3.1665C28.7302 3.1665 19.9258 7.10532 13.5155 13.5155C7.10532 19.9258 3.1665 28.7302 3.1665 38.5386C3.1665 48.2698 7.10532 57.1515 13.5155 63.4845C19.9258 69.8947 28.7302 73.8335 38.5386 73.8335C58.0782 73.8335 73.8335 58.0782 73.8335 38.5386Z" fill="white"/>
</svg>
