<svg width="182" height="182" viewBox="0 0 182 182" fill="none" xmlns="http://www.w3.org/2000/svg">
<path d="M31.7 108C31.7 92.75 40 84.1 52.95 80.25V78.25L48.45 79.75H27.5V72.75H54.95V84.3C44.4 88.6 40.2 95 40.2 108H31.7ZM74.4922 72.25C85.1422 72.25 91.4422 79.6 91.4422 90.35C91.4422 101.15 85.1422 108.5 74.4922 108.5C63.7922 108.5 57.4922 101.15 57.4922 90.35C57.4922 79.6 63.7922 72.25 74.4922 72.25ZM74.4922 79.25C68.8422 79.25 65.4922 83.1 65.4922 90.35C65.4922 92.1 65.6922 93.6 66.0422 94.95L79.4922 80.6C78.1422 79.7 76.4422 79.25 74.4922 79.25ZM74.4922 101.5C80.1422 101.5 83.4422 97.65 83.4422 90.35C83.4422 88.65 83.2422 87.1 82.8922 85.75L69.4422 100.1C70.8422 101.05 72.5422 101.5 74.4922 101.5ZM130.082 67.8L135.732 70L118.832 113.95L113.182 111.75L130.082 67.8ZM108.532 93.95C101.582 93.95 96.9316 88.7 96.9316 82.35C96.9316 76 101.582 70.75 108.532 70.75C115.482 70.75 120.132 76 120.132 82.35C120.132 88.7 115.482 93.95 108.532 93.95ZM108.532 87.95C111.832 87.95 114.132 85.4 114.132 82.35C114.132 79.3 111.832 76.75 108.532 76.75C105.232 76.75 102.932 79.3 102.932 82.35C102.932 85.4 105.232 87.95 108.532 87.95ZM140.232 111.5C133.282 111.5 128.632 106.25 128.632 99.9C128.632 93.55 133.282 88.3 140.232 88.3C147.182 88.3 151.832 93.55 151.832 99.9C151.832 106.25 147.182 111.5 140.232 111.5ZM140.232 105.5C143.532 105.5 145.832 102.95 145.832 99.9C145.832 96.85 143.532 94.3 140.232 94.3C136.932 94.3 134.632 96.85 134.632 99.9C134.632 102.95 136.932 105.5 140.232 105.5Z" fill="#06D7F9"/>
<g clip-path="url(#clip0_1602_836)">
<path d="M91.4233 0C115.972 0 138.828 10.1581 155.758 27.0884C171.842 43.1721 182 66.0279 182 91.4233C182 115.972 171.842 138.828 155.758 155.758C138.828 171.842 115.972 182 91.4233 182C66.0279 182 43.1721 171.842 27.0884 155.758C10.1581 138.828 0 115.972 0 91.4233C0 66.0279 10.1581 43.1721 27.0884 27.0884C43.1721 10.1581 66.0279 0 91.4233 0ZM142.214 40.6326C128.67 27.0884 110.893 19.4698 91.4233 19.4698C71.107 19.4698 53.3302 27.0884 40.6326 40.6326C27.0884 53.3302 19.4698 71.107 19.4698 91.4233C19.4698 110.893 27.0884 128.67 40.6326 142.214C53.3302 154.912 71.107 163.377 91.4233 163.377C110.893 163.377 128.67 154.912 142.214 142.214C154.912 128.67 163.377 110.893 163.377 91.4233C163.377 71.107 154.912 53.3302 142.214 40.6326Z" fill="#06D7F9"/>
<path d="M91.4229 0C115.972 0 138.827 10.1581 155.758 27.0884C171.841 43.1721 182 66.0279 182 91.4233C182 99.8884 181.153 108.353 178.614 116.819L159.99 111.74C161.683 104.967 163.376 98.1953 163.376 91.4233C163.376 71.107 154.911 53.3302 142.214 40.6326C128.669 27.0884 110.893 19.4698 91.4229 19.4698V0Z" fill="#536276"/>
</g>
<defs>
<clipPath id="clip0_1602_836">
<rect width="182" height="182" fill="white"/>
</clipPath>
</defs>
</svg>
