<svg width="80" height="80" viewBox="0 0 80 80" fill="none" xmlns="http://www.w3.org/2000/svg">
<g clip-path="url(#clip0_5392_1470)">
<path d="M27.7375 52.2142L16.8855 41.3725C16.2938 40.7813 16.2727 39.8312 16.8116 39.2189C26.3321 27.5854 36.0112 17.1975 46.0917 10.0401C56.3519 2.7559 67.0137 -1.18176 78.3305 0.317293C79.0702 0.412304 79.6197 1.00348 79.6936 1.71078C81.173 13.0065 77.2422 23.6477 69.9512 33.8772C62.7764 43.9589 52.3577 53.6288 40.7027 63.1616C40.0687 63.6788 39.1495 63.6261 38.5789 63.056L27.7269 52.2142H27.7375ZM20.1401 40.1479L39.8151 59.8045C50.8467 50.7152 60.642 41.5202 67.3835 32.0509C73.9665 22.8031 77.6437 13.281 76.7033 3.30485C66.7178 2.3653 57.1867 6.03905 47.9303 12.6159C38.4415 19.3511 29.2379 29.1478 20.1506 40.1584L20.1401 40.1479Z" fill="white"/>
<path d="M33.8871 20.829C34.7536 20.8396 35.451 21.5575 35.4404 22.4231C35.4298 23.2888 34.7113 23.9855 33.8448 23.975C28.6249 23.9011 23.7748 24.7034 19.3474 26.4769C15.8182 27.8915 12.5425 29.929 9.54158 32.642L21.6192 34.5C22.4857 34.6267 23.0774 35.429 22.9506 36.2947C22.8238 37.1603 22.0208 37.7515 21.1543 37.6248L5.95949 35.2812C5.65306 35.239 5.35719 35.1018 5.11416 34.8695C4.48016 34.2678 4.44846 33.2754 5.05076 32.642C8.96042 28.4932 13.3561 25.4951 18.1957 23.5527C23.014 21.6208 28.2657 20.7446 33.9082 20.829H33.8871Z" fill="white"/>
<path d="M55.9932 46.1019C55.9827 45.2362 56.6801 44.5184 57.5465 44.5078C58.413 44.4973 59.1315 45.194 59.1421 46.0597C59.2266 51.6969 58.3496 56.9331 56.4159 61.7575C54.4716 66.5925 51.4707 70.9841 47.318 74.8795C46.684 75.4813 45.6802 75.4496 45.0885 74.8162C44.856 74.5734 44.7186 74.2778 44.6764 73.9717L42.3306 58.7911C42.2038 57.9254 42.7955 57.1231 43.662 56.9964C44.5284 56.8698 45.3315 57.4609 45.4583 58.3266L47.318 70.3929C50.0231 67.3948 52.0624 64.1222 53.4889 60.5963C55.2641 56.173 56.0778 51.3275 55.9932 46.1124V46.1019Z" fill="white"/>
<path d="M63.2623 16.8702C64.9213 18.5276 65.7561 20.7128 65.7561 22.8875C65.7561 25.0622 64.9213 27.2474 63.2623 28.9049C61.6034 30.5623 59.4161 31.3962 57.2394 31.3962C55.0626 31.3962 52.8753 30.5623 51.2164 28.9049C49.5574 27.2474 48.7227 25.0622 48.7227 22.8875C48.7227 20.7128 49.5574 18.5276 51.2164 16.8702C52.8753 15.2128 55.0626 14.3788 57.2394 14.3788C59.4161 14.3788 61.6034 15.2128 63.2623 16.8702ZM62.5967 22.8875C62.5967 21.5151 62.0789 20.1533 61.0328 19.1082C59.9867 18.0631 58.613 17.5458 57.2499 17.5458C55.8763 17.5458 54.5132 18.0631 53.4671 19.1082C52.421 20.1533 51.9032 21.5257 51.9032 22.8875C51.9032 24.2599 52.421 25.6217 53.4671 26.6668C54.5132 27.7119 55.8868 28.2292 57.2499 28.2292C58.6236 28.2292 59.9867 27.7119 61.0328 26.6668C62.0789 25.6217 62.5967 24.2493 62.5967 22.8875Z" fill="#06D7F9"/>
<path d="M23.4266 56.6586C25.3814 58.6116 26.3536 61.1663 26.3536 63.7105C26.3536 66.2652 25.3814 68.8199 23.4266 70.7624C21.3239 72.8632 11.7082 76.368 5.7909 78.5216C4.27987 79.0705 3.01187 79.535 2.15597 79.8729C1.34234 80.1896 0.423046 79.7884 0.106047 78.9755C-0.0418856 78.5955 -0.031319 78.1838 0.106047 77.8249C0.44418 76.9698 0.930245 75.5552 1.50084 73.8766C3.46624 68.1549 6.44603 59.4878 9.29902 56.6375C11.2538 54.6845 13.811 53.7133 16.3575 53.7133C18.9147 53.7133 21.4718 54.6845 23.416 56.6375L23.4266 56.6586ZM23.1836 63.7105C23.1836 61.9686 22.5179 60.2162 21.1865 58.8861C19.8551 57.5559 18.1116 56.8908 16.3575 56.8908C14.614 56.8908 12.86 57.5559 11.5286 58.8861C9.19335 61.2191 6.3615 69.4639 4.4912 74.9112L4.2059 75.7452L4.7131 75.5657C10.3768 73.4966 19.5698 70.1501 21.1865 68.5349C22.5179 67.2048 23.1836 65.4629 23.1836 63.7105Z" fill="#06D7F9"/>
</g>
<defs>
<clipPath id="clip0_5392_1470">
<rect width="80" height="80" fill="white"/>
</clipPath>
</defs>
</svg>
