<svg width="60" height="60" viewBox="0 0 60 60" fill="none" xmlns="http://www.w3.org/2000/svg">
<g clip-path="url(#clip0_5339_936)">
<path d="M13.6745 23.4832C13.0812 22.8899 13.0812 21.9234 13.6745 21.3205C14.2678 20.7272 15.2343 20.7272 15.8371 21.3205L29.4544 34.9378L57.2821 7.11002C57.8754 6.51671 58.8419 6.51671 59.4448 7.11002C60.0381 7.70332 60.0381 8.66982 59.4448 9.27269L30.5357 38.1818C29.9424 38.7751 28.9759 38.7751 28.373 38.1818L13.6745 23.4832Z" fill="#06D7F9"/>
<path d="M56.9378 30C56.9378 29.1579 57.6268 28.4689 58.4689 28.4689C59.311 28.4689 60 29.1579 60 30C60 38.2871 56.6411 45.7799 51.2153 51.2153C45.7895 56.6411 38.2871 60 30 60C21.7129 60 14.2201 56.6411 8.78469 51.2153C3.35885 45.7895 0 38.2871 0 30C0 21.7129 3.35885 14.2201 8.78469 8.78469C14.2105 3.35885 21.7129 0 30 0C30.8421 0 31.5311 0.688995 31.5311 1.5311C31.5311 2.37321 30.8421 3.0622 30 3.0622C22.5646 3.0622 15.8278 6.07655 10.9474 10.9569C6.07655 15.8278 3.05263 22.5646 3.05263 30.0096C3.05263 37.445 6.06699 44.1818 10.9474 49.0622C15.8182 53.933 22.555 56.9569 30 56.9569C37.4354 56.9569 44.1722 53.9426 49.0526 49.0622C53.9234 44.1914 56.9474 37.4545 56.9474 30.0096L56.9378 30Z" fill="black"/>
</g>
<defs>
<clipPath id="clip0_5339_936">
<rect width="60" height="60" fill="white"/>
</clipPath>
</defs>
</svg>
