<svg width="244" height="260" viewBox="0 0 244 260" fill="none" xmlns="http://www.w3.org/2000/svg">
<path d="M92.1 35.8008C86.18 42.8008 81.5 50.9408 78.46 60.0608C77.08 64.2008 76.72 73.0008 76.86 81.9408L63.16 129.461C62.16 132.941 64.16 136.581 67.64 137.581L79.72 141.061V166.001C79.72 175.581 87.48 183.341 97.06 183.341H122V201.741" stroke="#2EC971" stroke-width="3.29" stroke-linejoin="round"/>
<path d="M116.88 30.9395C139.74 39.1395 157.82 57.1995 165.54 81.7795C166.92 86.1795 167.28 95.5195 167.14 105.019L180.84 155.499C181.84 159.199 179.84 163.059 176.36 164.119L164.28 167.819V194.299C164.28 204.479 156.52 212.719 146.94 212.719H138.26" stroke="#06D4F6" stroke-width="5" stroke-miterlimit="10"/>
<path d="M121.98 252.08L36.42 233.78L33.72 176.1C17.34 160.32 7.06 137.56 7.06 112.22C7.06 64.6195 43.38 26.0195 88.18 26.0195C93 26.0195 97.72 26.3995 102.32 27.1595" stroke="#06D4F6" stroke-width="5" stroke-miterlimit="10"/>
<path d="M236.94 89.2206C236.94 44.1206 200.62 7.56055 155.82 7.56055C120 7.56055 89.2 27.9806 78.46 60.3806C77.08 64.5406 76.72 73.4005 76.86 82.4005L63.16 130.221C62.16 133.721 64.16 137.381 67.64 138.381L79.72 141.881V166.961C79.72 176.601 87.48 184.421 97.06 184.421H122V231.641L207.56 209.821L210.26 149.741C226.64 134.801 236.92 113.221 236.92 89.2206H236.94Z" stroke="#02DFAD" stroke-width="5" stroke-linejoin="round"/>
</svg>
