<svg width="100" height="100" viewBox="0 0 100 100" fill="none" xmlns="http://www.w3.org/2000/svg">
<g clip-path="url(#clip0_3690_14084)">
<path d="M85.7674 20.4999C85.1307 19.7256 85.2422 18.5812 86.0165 17.9445C86.7908 17.3078 87.9353 17.4193 88.572 18.1936C92.2031 22.5911 95.0971 27.6245 97.0641 33.1024C98.9647 38.3945 100 44.0844 100 50.0005C100 63.8076 94.4035 76.3073 85.3553 85.3554C76.3072 94.4035 63.8067 100 50.0004 100C48.3798 100 46.7363 99.917 45.0777 99.7541C43.3994 99.5896 41.7764 99.3507 40.2136 99.0399C39.2273 98.8477 38.5835 97.8915 38.7757 96.9044C38.9678 95.9181 39.9241 95.2743 40.9111 95.4665C42.4218 95.7663 43.9261 95.9917 45.4194 96.138C46.8865 96.282 48.4146 96.3555 50.0012 96.3555C62.8022 96.3555 74.3916 91.1671 82.7801 82.7786C91.1686 74.3901 96.357 62.8007 96.357 49.9997C96.357 44.4846 95.4016 39.2076 93.6489 34.326C91.8266 29.2507 89.1407 24.5827 85.769 20.4991L85.7674 20.4999ZM34.144 33.6229C33.8886 32.6516 34.4683 31.6574 35.4396 31.402C36.4108 31.1465 37.405 31.7262 37.6605 32.6975C38.4719 35.7868 38.986 38.9205 39.2304 42.0913C39.3095 43.1131 39.3601 44.139 39.3847 45.1687C40.8162 43.0783 42.3902 41.1493 44.0922 39.3903C43.9728 35.1327 43.1392 31.5704 41.547 28.7461C40.1297 26.2325 38.0812 24.2876 35.3684 22.9431C30.9503 28.145 28.3877 33.543 28.1291 39.1838C27.8863 44.4775 29.6627 50.0732 33.8229 56.0265C34.3552 54.5815 34.9405 53.1847 35.5756 51.8362C35.555 51.7009 35.5495 51.5609 35.5606 51.4178C35.8081 48.3538 35.8303 45.3332 35.6009 42.361C35.3723 39.3958 34.8946 36.4805 34.1448 33.6221L34.144 33.6229ZM32.4467 60.2824C26.6516 52.8454 24.1887 45.7817 24.498 39.0272C24.8151 32.1138 28.0255 25.6393 33.5319 19.5144C34.0586 18.9292 34.878 18.7654 35.5677 19.0446C39.6607 20.7079 42.6931 23.3678 44.721 26.9665C46.1921 29.5765 47.1143 32.669 47.5106 36.2226C55.6855 29.4476 66.1059 26.0427 77.4493 26.5774C78.3019 26.6177 78.99 27.2394 79.1466 28.0413C81.0836 36.558 80.9515 44.5368 79.1086 51.4297C77.5157 57.3869 74.6439 62.5413 70.7209 66.5481C66.7821 70.5707 61.793 73.4196 55.9829 74.746C50.4655 76.0059 44.2251 75.8841 37.4675 74.0777C37.4176 74.0642 37.3686 74.0492 37.3212 74.0318C34.2097 75.881 30.9005 77.5466 27.3927 79.0272C26.4689 79.4164 25.4044 78.9829 25.0152 78.0592C24.6261 77.1354 25.0595 76.0708 25.9833 75.6816C33.3484 72.5717 39.7888 68.6132 45.3197 63.8202C50.8364 59.0399 55.4538 53.422 59.1846 46.9799C59.6876 46.1115 60.7996 45.8149 61.6688 46.3179C62.5373 46.821 62.8339 47.933 62.3308 48.8022C58.3992 55.5899 53.5263 61.5171 47.6972 66.5679C45.769 68.2383 43.7371 69.8122 41.6 71.2881C46.5362 72.2142 51.0982 72.1344 55.1857 71.2011C60.2871 70.036 64.6696 67.5336 68.1299 63.9997C71.606 60.4501 74.1614 55.8438 75.5922 50.49C77.1938 44.498 77.3852 37.5814 75.8864 30.1634C65.8757 29.9989 56.7272 33.1894 49.5425 39.2629C42.2518 45.4266 36.9557 54.5736 34.795 66.2175C34.6138 67.2038 33.6679 67.8571 32.6808 67.6767C31.6945 67.4956 31.0412 66.5497 31.2216 65.5626C31.5585 63.7459 31.9682 61.9853 32.4451 60.2824H32.4467ZM74.8748 6.74899C75.9402 6.74899 76.8031 7.61267 76.8031 8.67725C76.8031 9.74262 75.9394 10.6055 74.8748 10.6055C73.8095 10.6055 72.9466 9.74183 72.9466 8.67725C72.9466 7.61188 73.8103 6.74899 74.8748 6.74899ZM24.9488 89.567C26.0142 89.567 26.8771 90.4307 26.8771 91.4953C26.8771 92.5607 26.0134 93.4236 24.9488 93.4236C23.8834 93.4236 23.0205 92.5599 23.0205 91.4953C23.0205 90.4299 23.8842 89.567 24.9488 89.567ZM14.4533 79.7604C15.0979 80.5308 14.9958 81.6784 14.2255 82.323C13.4551 82.9676 12.3075 82.8656 11.6629 82.0952C7.95982 77.6771 5.00573 72.6034 2.99601 67.0717C1.05746 61.7353 0 55.9854 0 50.0005C0 36.1934 5.59655 23.6937 14.6447 14.6455C23.6928 5.59741 36.1933 0.000854492 49.9996 0.000854492C51.6945 0.000854492 53.4037 0.0910194 55.1208 0.265813C56.8324 0.440606 58.5194 0.70161 60.1764 1.04408C61.1587 1.24418 61.793 2.20357 61.5929 3.18668C61.3928 4.169 60.4334 4.80332 59.4503 4.60322C57.9151 4.28606 56.3523 4.04404 54.7649 3.8819C53.2321 3.72609 51.6431 3.64542 49.9996 3.64542C37.1986 3.64542 25.6092 8.83385 17.2207 17.2224C8.83221 25.6109 3.64377 37.2002 3.64377 50.0013C3.64377 55.5717 4.62056 60.9033 6.41199 65.8339C8.27223 70.9543 11.0136 75.6579 14.4525 79.7612L14.4533 79.7604Z" fill="#53D3AA"/>
</g>
<defs>
<clipPath id="clip0_3690_14084">
<rect width="100" height="100" fill="white"/>
</clipPath>
</defs>
</svg>
