<svg width="103" height="100" viewBox="0 0 103 100" fill="none" xmlns="http://www.w3.org/2000/svg">
<g clip-path="url(#clip0_3690_14151)">
<path d="M59.7264 22.665C60.8263 22.9677 61.9083 23.3416 62.9545 23.7778C64.0097 24.214 65.038 24.7126 66.0306 25.2734L69.0709 22.2466C69.5806 21.7392 70.2512 21.481 70.9219 21.481C71.5925 21.481 72.2542 21.7392 72.7729 22.2466H72.7818L75.536 24.9885L84.0399 16.5224C82.6271 14.8132 81.7776 12.6232 81.7776 10.2374C81.7776 7.50433 82.8864 5.02948 84.6927 3.24011C86.49 1.45074 88.9759 0.337949 91.7211 0.337949C94.4664 0.337949 96.9523 1.44184 98.7496 3.24011C100.547 5.02948 101.665 7.50433 101.665 10.2374C101.665 12.9704 100.556 15.4452 98.7496 17.2346C96.9523 19.024 94.4664 20.1368 91.7211 20.1368C89.7449 20.1368 87.8939 19.5581 86.347 18.5699L77.7179 27.1607L79.9444 29.3774C80.4541 29.8848 80.7135 30.5525 80.7135 31.2202C80.7135 31.8878 80.4541 32.5555 79.9444 33.063L76.8952 36.0987C77.4496 37.0868 77.9504 38.1017 78.3885 39.1611C78.8267 40.2026 79.1933 41.2798 79.5063 42.3748H83.8074C84.5317 42.3748 85.1845 42.6686 85.6584 43.1404V43.1493C86.1323 43.6211 86.4274 44.271 86.4274 44.9832V48.6599H88.2606C88.5646 47.2266 89.28 45.9446 90.2815 44.9387C91.6317 43.5944 93.4917 42.7665 95.5483 42.7665C97.605 42.7665 99.4739 43.5944 100.815 44.9387C102.165 46.2829 102.997 48.1346 102.997 50.1822C102.997 52.2297 102.165 54.0903 100.815 55.4256C99.465 56.7699 97.605 57.5978 95.5483 57.5978C93.4917 57.5978 91.6228 56.7699 90.2815 55.4256C89.28 54.4286 88.5556 53.1466 88.2606 51.7045H86.4274V55.0428C86.4274 55.7639 86.1323 56.4138 85.6584 56.8856C85.1845 57.3574 84.5317 57.6512 83.8074 57.6512H79.5063C79.2022 58.7462 78.8267 59.8234 78.3885 60.865C77.9504 61.9154 77.4496 62.9392 76.8952 63.9274L79.9355 66.9542C80.4452 67.4616 80.7045 68.1293 80.7045 68.797C80.7045 69.4646 80.4452 70.1234 79.9355 70.6397V70.6486L77.539 73.0345L86.338 81.7944C87.885 80.7973 89.736 80.2276 91.7122 80.2276C94.4574 80.2276 96.9433 81.3314 98.7407 83.1297C100.538 84.9191 101.656 87.3939 101.656 90.127C101.656 92.86 100.547 95.3348 98.7407 97.1242C96.9433 98.9136 94.4574 100.026 91.7122 100.026C88.967 100.026 86.4811 98.9225 84.6837 97.1242C82.8864 95.3348 81.7686 92.86 81.7686 90.127C81.7686 87.7411 82.6181 85.5512 84.031 83.8419L75.3661 75.2155L72.7818 77.7883C72.2721 78.2957 71.6015 78.5539 70.9308 78.5539C70.2602 78.5539 69.5895 78.2957 69.0798 77.7883L66.0395 74.7615C65.0469 75.3135 64.0275 75.812 62.9634 76.2571C61.9172 76.6933 60.8352 77.0583 59.7354 77.3699V81.6519C59.7354 82.373 59.4403 83.0229 58.9663 83.4947C58.4924 83.9665 57.8396 84.2603 57.1153 84.2603H53.9588V85.3464C55.3984 85.6491 56.6861 86.3613 57.6966 87.3583C59.0468 88.7026 59.8784 90.5543 59.8784 92.6018C59.8784 94.6493 59.0468 96.5099 57.6966 97.8453C56.3463 99.1896 54.4864 100.017 52.4297 100.017C50.373 100.017 48.5041 99.1896 47.1628 97.8453C45.8125 96.501 44.9809 94.6493 44.9809 92.6018C44.9809 90.5543 45.8125 88.6937 47.1628 87.3583C48.1643 86.3613 49.452 85.6402 50.9006 85.3464V84.2603H47.0197C46.3044 84.2603 45.6516 83.9665 45.1777 83.4947H45.1687C44.6948 83.0229 44.3997 82.373 44.3997 81.6519V77.3699C43.2998 77.0672 42.2178 76.6933 41.1716 76.2571C40.1164 75.8209 39.0881 75.3224 38.0955 74.7615L35.0552 77.7883C34.5455 78.2957 33.8749 78.5539 33.2042 78.5539C32.5336 78.5539 31.8719 78.2957 31.3532 77.7883H31.3443L29.1177 75.5716L20.3008 84.3493C21.4812 85.9785 22.1697 87.9726 22.1697 90.127C22.1697 92.86 21.0609 95.3348 19.2546 97.1242C17.4572 98.9136 14.9713 100.026 12.2261 100.026C9.48091 100.026 6.99502 98.9225 5.19766 97.1242C3.4003 95.3348 2.28255 92.86 2.28255 90.127C2.28255 87.3939 3.39136 84.9191 5.19766 83.1297C6.99502 81.3403 9.48091 80.2276 12.2261 80.2276C14.4438 80.2276 16.4826 80.9487 18.1368 82.1683L26.9358 73.4084L24.1817 70.6664C23.672 70.159 23.4127 69.4913 23.4127 68.8237C23.4127 68.156 23.672 67.4883 24.1817 66.9809L27.2309 63.9452C26.6765 62.957 26.1758 61.9422 25.7287 60.8828C25.2905 59.8412 24.9239 58.7729 24.6109 57.669H20.3098C19.5944 57.669 18.9416 57.3752 18.4677 56.9034H18.4588C17.9848 56.4316 17.6897 55.7817 17.6897 55.0606V51.7223H14.7746C14.4706 53.1555 13.7552 54.4375 12.7537 55.4434C11.4035 56.7877 9.54351 57.6156 7.48683 57.6156C5.43015 57.6156 3.56126 56.7877 2.21995 55.4434C0.869699 54.0992 0.0380859 52.2475 0.0380859 50.2C0.0380859 48.1524 0.869699 46.2918 2.21995 44.9565C3.5702 43.6122 5.43015 42.7843 7.48683 42.7843C9.54351 42.7843 11.4124 43.6122 12.7537 44.9565C13.7552 45.9535 14.4795 47.2355 14.7746 48.6777H17.6897V45.001C17.6897 44.2888 17.9848 43.6389 18.4588 43.1671L18.4677 43.1582C18.9416 42.6864 19.5944 42.3926 20.3098 42.3926H24.6109C24.9149 41.2976 25.2905 40.2204 25.7287 39.1789C26.1668 38.1284 26.6676 37.1046 27.222 36.1165L24.1727 33.0808C23.663 32.5733 23.4037 31.9057 23.4037 31.238C23.4037 30.5703 23.663 29.9115 24.1727 29.3952V29.3863L26.757 26.8135L18.0742 18.1693C16.4289 19.3623 14.408 20.0655 12.2172 20.0655C9.47197 20.0655 6.98608 18.9616 5.18872 17.1634C3.39136 15.374 2.2736 12.8992 2.2736 10.1661C2.2736 7.43312 3.38242 4.95826 5.18872 3.16889C6.98608 1.37952 9.47197 0.26673 12.2172 0.26673C14.9624 0.26673 17.4483 1.37062 19.2457 3.16889C21.043 4.95826 22.1608 7.43312 22.1608 10.1661C22.1608 12.3472 21.4543 14.3591 20.2561 15.9972L28.9389 24.6413L31.3353 22.2555C31.845 21.7481 32.5157 21.4899 33.1863 21.4899C33.857 21.4899 34.5277 21.7481 35.0374 22.2555L38.0777 25.2823C39.0702 24.7304 40.0896 24.2318 41.1537 23.7867C42.2 23.3505 43.2819 22.9855 44.3818 22.6739V18.3919C44.3818 17.6797 44.6769 17.0298 45.1508 16.558L45.1598 16.5491C45.6337 16.0773 46.2865 15.7835 47.0018 15.7835H50.8827V14.6974C49.443 14.3947 48.1554 13.6826 47.1449 12.6855C45.7947 11.3412 44.9631 9.48956 44.9631 7.44202C44.9631 5.39448 45.7947 3.53389 47.1449 2.19854C48.4952 0.854285 50.3551 0.0263672 52.4118 0.0263672C54.4685 0.0263672 56.3374 0.854285 57.6787 2.19854C59.0289 3.54279 59.8605 5.39448 59.8605 7.44202C59.8605 9.48956 59.0289 11.3501 57.6787 12.6855C56.6772 13.6826 55.3895 14.4036 53.9409 14.6974V15.7835H57.0974C57.8217 15.7835 58.4745 16.0773 58.9484 16.5491V16.558C59.4224 17.0298 59.7175 17.6797 59.7175 18.3919V22.6739L59.7264 22.665ZM98.6423 47.0841C97.8465 46.2918 96.7555 45.8111 95.5483 45.8111C94.3412 45.8111 93.2413 46.3007 92.4544 47.0841C91.6585 47.8764 91.1757 48.9625 91.1757 50.1644C91.1757 51.3662 91.6675 52.4612 92.4544 53.2446C93.2502 54.0369 94.3412 54.5176 95.5483 54.5176C96.7555 54.5176 97.8554 54.028 98.6423 53.2446C99.4381 52.4523 99.921 51.3662 99.921 50.1644C99.921 48.9625 99.4292 47.8675 98.6423 47.0841ZM10.554 47.0841C9.75812 46.2918 8.66718 45.8111 7.46001 45.8111C6.25283 45.8111 5.15295 46.3007 4.36605 47.0841C3.5702 47.8764 3.08733 48.9625 3.08733 50.1644C3.08733 51.3662 3.57915 52.4612 4.36605 53.2446C5.16189 54.0369 6.25283 54.5176 7.46001 54.5176C8.66718 54.5176 9.76706 54.028 10.554 53.2446C11.3498 52.4523 11.8327 51.3662 11.8327 50.1644C11.8327 48.9625 11.3409 47.8675 10.554 47.0841ZM55.5058 89.4949C54.7099 88.7026 53.619 88.2219 52.4118 88.2219C51.2046 88.2219 50.1047 88.7115 49.3178 89.4949C48.522 90.2872 48.0391 91.3733 48.0391 92.5751C48.0391 93.7769 48.5309 94.8719 49.3178 95.6553C50.1137 96.4476 51.2046 96.9284 52.4118 96.9284C53.619 96.9284 54.7188 96.4387 55.5058 95.6553C56.3016 94.863 56.7845 93.7769 56.7845 92.5751C56.7845 91.3733 56.2927 90.2783 55.5058 89.4949ZM17.0548 85.2752C15.8119 84.0378 14.095 83.2722 12.1993 83.2722C10.3036 83.2722 8.58671 84.0378 7.34376 85.2752C6.10081 86.5126 5.33179 88.2219 5.33179 90.1092C5.33179 91.9965 6.10081 93.7057 7.34376 94.9431C8.58671 96.1806 10.3036 96.9462 12.1993 96.9462C14.095 96.9462 15.8119 96.1806 17.0548 94.9431C18.2978 93.7057 19.0668 91.9965 19.0668 90.1092C19.0668 88.2219 18.2978 86.5126 17.0548 85.2752ZM96.5588 85.2752C95.3159 84.0378 93.599 83.2722 91.7033 83.2722C89.8075 83.2722 88.0907 84.0378 86.8477 85.2752C85.6048 86.5126 84.8357 88.2219 84.8357 90.1092C84.8357 91.9965 85.6048 93.7057 86.8477 94.9431C88.0907 96.1806 89.8075 96.9462 91.7033 96.9462C93.599 96.9462 95.3159 96.1806 96.5588 94.9431C97.8018 93.7057 98.5708 91.9965 98.5708 90.1092C98.5708 88.2219 97.8018 86.5126 96.5588 85.2752ZM55.5058 4.344C54.7099 3.55169 53.619 3.07097 52.4118 3.07097C51.2046 3.07097 50.1047 3.5606 49.3178 4.344C48.522 5.13631 48.0391 6.2224 48.0391 7.42421C48.0391 8.62603 48.5309 9.72102 49.3178 10.5044C50.1137 11.2967 51.2046 11.7775 52.4118 11.7775C53.619 11.7775 54.7188 11.2878 55.5058 10.5044C56.3016 9.71211 56.7845 8.62603 56.7845 7.42421C56.7845 6.2224 56.2927 5.12741 55.5058 4.344ZM96.5588 5.40338C95.3159 4.16596 93.599 3.40035 91.7033 3.40035C89.8075 3.40035 88.0907 4.16596 86.8477 5.40338C85.6048 6.64081 84.8357 8.35006 84.8357 10.2374C84.8357 12.1246 85.6048 13.8339 86.8477 15.0713C88.0907 16.3087 89.8075 17.0744 91.7033 17.0744C93.599 17.0744 95.3159 16.3087 96.5588 15.0713C97.8018 13.8339 98.5708 12.1246 98.5708 10.2374C98.5708 8.35006 97.8018 6.64081 96.5588 5.40338ZM17.0548 5.31436C15.8119 4.07693 14.095 3.31133 12.1993 3.31133C10.3036 3.31133 8.58671 4.07693 7.34376 5.31436C6.10081 6.55178 5.33179 8.26103 5.33179 10.1483C5.33179 12.0356 6.10081 13.7449 7.34376 14.9823C8.58671 16.2197 10.3036 16.9853 12.1993 16.9853C14.095 16.9853 15.8119 16.2197 17.0548 14.9823C18.2978 13.7449 19.0668 12.0356 19.0668 10.1483C19.0668 8.26103 18.2978 6.55178 17.0548 5.31436ZM52.0452 27.045C58.4119 27.045 64.1796 29.6178 68.3555 33.7662C72.5315 37.9236 75.1068 43.6567 75.1068 50.0041C75.1068 56.3426 72.5225 62.0846 68.3555 66.242C64.1796 70.3994 58.4209 72.9632 52.0452 72.9632C45.6784 72.9632 39.9108 70.3905 35.7348 66.242C31.5589 62.0846 28.9836 56.3515 28.9836 50.0041C28.9836 43.6656 31.5678 37.9236 35.7348 33.7662C39.9108 29.6088 45.6695 27.045 52.0452 27.045ZM66.1826 35.9295C62.57 32.333 57.5714 30.0985 52.0452 30.0985C46.5279 30.0985 41.5293 32.3241 37.9078 35.9295C34.2952 39.5261 32.0507 44.5025 32.0507 50.0041C32.0507 55.4969 34.2862 60.4733 37.9078 64.0787C41.5204 67.6753 46.519 69.9097 52.0452 69.9097C57.5624 69.9097 62.5611 67.6842 66.1826 64.0787C69.7952 60.4822 72.0396 55.5058 72.0396 50.0041C72.0396 44.5114 69.8041 39.535 66.1826 35.9295ZM63.7593 44.2176V55.8708C63.7593 57.7759 65.6908 58.123 66.5224 57.1883C66.7281 56.9568 66.9248 56.4761 66.9248 56.0666V43.9327C66.9248 41.9831 63.7593 41.6181 63.7593 44.2176ZM37.1745 56.1645C37.1745 57.8204 39.6157 58.3723 40.2595 56.5651C40.4831 55.9331 40.7335 54.6422 41.109 54.6422H45.428C46.1613 54.6422 46.0629 57.6957 47.9229 57.6957C48.9959 57.6957 49.917 56.7254 49.3 55.2743L44.4981 43.8081C43.9794 42.6152 43.7738 42.4015 42.5487 42.4015C42.2447 42.4015 41.9406 42.6063 41.7618 42.7665C41.3326 43.1493 40.9391 44.6716 40.7066 45.3482C40.3132 46.5322 39.9197 47.6984 39.5084 48.9358C39.1865 49.8884 37.1656 55.6749 37.1656 56.1645H37.1745ZM43.0763 48.3572L43.7469 49.9507L44.4176 51.5442H43.0673H41.7171L42.3877 49.9507L43.0584 48.3572H43.0763ZM51.4818 45.4639V55.8797C51.4818 58.3456 54.6473 58.1765 54.6473 56.0666V51.5798H57.2405C60.9425 51.5798 62.8651 47.4046 61.2376 44.7339C59.7264 42.2502 57.786 42.3036 55.0408 42.3036C52.7963 42.3036 51.4908 42.9891 51.4908 45.455L51.4818 45.4639ZM54.8172 45.5618H57.2942C58.09 45.5618 58.7428 46.2117 58.7428 47.004C58.7428 47.7963 58.09 48.4462 57.2942 48.4462H54.7904C54.6831 48.4462 54.6026 48.3572 54.6026 48.2593V45.7844C54.6026 45.6687 54.701 45.5707 54.8172 45.5707V45.5618ZM61.7831 26.5999C60.5223 26.0835 59.2078 25.6562 57.8486 25.3446L56.6593 25.0687V18.837H47.4489V25.0687L46.2597 25.3446C44.9005 25.6562 43.586 26.0835 42.3251 26.5999C41.0375 27.134 39.8124 27.7661 38.641 28.4872L37.6037 29.1281L33.1774 24.7215L26.6586 31.2113L31.085 35.6179L30.4411 36.6506C29.7168 37.8168 29.0819 39.0364 28.5454 40.3184C28.0268 41.5736 27.5975 42.8822 27.2846 44.2354L27.0074 45.4194H20.7479V54.5888H27.0074L27.2846 55.7728C27.5975 57.126 28.0268 58.4346 28.5454 59.6899C29.0819 60.9718 29.7168 62.1914 30.4411 63.3576L31.085 64.3903L26.6586 68.797L33.1774 75.2868L37.6037 70.8801L38.641 71.5211C39.8124 72.2422 41.0375 72.8742 42.3251 73.4084C43.586 73.9247 44.9005 74.352 46.2597 74.6636L47.4489 74.9396V81.1712H56.6593V74.9396L57.8486 74.6636C59.2078 74.352 60.5223 73.9247 61.7831 73.4084C63.0707 72.8742 64.2958 72.2422 65.4672 71.5211L66.5045 70.8801L70.9308 75.2868L77.4496 68.797L73.0233 64.3903L73.6671 63.3576C74.3914 62.1914 75.0263 60.9718 75.5628 59.6899C76.0815 58.4346 76.5107 57.126 76.8237 55.7728L77.1009 54.5888H83.3603V45.4194H77.1009L76.8237 44.2354C76.5107 42.8822 76.0815 41.5736 75.5628 40.3184C75.0263 39.0364 74.3914 37.8168 73.6671 36.6506L73.0233 35.6179L77.4496 31.2113L70.9308 24.7215L66.5045 29.1281L65.4672 28.4872C64.2958 27.7661 63.0618 27.134 61.7831 26.5999Z" fill="white"/>
</g>
<defs>
<clipPath id="clip0_3690_14151">
<rect width="103" height="100" fill="white"/>
</clipPath>
</defs>
</svg>
