<svg width="103" height="100" viewBox="0 0 103 100" fill="none" xmlns="http://www.w3.org/2000/svg">
<path d="M23.9855 0.00585938H69.5829C71.7814 0.00585938 73.7778 0.906013 75.2158 2.33915C76.6656 3.78414 77.5568 5.77395 77.5568 7.95327V14.9768C78.9948 14.6334 80.4921 14.4438 82.037 14.4202C82.0607 14.4202 82.0845 14.4202 82.1201 14.4202H82.1677H82.3459C88.0501 14.4202 93.2076 16.7298 96.9509 20.4488C100.682 24.1679 103 29.3201 103 35.0052C103 40.6904 100.682 45.8308 96.9509 49.5617C93.2076 53.2807 88.0501 55.5903 82.3459 55.5903C80.706 55.5903 79.1017 55.4008 77.5687 55.0337V92.0347C77.5687 94.2259 76.6656 96.2157 75.2276 97.6488C73.7778 99.0938 71.7814 99.9821 69.5948 99.9821H23.9973C21.7989 99.9821 19.8024 99.082 18.3645 97.6488C16.9147 96.2038 16.0234 94.214 16.0234 92.0347V7.95327C16.0234 5.7621 16.9266 3.77229 18.3645 2.33915C19.8143 0.894169 21.8108 0.00585938 23.9973 0.00585938L23.9855 0.00585938ZM31.9831 54.2401C31.1632 54.2401 30.4858 53.5768 30.4858 52.7477C30.4858 51.9305 31.1513 51.2554 31.9831 51.2554H52.7438C53.5638 51.2554 54.2412 51.9187 54.2412 52.7477C54.2412 53.565 53.5757 54.2401 52.7438 54.2401H31.9831ZM31.9831 46.8138C31.1632 46.8138 30.4858 46.1506 30.4858 45.3215C30.4858 44.5042 31.1513 43.8291 31.9831 43.8291H52.7438C53.5638 43.8291 54.2412 44.4924 54.2412 45.3215C54.2412 46.1387 53.5757 46.8138 52.7438 46.8138H31.9831ZM24.4133 39.3876C23.5933 39.3876 22.9159 38.7243 22.9159 37.8952C22.9159 37.078 23.5814 36.4029 24.4133 36.4029H27.503C28.323 36.4029 29.0004 37.0661 29.0004 37.8952C29.0004 38.7125 28.3349 39.3876 27.503 39.3876H24.4133ZM31.9831 39.3876C31.1632 39.3876 30.4858 38.7243 30.4858 37.8952C30.4858 37.078 31.1513 36.4029 31.9831 36.4029H52.7438C53.5638 36.4029 54.2412 37.0661 54.2412 37.8952C54.2412 38.7125 53.5757 39.3876 52.7438 39.3876H31.9831ZM24.4133 31.9613C23.5933 31.9613 22.9159 31.298 22.9159 30.4689C22.9159 29.6517 23.5814 28.9766 24.4133 28.9766H27.503C28.323 28.9766 29.0004 29.6399 29.0004 30.4689C29.0004 31.2862 28.3349 31.9613 27.503 31.9613H24.4133ZM31.9831 31.9613C31.1632 31.9613 30.4858 31.298 30.4858 30.4689C30.4858 29.6517 31.1513 28.9766 31.9831 28.9766H52.7438C53.5638 28.9766 54.2412 29.6399 54.2412 30.4689C54.2412 31.2862 53.5757 31.9613 52.7438 31.9613H31.9831ZM24.4133 24.535C23.5933 24.535 22.9159 23.8718 22.9159 23.0427C22.9159 22.2254 23.5814 21.5503 24.4133 21.5503H27.503C28.323 21.5503 29.0004 22.2136 29.0004 23.0427C29.0004 23.8599 28.3349 24.535 27.503 24.535H24.4133ZM31.9831 24.535C31.1632 24.535 30.4858 23.8718 30.4858 23.0427C30.4858 22.2254 31.1513 21.5503 31.9831 21.5503H52.7438C53.5638 21.5503 54.2412 22.2136 54.2412 23.0427C54.2412 23.8599 53.5757 24.535 52.7438 24.535H31.9831ZM51.5079 77.4783L61.5615 66.4869C61.1099 65.7526 60.8603 64.888 60.8603 63.9641C60.8603 62.6139 61.407 61.4058 62.2864 60.5175C63.1658 59.641 64.3898 59.0962 65.7445 59.0962C67.0992 59.0962 68.3114 59.641 69.2026 60.5175C70.082 61.394 70.6287 62.6139 70.6287 63.9641C70.6287 65.3144 70.082 66.5225 69.2026 67.4108C68.3233 68.2872 67.0992 68.8321 65.7445 68.8321C65.0553 68.8321 64.4017 68.6899 63.7956 68.4294L53.9322 79.2075C54.5383 80.0129 54.8948 81.0197 54.8948 82.1093C54.8948 83.4596 54.3481 84.6677 53.4687 85.556C52.5893 86.4324 51.3653 86.9773 50.0106 86.9773C48.6559 86.9773 47.4437 86.4324 46.5525 85.556C45.6731 84.6795 45.1264 83.4596 45.1264 82.1093C45.1264 81.1736 45.3879 80.2972 45.8513 79.551L41.395 74.2567C40.7651 74.5528 40.064 74.7068 39.3272 74.7068C38.531 74.7068 37.7824 74.5173 37.1169 74.1856L32.0426 79.7287C32.4585 80.4393 32.6843 81.2684 32.6843 82.1449C32.6843 83.4951 32.1376 84.7032 31.2582 85.5915C30.3789 86.468 29.1548 87.0128 27.8001 87.0128C26.4454 87.0128 25.2332 86.468 24.342 85.5915C23.4626 84.715 22.9159 83.4951 22.9159 82.1449C22.9159 80.7946 23.4626 79.5865 24.342 78.6982C25.2214 77.8218 26.4454 77.2769 27.8001 77.2769C28.5369 77.2769 29.2261 77.4427 29.8441 77.727L34.9897 72.1129C34.6332 71.4378 34.4312 70.6679 34.4312 69.8507C34.4312 68.5004 34.9778 67.2923 35.8572 66.404C36.7366 65.5276 37.9606 64.9827 39.3153 64.9827C40.6701 64.9827 41.8822 65.5276 42.7735 66.404C43.6529 67.2805 44.1995 68.5004 44.1995 69.8507C44.1995 70.7271 43.9737 71.5444 43.5697 72.255L48.0973 77.6441C48.6796 77.3954 49.3213 77.2651 49.9987 77.2651C50.5216 77.2651 51.0207 77.348 51.4842 77.4901L51.5079 77.4783ZM37.8299 71.0232C37.8655 71.0469 37.9012 71.0825 37.9368 71.1061C38.0081 71.1772 38.0794 71.2483 38.1389 71.3312C38.4597 71.5918 38.8756 71.7457 39.3272 71.7457C39.8501 71.7457 40.3254 71.5325 40.6701 71.189C41.0147 70.8456 41.2286 70.3718 41.2286 69.8507C41.2286 69.3295 41.0147 68.8558 40.6701 68.5123C40.3254 68.1688 39.8501 67.9556 39.3272 67.9556C38.8043 67.9556 38.329 68.1688 37.9844 68.5123C37.6397 68.8558 37.4258 69.3295 37.4258 69.8507C37.4258 70.2889 37.5803 70.7034 37.8299 71.0232ZM67.0992 62.6376C66.7546 62.2941 66.2793 62.0809 65.7564 62.0809C65.2335 62.0809 64.7582 62.2941 64.4135 62.6376C64.0689 62.9811 63.855 63.4548 63.855 63.976C63.855 64.4971 64.0689 64.9709 64.4135 65.3144C64.7582 65.6578 65.2335 65.871 65.7564 65.871C66.2793 65.871 66.7546 65.6578 67.0992 65.3144C67.4439 64.9709 67.6578 64.4971 67.6578 63.976C67.6578 63.4548 67.4439 62.9811 67.0992 62.6376ZM51.3772 80.7828C51.0326 80.4393 50.5572 80.2261 50.0344 80.2261C49.5115 80.2261 49.0361 80.4393 48.6915 80.7828C48.3469 81.1263 48.133 81.6 48.133 82.1212C48.133 82.6423 48.3469 83.1161 48.6915 83.4596C49.0361 83.803 49.5115 84.0162 50.0344 84.0162C50.5572 84.0162 51.0326 83.803 51.3772 83.4596C51.7218 83.1161 51.9357 82.6423 51.9357 82.1212C51.9357 81.6 51.7218 81.1263 51.3772 80.7828ZM29.1667 80.8183C28.8221 80.4748 28.3468 80.2617 27.8239 80.2617C27.301 80.2617 26.8256 80.4748 26.481 80.8183C26.1364 81.1618 25.9225 81.6356 25.9225 82.1567C25.9225 82.6778 26.1364 83.1516 26.481 83.4951C26.8256 83.8386 27.301 84.0518 27.8239 84.0518C28.3468 84.0518 28.8221 83.8386 29.1667 83.4951C29.5113 83.1516 29.7253 82.6778 29.7253 82.1567C29.7253 81.6356 29.5113 81.15 29.1667 80.8065V80.8183ZM82.3459 45.3452C83.1659 45.3452 83.8433 46.0084 83.8433 46.8375C83.8433 47.6548 83.1778 48.3299 82.3459 48.3299C78.662 48.3299 75.3346 46.8375 72.9222 44.4332C70.5098 42.0288 69.0125 38.7125 69.0125 35.0408C69.0125 34.2235 69.678 33.5484 70.5098 33.5484C71.3298 33.5484 72.0072 34.2117 72.0072 35.0408C72.0072 37.8834 73.1599 40.4654 75.0375 42.3368C76.9151 44.2081 79.4939 45.357 82.3578 45.357L82.3459 45.3452ZM83.6175 17.4641V33.584H99.9575C99.6128 29.2964 97.7233 25.447 94.8356 22.5689C91.9241 19.6671 87.9907 17.7602 83.6175 17.4523V17.4641ZM99.9456 36.5568H80.6347V17.4996C76.4398 17.9023 72.6727 19.7619 69.8562 22.5808C66.6595 25.7668 64.675 30.1728 64.675 35.0289C64.675 39.8969 66.6477 44.291 69.8562 47.4771C73.0529 50.6632 77.4737 52.6411 82.3459 52.6411C87.2301 52.6411 91.6389 50.675 94.8356 47.4771C97.6996 44.6227 99.5772 40.8089 99.9456 36.5568ZM74.5859 15.9481V7.97696C74.5859 6.60304 74.0274 5.3594 73.1124 4.45925C72.2092 3.5591 70.9614 2.99058 69.5829 2.99058H23.9855C22.607 2.99058 21.3592 3.54725 20.456 4.45925C19.5529 5.3594 18.9825 6.60304 18.9825 7.97696V92.0584C18.9825 93.4323 19.541 94.6759 20.456 95.5761C21.3592 96.4763 22.607 97.0448 23.9855 97.0448H69.5829C70.9614 97.0448 72.2092 96.4881 73.1124 95.5761C74.0155 94.6759 74.5859 93.4323 74.5859 92.0584V54.1098C72.0072 53.0675 69.678 51.516 67.741 49.5854C64.0095 45.8545 61.6922 40.7141 61.6922 35.0289C61.6922 29.3438 64.0095 24.2034 67.741 20.4725C69.678 18.5419 72.0072 16.9903 74.5859 15.9481ZM39.0658 5.3594H54.5026C55.5602 5.3594 56.5347 5.78579 57.224 6.4846C57.9251 7.1834 58.3529 8.14277 58.3529 9.1969C58.3529 10.251 57.9251 11.2104 57.224 11.9092V11.921C56.5228 12.6199 55.5602 13.0462 54.5026 13.0462H39.0658C38.0081 13.0462 37.0337 12.6199 36.3444 11.921V11.9092C35.6433 11.2104 35.2155 10.251 35.2155 9.1969C35.2155 8.14277 35.6433 7.17155 36.3444 6.4846C37.0456 5.78579 38.0081 5.3594 39.0658 5.3594ZM54.5026 8.33228H39.0658C38.8281 8.33228 38.6023 8.42703 38.4478 8.59285C38.2933 8.74682 38.1864 8.97186 38.1864 9.20874C38.1864 9.44563 38.2815 9.67066 38.4478 9.82464C38.6023 9.97861 38.8281 10.0852 39.0658 10.0852H54.5026C54.7403 10.0852 54.9661 9.99046 55.1206 9.82464C55.275 9.67066 55.382 9.44563 55.382 9.20874C55.382 8.97186 55.2869 8.74682 55.1206 8.59285C54.9661 8.43888 54.7403 8.33228 54.5026 8.33228Z" fill="white"/>
</svg>
