<svg width="119" height="34" viewBox="0 0 119 34" fill="none" xmlns="http://www.w3.org/2000/svg">
<g clip-path="url(#clip0_3207_2397)">
<path d="M9.43555 25.7451V25.7967V33.6905H15.3681V25.7967V25.7451H9.43555Z" fill="white"/>
<path d="M93.559 8.87402C101.576 8.87402 106.44 14.2913 106.44 21.4112C106.44 28.5311 101.576 34 93.559 34C85.5421 34 80.625 28.5827 80.625 21.4112C80.625 14.3429 85.4886 8.87402 93.559 8.87402ZM93.559 29.1502C98.3158 29.1502 100.721 26.1578 100.721 21.4112C100.721 16.7162 98.3692 13.7238 93.559 13.7238C88.7488 13.7238 86.3438 16.7678 86.3438 21.4628C86.3438 26.1578 88.7488 29.1502 93.559 29.1502Z" fill="white"/>
<path d="M18.2001 9.23511L13.1227 24.5583H11.6797L6.60229 9.23511H0.830078L6.44195 25.9513H18.307L23.9724 9.23511H18.2001Z" fill="white"/>
<path d="M60.1556 33.7419C61.278 31.7814 63.309 30.6979 66.2485 30.6979C69.1881 30.6979 71.1656 31.833 72.288 33.7419H78.3274C76.6706 29.0469 72.3414 25.8481 66.1951 25.8481C59.9953 25.8481 55.7196 29.0469 54.0627 33.7419H60.1556Z" fill="#2ECC71"/>
<path d="M66.2485 0C74.2654 0 79.1291 5.4173 79.1291 12.5372C79.1291 19.6571 74.2654 25.1259 66.2485 25.1259C58.2315 25.1259 53.3145 19.7086 53.3145 12.5372C53.3145 5.4173 58.1781 0 66.2485 0ZM66.2485 20.2762C71.0052 20.2762 73.4103 17.2838 73.4103 12.5372C73.4103 7.84218 71.0587 4.84977 66.2485 4.84977C61.4383 4.84977 59.0867 7.84218 59.0867 12.5372C59.0867 17.2838 61.4918 20.2762 66.2485 20.2762Z" fill="white"/>
<path d="M113.869 24.5583L119 9.23511H113.281L108.15 24.5583H113.869Z" fill="#06D7F9"/>
<path d="M45.4052 9.23511L38.7244 32.2973H37.2813L30.6005 9.23511H24.668L31.7229 33.6387H37.0141H37.7089H38.3502H41.6639H44.3362L51.3912 9.23511H45.4052Z" fill="white"/>
</g>
<defs>
<clipPath id="clip0_3207_2397">
<rect width="118.17" height="34" fill="white" transform="translate(0.830078)"/>
</clipPath>
</defs>
</svg>
